<?xml version="1.0"?>
<svg xmlns:rdf="http://www.w3.org/1999/02/22-rdf-syntax-ns#" xmlns="http://www.w3.org/2000/svg" xmlns:cc="http://web.resource.org/cc/" xmlns:xlink="http://www.w3.org/1999/xlink" xmlns:dc="http://purl.org/dc/elements/1.1/" xmlns:svg="http://www.w3.org/2000/svg" id="Layer_1" style="enable-background:new 0 0 267.241 273.785" xml:space="preserve" viewBox="0 0 267.241 273.785" version="1.1" y="0px" x="0px">
<g clip-rule="evenodd" fill-rule="evenodd">
	<path d="m252 16.985c-0.358 0.282-0.282 0.998-0.96 0.96 0.03-0.611 0.35-0.931 0.96-0.96z"/>
	<path d="m196.32 19.385c-0.076-0.557 0.039-0.922 0.24-1.2 0.193 0.127 0.39 0.25 0.72 0.24-0.201 0.279-0.316 0.644-0.24 1.2-0.19-0.127-0.39-0.25-0.72-0.24z"/>
	<path d="m252.48 19.385c-0.42 2.375 1.152 5.582-1.2 6.24 0.314-1.017-0.252-1.421 0.72-1.68-0.797-0.328-0.328-1.164 0-1.68-1.023 0.217 0.198-1.662-0.72-1.92 0.03-0.69 0.3-1.14 1.2-0.96z"/>
	<path d="m195.84 24.425c0.499-1.772 0.417-2.64 0.479-4.8 1.06 0.223 0.96 4.752-0.48 4.8z"/>
	<path d="m261.84 27.545c1.082-0.022-0.105 0.725 0.239 1.44-0.53-0.03-0.1-1.018-0.24-1.44z"/>
	<path d="m202.08 30.425c-0.422 1.379-0.016 3.008-0.72 3.6-0.24-0.727-0.89-3.923 0.72-3.6z"/>
	<path d="m257.52 30.905c1.003 0.522 0.739 3.613 0.24 4.08 0.472 0.364 0.856 2.13-0.48 1.92-0.535-1.575 0.746-3.229-0.24-4.08 0.06-0.741 0.24-1.357 0.48-1.92z"/>
	<path d="m79.92 38.585c0.046 4.366-2.879 5.761-3.36 9.6 1.021 0.172 1.917-0.37 2.88-1.2 0.889-0.767 0.993-0.851 2.16-1.68 0.637-0.453 2.9-1.935 3.6-1.92 1.266 0.026 1.483 0.781 2.64 1.44 0.132 0.532-0.458 0.342-0.48 0.72 0.521 2.72-1.422 6.002-0.96 8.64 3.21-0.95 3.921-4.398 7.68-4.8 0.896 0.749 1.491 1.482 1.68 2.4 0.486 2.362-2.139 5.068-1.44 7.68 2.753-0.34 3.314-3.699 6.48-2.88 2.014 2.776 0.82 7.871 0.72 12.72-0.02 0.936 0.43 2.292-0.48 2.88-0.908-0.553-0.464-1.995-0.48-2.88-0.076-4.063 1.282-8.752-0.72-11.52-3.059-0.446-3.114 3.83-5.76 3.12-3.514-0.942 1.872-7.858 0-10.32-4.002 0.397-3.91 4.891-8.64 4.56-1.616-3.967 2.733-7.93 0-10.8-1.407 0.406-1.316 0.908-2.64 1.2-1.271 1.209-2.875 2.085-4.08 3.36-0.955-0.155-0.965 0.635-1.92 0.48-0.614 0.186-0.053 1.546-0.96 1.44 0.447-1.529-0.638-2.546 0-4.08 0.338-0.812 0.792-1.745 1.2-2.64 0.703-1.54 1.084-2.02 1.68-3.36 0.2-0.449 0.363-0.471 0.24-1.2-3.171 0.189-5.147 3.652-7.68 5.28-0.224 0.906-0.013 1.126-0.24 1.68-1.587-0.307-1.425 1.135-3.12 0.72-0.032-0.832 0.207-1.393 1.2-1.2 2.467-2.973 5.484-5.396 8.64-7.68 0.874-0.074 1.562 0.038 2.16 0.24z"/>
	<path d="m262.32 43.145c0.737-0.367 0.737 1.567 0 1.2v-1.2z"/>
	<path d="m64.08 44.585h0.72c0.121 0.919 0.133 3.569-0.96 4.56 0.178-1.526 0.196-2.53 0.24-4.56z"/>
	<path d="m262.8 44.585c-0.215 0.505-0.008 1.433-0.96 1.2-0.06-0.783 0.28-1.155 0.96-1.2z"/>
	<path d="m83.76 45.785h0.48v0.96h-0.48v-0.96z"/>
	<path d="m261.84 46.985h0.96c0.19 0.924-1.15 0.924-0.96 0z"/>
	<path d="m57.84 47.945c-0.383 0.177 0.055 1.175-0.72 0.96 0.101-0.459 0.087-1.033 0.72-0.96z"/>
	<path d="m83.28 49.145c0.328 0.736 0.341 3.214-0.72 3.36-0.518-1.224 0.853-2.356 0.72-3.36z"/>
	<path d="m57.12 49.625c0.366 0.004 0.526 1.778-0.24 1.44-0.032-0.591-0.036-1.156 0.24-1.44z"/>
	<path d="m258 50.345c-0.476 0.164 0.15 1.43-0.72 1.2-0.05-0.687-0.03-1.31 0.72-1.2z"/>
	<path d="m51.12 50.825c0.317 0.411-0.209 2.021 0 3.12-1.518-0.237 0.017-2.155 0-3.12z"/>
	<path d="m56.64 51.545h0.72c-0.43 3.675-0.789 8.737-1.44 13.92-2.037-0.688 0.661-4.91-0.24-6.72 0.55-0.09 0.32-0.96 0.72-1.2-0.71-1.958 0.65-3.577 0.24-6z"/>
	<path d="m93.36 61.385c0.214 0.106 0.429 0.21 0.48 0.48-0.187 1.747-0.872 3.374-1.2 5.04-0.345 1.752-0.158 3.572-0.48 5.28-0.099 0.527-0.632 1.164-0.72 1.68-0.162 0.948-0.02 1.825-0.24 2.88-0.193 0.93-0.624 1.783-0.72 2.64-0.156 1.385 0.343 3.021-1.2 3.84 0.828-7.415 2.139-14.547 4.08-21.84z"/>
	<path d="m256.08 61.385c0.8 0.381 0.206 2.418 0 2.64-1.02-0.152 0.06-1.896 0-2.64z"/>
	<path d="m98.4 63.305h0.72c-1.287 7.411-3.25 14.423-4.32 22.32-0.05 0.37 0.433 1.553-0.48 1.68-1.406-0.398-0.337-1.991-0.24-2.64 0.493-3.297 1.598-7.397 2.16-10.8 0.182-1.099 0.054-2.123 0.24-3.12 0.126-0.678 0.535-1.193 0.72-1.92 0.513-2.02 0.22-3.87 1.2-5.52z"/>
	<path d="m65.76 107.94c2.999-2.041 4.36-5.72 7.2-7.92 1.487-4.062 2.548-10.296 0.96-14.16-3.203-0.03-5.269 1.959-7.2 3.84-1.021 0.994-2.222 1.793-2.88 3.12-0.344 0.694-0.151 1.705-0.48 2.4-0.393 0.83-1.396 1.415-1.92 1.92-0.592 0.57-0.952 1.217-1.68 1.44-1.423-1.405 0.768-1.994 1.2-3.36 1.122-3.547-1.392-8.628-0.72-12.24 1.853-0.26 3.518 0.165 5.52 0 3.057-0.251 6.059-1.688 8.4-0.72 2.107 0.871 3.835 5.667 4.32 8.4 0.639 3.602 0.766 7.436 0.24 11.04-0.812 0.92-1.267 2.42-1.92 3.84-1.333 2.9-2.102 4.183-0.48 7.2 0.418 0.778 0.975 1.753 1.68 2.4-0.31 0.65-0.587 1.333-0.48 2.4-2.02 1.725-3.542 3.722-6 5.76-1.004 0.832-1.14 1.707-2.4 1.44-1.21-0.256-0.944-1.961-1.92-3.84-0.779-1.5-3.868-4.008-4.56-5.52-1.472-3.21-0.577-7.22 3.12-7.44z"/>
	<path d="m179.28 87.545h0.72c0.435 3.104-0.92 6.871-2.399 8.88-0.391 0.53-1.211 0.897-1.681 1.44-0.602 0.696-0.922 1.629-1.439 2.16-0.521 0.534-1.359 0.701-1.92 1.2-1.684 1.498-2.791 3.811-4.8 4.8-1.806-0.045-3.101 0.42-5.04 0.24-0.941-0.899-2.474-1.207-2.641-2.88 1.986-0.126 2.476 1.273 4.08 1.44 4.571 0.474 7.111-4.346 7.44-8.88 0.252-1.383-0.812-0.328-0.72-1.2 0.479-0.96 1.357-1.522 2.64-1.68 1.98-1.781 4.54-2.979 5.76-5.515z"/>
	<path d="m155.52 87.785c-0.152 0.377 0.197 1.028 0 1.44-0.047 0.097-0.639-0.082-0.72 0-0.122 0.122 0.117 0.593 0 0.72-0.074 0.08-2.061 0.997-2.641 1.44-0.185 0.141-0.35 0.637-0.479 0.72-0.301 0.191-0.898 0.032-1.2 0.24-0.895 0.616-1.471 1.53-2.16 1.92-1.063 0.602-2.118 0.514-3.36 1.2-2.403 1.328-5.01 3.162-4.56 7.44 0.161 1.525 0.885 2.063 1.68 3.36 0.983 0.056 1.962 0.118 2.64 0.48 0.082 1.648-2.614 0.812-3.6 0.72-0.392-0.648-0.598-1.481-1.68-1.44-0.859-2.398-2.06-4.351-1.2-6.96 0.669-2.028 2.998-2.769 3.84-4.32 1.667-0.413 3.101-1.059 4.08-2.16 3.855-0.625 6.305-2.655 8.641-4.8 0.24 0.005 0.48 0.005 0.72 0.005z"/>
	<path d="m162.96 109.62c-1.076 1.35-2.624 1.353-3.84 2.4-0.471 0.406-1.316 1.419-1.68 1.92-0.154 0.212 0.141 0.737 0 0.96-0.107 0.17-0.734 0.68-0.96 0.96-1.246 1.547-2.646 3.722-3.84 5.76-1.571 2.68-3.19 4.773-5.76 6.72-1.491 1.129-2.468 1.963-5.041 2.16 0.202-1.479 1.911-1.449 2.88-2.16 1.161-1.239 2.345-2.456 3.84-3.36 2.818-7.262 6.146-14.013 13.92-16.32 0.279-0.039 0.427 0.053 0.479 0.24v0.72z"/>
	<path d="m75.36 227.7c-0.438 1.775-3.28 1.516-5.52 1.68-6.417 0.473-11.869 0.886-18.48 1.2-7.691 0.366-16.817 1.363-25.44 1.2 0.193-1.727 0.556-3.284 1.2-4.561 8.165-0.212 19.152 0.757 30 0.24 5.108-0.243 10.216-0.32 14.88-0.24 1.03 0.02 2.435-0.4 3.36 0.48z"/>
	<path d="m26.16 232.26c0.279-0.039 0.427 0.054 0.48 0.24 1.132 0.067 0.097 2.303 1.44 2.16-0.603 1.995 0.163 4.396 0.96 5.76-0.426 0.454-0.175 1.585-0.24 2.4 0.54 1.093 0.24 2.483 0.48 3.84 1.136 6.422 1.104 16.346 1.2 24 0.013 1.034 0.755 2.548-0.48 3.12-0.931-0.093-1.043-2.052-1.2-2.88-0.222-1.175-0.049-2.595-0.72-3.36-0.363-3.783-1.007-8.417-2.16-12.24-0.154-0.509-0.365-1.489-0.96-1.68 0.696-1.389-0.853-3.168-1.44-4.8-1.372-3.81-2.24-8.436-4.8-11.04 1.188-2.172 4.907-1.812 7.2-2.88 0.048-0.94-0.722-2.19 0.24-2.64z"/>
	<path d="m55.92 244.74c2.871 1.338 7.009 0.692 10.8 0.479 1.821-0.102 3.662-0.405 4.8 0.24 0.005 1.924-2.236 1.295-3.36 1.44-3.662 0.473-7.754 1.779-11.52 2.16 0.46 4.624-1.361 7.961-2.4 11.76-2.528 2.661-5.647 4.911-10.32 4.32-0.77-0.098-2.186-0.763-3.12-1.2-2.024-0.948-5.033-3.551-5.76-6-0.833-2.805-0.965-7.332-0.72-10.8 0.183-2.587 1.045-5.212 1.68-7.44 2.853-4.487 11.239-5.484 15.84-2.16 2.243 1.63 3.202 4.74 4.08 7.2zm-18.48-4.32c-3.17 8.408-1.623 21.886 10.32 19.681 0.723-0.747 1.734-0.576 2.4-0.96 0.405-0.233 0.398-0.702 0.96-1.2 0.373-0.331 1.158-0.403 1.44-0.721 4.289-4.824 2.022-15.131-2.16-18.96-2.373-0.429-4.991-1.887-7.92-0.96-2.321 0.4-3.508 1.94-5.04 3.12z"/>
	<path d="m202.8 158.1c-0.673 1.646-1.275 3.364-1.681 5.279-1.312 0.926-1.658 2.688-2.399 4.08-1.441 2.705-3.075 5.345-5.04 7.92-2.194 2.875-4.28 5.538-6.721 8.4-0.986 1.157-2.054 2.185-3.119 3.36-1.079 1.189-2.089 1.979-3.601 3.359-0.804 0.734-1.536 1.755-2.399 2.4-1.925 1.437-4.848 2.733-7.44 3.84-1.841 0.785-3.466 1.737-6.24 1.2-0.441-1.419 1.025-1.753 1.44-3.12 0.968-3.194 0.038-7.874-0.24-11.04-4.241 6.398-8.659 12.621-15.84 16.08-0.472 5.769-2.662 9.817-4.32 14.399 0.054 0.343 1.194-0.223 1.92 0 6.103 2.063 13.662 3.657 20.88 5.28 1.544 0.348 3.575 0.794 4.08 2.4-5.567-0.135-10.436-1.897-16.56-2.641-1.271-0.153-2.701-0.587-4.8-0.72-2.627-0.166-5.154 0.412-6.721-1.2-2.347 1.966-2.997 5.048-5.04 7.2-2.146 2.261-5.5 3.267-7.2 6-3.122 0.878-5.097 2.903-8.64 3.36-1.124 1.218-2.342 1.032-4.56 1.439-2.923 0.537-6.108 1.581-8.88 1.681-7.419 0.265-14.425-2.295-20.4-4.32-2.898-2.625-7.011-3.345-10.56-5.04-3.541-1.69-6.717-3.929-10.08-5.521-1.465-1.654-3.525-2.715-5.76-3.6-2.665-3.021-6.29-4.951-9.6-7.439-2.435-1.831-4.629-3.766-7.44-5.521-2.106-1.315-4.47-2.349-6.96-3.84-2.167-0.233-3.483-1.317-5.04-2.16-7.149-1.696-15.891-1.193-22.8 0.96-3.832 1.194-7.396 3.218-11.04 3.12 0.282-1.034 2.2-1.817 3.36-2.4 1.303-0.653 2.915-0.855 3.84-1.92 4.842-1.078 8.603-3.237 13.2-4.56 2.368-6.672 7.018-11.062 9.12-18 1.429-0.608 1.356-2.375 1.92-3.601 0.814-1.77 2.29-3.249 2.88-5.04 1.356-2.243 2.538-4.662 4.08-6.72 1.342 0.239 2.615 1.348 3.84 0.96 0.5-0.38 0.081-1.679 0.48-2.16 2.873-4.247 5.219-9.021 7.2-14.159-4.97-0.76-9.745-0.358-13.92-1.44-1.168-0.303-2.929-1.022-4.56-1.68-1.023-0.412-2.17-1.083-3.6-1.68-2.898-1.21-4.498-2.451-6.72-4.56-1.436-1.363-2.589-2.632-3.84-4.32-0.168-1.912-0.949-3.211-2.16-4.08-1.614-3.537-0.482-7.527-1.68-11.04 0.47-6.415 1.394-13.58 3.84-18.72 0.064-2.815 1.277-4.483 1.68-6.96-0.167-0.761 0.481-0.317 0.72-0.72 0.286-0.48 0.025-1.272 0.24-1.68 0.469-0.89 1.375-1.647 1.92-2.64 0.575-1.047 0.873-2.34 1.44-3.12 0.486-0.667 1.41-1.04 1.92-1.68 1.439-1.807 2.734-4.082 4.08-6.24 1.762-0.759 2.649-2.762 4.08-4.08 0.429-0.395 0.643-0.457 1.2-1.2 0.941-1.256 2.138-2.799 3.36-4.08 0.215-0.225 0.273-0.753 0.48-0.96 0.551-0.551 0.847-0.575 1.44-1.44 2.575-3.757 5.623-8.128 7.68-12.72 2.207-4.065 4.619-8.016 7.68-11.76h0.96c0.464-1.129 1.525-1.853 2.4-2.64 0.884-0.795 2.009-1.413 2.88-2.16 1.74-1.492 2.822-3.523 5.28-4.56 0.332-0.628 1.094-0.826 1.2-1.68 8.019-3.822 14.004-9.676 21.84-13.68 0.96-1.199 2.842-1.478 3.6-2.88 1.955-0.285 3.161-1.319 4.32-2.4 4.94-1.78 9.281-4.16 13.92-6.24 1.576-0.127 2.869-0.729 4.32-1.2 6.717-2.184 22.376-2.681 28.56-0.24 3.932 0.477 7.481 1.987 11.04 3.36 1.175 0.453 2.023 1.178 3.12 1.68 1.974 0.904 4.361 1.096 5.76 2.64h1.2c1.481 1.278 3.381 1.667 5.04 2.64 1.601 0.939 2.976 2.272 4.56 3.12 1.413 0.756 2.917 1.106 4.32 1.92 0.634 0.368 1.241 0.79 1.92 1.2 3.012 1.822 6.172 3.83 9.12 6-0.125-2.158-0.317-4.262-0.72-6.48-0.152-0.834-0.804-1.808-0.96-2.64-0.132-0.697 0.188-1.25 0-1.92-0.339-1.204-1.517-2.264-0.961-3.6 5.591 0.415 9.536 4.541 12.721 8.16 0.76 2.36 1.396 4.844 1.68 7.68 2.201-1.923 3.421-5.408 4.08-8.16 2.648 0.609 2.2 4.276 3.84 5.28 0.064 0.776 0.137 1.534 0.24 2.16 0.108 0.661-0.047 1.686 0.72 2.16-0.393 2.351-0.684 3.892-0.24 5.52-0.872 1.287-1.267 3.052-1.92 4.56 1.251-0.127 2.331-1.094 3.36-2.16 0.723-0.749 1.167-2.495 2.88-1.92 0.247 7.399-1.722 17.868-6.96 22.08 0.759 1.401 1.121 3.199 1.92 4.56 8.9-0.915 15.51-5.659 20.641-11.28 0.364-0.4 0.885-1.186 1.199-1.44 0.43-0.347 0.835-0.106 1.2-0.48 1.157-1.187 1.598-3.101 3.36-3.6 1.237-2.763 3.908-4.091 4.8-7.2 0.501-0.299 0.658-0.941 1.2-1.2 3.311-6.593 5.926-15.526 4.319-24.96 3.643-0.282 4.044 2.676 6.24 3.84 1.623 3.323 3.94 8.19 3.36 11.52 2.237-1.443 3.69-3.669 4.8-6.24 0.692 0.269 1.009 0.912 1.92 0.96 0.035 2.887 1.718 5.459 1.92 8.16 0.041 0.542-0.449 0.612-0.479 1.2-0.015 0.28 0.482 0.703 0.479 0.96-0.007 0.724-0.814 1.216 0 1.92-1.294 1.644-1.062 4.016-1.92 5.76-0.72 1.463-2.303 2.093-2.64 3.6 2.099 0.813 4.26-2.68 6-1.44 1.26-0.13-0.253 1.393 0.479 1.44 0.556 2.149-0.905 6.861-2.16 9.12-0.571 1.029-0.571 1.466-1.439 2.4-1.003 1.079-2.618 2.076-3.601 3.36-1.436 0.563-2.803 1.197-3.84 2.16 1.883 0.888 4.652-0.583 6.48 0.24-0.52 2.479-1.931 5.128-3.601 6.96-0.325 0.357-0.99 0.324-1.439 0.72-0.57 0.503-0.759 1.562-1.2 1.92-0.596 0.483-3.261 1.965-4.32 2.4-1.017 0.417-2.679 0.816-4.08 1.2-2.568 0.705-4.11 0.85-6.96 0.72 0.492 1.271 3.683 1.917 5.521 2.64-0.521 2.679-3.97 2.431-5.521 4.08-5.434 1.876-13.034 2.403-18.96 0.48-0.771 0.384 0.845 0.897 0 1.44-3.402 0.621-6.913 0.606-10.319 0-0.51-0.091-0.341-0.337-0.721-0.48-0.747-0.281-1.727-0.048-2.399-0.24-1.913-0.546-4.978-1.939-7.2 0.24 0.412 0.948 0.516 2.204 1.68 2.4 0.731 2.417 0.992 4.686 2.4 6.24 2.298 2.536 6.302 4.826 9.36 6.48-0.88 1.048-0.019 2.263-0.24 3.36-0.178 0.877-0.892 1.384-1.2 2.16-0.689 1.736-0.986 3.612-1.68 5.28-0.199 0.681-1.109 0.651-1.2 1.44 6.775 0.984 11.999 3.521 15.6 7.68 2.04 0.281 2.389 2.252 4.08 2.88 1.784 3.256 4.158 5.922 6.24 8.88 0.026 1.365 0.961 2.512 1.44 3.6 0.492 1.117 0.555 2.512 1.68 3.12-0.297 1.388 0.56 3.562 1.2 4.8 0.735 6.796 1.563 10.781 2.16 17.52 0.041 0.472-0.045 0.76 0.479 0.721-1.064 0.773-0.068 3.041-0.24 3.6-0.161 0.526-0.244 1.308 0.24 2.16-0.828 2.107-0.272 4.081-0.479 6.24-0.041 0.426-0.407 0.781-0.48 1.2-0.125 0.717 0.071 1.423 0 2.159-0.133 1.377-0.712 2.74-0.96 4.08-0.245 1.326-0.167 2.642-0.48 3.84-0.645 2.468-2.073 5.458-3.359 8.16-1.233 2.592-2.407 5.57-3.84 7.44-1.147 1.497-3.322 2.493-3.601 5.04-1.641 1.146-3.312 2.281-4.8 3.6-2.977 2.64-6.304 5.188-10.32 7.2-2.017 1.011-4.318 1.733-6.479 2.64-1.693 0.71-3.088 1.947-4.8 2.641-0.746 0.302-1.794 0.447-2.641 0.72-0.854 0.275-1.587 0.702-2.399 0.96-2.518 0.799-5.938 0.987-8.16 2.16-4.141 0.582-8.448 1.593-12.48 0.479-0.031-1.551 0.999-2.041 2.641-1.92 5.792-1.888 10.333-5.026 15.359-7.68 0.28-0.36 0.693-0.587 0.721-1.2 2.78-0.898 3.883-3.477 6.479-4.56 0.597-1.334 1.686-2.308 2.64-3.36 4.162-4.588 8.554-9.438 10.801-16.32-4.231 1.471-11.382 6.813-16.32 3.36-0.027-1.758 1.658-1.796 2.64-2.64 2.664-2.29 5.73-8.507 7.2-11.76 0.546-1.209 0.806-2.495 1.44-4.08 0.064-0.163 0.462-0.18 0.479-0.24 0.589-1.965 0.507-4.192 0.96-6.24-1.187 0.254-1.597 1.283-2.16 2.16-1.336 0.59-2.399 1.791-3.6 2.88-1.766 1.602-5.262 4.047-8.4 3.84-0.283-1.072 1.632-2.149 2.16-3.359 0.123-0.282 0.127-1.284 0.24-1.681 0.389-1.358 1.433-4.009 1.68-5.76 0.181-1.277-0.258-2.59 0.24-3.84-1.34 0.06 0.8-1.43-0.48-0.72zm-20.88-138.24c-0.68-0.041-1-0.44-1.68-0.48-1.87-2.017-4.638-2.538-6.96-3.84-2.294-1.287-4.28-3.499-7.2-3.84-1.141-1.099-2.622-1.858-4.56-2.16-1.442-1.757-4.815-1.584-6.24-3.36-8.53-3.093-18.512-6.003-29.04-4.8-1.764 0.201-3.381 0.246-5.52 0.48-2.785 0.304-5.069 1.536-7.2 2.4-2.198 0.891-4.079 1.651-5.76 2.4-0.583 0.26-1.327 0.48-1.92 0.72-8.393 3.391-15.66 8.264-22.56 12.72-1.32 0.853-2.148 1.396-3.12 2.16-3.538 2.783-7.665 4.957-11.28 7.2-0.67 1.71-2.54 2.11-3.84 3.12-1.52 1.181-2.968 2.92-4.56 4.32-2.697 2.372-4.644 4.515-6.72 6.96-0.692 0.815-1.361 1.688-2.16 2.4-0.24 1.04-0.347 2.213-0.72 3.12-0.041-0.359 0.086-0.886-0.24-0.96-2.67 3.65-3.728 8.913-6.96 12 0.182 3.993-0.626 7.811-0.96 11.76-0.33 3.903-0.059 7.896-0.24 11.76-0.075 1.611-0.599 3.235-0.72 4.8-1.016 13.119-0.312 26.189-0.72 39.36-0.167 5.401-0.266 11.03-0.72 15.6 1.468-0.108 1.929 0.791 3.6 0.48 0.814-3.237 0.154-6.505 0.48-9.6 0.214-2.031 0.844-3.929 0.96-6 0.052-0.924-0.125-1.945 0-2.88 0.06-0.451 0.449-0.943 0.48-1.44-0.001 0.02-0.472-0.211-0.48-0.24-0.041-0.144 0.215-1.515 0.24-1.92 0.331-5.477 1.138-12.408 1.44-17.04 0.081-1.245-0.161-2.478 0-3.6 0.054-0.377 0.457-0.778 0.48-1.2 0.041-0.747-0.267-1.669-0.24-2.4 0.185-4.98 1.162-11.366-0.24-17.28 0.549 0.05 0.405-0.264 0.48-0.72 0.402-2.454 0.146-5.353 0.48-8.16 0.63-5.299 0.919-10.456 1.92-14.64 0.205-0.858 0.055-2.125 0.96-2.64-0.511 4.698-1.439 9.842-1.44 15.12-0.176 0.497-1.153 1.239-0.24 1.44 0.94-0.893 1.373-2.246 2.4-3.12 1.117-0.952 2.895-0.871 3.84-2.16 1.431 0.263 3.92-0.364 5.76-0.48-0.423-1.997 0.617-3.423 0.96-5.52 0.154-0.937-0.104-1.924 0-2.88 0.106-0.979 0.567-1.954 0.72-2.88 0.264-1.6-0.118-3.657 1.2-4.32-0.844 5.077-1.476 10.365-2.16 15.6 1.706-0.134 3.965 0.285 5.28-0.24 0.231-4.166 1.663-9.85 1.92-13.68 1.006-0.514 0.29-3.334 1.68-4.08-1.141 6.657-1.916 11.696-2.88 17.76 1.755 0.155 3.099-0.069 5.28 0 0.756-3.474 1.158-6.46 1.44-9.6 1.037-0.803 0.324-3.356 1.44-4.08-0.07 4.619-1.422 8.676-1.92 13.44 1.74 0.34 3.835 0.325 5.28 0.96 0.801-2.173 0.078-5.285 1.92-6.96-0.524-0.035-0.515-0.605-0.48-1.2 0.876-1.124 0.234-3.766 1.68-4.32 0.22 3.107-1.107 5.396-1.68 8.4-0.289 1.517-0.738 3.781-0.48 5.04 0.134 0.65 1.48 1.921 1.68 2.4 0.135 0.323-0.272 0.298 0 0.72 0.42 0.652 1.124 1.104 1.44 1.68 0.403 0.734 0.108 1.608 0.96 2.16-0.15-2.307 1.388-3.672 0.72-5.76 0.756 0.777 0.18-0.625 0.72-0.72 0.173-0.733-0.246-0.875-0.24-1.44 0.716-0.405 0.693-1.547 0.72-2.64 1.047-1.189 0.828-4.112 1.2-5.28-0.095-0.575 1.093 0.133 0.72-0.72 0.467-1.046-0.781-1.329 0.48-1.92 0.231 4.979-2.395 10.368-2.4 15.12-0.707 0.493-0.475 1.925-0.96 2.64-0.275 0.755 0.377 0.583 0.48 0.96-2.347 2.065 0.713 4.365 0.96 6.72 0.831 0.436 2.066 2.53 0.96 3.36-1.014-0.186-1.28-1.12-1.44-2.16-2.846-2.274-3.308-6.933-5.04-10.32-0.259-0.613 1.033-0.84 0.24-1.2-1.692 0.568-1.686-2.632-2.88-3.36-4.615-0.666-11.256-0.667-16.8-0.24-2.021 0.156-5.197 0.75-6.48 1.2-3.481 1.22-5.456 3.958-6 7.92-0.111 0.807 0.278 1.516 0.24 2.16-0.02 0.334-0.396 0.419-0.48 0.72-0.406 1.46 0.083 2.524-0.24 3.84-0.296 0.777 0.776 0.184 0.48 0.96-0.564 2.304 0.591 4.582 0.96 6.72 0.078 0.452-0.128 1.001 0 1.44 0.178 0.608 0.827 1.078 0.96 1.68 0.066 0.302-0.396 0.459-0.24 0.96 0.613 1.973 1.741 3.681 2.16 5.76 0.357 1.77 0.057 3.393 0.48 5.28-1.012 2.895-2.042 6.707-2.64 9.12-0.469 1.89-0.303 3.998-0.72 5.76-0.152 0.645-0.478 0.813-0.48 1.44-0.003 1.149 0.37 2.77 0.72 3.84 0.704 2.154 2.448 4.305 3.6 6.48 1.299 2.453 2.504 4.732 3.6 6.72 2.642 0.76 6.252 1.49 9.36 1.2 1.22-0.114 3.395-0.35 4.32-0.96 1.354-0.894 1.606-3.222 2.16-4.8 0.638-1.819 1.19-3.391 2.4-4.56 0.349 0.131 1.24-0.28 1.2 0.24-0.274 2.334-1.537 4.214-2.16 6.24-0.272 0.885-0.048 2.036-0.48 2.88-1.28 2.498-4.599 3.062-6.72 5.04-1.128 3.273-3.129 5.671-3.6 9.6 0.84 0.337 0.064 1.769 0 2.64 0.759 1.66 0.315 3.676 0.96 5.521 0.125 0.355 0.675 0.863 0.96 1.44 0.291 0.589 0.397 1.366 0.72 1.92 0.402 0.689 1.409 1.463 1.68 1.92 0.207 0.349 0.07 0.959 0.24 1.199 2.579 3.669 6.61 5.948 11.28 6.721 6.515 1.077 10.928-1.287 15.12-3.36 1.723-0.852 3.432-1.535 4.56-2.399 1.263-0.969 2.084-2.119 3.36-2.881 2.761-1.646 6.214-3.392 9.84-3.84 5.841-0.722 11.349 1.435 16.32 0.721 2.81-0.404 4.322-2.317 7.2-2.881 3.178-6.182 3.951-14.768 7.2-20.879 0.01-3.75 2.256-5.264 2.88-8.4 3.069-3.17 5.291-7.189 8.64-10.08 6.239-4.801 15.27-6.811 17.28-15.84 3.368-5.008 7.431-10.344 12.96-13.2 1.787-0.923 4.14-2.301 6.479-1.44-0.827 1.532-2.743 1.165-4.08 1.68-0.835 0.322-1.944 1.09-2.88 1.68-1.824 1.15-2.762 1.979-3.84 3.36-0.894 1.146-0.955 1.318-1.439 2.64-0.155 0.421-0.395 0.846-0.48 1.2-0.159 0.661 0.129 1.641 0 2.4-0.05 0.295-0.473 0.533-0.479 1.2-0.036 3.282 1.142 5.633 2.88 7.92 1.95 0.492 2.392 1.835 4.08 2.16 2.721 0.524 5.187-0.35 6.72-1.2 0.499-0.277 0.848-1.033 1.439-1.44 0.665-0.457 1.588-0.521 2.16-0.96 0.461-0.353 0.809-1.08 1.2-1.44 2.017-1.855 5.301-4.704 8.64-2.64v1.68c-2.133 0.001-3.896 0.965-5.039 1.68-0.555 0.346-1.167 0.653-1.681 0.96-0.902 0.539-2.715 1.346-2.399 2.4 2.774-0.489 4.709-0.765 6.96-1.92 1.326-0.681 3.258-1.888 3.84-2.64 0.212-0.274 0.255-1.237 0.479-1.68 1.624-3.196 4.614-6.559 4.561-10.32-1.854-1.909-4.089-2.949-5.76-4.32-1.027-0.843-1.763-1.405-2.641-2.16-1.047-0.9-1.619-1.723-2.16-2.88-0.028-0.061-0.023-1.013 0-0.96-0.218-0.492-0.599-0.378-0.72-0.72-0.681-1.92-1.251-4.298-1.92-6-0.856-2.178-3.767-2.753-5.28-4.56-1.551 0.517-2.629 1.763-3.84 2.88-2.366 2.184-4.834 4.326-7.2 6.24-1.169 0.945-2.433 2.092-3.84 2.4-0.145-2.206 2.332-6.924-0.24-8.88-0.024 2.4 0.128 6.34-0.72 8.64-1.677 1.603-3.175 3.385-4.56 5.28-3.459 2.208-8.082 0.192-7.92-4.08-1.567 0.299-1.65 3.004-1.2 4.56 1.248 1.126 3.143 0.643 4.8 0.96-0.529 2.576-2.693 1.686-5.28 2.16-1.017 0.187-2.193 0.783-3.359 0.96-1.555 0.236-3.275-0.067-4.801 0.24-3.309 0.666-11.236 5.772-10.8 0.24 3.814 0.896 5.448-0.875 8.16-1.68 1.12-1.12 2.288-2.191 3.84-2.88 0.202-1.638 1.907-1.773 2.16-3.36 2.277-1.083 3.268-3.453 4.8-5.28-1.208-1.112-4.022-0.617-6.24-0.72-0.388 0.492-0.187 1.573-0.72 1.92-4.619 1.049-5.881-0.881-9.12-1.92-0.783 0.177-0.802 1.118-1.68 1.2-3.464-0.936-8.254-0.546-9.6-3.6 0.514-1.167 1.933-1.428 2.64-2.4 2.923-1 4.88-3.421 7.2-5.52 0.457-0.414 1.109-0.475 1.68-0.96 1.79-1.524 2.02-4.149 4.32-3.6 0.264 1.304-0.836 1.244-0.48 2.64 2.502-1.418 4.654-3.186 6.721-5.04 2.278-0.441 2.454-2.985 5.279-2.88 0.234 1.514-0.643 1.917-0.479 3.36 3.024-1.332 5.124-3.572 6.96-5.76 0.631-0.752 1.156-1.806 2.16-2.16 0.965 0.635 0.69 2.509 0.72 4.08 2.438-1.349 4.543-3.53 6-5.52 2.064-2.819 4.874-5.434 5.76-9.12 0.758-0.282 0.835-1.245 1.44-1.68-0.195-1.935 1.126-3.06 1.439-4.08 0.116-0.377-0.152-1.056 0-1.44 0.299-0.749 0.987-1.146 1.2-1.92 0.188-0.684-0.172-1.649 0-2.4 0.118-0.518 0.663-0.977 0.72-1.44 0.183-1.472-0.412-3.153 0.48-4.8-0.686-1.31 0.156-2.216-0.24-4.32-2.53-2.264-5.91-3.682-8.4-5.995zm9.6-3.12c-0.017-0.816-0.075-1.675 0.479-1.92-0.18 9.159 0.105 17.868-1.439 25.68-1.041 0.121-0.686 1.512-0.96 2.4-0.208 0.672-0.822 1.161-0.96 1.68-0.776 2.923-0.09 5.675-1.2 8.16-0.072 0.472 0.324 0.476 0.479 0.72-1.508 2.452-0.804 5.111-0.96 7.44-0.019 0.28-0.443 0.604-0.479 0.96-0.121 1.174 0.258 2.753 0 3.6-0.058 0.189-0.402 0.004-0.48 0.48-0.222 1.354-0.146 2.299-0.239 3.6 1.683 0.003 3.511 0.151 4.56-0.48-0.119-3.75 1.307-7.724 0.48-10.08 0.568-1.748 1.134-4.096 1.439-6.48 0.266-2.074 0.307-3.353 0.48-4.56 0.026-0.453 0.793-0.167 0.72-0.72-0.379-0.501-0.498-1.262-0.48-2.16 0.041-0.28 0.38-0.26 0.721-0.24-0.532-2.023-0.14-3.516 0.72-5.04-1.239-0.137 0.766-0.854-0.48-1.2 0.257-0.224 0.075-0.885 0.721-0.72-0.938-1.44 0.46-4.721-0.24-5.52 1.764-1.372-0.011-7.509 2.4-7.44-0.926 6.472-1.806 13.694-2.16 19.2-0.954 1.437-0.462 3.05-0.721 4.8-0.188 1.28-0.826 2.54-0.96 3.84-0.624 6.105-1.236 10.911-1.92 16.08 2.56-0.401 4.317-1.603 5.761-3.12-0.031-2.031 0.181-3.819 0.479-5.52-0.763-0.277-1.721-0.359-1.92-1.2 0.245-0.875 1.396-0.844 2.16-1.2 0.594-5.122 0.931-11.387 2.16-15.12-0.635-0.425 0.353-0.973-0.48-1.2 0.607-0.192 0.612-0.988 0.96-1.44-0.652-0.982 0.227-2.486 0.48-3.36-0.64-0.733-0.093-2.322 0.96-2.16-0.688 1.371 0.052 2.737-0.96 3.84 0.431-0.031 0.562 0.238 0.479 0.72-0.604 0.869-0.338 2.02-0.479 3.12-0.584 4.542-1.779 10.053-1.92 15.84 2.028-0.291 3.732-0.908 5.279-1.68 0.07-1.664 0.07-1.937 0-3.6 0.47-0.491 0.327-1.593 0.96-1.92-0.651-1.988 0.507-3.378 0.721-5.28 0.381-3.403-0.622-8.165 0.96-12-1.058-0.513-0.107-1.906 0-3.12 0.125-1.418-0.144-2.911 0-4.08 0.033-0.273 0.435-0.718 0.479-0.96 0.096-0.515-0.197-1.409 0-1.92 0.345-0.89 0.351 0.111 0-0.72-0.06-0.143 0.405-2.119-0.479-1.92-0.51 3.09-2.475 4.726-4.32 6.48-0.071 1.128 0.207 2.607-0.72 2.88-0.632-0.549 0.299-1.591 0-2.16-0.309-0.732-1.438-0.642-1.44-1.68 0.104-0.377 0.755-0.205 0.48-0.96-0.522-2.894-1.146-7.991-3.601-8.4 0.333 0.022 0.253 0.612-0.239 0.48 0.195-2.915-2.518-2.922-3.601-4.56-0.776-0.137-1.207 0.073-1.439 0.48-0.276-0.284-0.272-0.849-0.24-1.44-0.565 0.005-0.707-0.413-1.44-0.24 0.46 1.695 0.22 4.099 1.44 5.04zm57.84 2.16c-0.854-0.374-0.145 0.815-0.72 0.72 0.137 2.95-0.908 5.118-1.44 6.72-0.206 0.621-0.037 1.346-0.24 1.92-0.288 0.815-0.857 1.285-1.199 2.16-0.192 0.49-0.574 1.055-0.721 1.44-0.107 0.285 0.208 0.99 0 1.44-0.127 0.275-0.396-0.074-0.479 0.48-0.212 1.41 0 3.716 0 5.76 0 2.541 0.315 5.445 0.24 7.68-0.012 0.346-0.454 0.4-0.48 0.72-0.107 1.301 0.387 2.677 0.24 4.08-0.05 0.474-0.449 0.94-0.48 1.44-0.059 0.956 0.319 1.864 0.24 2.88-0.057 0.727-0.416 1.485-0.479 2.16-0.151 1.581 0.324 3.3 0.239 4.8-0.045 0.796-0.463 1.439-0.479 2.16-0.041 1.741 0.443 3.394-0.24 5.04 2.269-0.132 4.427-0.374 6-1.2 0.693-6.704 0.113-14.976 1.2-20.64-0.003-0.317-0.421-0.219-0.48-0.48 1.182-2.804-0.084-6.002 0.721-8.4 0.024-0.073 0.458 0.252 0.479 0.24-1.02-2.345 0.591-5.121-0.479-7.2 0.37-0.274 0.65-1.234 0.72-1.92 0.14-1.381-1.027-4.325 0.72-4.8 0.451 5.752-0.009 10.165 0 15.36-0.658 1.109-0.631 2.542-0.72 3.84-0.106 1.547-0.263 3.185-0.24 5.04 0.021 1.643 0.055 1.077-0.24 1.92-0.112 0.322-0.384 3.982-0.239 4.8 0.022 0.127 0.485 0.477 0.479 0.72-0.03 1.229-0.619 2.393-0.72 3.6-0.208 2.497 0.097 5.042-0.24 7.44 2.683-0.677 4.751-1.969 5.76-4.32v0.72c2.096-1.185 3.562-2.998 4.32-5.52-2.739 0.228-6.562 0.553-8.16-1.44 0.57-2.23 3.932-1.668 5.04-3.36 2.595-0.363 5.328-3.337 4.08-5.28 0.41-0.39 0.851-0.75 1.2-1.2-0.082 1.076-0.718 1.072 0 1.92 2.051-1.869 2.252-5.588 2.88-8.88-0.826-0.326-2.414 0.394-3.12 0.96-1.368-0.578-2.767 0.702-4.32 0.72-0.11 2.289 0.6 4.229-0.239 6 0.373-0.853-0.815-0.145-0.721-0.72 0.912-0.743-0.769-3 0.48-4.08-1.182-0.838-0.386-2.722-0.24-3.6 0.207-1.252-0.223-2.913 0.48-3.36 0.69 0.699 0.283 2.024 0.239 3.36 2.438-1.803 3.917-4.563 4.08-8.64-0.262 0.843 1.473 0.643 0.96-0.24-0.124-0.948-0.354 0.948-0.479 0-0.158-0.958 0.897-0.703 0.96-1.44-0.073-1.879-0.402-4.451-0.48-6.48-1.77-0.025-0.724-1.621-1.439-2.88-1.479 1.161-1.979 3.301-3.601 4.32 0.032 0.591 0.037 1.156-0.239 1.44-1.411-1.46-1.581 1.317-3.601 0.72 1.27-4.625-0.297-8.246-1.92-11.76-0.423-0.73-0.743 0.655-0.96 0 0.488-1.715-1.036-2.775-1.92-3.84 0.16 2.306-0.66 4.468 0 6.96zm-42 18.72c1.354-3.669 2.049-7.89 1.68-12-0.059-0.657-0.607-1.226-0.239-1.92-0.771 0.211-0.329-0.791-0.96-0.72 0.14 5.5-1.59 9.932-0.48 14.64zm30.72 5.28c-0.487 1.203 0.436 1.178 0.721 2.16-1.587 3.276-0.671 6.285-0.721 9.36-0.025 1.584-0.429 3.06-0.479 4.56-0.052 1.503 0.434 3.119 0.24 4.32-0.069 0.425-0.453 0.508-0.48 0.96-0.12 2.012 0.351 4.35-0.24 6 1.725-0.417 4.014 0.75 6 0-1.08-5.871 0.452-9.08-0.239-14.88 0.073-0.566 0.833-0.447 0.72-1.2-0.709-1.472-0.072-2.778 0-4.32 0.076-1.633-0.763-3.984 0.479-4.56-0.632 0.072-0.787-0.333-0.72-0.96-0.297-0.777 0.776-0.184 0.48-0.96-0.154-1.492-0.42-2.87 0.239-3.84-1-0.596 0.396-3.74-0.72-4.08-1.49 2.747-3.11 5.373-5.28 7.44zm-26.88-1.2c-0.049 0.492-0.432 0.935-0.479 1.44-0.12 1.257 0.633 3.072-0.48 4.08-0.449-3.721 0.643-5.485 0.48-8.64-2.12-0.119-2.626 1.375-4.32 1.68 0.233 4.518-1.114 10.207-1.68 15.36 2.387-0.893 3.249-3.311 5.04-4.8-0.026-1.031-0.49-1.767 0.239-2.4 0.554-0.073 0.267 0.693 0.721 0.72 1.09-2.498 2.312-6.382 2.64-9.6 0.141-1.38 0.25-2.912-0.24-3.84-2.29 1.281-1.65 3.271-1.92 6zm21.36 7.44c-0.346 0.888-0.223 2.463-0.24 3.36-0.06 3.094 0.094 5.908-0.72 9.12-0.073 0.75 0.693-0.61 0.72 0.24-2.368 5.498-0.657 11.718-2.16 17.04 2.156 0.156 3.79-0.211 5.76-0.24 0.685-5.602-0.442-9.781 0.961-15.12-0.796-1.444-0.139-4.039 0-5.28 0.088-0.795-0.27-1.78-0.24-2.64 0.056-1.636 0.505-3.226 0.479-4.32-0.063-2.759-0.249-4.848 0.24-6.96-0.053-0.187-0.201-0.279-0.479-0.24-1.02 2-3.6 3.193-4.32 5.04zm-45.84 0.48c-1.05 0.745-1.179 1.802-1.92 3.12-0.812 1.443-1.807 2.65-2.641 3.6-0.458 0.521-0.735 0.792-0.96 1.44-0.238 0.69 0.652 1.973-0.72 2.16 0.026-0.597 0.449-0.743 0-1.2-2.176 1.904-4.155 4.005-6.72 5.52 0.182 3.437-1.14 8.085-0.48 11.04-0.134 0.586-0.929 0.511-0.72 1.44 0.908 1.043 2.596 0.067 4.08 0.24-0.015-1.186-1.287-1.112-0.96-2.64 0.747-0.627 1.521 0.255 2.64 0 0.133-2.908 0.878-5.202 0.96-8.16 1.238-1.157-0.61-4.378 1.2-5.52 0.81 0.991-0.056 2.427-0.24 3.84-0.401 3.069-0.67 7.006-0.479 10.32 1.646-0.113 3.856 0.336 4.8-0.48-0.006-7.324 1.251-12.792 1.2-18.72 1.03-1.452 1.28-5.741 0.96-6.48v0.48zm44.16 0.48c-1.308 2.133-3.707 3.174-5.28 5.04 0.042 8.009-0.961 14.383-1.2 23.52 1.377 0.383 3.317 0.203 5.04 0.24 0.315-8.787 1.609-20.392 2.16-28.8h-0.72zm-10.32 8.16c-0.795 7.221-0.992 11.924-1.68 18.72 2.112-0.113 2.514 1.486 4.8 1.2 0.229-8.433 0.528-14.073 1.2-22.56-1.79 0.526-3.24 1.406-4.32 2.64zm-5.28 1.68c-0.62 2.335-0.516 5.579-1.439 8.16 0.103 0.457 0.517 0.603 0.479 1.2-1.176 2.022-0.064 6.104-1.439 8.4-1.212-0.535 0.055-1.56 0.239-2.16-0.667 0.297-0.667-0.776 0-0.48-0.799-1.338 0.225-2.699 0.24-4.08 0.013-1.071-0.512-2.027-0.479-3.12 0.014-0.484 0.443-0.514 0.479-0.72 0.072-0.418-0.283-0.791-0.24-1.2 0.17-1.612 0.853-3.205 0.721-5.04-1.982 0.578-4.113 1.007-6 1.68-0.354 3.169 0.745 6.898-0.96 8.16 0.123-2.34-0.161-5.328 0.479-8.16-1.659 0.101-3.299 0.221-4.32 0.96 0.09 2.25-0.069 4.25-0.72 5.76 0.293 0.027 0.568 0.072 0.48 0.48-0.269 1.679-1.009 3.525-0.48 5.28 0.257 0.897-0.596 0.684-0.479 1.44 1.391 0.689 3.081 1.079 4.8 1.44 0.212-1.207-0.284-2.207-0.24-3.12 0.016-0.319 0.417-0.217 0.48-0.48 0.206-0.858-0.57-2.178 0.72-2.16-0.201 2.234-0.766 4.555-0.48 6 1.465 0.615 3.297 0.863 5.04 1.2 0.491-0.31 0.254-1.347 0.96-1.44 0.251 0.68 0.251 1 0 1.68 2.262 0.132 5.32 0.692 6.721-0.24-0.487-1.119-1.153-0.1-1.681-0.48-0.099-0.513 0.196-2.041-0.72-3.12 1.304-2.527 0.983-5.405 1.68-7.68-0.774 0.215-0.337-0.783-0.72-0.96 0.418-0.002 0.405-0.104 0.48-0.48 0.437-2.203-0.034-4.836 0.479-7.92-1.81-0.048-2.38 1.138-4.08 1.2zm-16.8 4.56c0.229-1.172 1.885-0.938 1.2-2.4 1.062 0.103 1.52-0.4 1.68-1.2-1.022-0.018-1.679-0.402-2.88-0.24 0.04 1.412-1 2.857 0 3.84zm-161.04 4.32c0.312 1.6-0.31 3.203-0.48 4.8-0.391 3.663-0.262 7.25-0.48 10.8-0.125 2.031-0.613 3.977-0.72 6-0.088 1.658 0.146 3.715 0 5.76-0.208 2.909-0.656 6.777 0.24 7.68-1.393 6.272-0.605 14.402-1.2 21.6-0.444 5.372-0.616 11.269-0.72 16.8 1.618 0.622 3.178 1.301 5.52 1.2 0.772-10.113 0.866-20.859 0.72-29.04-0.107-6.008 0.061-11.637 0.24-17.52 0.218-7.16 0.675-16.525 1.2-23.52 0.279-3.714 1.063-7.784 1.2-11.28-0.014-0.146-0.036-0.284-0.24-0.24-1.658 2.427-3.302 4.864-5.28 6.965zm130.08-2.64c-2.634 0.246-2.815 2.944-5.76 2.88 0.331 1.8-0.901 4.041-0.24 6.48-0.96 0.551-0.608 2.006-1.2 3.36 1.65-0.285 3.252 0.741 4.561 0-0.978-0.463-1.963-0.918-2.16-2.16 0.647-0.473 2.097-0.143 3.12-0.24-0.157-2.066 0.745-4.746 0.72-7.44 0.282-0.038 0.681 0.042 0.72-0.24-0.567-0.584-0.124-2.192 0.48-2.4 0.203 3.713-1.104 7.327-0.96 10.56h1.439c0.132-0.349-0.28-1.24 0.24-1.2 1.077-0.577 2.101 0.706 3.36 0.72 0.139-4.633 0.889-7.235 1.199-11.76-0.679-0.041-1.646 0.207-1.68-0.48-0.49-1.108 1.264-2.065 0-2.4-1.19 1.527-2.61 2.834-3.84 4.32zm34.32-2.4c-0.054-0.187-0.201-0.279-0.48-0.24-1.031 1.809-3.132 2.346-3.84 4.32-0.741 2.065 0.214 4.623-0.96 6.96 1.632 0.368 2.835 1.164 4.56 1.44-0.05-5.28 1.14-8.496 0.72-12.48zm-51.36 8.16c-1.09 0.27-1.453 1.268-2.16 1.92-1.344 0.256-1.923 1.276-2.88 1.92-0.39 2.838-0.778 4.827-1.44 6.96h1.2c0.001-0.429-0.646-1.396 0-1.68h3.36c0.331-1.876-0.131-3.067 1.2-3.84 0.713 1.285-0.499 2.475-0.48 3.84 1.045 0.475 2.354 0.686 3.84 0.72 0.578-0.979-0.406-1.186-0.239-2.4 0.565 0.587 0.446-0.359 1.199-0.24-0.577-1.198 0.573-1.649 0.721-2.4-0.027 0.139-0.545-0.273-0.48-0.72 0.141-0.968 1.234-1.915 0.96-3.6 0.759 0.78 0.089-0.716 0.96-0.48-0.143 2.737-1.214 4.546-1.439 7.2 1.646-0.113 3.855 0.336 4.8-0.48 0.355-4.905 1.358-7.869 2.16-12.48-2.672 0.288-3.157 2.763-5.28 3.6 0.035 0.595 0.045 1.165-0.48 1.2-2.676 0.124-3.235 2.365-5.52 2.88-0.171 0.709-0.066 1.694-0.72 1.92 0.48-1.53 0.05-2.502 0.72-3.84zm43.44 1.44c0.738 0.062 1.08 0.521 1.681 0.72 0.646-0.879 1.109-3.205 0.479-4.56-0.33 1.675-1.83 2.173-2.16 3.84zm-162.96 3.36c-0.229 1.061 0.295 2.193 0.24 3.36-0.032 0.68-0.397 1.5-0.48 2.16-0.566 4.542-0.187 8.297-0.48 12.48-0.61 8.711-1.464 17.941-1.68 26.64-0.106 4.295 0.236 8.53 0 13.2-0.003 0.055-0.443 0.551-0.48 0.72-0.328 1.493 0.253 2.829 0 4.08 1.668 0.812 3.072 1.887 5.04 2.4 0.082-2.967-0.216-6.936 0-8.16 0.092-0.525 0.223-0.713 0.24-1.2 0.147-4.174 0.605-8.795 0.72-12.48 0.008-0.279-0.486-0.552-0.48-0.72 0.012-0.368 0.444-0.208 0.48-0.72 0.055-0.794-0.02-1.604 0-2.4 0.22-9.037 0.443-18.815 0.96-26.16 0.486-6.919 0.709-14.049 1.44-19.68-0.014-0.146-0.036-0.284-0.24-0.24-0.671 2.601-4.715 4.111-5.28 6.725zm154.56-2.64c1.38-0.14 1.946-1.094 3.36-1.2-0.45-1.23-2.056-1.305-3.12-1.92-0.36 1.35 0.12 1.891-0.24 3.12zm51.36 4.08c2.007-0.622 4.982-0.499 5.279-2.16 0.42-2.348-3.816-2.852-4.8-4.32-1.01 1.798-0.05 4.102-0.48 6.48zm6.72-2.64c-0.377-0.103-0.205-0.755-0.96-0.48-0.45 0.801 0.86 1.011 0.96 0.48zm-104.64 5.76c1.37 0.39 2.497 1.023 4.32 0.96-0.398-1.586 0.995-2.792 1.2-5.04-2.07 1.028-4.55 2.079-5.52 4.08zm-111.36 38.875c0.041-0.628-0.089-1.549 0-2.16 1.929-13.304 0.77-30.144 2.88-40.56h-0.72c-1.376 2.304-3.023 4.336-4.56 6.48 0.509 1.3 0.167 3.046 0 3.6-0.106 0.355 0.043 0.83 0 1.2-0.426 3.694-0.455 7.316-0.72 10.08-0.141 1.464-0.646 2.884-0.72 4.32-0.154 2.963-0.054 6.202-0.24 9.6-0.384 7.029 0.045 14.366 0 20.4-0.007 0.947-0.448 1.881-0.24 2.64 0.396 1.446 2.009 2.141 3.6 2.88 0.736-5.48 0.352-12.85 0.72-18.48zm143.28-37.195c0.313-1.681 0.101 1.745 0.479 0.72-0.17-0.89 0.41-1.03 0.24-1.92h-0.72c0.14 0.427-0.7 0.997 0 1.2zm-151.92 19.675c-0.811 2.085-0.475 5.02-0.48 7.68-0.002 1.181-0.604 2.427 0.24 3.36-0.895-0.095-0.101 1.499-0.72 1.68 0.812 4.686-0.019 8.733 0 14.4 1.152 2.047 2.411 3.989 4.32 5.28 0.107-8.106-0.083-17.65 0.24-24.48 0.082-1.735 0.649-3.374 0.72-5.04 0.044-1.044-0.258-2.139-0.24-3.12 0.107-5.894 1.067-11.481 1.68-17.04-0.053-0.187-0.201-0.279-0.48-0.24-1.895 5.541-6.298 10.616-5.28 17.52zm29.28-8.635c-0.157 0.977 0.306 1.86 0.24 2.88-0.03 0.462-0.431 1.038-0.48 1.44-0.352 2.869-0.001 5.997-0.24 9.12-0.176 2.3-0.308 4.676-0.48 6.96-0.167 2.218-0.61 4.24-0.72 6-0.076 1.217 0.3 2.388 0.24 3.6-0.055 1.113-0.685 2.343-0.72 2.88-0.224 3.442-0.388 7.342-0.96 11.28 0.843 1.494-0.054 4.296-0.48 6 1.656 0.136 3.785 0.698 5.28 0.24-0.206-1.918 0.165-3.845 0.24-5.76 0.087-2.217 0.081-4.771 0.24-6.72 0.095-1.159 0.699-2.132 0.48-3.12-0.308-1.389-1.323-2.362-1.68-3.36-0.901-2.52-0.948-5.893-0.48-8.64 0.353-2.066 1.195-4.152 1.68-6.24 0.468-2.013 1.303-4.249 1.44-6.48 0.168-2.735-0.937-5.622-1.44-7.44-0.448-1.621-1.099-3.605-1.92-4.56 0.258 1.019-0.112 1.129-0.24 1.925zm-31.44 11.995c-0.126 0.512-1.222 1.238-0.48 2.16-0.575 0.451-0.605 1.241-0.72 1.92-0.407 2.416-0.357 5.721-0.24 8.4 0.089 2.043 0.031 4.369 1.2 5.76-1.011 0.47-0.116 2.923 0.48 3.36-0.463-1.537 0.208-3.038 0.24-3.84 0.014-0.354 0.081-0.856 0-1.2-0.079-0.335-0.477-0.573-0.48-0.72-0.007-0.301 0.428-0.617 0.48-0.96 0.231-1.525-0.488-2.439-0.48-3.36-0.001 0.118 0.436-0.359 0.48-0.72 0.548-4.516-0.26-9.744 0-13.44-0.896 0.7-0.26 1.75-0.48 2.64zm156.96 4.32c-0.598-0.037-0.743 0.377-1.2 0.48-0.197 1.069-2.792 1.804-1.68 2.64 2.085-1.034 5.028-1.211 7.68-1.68-0.149-1.691-1.094-2.586-1.68-3.84 0.004-0.576 0.206-3.18-0.24-4.08-0.86 2.26-1.92 4.32-2.88 6.48zm35.76 0c0.836 0.364 1.488 0.911 2.64 0.96-0.198-0.678 0.339-0.622 0.24-1.2-0.54-0.3-2.71-0.57-2.88 0.24zm3.36 1.68c1.592 1.128 3.189 2.25 4.8 3.36 0.143-1.636 0-2.386 0.239-3.6-1.493-0.586-2.968-1.191-4.56-1.68-0.33 0.48-0.23 1.38-0.48 1.92zm5.76 4.56c1.7 1.34 2.977 3.104 4.56 4.56 0.306-1.695 0.206-3.794 0.48-5.52-1.133-1.507-2.989-2.291-4.8-3.12-0.16 0.94-0.26 2.38-0.24 4.08zm-45.12-2.4c0.779 3.954-0.688 8.128-0.72 12.96 0.179 0.739-0.828 0.292-0.48 1.2-0.703 7.594-2.35 18.436-2.64 28.8-0.81 1.255-0.846 3.156-0.96 5.039-0.507 8.346-1.154 15.643-2.16 21.841 1.65 3.671 1.37 8.712 0.24 12.239 1.603-0.236 3.024-0.654 4.319-1.199 0.661-11.166 1.12-22.02 1.92-32.4 0.111-1.436 0.597-2.895 0.721-4.32 0.282-3.239 0.002-6.491 0.479-9.6 0.138-0.894 0.597-1.78 0.72-2.64 0.537-3.745 0.221-6.104 0.721-9.84 0.161-1.208 0.751-2.362 0.96-3.6 0.37-2.202 0.077-4.624 0.479-6.72 0.077-0.397 0.452-0.79 0.48-1.2 0.061-0.9-0.272-1.745-0.24-2.64 0.039-1.063 0.601-2.203 0.72-3.36 0.178-1.714 0.062-3.583 0.24-5.52-1.99-0.06-3.32 0.52-4.8 0.96zm5.76 0.48c0.163 1.014-0.492 1.355 0.24 1.68-1.268 3.673-0.53 7.91-1.68 12.24 0.68 2.036-0.372 3.871-0.721 6.24-0.093 0.63 0.087 1.896 0 2.4-0.066 0.387-0.422 0.198-0.479 0.72-0.224 2.029-0.196 4.171-0.48 6.24-0.415 3.027-0.736 6.06-0.96 8.4-0.222 2.329-0.729 5.601-0.96 8.64-0.195 2.573 0.03 5.164-0.24 7.681-0.397 3.708-0.857 9.424-1.199 12.72-0.116 1.118-0.115 2.248-0.24 3.36-0.149 1.334-0.402 2.623-0.48 3.84-0.116 1.822 0.437 3.842-0.479 5.52 2.581-0.458 3.785-2.295 5.76-3.359-0.016-1.479 0.112-2.363 0.24-2.88 0.311-1.263 0.287-0.481 0-1.2-0.427-1.067 0.423-2.436 0.479-3.36 0.044-0.707-0.261-1.461-0.239-2.16 0.038-1.263 0.578-2.702 0.72-4.08 0.476-4.623 1.229-9.005 1.2-13.199-0.014-1.963 0.345-3.63 0.479-5.521 1.057-14.745 2.287-28.646 3.601-42.48-1.87-0.37-2.882-1.598-4.561-2.16v0.72zm-11.28 1.68c0.046 2.189-0.77 4.027-1.199 6-0.125 0.569 0.088 1.298 0 1.92-0.33 2.331-1.197 4.712-1.2 7.2-0.003 2.296-0.433 3.742-0.72 5.76-0.342 2.397-0.15 5.135-0.48 6.96-0.345 1.91-0.969 4.006-1.2 6-0.086 0.744 0.33 1.663 0.24 2.4-0.081 0.671-0.442 1.077-0.48 1.68-0.715 11.557-1.758 21.513-2.64 30.48-0.106 1.086-0.297 2.584 0.24 3.6 1.98-1.779 2.78-4.739 4.32-6.96 0.493-0.893 1.217 0.935 1.199-0.239 0.015-2.865 0.434-3.381 0.24-6.24 1.046-1.982 0.604-4.736 0.72-6.721 0.019-0.315 0.413-0.557 0.48-0.96 0.841-5.046 0.528-11.308 1.2-16.079 0.253-1.799 1.157-3.387 0.479-4.801 1.375-4.076 0.367-9.302 1.92-12.479 0.198-5.692 1.148-10.77 1.44-16.8 0.038-0.783 0.842-2.175-0.24-2.64-1.63 0.46-3.4 0.77-4.32 1.92zm-5.76 1.92c-0.45 2.163-0.617 5.191-1.2 6.24-0.646 1.163-0.239 2.746-0.479 4.08-0.121 0.674-0.633 1.215-0.72 1.92-0.098 0.783 0.342 1.621 0.239 2.4-0.12 0.921-0.788 1.757-0.96 2.64-1.239 6.358-1.342 14.832-2.16 20.4-0.284 1.941 0.03 4.104-0.239 6-0.12 0.838-0.834 1.62-0.96 2.399-0.317 1.952-0.07 4.862-0.24 6.24-0.048 0.388-0.451 0.607-0.48 0.96-0.189 2.328 0.126 4.696 0 6.96 0.003-0.052-0.434 0.305-0.479 0.72-0.189 1.705-0.246 4.403 0 6.721-0.446 0.242-0.411 0.586-0.48 0.96-0.48 2.608-0.012 5.364-0.479 8.399 2.112-1.316 5.069-3.664 5.76-6 0.14-0.471-0.085-1.615 0-2.399 0.19-1.763 0.172-2.975 0.24-4.561 0.068-1.603 0.936-3.185 0.24-4.319 0.68-1.307 0.214-3.307 0.479-5.04 0.239-1.562 0.696-1.887 0.24-3.12 0.862-1.481 0.569-4.309 0.72-6.48 0.398-5.738 0.874-12.018 1.68-18 0.057-0.419 0.455-0.875 0.48-1.2 0.039-0.507-0.311-1.203-0.24-1.68 0.106-0.72 0.576-1.468 0.72-2.16 0.068-0.325-0.303-0.871-0.239-1.2 0.077-0.401 0.675-0.591 0.72-0.96 0.069-0.564-0.278-1.072-0.24-1.68 0.057-0.898 0.421-1.948 0.48-2.88 0.284-4.486 0.706-8.399 1.439-12 0.344-1.686 0.832-3.48 0.96-5.28-1.7 0.55-3.06 1.42-4.8 1.92zm62.4 1.2c0.008 0.278-0.479 0.62-0.48 0.96 0 0.15 0.535 0.604 0.48 1.2-0.127 1.377-0.934 2.537-0.721 3.84 0.175 1.066 1.385 1.739 1.2 3.12-0.174 0.546-1.661-0.221-1.439 0.72-0.133 3.003-0.984 6.514-0.48 9.36-0.28 0.36-0.693 0.587-0.72 1.2 0.639 2.211-0.457 4.386-0.72 6.479-0.048 0.376 0.262 0.855 0.239 1.2-0.328 5.177-1.746 10.773-2.159 16.08-0.08 1.019 0.123 2.104 0 3.12-0.149 1.231-1.128 2.54-0.24 3.84-1.128 4.108-1.402 8.359-1.44 11.521 0.893-0.468 0.828-1.893 2.16-1.921 1.193 2.444-1.394 3.855-2.16 5.761-1.722 4.279-0.703 9.344-1.2 14.399-0.037 0.381-0.406 0.806-0.479 1.2-0.44 2.372-0.1 5.056-0.72 7.44 2.462-0.817 4.29-2.27 6-3.84-0.217-4.637 0.285-8.187 0.479-11.521 0.861 0.142 0.007-1.434 0.96-1.2-0.189-3.494 0.226-6.867 0.48-10.319 0.062-0.855 0.746-2.725 0.72-3.12-0.009-0.142-0.575 0.053-0.48-0.48 0.064-0.357 0.453-0.542 0.48-0.96 0.271-4.134 0.188-8.578 0.24-12.24 0.005-0.343 0.426-0.74 0.479-1.199 0.047-0.396-0.271-0.869-0.239-1.2 0.206-2.153 0.628-4.327 0.72-6.48 0.217-5.094 0.773-9.845 0.96-14.88-0.13-0.85 0.85-0.59 0.72-1.44-0.897-0.56-0.58-3.462 0-4.08-0.333-0.307-0.146-1.133-0.479-1.44 1.138-4.213 0.257-10.205 1.439-13.2-0.684-0.969-0.122-1.758-0.24-2.4-1.541-0.458-1.992-2.007-3.359-2.64-0.64 0.84-0.03 2.04 0 3.12zm-39.84-2.64v0.48c-0.855 13.297-2.46 22.846-2.881 36.959-1.142 0.858-0.058 3.942-1.439 4.561-0.353 0.913 1.072 0.047 0.72 0.96-0.685 1.422-0.477 4.423-0.479 5.76-0.002 0.732-0.631 1.87-0.721 2.88-0.678 7.687-0.685 14.966-1.439 21.601 1.993-1.127 3.177-3.063 5.04-4.32 0.027-2.345-0.032-5.607 0.72-6.48-0.565-4.735 0.606-10.421 0.96-15.359 0.262-3.648 0.101-6.718 0.48-9.84 0.108-0.895 0.583-1.735 0.72-2.641 0.496-3.284 0.591-6.718 0.96-10.08 0.491-4.472 0.409-8.269 0.96-11.76 0.441-2.794 1.648-5.586 0.72-8.16 0.653-0.708 0.761-1.96 0.96-3.12-1.35-0.76-4.11-1.28-5.28-1.44zm5.04 11.52c-0.275 0.755 0.376 0.583 0.479 0.96-1.788 1.421-0.33 4.133-0.96 6.24-0.115 0.384-0.393 0.209-0.479 0.72-0.111 0.646 0.153 1.455 0 2.16-0.111 0.51-0.435 0.699-0.48 1.2-0.069 0.765 0.283 1.625 0.24 2.4-0.02 0.356-0.439 0.9-0.48 1.2-0.085 0.626 0.072 1.188 0 1.92-0.044 0.453-0.463 0.911-0.479 1.44-0.016 0.485 0.317 0.797 0.239 1.2-0.108 0.568-0.451 0.747-0.479 1.2-0.05 0.798 0.217 1.472 0.24 2.16-0.718 0.348-0.652 1.282-0.721 1.92-0.175 1.635 0.178 3.482 0 5.279-0.204 2.077-0.893 3.878-0.72 5.521 0.014-0.146 0.036-0.284 0.24-0.24-1.209 7.153-1.371 14.796-1.92 20.88 1.891-2.189 3.43-4.729 5.76-6.479 0.32-9.342 1.509-20.394 2.16-28.801 0.302-3.895 0.079-7.807 1.2-11.76-0.548-0.333-0.09-1.67-0.24-2.4 0.004-0.396 0.666-0.134 0.72-0.48-0.961-0.169-0.014-1.126-0.479-1.44 0.301-0.334 1.356-0.104 0.72-0.72 0.073-0.75-0.693 0.61-0.72-0.24 0.821-0.858-0.038-2.584 0.239-4.32 1.205-1.756 0.216-5.705 1.2-7.68-1.704-0.136-2.277-1.402-4.08-1.44-0.48 3.99-0.31 6.02-1.2 9.6zm-34.32 27.84c1.054-1.239 0.551-2.986 0.72-4.8 0.155-1.662 0.746-3.345 0.96-5.04 0.212-1.675 0.054-3.369 0.24-5.04 0.427-3.813 1.358-8.5 1.92-12.24 0.099-0.658-0.102-1.529 0-2.16 0.056-0.345 0.372-0.264 0.48-0.72 0.641-2.717 0.826-4.691 1.439-6.96-0.014-0.146-0.036-0.284-0.24-0.24-2.633 1.208-4.478 3.203-6.479 5.04 0.224 2.269 0.024 4.138-0.24 6.24-0.149 1.187-0.6 2.421-0.72 3.6-0.107 1.053 0.076 2.121 0 3.12-0.086 1.113-0.593 1.667-0.72 2.64-0.159 1.208-0.084 2.525-0.24 3.84-0.176 1.474-0.049 3.081-0.24 4.561-0.805 6.234-1.706 12.495-2.16 18.479-0.897 11.832-1.666 23.18-3.359 33.12 2.782-0.177 3.795-2.125 5.76-3.12 0.47-13.07 2.24-25.73 2.88-40.32zm72-6.72c-0.604 0.542-0.603 1.387-0.72 2.16-0.573 3.762-0.384 7.969-0.48 10.32-0.023 0.567-0.411 1.101-0.479 1.68-0.182 1.515-0.132 3.168-0.24 4.8-0.063 0.954 0.144 2.226 0 3.12-0.08 0.501-0.445 0.498-0.48 0.96-0.122 1.636 0.286 3.451 0 5.04-0.078 0.434-0.441 0.786-0.479 1.2-0.33 3.593-0.167 7.201-0.48 10.8-0.225 2.584-0.925 5.175-1.2 7.68-0.27 2.455 0.3 4.937-0.479 7.2 2.79-0.969 3.973-3.548 6.24-5.04 0.369-4.102 0.952-8.061 1.199-11.04 0.264-3.159 0.597-6.495 0.24-9.359 1.227-2.445 0.665-5.453 0.721-8.4 0.104-5.538 0.313-12.492 0.96-17.04 0.132-0.933 0.184-2.118 0.239-3.12 0.122-2.185 0.339-4.6 0.48-6.24 0.057-0.652-0.335-1.427-0.24-1.92 0.077-0.399 0.473-0.174 0.48-0.72 0.012-0.848-0.265-1.654-0.48-2.4 0.833 0.113 0.138-1.302 0.72-1.44-0.423-3.582 0.264-8.029 0-12.24-1.641-1.559-2.477-3.923-4.319-5.28 0.12 10.07-1.31 19.61-1.2 29.28zm-31.68-28.32c0.296 1.465-0.053 1.691-0.24 2.4-0.357 1.35 0.106 2.445 0 2.88-0.1 0.402-0.441 0.527-0.48 0.96-0.312 3.496-0.231 6.286-0.239 9.36-1.289 1.773-0.486 5.457-0.961 8.64-0.204 1.372-0.474 2.573-0.479 3.839-0.002 0.528-0.048 1.139 0.24 1.44-1.001 2.688-0.824 6.324-0.721 9.12-1.107 0.733-0.361 2.273-0.479 3.36-0.053 0.483-0.41 1.178-0.48 1.68-0.483 3.479-0.024 8.222-0.96 11.52 2.691-2.668 4.485-6.235 6.48-9.6-0.203-1.439 0.555-2.645 0.72-4.08 0.031-0.27-0.49-0.715-0.479-0.96-0.004 0.085 0.426-0.241 0.479-0.48 0.762-3.393 0.477-6.602 0.72-10.079 0.026-0.374 0.435-0.831 0.48-1.2 0.105-0.85-0.284-1.811-0.24-2.641 0.174-3.271 0.489-7.305 0.96-10.56 0.625-4.318 0.053-8.813 0.721-13.2-1.69-0.65-3.55-2.33-5.04-2.4zm27.36 2.88c0.556-0.533-0.081-0.936 0-1.68h-1.439c0.02 1.02 0.65 1.44 1.44 1.68zm-21.84 6.96c-0.117 0.838 0.282 1.499 0.24 2.4-0.025 0.537-0.41 1.098-0.48 1.68-0.177 1.472-0.402 3.159-0.479 4.56-0.113 2.036 0.215 4.276 0 6.24-0.073 0.67-0.457 1.048-0.48 1.68-0.046 1.227 0.177 1.847 0 3.12-0.26 1.874-0.485 5.875-0.72 7.92-0.242 2.117-0.46 2.991-0.24 4.32 0.697-0.43 1.135-1.437 1.44-2.16 0.368-0.875 0.738-1.977 0.96-2.88 0.104-0.426-0.312-0.795-0.24-1.2 0.085-0.477 0.596-0.939 0.72-1.44 0.262-1.055 0.004-1.957 0.48-2.88 0.578-0.098 0.521 0.438 1.2 0.24 0.103-9.443 0.937-16.625 1.439-25.92-0.99-0.85-1.923-1.757-3.359-2.16 0.22 2.4-0.26 4.93-0.48 6.48zm-54.48 3.6c-0.04 5.795-0.788 12.033-0.961 18.48-0.053 2.007-0.093 3.591-0.239 5.04-0.118 1.155 0.088 2.451 0 3.6-0.549 7.118-2.074 14.069-2.16 20.64-0.729 0.258-0.629 1.402-0.72 1.92-0.364 2.078-0.368 4.173-0.72 5.28-0.131 0.414-0.196 0.871-0.24 1.2-0.534 4.02-0.744 8.21-1.44 12 1.98-0.74 4.138-1.303 5.76-2.4 0.024-5.321 0.908-8.865 1.44-13.199 1.343-10.954 1.352-22.558 3.12-32.881 0.639-3.73 0.659-7.33 0.96-11.04 0.498-6.161 1.746-12.221 2.16-18.24-0.014-0.146-0.036-0.284-0.24-0.24-2.87 2.66-4.49 6.56-6.72 9.84zm58.56-0.72c-0.198 2.081 0.282 4.477 0 6.72-0.199 1.584-0.137 3.017-0.24 4.56-0.022 0.34-0.426 0.859-0.479 1.2-0.196 1.229-0.184 2.715-0.24 4.08-0.159 3.85 0.223 7.877 0 11.76-0.174 3.023-1.991 5.848-1.2 8.881 1.312-1.249 3.064-2.056 4.32-3.36 0.082-9.43 2.287-18.451 2.16-26.88 0.108-0.852 0.81-1.11 0.96-1.92-0.523 0.043-0.764-0.197-0.721-0.72 0.165-2.982 0.447-5.153 0.24-7.92-1.714-0.766-2.445-2.515-4.32-3.12 0.76 2.27-0.26 4.43-0.48 6.72zm16.8-3.6c0.347-0.534 0.603-1.157 0.48-2.16-0.702-0.418-1.366-0.875-2.4-0.96 0.34 1.34 1.08 2.29 1.92 3.12zm11.04 16.32c-0.141 3.036 0.419 6.447-0.72 9.12 0.08 0.316 0.184 0.788 0.479 1.44-0.992 1.394-0.071 3.21-0.239 4.8-0.066 0.618-0.438 1.07-0.48 1.68-0.043 0.602 0.259 1.281 0.24 1.92-0.001 0.019-0.475 0.651-0.48 0.72-0.025 0.322 0.294 0.447 0.24 0.96-0.055 0.528-0.467 1.218-0.479 1.681-0.078 2.81 0.285 5.736 0 8.64-0.062 0.63-0.406 1.115-0.48 1.68-0.667 5.078-0.424 10.63-1.44 15.841-0.316-0.003-0.219-0.421-0.479-0.48 0.741 1.277 0.666 2.21 0 3.6 3.039-3.12 5.32-6.999 7.2-11.279v-2.641c0.597-0.025 0.743-0.449 1.2 0 4.192-10.251 4.893-27.726 1.92-39.84-0.217 2.46-0.469 8.303-0.96 11.28-0.18 0.739 0.827 0.292 0.479 1.2-0.899 0.919 0.021 1.819 0 2.399-0.005 0.144-0.479 0.484-0.479 0.96 0 1.165 0.402 2.74 0.239 3.841-0.079 0.537-0.446 0.892-0.479 1.439-0.076 1.265 0.531 2.604-0.48 3.601 0.293 0.026 0.568 0.071 0.48 0.479-0.905 3.849-0.189 9.617-1.44 13.92-0.205-6.187 0.064-11.702 0.721-17.04-0.192 0.625-0.401-0.685-0.48-0.96-0.18-0.739 0.827-0.292 0.48-1.2 0.23-3.38-0.219-6.218-0.24-8.64-0.014-1.444 0.012-3.037 0.72-4.32 0.297-0.776-0.776-0.183-0.479-0.96 1.315-2.429 0.131-5.679 0.96-7.92-0.094-0.946-0.171-0.734-0.48-1.68 1.267-4.485-2.171-8.957-3.6-12.96h-0.721c0.4 6.12-0.42 12.21-0.72 18.72zm-15.6-16.56c-0.721 0.659 0.798 1.108 0.72 1.92-0.09 0.791-1.276 0.484-1.2 1.44-1.088 8.233-1.578 19.481-2.88 27.12 0.581 0.139 0.534 0.906 0.72 1.44-1.633 8.271-3.442 16.302-4.08 24.96 2.31-0.811 3.968-2.272 6-3.36-0.035-0.595-0.044-1.165 0.48-1.2 0.037-6.901 1.037-15.941 2.4-23.52-0.104-0.293-0.046-0.927-0.48-1.44-0.001-0.801 0.78-0.819 0.72-1.68 0.557-8.18 1.608-15.268 2.4-24.24-2.02 1.61-3.17-1.95-4.8-1.44zm-167.04 14.4c1.423 0.521 3.497 0.108 4.8-0.24 0.45-1.87 0.158-4.482 0.24-6.72-1.688-2.151-2.302-5.377-4.32-7.2-0.68 4.57-0.586 9.6-0.72 14.16zm157.68 22.8c1.778-1.901 3.954-3.405 5.28-5.76-0.212-4.263 1.294-9.343 0.72-13.439 0.842-1.163 0.504-2.206 0.48-4.081 0.652-1.341 0.95-2.815 0.479-5.28 0.373-0.024 0.463-0.076 0.48-0.48 0.063-1.521 0.08-3.551 0.72-5.52-1.325-0.835-2.905-1.415-5.28-1.2 0.16 12.52-1.83 23.55-2.88 35.76zm-67.92-10.8c-2.55 2.515-1.208 6.095-1.44 9.36-0.041 0.572-0.412 1.054-0.48 1.68-0.066 0.61 0.291 1.49 0.24 2.16-0.048 0.643-0.409 1.276-0.48 1.92-0.21 1.902 0.183 3.919 0 5.76-0.039 0.39-0.421 0.842-0.48 1.2-0.449 2.737-0.453 5.663-0.48 8.4-1.7 1.32-0.147 3.222 0 4.56 0.164 1.483-0.417 3.387-0.72 3.84-0.438 0.657-0.638 1.388-0.96 2.16-0.942 2.258-1.931 4.035-2.16 6.96 2.31-0.171 4.114-0.846 6-1.439 0.431-7.186 2.559-15.986 2.64-23.521 1.232-0.99 0.396-2.695 0.48-3.84-0.005 0.067 0.453-0.178 0.479-0.24 0.124-0.29-0.242-0.702-0.239-0.72 0.21-1.233 0.693-1.662 0.239-2.88 0.406-0.285 0.321 0.115 0.48-0.72 0.291-1.531 0.486-3.349 0.72-5.04 1.206-8.733 0.68-17.656 1.68-26.64-0.053-0.187-0.2-0.279-0.479-0.24-1.8 5.64-3.81 11.08-5.04 17.28zm-84.24-12.24c0.592 0.032 1.157 0.037 1.44-0.24-0.453-1.654 0.415-3.752-1.2-4.56 0.323 1.56-0.046 2.76-0.24 4.8zm5.52 12.72c-3.046 1.456-8.146 2.326-11.04 3.359-0.834 0.299-1.782 0.445-2.64 0.721-1.527 0.489-3.393 0.994-4.32 2.16 5.015 0.744 8.067 3.453 12.48 4.8 8.267 4.653 16.771 9.656 25.44 13.439 2.276 0.994 4.829 1.639 6.96 2.641 0.658 0.31 1.176 1.069 1.92 1.439 2.733 1.362 5.828 2.249 8.64 3.601 2.806 1.348 5.389 3.456 8.64 3.6 0.25-0.697 1.169-0.775 1.92-1.2 0.691-0.391 1.4-1.217 2.4-1.2 1.66-1.859 3.769-3.271 6-4.56 1.481-2.27 3.806-3.72 5.76-5.521 1.994-1.837 3.714-3.967 5.28-6.239-9.038-0.065-17.594 0.977-24 3.12-2.6 0.869-4.787 1.083-7.68 1.439-0.922 0.113-1.767 0.598-2.64 0.72-6.345 0.893-12.349-0.053-16.8-1.92-2.59-1.086-5.369-2.335-6.72-3.6-1.599-1.497-2.22-2.392-3.36-4.08-2.031-3.008-3.905-5.291-4.8-9.12-0.26-1.112-0.125-3.017-1.2-3.6h-0.24zm69.84 16.32c-0.198 7.821-1.737 14.605-2.16 22.801 2.385-1.056 5.199-3.038 6-5.761 0.493-1.674 0.503-3.683 0.72-4.8 1.426-7.353 0.756-16.575 2.16-23.52-0.051-0.27-0.266-0.374-0.48-0.48-2.06 3.94-3.86 8.14-6.24 11.76zm69.84-1.44c0.812 0.091 1.024-0.416 1.44-0.72-0.331 0.01-0.527-0.113-0.721-0.24-0.07 0.49-0.48 0.64-0.72 0.96zm-72.48 5.28c-1.173 1.688-4.271 3.353-4.8 5.04-0.472 1.506 0.14 3.314 0 4.8-0.038 0.398-0.409 0.747-0.48 1.2-0.689 4.39-1.073 7.802-1.44 11.76 1.741-0.819 3.864-1.257 4.8-2.88 0.32 0.342 1.36 0.342 1.68 0 0.136-6.283 1.348-16.205 1.44-22.32-0.7 0.79-0.63 1.58-1.2 2.4zm81.6 0.72c-0.205 0.296-0.504 1.025-0.72 1.439-0.896 1.723-2.105 3.594-2.88 4.801-0.966 1.504-1.802 2.698-1.921 4.8 2.428 0.268 3.543-0.777 5.04-1.44-0.427-2.247 1.134-3.124 0.48-5.279 0.096-0.624 0.716-0.725 0.72-1.44-0.198-1.556 0.663-3.094 0-3.84 0.24 0.93-0.52 0.68-0.72 0.96zm-91.92 8.88c-0.468 5.372-1.783 9.896-2.4 15.12 1.896-0.344 3.684-0.796 5.04-1.68 0.328-5.792 1.341-11.271 1.92-17.28 0.133 0.001 0.272-0.194 0-0.24-1.76 1.12-2.74 3.03-4.56 4.08zm-5.52 4.08c-0.916 4.547-1.129 8.6-2.88 12 2.063 0.063 3.463-0.537 5.28-0.72 0.354-5.086 1.351-9.529 2.16-14.16-0.053-0.188-0.201-0.279-0.48-0.24-1.13 1.28-2.66 2.14-4.08 3.12zm90-1.92h1.2c-0.041-0.359 0.086-0.886-0.24-0.96-0.22 0.43-0.88 0.4-0.96 0.96zm7.44 10.56c-0.044 2.997-0.075 6.005-1.2 7.92 0.419 0.222 0.53 0.751 0.48 1.44-0.757 0.923-0.597 2.764-1.2 3.84 2.578-0.462 4.262-1.818 6.24-2.88-0.146-0.575-0.346-1.095-0.24-1.92 0.951-3.316 1.025-7.395 1.439-11.28 0.186-1.739 0.996-3.595 0.24-5.04-1.95 2.61-3.25 5.87-5.76 7.92zm-103.92-4.8c-0.781 3.472-1.198 6.163-2.16 9.12 2.003-0.157 4.029-0.291 5.52-0.96 0.146-4.254 1.569-7.231 2.16-11.04-2.27 0.53-3.33 2.27-5.52 2.88zm-1.2 0.96c-1.552 0.131-3.497 1.941-5.28 2.64-0.261 2.06-0.772 3.869-1.44 5.521 1.555 0.446 2.747-0.146 5.04 0 0.44-1.98 1.13-5.51 1.68-8.16zm-10.56 4.56c0.193 1.633-0.721 2.159-0.72 3.6 0.9 0.3 2.966 0.443 3.84 0 0.279-1.881 0.806-3.515 1.44-5.04-2.022-0.02-3.024 0.98-4.56 1.44zm-6 1.2c0.105 0.825-0.095 1.346-0.24 1.92 1.412 0.269 2.836 0.524 4.56 0.48 0.265-1.175 0.668-2.211 0.96-3.36-1.452 0.63-3.608 0.56-5.28 0.96zm114.72 6c-0.458 3.308-0.468 5.717-1.2 7.92 2.203-0.197 3.438-1.361 5.28-1.92 0.364-4.115 1.685-8.555 1.68-12.239-1.97 2.04-3.68 4.33-5.76 6.24zm-115.68-4.32c-0.275-0.995 0.505-0.936 0.48-1.681-1.742 0.297-3.359-0.364-5.04 0.24 1.724 0.28 2.704 1.3 4.56 1.44zm42.72 1.92h2.16c-0.065-1.176 0.323-1.705 0-2.16-0.52 0.92-1.67 1.22-2.16 2.16zm66.24 7.68c-0.172 1.828-0.91 3.091-0.96 5.04 1.969-0.431 3.712-1.088 5.52-1.68 0.95-1.664 0.142-5.098 1.44-7.44-2.5 0.87-3.72 3-6 4.08zm-6.72 4.32c0.048 0.927 0.009 1.769-0.239 2.399 1.586-0.573 3.58-0.739 5.04-1.439-0.403-1.848 1.353-2.801 0.479-4.32-1.8 1.08-3.64 2.13-5.28 3.36zm-5.52 3.12c1.161 0.594 2.674-0.521 4.08-0.48 0.197-0.614 1.135-1.729 0.479-2.399-1.36 1.1-4 1.26-4.56 2.88zm-0.72-0.24c-0.204-0.204-0.685 0.174-0.721 0.24-0.23 0.43 0.88-0.07 0.72-0.24z"/>
</g>
<metadata><rdf:RDF><cc:Work><dc:format>image/svg+xml</dc:format><dc:type rdf:resource="http://purl.org/dc/dcmitype/StillImage"/><cc:license rdf:resource="http://creativecommons.org/licenses/publicdomain/"/><dc:publisher><cc:Agent rdf:about="http://openclipart.org/"><dc:title>Openclipart</dc:title></cc:Agent></dc:publisher><dc:title>Otto von Bismarck</dc:title><dc:date>2009-06-13T22:28:14</dc:date><dc:description>The Art of Caricaturing by Mitchell Smith, 1941 Frederick J. Drake &amp; Co. - stated as Public Domain by Archive.org</dc:description><dc:source>http://openclipart.org/detail/26617/otto-von-bismarck-by-johnny_automatic</dc:source><dc:creator><cc:Agent><dc:title>johnny_automatic</dc:title></cc:Agent></dc:creator><dc:subject><rdf:Bag><rdf:li>caricature</rdf:li><rdf:li>cartoon</rdf:li><rdf:li>clip art</rdf:li><rdf:li>clipart</rdf:li><rdf:li>externalsource</rdf:li><rdf:li>famous-people</rdf:li><rdf:li>germany</rdf:li><rdf:li>history</rdf:li><rdf:li>image</rdf:li><rdf:li>man</rdf:li><rdf:li>media</rdf:li><rdf:li>person</rdf:li><rdf:li>politics</rdf:li><rdf:li>public domain</rdf:li><rdf:li>svg</rdf:li></rdf:Bag></dc:subject></cc:Work><cc:License rdf:about="http://creativecommons.org/licenses/publicdomain/"><cc:permits rdf:resource="http://creativecommons.org/ns#Reproduction"/><cc:permits rdf:resource="http://creativecommons.org/ns#Distribution"/><cc:permits rdf:resource="http://creativecommons.org/ns#DerivativeWorks"/></cc:License></rdf:RDF></metadata></svg>
