<?xml version="1.0" encoding="UTF-8" standalone="no"?>
<!-- Created with Inkscape (http://www.inkscape.org/) -->

<svg
   xmlns:dc="http://purl.org/dc/elements/1.1/"
   xmlns:cc="http://creativecommons.org/ns#"
   xmlns:rdf="http://www.w3.org/1999/02/22-rdf-syntax-ns#"
   xmlns:svg="http://www.w3.org/2000/svg"
   xmlns="http://www.w3.org/2000/svg"
   xmlns:sodipodi="http://sodipodi.sourceforge.net/DTD/sodipodi-0.dtd"
   xmlns:inkscape="http://www.inkscape.org/namespaces/inkscape"
   id="svg4136"
   version="1.1"
   inkscape:version="0.91 r13725"
   width="365.625"
   height="611.25"
   viewBox="0 0 365.625 611.25"
   sodipodi:docname="ComicCharacter184.svg">
  <metadata
     id="metadata4142">
    <rdf:RDF>
      <cc:Work
         rdf:about="">
        <dc:format>image/svg+xml</dc:format>
        <dc:type
           rdf:resource="http://purl.org/dc/dcmitype/StillImage" />
        <dc:title></dc:title>
      </cc:Work>
    </rdf:RDF>
  </metadata>
  <defs
     id="defs4140" />
  <sodipodi:namedview
     pagecolor="#ffffff"
     bordercolor="#666666"
     borderopacity="1"
     objecttolerance="10"
     gridtolerance="10"
     guidetolerance="10"
     inkscape:pageopacity="0"
     inkscape:pageshadow="2"
     inkscape:window-width="1600"
     inkscape:window-height="837"
     id="namedview4138"
     showgrid="false"
     inkscape:zoom="1.0961145"
     inkscape:cx="182.8125"
     inkscape:cy="305.625"
     inkscape:window-x="-8"
     inkscape:window-y="-8"
     inkscape:window-maximized="1"
     inkscape:current-layer="svg4136" />
  <path
     style="fill:#000000"
     d="m 259.90671,609.37121 c -1.83256,-0.98689 -4.03132,-3.47196 -5.47604,-6.18909 -2.1531,-4.04943 -2.2994,-4.92252 -1.35376,-8.07878 0.81284,-2.71302 2.27482,-4.35921 6.2659,-7.05539 4.38581,-2.96283 5.55172,-4.38306 7.40284,-9.01757 1.20843,-3.02548 3.13003,-6.49388 4.27022,-7.70755 1.86546,-1.9857 2.01381,-2.84311 1.48129,-8.56163 -0.97709,-10.49278 -1.53447,-12.45613 -6.80884,-23.98401 -2.78483,-6.08662 -5.06332,-11.43538 -5.06332,-11.88616 0,-0.45079 -0.52734,-1.37708 -1.17188,-2.05844 -1.48189,-1.56658 -6.11604,-7.73147 -9.0328,-12.01651 -1.22976,-1.80665 -4.93508,-5.76073 -8.23403,-8.78683 -6.60933,-6.06267 -12.52885,-13.37266 -17.46628,-21.56903 -2.34985,-3.90086 -4.77556,-6.3633 -8.92337,-9.05849 -3.13295,-2.03575 -6.03526,-4.23229 -6.44958,-4.8812 -0.41432,-0.64891 -1.81512,-1.72515 -3.11289,-2.39165 -3.37739,-1.7345 -9.61881,-10.74392 -11.03482,-15.9286 -1.35149,-4.94842 -2.67798,-12.87426 -3.56382,-21.29403 -0.3255,-3.09375 -1.39482,-7.94531 -2.37627,-10.78125 -3.01741,-8.7189 -4.67528,-20.22774 -6.00963,-41.71875 -0.27985,-4.50722 -0.51694,-5.15625 -1.88354,-5.15625 -0.79553,0 -3.43225,1.83806 -5.85938,4.08459 -9.15442,8.47324 -25.09743,19.23303 -41.44421,27.97034 -14.69986,7.85704 -23.70487,15.10487 -24.95489,20.08536 -0.36403,1.45044 0.57672,4.46383 2.81106,9.00423 1.84701,3.75333 4.18696,9.14454 5.19989,11.98048 1.01293,2.83594 2.50156,6.96698 3.30805,9.18008 2.69326,7.39061 3.4735,16.7115 2.35431,28.12506 -0.73148,7.45976 -0.75039,12.44368 -0.064,16.875 0.53574,3.45874 1.02318,13.23438 1.08321,21.72366 0.10434,14.75701 0.2023,15.52139 2.23003,17.40063 1.78413,1.65347 2.20012,3.23532 2.61979,9.96216 0.49551,7.94246 1.70899,11.82676 4.14402,13.26485 4.50082,2.65812 7.82978,19.40606 3.8573,19.40606 -0.56919,0 -1.72374,0.62341 -2.56568,1.38535 -0.89298,0.80815 -5.41582,1.86419 -10.85507,2.53459 -5.12835,0.63208 -9.53521,1.37977 -9.79302,1.66152 -0.53025,0.57951 -6.70442,3.93514 -13.40552,7.28585 -3.415562,1.70786 -5.899469,2.22407 -10.312501,2.14317 -3.197247,-0.0586 -11.508512,0.14393 -18.469449,0.45008 -17.879598,0.78636 -19.834263,-0.0412 -13.828125,-5.85414 3.394585,-3.28542 8.810345,-5.85642 12.336435,-5.85642 1.275193,0 2.54097,-0.35991 2.812837,-0.7998 0.271867,-0.43989 2.835435,-1.53618 5.696817,-2.43619 3.261481,-1.02587 5.595875,-2.3889 6.256835,-3.65332 0.579878,-1.10932 4.263864,-5.39194 8.186637,-9.51694 8.328744,-8.75811 10.015724,-12.88124 9.237434,-22.57709 -0.29347,-3.65595 -0.10449,-6.27335 0.47895,-6.63394 1.75681,-1.08576 0.008,-17.95002 -3.095448,-29.85147 -4.803206,-18.41946 -5.44231,-21.01776 -8.301498,-33.75 -1.505271,-6.70313 -3.237877,-16.72574 -3.850238,-22.27248 C 86.11232,442.8945 85.805321,441.96723 79.596127,429.66268 74.290365,419.14843 73.125,416.03395 73.125,412.36839 c 0,-4.87026 0.20368,-5.1541 9.32414,-12.99339 2.699518,-2.32031 5.397341,-4.77965 5.995162,-5.46518 0.597821,-0.68554 3.112039,-3.42773 5.587154,-6.09375 2.475113,-2.66603 5.070703,-5.90201 5.767997,-7.19107 0.697287,-1.28906 2.511737,-3.25917 4.032117,-4.37801 1.52038,-1.11885 5.11066,-5.15182 7.97841,-8.96217 5.39672,-7.17057 21.40798,-22.53848 26.64402,-25.57344 2.8963,-1.67878 2.94423,-1.80966 1.60868,-4.39233 -1.30728,-2.52799 -1.22995,-2.84445 1.53627,-6.28664 2.98587,-3.71551 11.82131,-11.34491 13.13829,-11.34491 0.40416,0 1.63543,-1.45718 2.73613,-3.23817 1.88888,-3.05626 1.91461,-3.37047 0.45822,-5.59323 -1.1464,-1.74962 -1.46048,-3.96246 -1.22172,-8.60755 0.28648,-5.5734 0.11592,-6.3285 -1.57032,-6.95229 -3.77313,-1.39579 -6.07705,-9.31855 -6.07705,-20.89793 l 0,-9.06231 -3.63857,-2.29693 c -5.49219,-3.46706 -13.25187,-5.35157 -23.35545,-5.67206 -13.19855,-0.41868 -22.685802,-1.52356 -26.438671,-3.07905 -5.262556,-2.18123 -15.043616,-9.88678 -20.710278,-16.31564 -6.532363,-7.41101 -9.72312,-12.43288 -11.274834,-17.74529 -0.664019,-2.27332 -2.213011,-6.03174 -3.442205,-8.35205 -2.731936,-5.157 -5.136201,-12.89172 -7.285318,-23.4375 -1.162347,-5.70368 -2.251876,-8.57911 -3.83306,-10.11607 -1.215012,-1.18102 -2.209114,-2.73815 -2.209114,-3.46029 0,-0.72214 -0.383438,-1.54996 -0.852082,-1.8396 -1.116974,-0.69033 -11.335418,15.52361 -11.335418,17.98628 0,1.08168 -0.77209,2.1004 -1.794553,2.36778 -0.987005,0.25811 -2.931233,2.31122 -4.320505,4.56247 -1.389274,2.25125 -3.168881,4.60244 -3.954682,5.22487 -1.193013,0.94498 -1.255233,1.79568 -0.377132,5.15625 0.986874,3.77685 0.904752,4.15438 -1.334293,6.13393 -3.174756,2.80681 -10.184076,2.98532 -11.62335,0.29601 -2.9034218,-5.42509 1.687628,-12.79564 7.274315,-11.6783 2.271142,0.45423 2.971739,-0.10351 6.43588,-5.1236 8.890722,-12.88406 9.53372,-21.00919 1.893508,-23.92702 C 24.697344,173.18409 22.586679,172.5 22.19632,172.5 c -0.390359,0 -1.852817,-0.84142 -3.249907,-1.86984 -2.158264,-1.58872 -3.061896,-1.72493 -6.010417,-0.90596 C 7.7313761,171.16981 2.8125,168.92451 2.8125,165.10316 c 0,-1.54275 -0.3975001,-3.05067 -0.8833335,-3.35093 -0.4858335,-0.30026 -1.16666243,-2.43531 -1.51295331,-4.74454 -1.00860377,-6.72585 2.85726761,-11.10028 6.54807251,-7.40947 1.9233504,1.92334 1.8804039,5.89795 -0.087221,8.07215 -0.8943639,0.98827 -1.5946645,3.40375 -1.640625,5.65886 -0.070836,3.47564 0.2205366,4.04238 2.4979359,4.85866 1.6710778,0.59895 3.4851717,0.60512 5.1562497,0.0175 2.465464,-0.86692 2.583956,-1.19701 2.711547,-7.55397 0.07338,-3.65609 0.591859,-7.50404 1.152174,-8.551 0.786699,-1.46995 0.702921,-2.16567 -0.367795,-3.05429 -2.265261,-1.88 -1.65881,-6.21186 1.339424,-9.56747 2.695951,-3.01729 2.74758,-3.03134 4.6875,-1.27573 2.640318,2.38945 2.472576,4.24775 -0.789981,8.75157 -3.467484,4.78673 -4.966065,10.26093 -4.17066,15.23513 l 0.618664,3.8689 3.854876,-0.63019 c 4.30991,-0.70457 4.165375,-0.69247 6.446781,-0.53938 2.279707,0.15298 5.355286,5.51678 5.439233,9.48602 0.09995,4.72603 1.15002,7.1052 2.419307,5.48151 2.22741,-2.84932 4.083649,-7.71285 3.161295,-8.28289 -1.593653,-0.98493 -2.293932,-11.77983 -0.971312,-14.97292 0.649439,-1.56789 1.497572,-2.85071 1.88474,-2.85071 0.387167,0 0.97673,-1.70592 1.310138,-3.79094 0.66568,-4.16294 2.36647,-7.45906 3.848852,-7.45906 0.523535,0 1.471264,-1.16016 2.106064,-2.57813 1.094004,-2.4437 4.83558,-4.92187 7.431116,-4.92187 0.655204,0 2.126996,-1.26563 3.27065,-2.8125 2.271053,-3.07177 5.915928,-3.72508 9.231241,-1.65463 1.590343,0.99318 2.065871,0.85543 3.343429,-0.96854 0.819164,-1.16952 3.624246,-4.53821 6.233514,-7.486 2.609267,-2.94777 9.108862,-11.26583 14.443544,-18.48458 5.334684,-7.21875 11.968954,-16.078125 14.742814,-19.6875 7.04544,-9.167561 14.66972,-20.57236 14.66972,-21.943731 0,-0.633011 1.37109,-2.512728 3.04688,-4.17715 1.67578,-1.664421 4.52343,-5.218926 6.32812,-7.898901 1.80469,-2.679975 4.24037,-6.03594 5.41262,-7.4577 1.17225,-1.42176 3.87485,-5.327206 6.00578,-8.678768 8.91265,-14.017967 20.35785,-30.5575332 22.46521,-32.4646717 3.86996,-3.5022615 1.64898,1.5684372 -4.30534,9.8294967 -3.3257,4.614096 -7.61185,10.856315 -9.52476,13.871597 -4.97619,7.84387 -10.79418,16.408687 -17.73441,26.107328 -5.93596,8.295218 -8.31591,11.770699 -17.65465,25.78125 -2.57767,3.867187 -6.21256,8.929687 -8.07754,11.25 -3.17208,3.946568 -5.7457,7.643503 -7.981788,11.465672 -3.4395,5.879168 -14.042532,20.481318 -16.825379,23.171358 -1.838234,1.77693 -3.342243,3.79408 -3.342243,4.48255 0,0.68847 -0.578836,1.47389 -1.286302,1.74537 -0.707465,0.27148 -2.617139,2.34676 -4.243717,4.61172 -2.879419,4.00952 -2.9076,4.14479 -1.068519,5.12905 1.038895,0.55599 2.162989,2.15888 2.497988,3.56196 0.334999,1.40309 0.951784,2.99086 1.370633,3.52838 0.418849,0.53751 0.622109,4.33439 0.451689,8.4375 -0.247077,5.94871 -0.880249,8.64865 -3.125132,13.32602 -1.548401,3.22621 -3.288673,6.43624 -3.86727,7.13341 -0.785813,0.94685 -0.693679,2.28315 0.364127,5.2813 2.819129,7.99025 6.096915,12.06945 17.061626,21.23312 2.165004,1.80938 4.859313,5.19633 5.987352,7.52655 2.410662,4.97975 6.809487,8.12482 10.232525,7.31602 4.12652,-0.97502 6.87277,-0.49382 10.36282,1.81579 5.25801,3.47959 8.07236,3.49281 11.78144,0.0553 3.33573,-3.09145 6.40693,-3.78771 11.08035,-2.51198 3.26476,0.89119 3.98393,0.81193 5.0521,-0.55689 1.22318,-1.56747 1.17132,-3.24659 -0.40838,-13.22308 -0.53948,-3.40704 -0.35202,-4.34751 1.07453,-5.39062 1.36059,-0.9949 1.42566,-1.26356 0.30599,-1.26356 -0.7821,0 -2.37038,1.00949 -3.5295,2.24332 -3.13996,3.34234 -12.85319,6.66198 -15.69897,5.36536 -4.73026,-2.15525 -4.6615,-6.37879 0.44489,-27.32456 0.9203,-3.77496 0.86354,-7.95699 -0.14779,-10.88846 -0.45703,-1.32477 -0.20434,-2.49987 0.7408,-3.44502 0.78895,-0.78893 1.85962,-2.41542 2.3793,-3.61441 0.51966,-1.19899 2.39741,-4.07841 4.17277,-6.39873 1.77536,-2.32031 4.03406,-5.51237 5.01934,-7.09345 1.74722,-2.80379 1.74844,-2.92777 0.0496,-5.02573 -0.95797,-1.18302 -1.74178,-3.27194 -1.74178,-4.642 0,-1.37006 -1.06607,-4.05988 -2.36904,-5.97738 -1.78012,-2.61967 -2.37457,-4.71302 -2.39128,-8.42075 -0.0371,-8.24134 1.25622,-21.541115 2.55185,-26.241417 0.24554,-0.890739 1.91801,-3.380893 3.71661,-5.533675 1.7986,-2.152782 3.10314,-4.37712 2.89898,-4.942973 -0.66151,-1.833451 9.04011,-16.943399 11.06746,-17.237219 1.83264,-0.2656 4.21292,-3.978311 4.21292,-6.571201 0,-1.737643 2.76714,-7.734683 4.52123,-9.79853 0.7669,-0.902344 2.3508,-1.640625 3.51976,-1.640625 1.33054,0 3.36389,-1.446888 5.43701,-3.868868 4.78522,-5.590455 9.57029,-8.619582 12.46755,-7.892418 2.02206,0.507506 2.27156,0.958275 1.7326,3.13021 -0.3463,1.39553 -1.50404,3.474177 -2.57274,4.619218 -1.60274,1.717219 -1.73536,2.33221 -0.75711,3.510932 0.97216,1.171388 0.8702,1.873178 -0.56553,3.892416 -6.69663,9.41827 -11.26727,16.811926 -10.5569,17.07726 2.39607,0.894979 -1.53535,7.240451 -9.22464,14.888947 -2.43364,2.420725 -2.92575,3.535352 -2.50022,5.663009 0.42787,2.139308 -0.20148,3.534029 -3.27052,7.248 -2.09019,2.529413 -3.61556,4.783734 -3.38969,5.009584 0.22585,0.22586 2.93189,-0.53222 6.0134,-1.684637 5.24204,-1.960397 6.03404,-2.018222 12.30143,-0.898181 3.68426,0.658415 7.6427,1.939718 8.79655,2.847328 2.52457,1.98582 8.04782,12.06246 8.04782,14.68247 0,1.72011 6.5822,8.64973 8.21607,8.64973 1.49219,0 7.49813,6.31963 10.97172,11.5448 2.17295,3.26865 5.09499,6.27137 7.29848,7.5 2.0211,1.12692 4.93326,2.7482 6.47146,3.60286 4.45462,2.47505 6.40565,4.63141 8.83319,9.76279 2.75444,5.82239 2.79932,7.15741 0.40674,12.0998 -3.05746,6.31587 -8.26331,10.65161 -18.08443,15.06177 -2.92967,1.31557 -3.43726,1.93662 -2.93213,3.58761 0.33599,1.09814 0.92263,2.4185 1.30365,2.93412 0.38103,0.51562 1.63593,4.10156 2.78868,7.96875 2.38052,7.98601 3.25257,9.375 5.88586,9.375 1.02696,0 3.40109,1.67458 5.27583,3.72129 3.17501,3.46624 3.91125,3.78751 10.74209,4.6875 4.03341,0.53142 8.99409,0.96621 11.02375,0.96621 3.75114,0 7.03134,1.89736 13.6823,7.91423 1.63736,1.48125 4.12204,2.81527 5.52151,2.96448 1.39947,0.14921 3.66884,1.34847 5.04304,2.66504 1.3742,1.31656 2.9395,2.39375 3.47845,2.39375 0.53895,0 2.74193,1.2764 4.8955,2.83643 2.15357,1.56004 6.24502,3.93937 9.09211,5.28741 3.52506,1.66903 6.0329,3.69567 7.86086,6.35251 1.47637,2.14584 5.34572,6.30558 8.59852,9.24384 4.88967,4.41685 6.49979,5.34231 9.29456,5.34231 3.90893,0 6.14396,2.01577 9.35525,8.4375 1.16031,2.32031 2.89631,5.22599 3.85777,6.45706 0.96146,1.23107 2.35237,4.27308 3.09091,6.76 0.73854,2.48694 1.96611,5.90939 2.72794,7.60544 3.07836,6.85336 5.4507,15.54007 6.70019,24.53377 0.72495,5.21811 1.86959,11.17498 2.54365,13.23748 1.32646,4.05872 6.29239,12.92488 7.53097,13.44579 2.16626,0.91106 7.1623,6.84129 9.56474,11.35319 1.49693,2.81131 3.80908,6.32674 5.1381,7.81206 2.79739,3.12636 6.00718,11.61827 4.69745,12.42773 -0.48113,0.29735 -0.87478,1.2941 -0.87478,2.21501 0,1.52289 -2.6901,4.77747 -3.94885,4.77747 -0.28598,0 -0.76629,-0.94194 -1.06736,-2.0932 -0.74957,-2.86643 -2.26946,-1.12907 -2.65132,3.0307 -0.25449,2.77211 -0.69215,3.3264 -2.82064,3.57223 -1.85808,0.2146 -2.93227,-0.33911 -4.0922,-2.10937 -2.26289,-3.4536 -3.24079,-2.96593 -3.06469,1.52832 0.11488,2.93196 -0.28219,4.18066 -1.56511,4.92187 -0.94548,0.54627 -2.54711,1.78424 -3.5592,2.75109 -1.80028,1.71979 -1.9135,1.71596 -5.2258,-0.17702 l -3.38567,-1.93489 0.30089,-6.51301 c 0.26628,-5.76408 0.006,-6.98346 -2.26464,-10.60424 -3.30766,-5.27471 -6.57773,-8.30998 -8.95284,-8.30998 -2.54106,0 -5.51507,1.67202 -5.51507,3.10063 0,0.63781 -1.28423,2.71765 -2.85384,4.62187 -3.04798,3.69772 -7.48332,5.4962 -11.60937,4.70747 -2.25992,-0.43202 -2.44667,-0.76995 -1.88324,-3.4079 0.34401,-1.61058 0.9428,-3.3502 1.33066,-3.86582 0.38786,-0.51563 1.45561,-3.25781 2.3728,-6.09375 1.84435,-5.70278 6.48039,-13.1085 8.2349,-13.15463 0.61977,-0.0163 2.18153,-0.96551 3.47059,-2.10937 2.12403,-1.88478 2.32533,-2.69497 2.14723,-8.64225 -0.28701,-9.58467 -1.31632,-12.57079 -7.32414,-21.248 -8.69723,-12.56157 -15.44837,-24.4192 -16.05858,-28.20513 -0.53576,-3.32398 -0.75498,-3.51562 -4.02143,-3.51562 -2.61486,0 -4.10988,-0.68377 -6.14933,-2.8125 -1.85082,-1.93185 -3.59781,-2.8125 -5.57926,-2.8125 -5.59394,0 -16.39517,-5.01626 -26.29574,-12.21215 -7.50405,-5.45406 -8.62524,-3.87591 -9.06167,12.75477 -0.40641,15.48734 -1.11158,17.26226 -6.86697,17.28423 -4.43243,0.017 -5.62047,0.65678 -6.50964,3.5059 -0.47515,1.52247 -0.22619,2.28036 0.88974,2.70858 1.23278,0.47307 1.29433,0.75231 0.3011,1.36616 -1.01712,0.62861 -0.94592,1.34261 0.38428,3.85391 3.19433,6.03061 9.14441,24.91486 9.14441,29.02236 0,1.39869 0.42876,2.80807 0.95279,3.13194 1.81056,1.11898 -0.13866,2.3343 -3.74394,2.3343 -6.26831,0 -6.72284,0.48 -6.09958,6.44137 0.39232,3.7525 0.0442,7.03815 -1.2045,11.37113 -1.401,4.86113 -1.79352,9.69679 -1.94049,23.90625 -0.15608,15.09065 -1.41798,32.48982 -3.45083,47.58072 -0.59606,4.42478 1.33771,9.17748 5.12929,12.60654 1.59654,1.44388 3.63083,4.1018 4.52065,5.90649 1.16717,2.36718 3.09462,4.01755 6.91897,5.92435 6.88503,3.43284 15.94538,11.30309 22.09917,19.19642 7.08513,9.08793 12.31716,20.10355 17.9022,37.69173 2.70162,8.50781 5.5752,16.73437 6.38576,18.28125 2.9025,5.53923 7.2007,13.15778 8.4481,14.97423 0.69845,1.01706 1.26991,2.67715 1.26991,3.68906 0,1.01192 1.47656,4.69311 3.28125,8.18042 1.80469,3.48731 3.28125,7.01437 3.28125,7.83792 0,0.82354 0.94922,2.44745 2.10938,3.60867 2.63008,2.63252 4.79107,7.2498 3.79487,8.10831 -0.4114,0.35454 -2.22456,1.22735 -4.02925,1.93956 -4.27911,1.68873 -8.104,5.08553 -11.25672,9.99682 -1.39813,2.17799 -2.70685,3.79861 -2.90829,3.60137 -0.20143,-0.19724 -0.43947,1.04712 -0.52898,2.76525 -0.30938,5.93886 -4.59413,8.46153 -17.64976,10.39142 -10.04166,1.48436 -9.5277,1.50609 -13.37454,-0.56557 z m 11.56173,-2.83856 C 279.94474,605.05867 285,603.45812 285,602.24842 c 0,-0.60073 0.78089,-1.29644 1.7353,-1.54603 1.1886,-0.31082 1.93048,-1.67437 2.35483,-4.32809 0.37925,-2.37168 1.12173,-3.8743 1.9144,-3.8743 1.49348,0 2.58424,-2.26496 1.92193,-3.9909 -0.24871,-0.64812 0.50281,-1.60117 1.67004,-2.11788 1.33953,-0.59298 2.00987,-1.58838 1.81754,-2.69888 -0.21878,-1.2633 0.10519,-1.60213 1.14891,-1.20162 1.15023,0.44139 7.5474,-1.46633 8.80027,-2.62435 0.14821,-0.13699 -0.25258,-1.39485 -0.89064,-2.79525 -1.03761,-2.27733 -1.2798,-2.3825 -2.29357,-0.99609 -2.47917,3.39046 -11.24161,-3.74904 -17.2362,-14.04378 -1.201,-2.0625 -2.91064,-4.59375 -3.79921,-5.625 -0.88858,-1.03125 -1.90346,-2.82422 -2.25527,-3.98438 -1.04429,-3.44358 1.51042,-2.47118 4.64292,1.76725 1.54687,2.093 3.79227,5.13558 4.98977,6.76129 1.1975,1.62571 2.40607,4.09443 2.68573,5.48604 0.5051,2.51351 3.63098,6.16331 4.51849,5.27582 1.02435,-1.02436 -1.31888,-9.46026 -3.17723,-11.43838 -1.09203,-1.16242 -1.98551,-3.24645 -1.98551,-4.63119 0,-1.66107 -0.49997,-2.5177 -1.46943,-2.5177 -1.01314,0 -1.29518,-0.54899 -0.90829,-1.76797 0.38535,-1.21413 -0.31172,-2.5918 -2.22522,-4.39784 -1.53249,-1.44642 -2.59497,-2.93954 -2.36104,-3.31802 0.61306,-0.99195 -1.51259,-5.62387 -3.73724,-8.14367 -1.54248,-1.74713 -1.66213,-2.30941 -0.6275,-2.94884 1.05028,-0.64912 0.93502,-1.51857 -0.64587,-4.8725 -1.05836,-2.24533 -2.21968,-5.5178 -2.58072,-7.27217 -0.36104,-1.75436 -1.7526,-4.20564 -3.09234,-5.44728 -1.78202,-1.65152 -2.12134,-2.45194 -1.26405,-2.98177 1.51108,-0.9339 -0.0977,-5.52357 -2.22186,-6.33869 -0.84582,-0.32458 -1.24236,-1.16986 -0.93031,-1.98308 0.61127,-1.59293 -1.74417,-5.67684 -4.34558,-7.53445 -0.94356,-0.67377 -1.71555,-2.24608 -1.71555,-3.49402 0,-1.38572 -0.91236,-2.86678 -2.34375,-3.80466 -1.28906,-0.84462 -2.34375,-2.06308 -2.34375,-2.70768 0,-2.02629 -3.80575,-6.11236 -5.69304,-6.11236 -1.24606,0 -1.80992,-0.65478 -1.81649,-2.10938 -0.007,-1.57547 -0.97529,-2.51512 -3.8251,-3.71245 -3.05431,-1.28324 -3.70134,-1.96294 -3.24307,-3.4068 0.44067,-1.38844 0.0111,-1.94461 -1.86548,-2.41562 -1.34088,-0.33653 -3.89306,-2.06699 -5.67152,-3.84544 -1.77845,-1.77846 -4.28019,-3.49625 -5.55943,-3.81732 -2.43605,-0.61141 -3.07437,-1.84974 -1.26445,-2.45305 0.73391,-0.24463 0.58928,-1.2668 -0.46875,-3.31281 -0.8416,-1.62746 -1.53017,-3.66198 -1.53017,-4.52116 0,-1.10683 -0.55313,-1.4175 -1.8977,-1.0659 -1.47648,0.38611 -2.29362,-0.27981 -3.68148,-3.00025 -0.98108,-1.92307 -2.44742,-4.04728 -3.25855,-4.72045 -1.86303,-1.54618 -1.89463,-2.86937 -0.0685,-2.86937 1.89259,0 1.87553,-5.42756 -0.0236,-7.52614 -1.28153,-1.41607 -1.28153,-1.70315 0,-2.76673 1.80281,-1.49619 1.81957,-4.48306 0.0489,-8.72078 -1.2163,-2.91103 -1.2163,-3.36834 0,-3.83507 0.95059,-0.36478 1.38098,0.0939 1.38098,1.47189 0,1.10101 0.22552,1.7763 0.50117,1.50066 0.27565,-0.27565 0.10315,-2.98268 -0.38333,-6.01563 -0.53069,-3.30866 -0.54366,-5.8707 -0.0324,-6.40508 1.1389,-1.19041 1.07958,-5.42017 -0.12026,-8.576 -0.67145,-1.76605 -0.67145,-2.85834 0,-3.52978 1.45586,-1.45586 1.17136,-6.76509 -0.43391,-8.09734 -0.77344,-0.6419 -1.40625,-1.74824 -1.40625,-2.45854 0,-0.7103 0.63281,-1.29146 1.40625,-1.29146 3.85205,0 -0.20467,-8.33382 -6.61278,-13.58478 -2.29267,-1.87866 -4.16849,-4.00685 -4.16849,-4.72929 0,-0.72245 -1.16016,-1.94294 -2.57813,-2.71221 -2.20959,-1.19872 -2.30546,-1.40402 -0.67063,-1.43618 1.04912,-0.0206 4.30812,0.80621 7.24221,1.83746 5.60324,1.96939 9.59611,2.44763 8.72961,1.04559 -0.28194,-0.45617 -1.67793,-1.05339 -3.10221,-1.32715 -1.42428,-0.27375 -4.90991,-1.31292 -7.74585,-2.30926 -5.65596,-1.9871 -17.64227,-3.66696 -12.89063,-1.80661 3.21748,1.2597 3.40641,2.93358 0.24147,2.13923 -1.28516,-0.32256 -5.18751,-0.84102 -8.67188,-1.15213 -3.48437,-0.31112 -6.62868,-1.02995 -6.98736,-1.59739 -0.94049,-1.4879 -1.84419,-0.23076 -1.14462,1.59229 0.32512,0.84723 1.1788,1.54043 1.89707,1.54043 1.59438,0 1.6835,1.12245 0.20638,2.59957 -0.84109,0.84109 -0.83069,1.6897 0.0443,3.61002 0.62911,1.38075 1.74809,10.35704 2.48661,19.94731 1.28302,16.66078 2.43094,24.58864 4.15375,28.68685 2.00923,4.77955 2.78248,7.94877 3.31668,13.59375 1.0689,11.29508 3.73077,23.82156 5.57813,26.25 0.58836,0.77344 1.67895,2.62014 2.42352,4.10379 2.00428,3.99377 8.61224,8.99109 16.84661,12.74038 0.77344,0.35216 4.59688,5.36644 8.49655,11.14285 4.78409,7.08645 11.05156,14.53448 19.26889,22.8984 9.60797,9.77936 12.78647,13.68208 15.0585,18.48958 5.67917,12.01681 11.55132,25.5086 11.56541,26.57257 0.008,0.59602 0.42977,1.71649 0.9375,2.48993 0.82058,1.25 1.02572,1.25 1.8463,0 0.65391,-0.99613 0.92733,0.44805 0.9375,4.95199 0.015,6.65203 -1.59829,11.92261 -4.65006,15.19146 -0.96934,1.03829 -2.6381,4.23629 -3.70835,7.10667 -1.65018,4.42569 -2.76474,5.78058 -7.33346,8.91479 -4.75395,3.26126 -5.42181,4.10945 -5.67905,7.21239 -0.20566,2.48068 0.33332,4.41119 1.82983,6.55397 3.47327,4.97323 4.47243,5.21342 14.46138,3.47638 z m 0.87531,-15.87129 c -2.24234,-0.5416 -2.491,-0.82027 -1.22663,-1.37462 2.09317,-0.91775 4.72386,-0.36051 5.21145,1.10388 0.42324,1.27116 0.21561,1.28527 -3.98482,0.27074 z M 60.9375,591.45817 c 0,-0.69713 1.163218,-0.82181 3.515625,-0.37683 4.768122,0.90193 21.690209,0.62248 29.516034,-0.48742 6.452201,-0.91509 9.943361,-2.61653 17.019121,-8.2944 3.81575,-3.0619 6.07162,-3.61462 7.78001,-1.90623 0.65299,0.65299 2.87546,0.78626 6.19516,0.37149 4.87992,-0.60971 5.20841,-0.81601 5.72663,-3.59642 0.54743,-2.93718 0.13126,-6.97202 -0.81693,-7.92021 -0.27398,-0.27398 -0.49815,0.83779 -0.49815,2.4706 0,1.63281 -0.42188,2.96875 -0.9375,2.96875 -0.51563,0 -0.9375,-1.86394 -0.9375,-4.14207 0,-2.27815 -0.27285,-4.85311 -0.60633,-5.72215 -0.48462,-1.2629 -0.8519,-0.99602 -1.82974,1.32958 -1.27574,3.03407 -2.99284,3.58229 -6.06707,1.937 -1.98857,-1.06424 -7.72799,-12.4564 -9.81328,-19.47832 -0.7228,-2.43396 -1.86622,-5.18031 -2.54092,-6.10302 -1.0821,-1.47987 -1.23274,-1.20164 -1.27776,2.36004 -0.14021,11.09313 -0.96624,13.00506 -9.479847,21.9422 -4.372505,4.59001 -8.973399,9.66594 -10.224214,11.27983 -2.298925,2.96623 -11.436945,6.87932 -19.237607,8.23794 -5.164573,0.8995 -11.052035,6.17147 -6.891982,6.17147 0.773437,0 1.40625,-0.46883 1.40625,-1.04183 z m 66.09375,-14.89567 c 0.31868,-0.51563 0.76545,-0.9375 0.99283,-0.9375 0.22738,0 0.41342,0.42187 0.41342,0.9375 0,0.51562 -0.44678,0.9375 -0.99283,0.9375 -0.54606,0 -0.7321,-0.42188 -0.41342,-0.9375 z m 8.21452,-0.55411 c 0.24215,-1.26673 0.075,-2.52891 -0.3715,-2.80484 -0.44647,-0.27594 -0.81177,-1.29566 -0.81177,-2.26605 0,-0.97039 -0.32057,-1.96247 -0.71237,-2.20462 -0.39181,-0.24214 -0.76851,2.0227 -0.83714,5.03299 -0.0939,4.11894 0.17431,5.35849 1.08387,5.00946 0.66476,-0.25509 1.40676,-1.50021 1.64891,-2.76694 z m -6.6364,-14.64902 c -0.67271,-0.67271 -1.10937,-0.72806 -1.10937,-0.14062 0,1.25135 1.1087,2.36005 1.73437,1.73437 0.26641,-0.2664 -0.0148,-0.98359 -0.625,-1.59375 z m -6.31579,-3.68906 c -0.76672,-2.17314 -1.35608,-7.2355 -1.35608,-11.64829 0,-9.31759 -1.47254,-16.91209 -3.87338,-19.97658 -2.09597,-2.67534 -2.22291,-3.85794 -0.41411,-3.85794 0.73563,0 1.53044,0.73828 1.76624,1.64062 0.23581,0.90235 0.47769,0.32643 0.5375,-1.27981 0.0612,-1.64367 -0.71097,-3.96256 -1.76625,-5.30413 -2.25812,-2.87073 -2.33163,-3.49418 -0.41198,-3.49418 1.25065,0 1.3691,-0.98661 0.81604,-6.79688 -0.35583,-3.73828 -1.01419,-7.50742 -1.46302,-8.37586 -1.12012,-2.16737 -1.03021,-2.63976 0.50244,-2.63976 0.75319,0 1.18062,-0.70341 0.99694,-1.64063 -1.27749,-6.51807 -1.28164,-7.73437 -0.0263,-7.73437 0.71757,0 1.51747,0.52734 1.77754,1.17187 0.26007,0.64454 0.50617,-0.20966 0.54687,-1.8982 0.059,-2.44696 -0.40169,-3.25094 -2.26973,-3.96117 -2.33068,-0.88613 -2.90923,-1.93452 -1.72245,-3.1213 1.296,-1.296 1.21397,-6.64345 -0.13345,-8.69988 -0.77248,-1.17895 -1.05943,-2.35682 -0.63765,-2.61749 0.80616,-0.49824 -1.24315,-12.81255 -2.66768,-16.03008 -0.45658,-1.03125 -1.72588,-3.98438 -2.82067,-6.5625 -1.09479,-2.57813 -3.23583,-7.08306 -4.75786,-10.01094 -1.6229,-3.12194 -2.38657,-5.55878 -1.84661,-5.89249 0.5064,-0.31298 1.81008,1.17424 2.89708,3.30492 1.08699,2.13068 2.13951,3.71078 2.33895,3.51135 0.71999,-0.71998 -2.00538,-8.29536 -3.53454,-9.8245 -1.46254,-1.46254 -1.46026,-1.64774 0.0346,-2.81206 1.50506,-1.17225 1.50148,-1.30557 -0.0601,-2.24084 -1.9922,-1.19319 -1.28548,-2.75419 1.24692,-2.75419 2.07406,0 2.33472,-0.98496 0.69467,-2.625 -0.61875,-0.61875 -0.93515,-1.15635 -0.70312,-1.19467 5.92362,-0.97818 7.74419,-2.22388 6.94236,-4.75019 -0.46981,-1.48034 -0.0402,-1.74264 2.85454,-1.74264 3.05844,0 3.34216,-0.20618 2.76893,-2.01226 -0.55251,-1.74082 -0.3509,-1.937 1.49465,-1.45438 2.66054,0.69575 5.6747,-0.82117 5.02029,-2.52654 -0.35144,-0.91584 0.73603,-1.46093 3.8446,-1.92708 3.54893,-0.5322 4.13953,-0.88514 3.25821,-1.94708 -0.88441,-1.06564 -0.22603,-1.40987 3.6903,-1.92938 4.8736,-0.64651 6.62627,-2.26578 2.45244,-2.26578 -1.61747,0 -2.16002,-0.4021 -1.80187,-1.33544 0.36241,-0.94442 1.43981,-1.18495 3.67962,-0.82149 1.74195,0.28269 3.92388,0.22245 4.84875,-0.13385 1.60541,-0.61847 1.60637,-0.69004 0.0213,-1.57989 -2.60505,-1.46238 -0.96508,-2.69183 3.59063,-2.69183 2.28988,0 4.16342,-0.42188 4.16342,-0.9375 0,-0.51563 -0.42188,-0.9375 -0.9375,-0.9375 -0.51563,0 -0.9375,-0.42188 -0.9375,-0.9375 0,-0.51563 1.6875,-0.9375 3.75,-0.9375 3.804,0 5.16186,-1.81202 2.57812,-3.44042 -0.77126,-0.48609 -0.21041,-0.91228 1.64063,-1.24671 2.33182,-0.4213 2.76754,-0.90538 2.5494,-2.83238 -0.2417,-2.13516 -0.15702,-2.19077 1.04085,-0.68362 1.37787,1.73363 3.441,2.21535 3.441,0.80343 0,-0.46046 -0.63281,-1.08003 -1.40625,-1.37683 -0.77344,-0.29679 -1.40625,-1.31224 -1.40625,-2.25655 0,-0.94431 -0.50625,-2.22317 -1.125,-2.84192 -0.875,-0.875 -0.77816,-1.125 0.43577,-1.125 0.85842,0 2.01232,0.84375 2.56423,1.875 0.55191,1.03125 1.45902,1.875 2.0158,1.875 1.1996,0 -1.24966,-4.07138 -4.64694,-7.7246 -1.31363,-1.41258 -2.10282,-2.85393 -1.75376,-3.20299 0.34906,-0.34906 2.2574,1.12309 4.24077,3.27147 1.98336,2.14836 3.91058,3.90612 4.28271,3.90612 1.61011,0 -3.81856,-6.02202 -8.63863,-9.58281 -2.89136,-2.13597 -4.76375,-4.04801 -4.16087,-4.24896 1.14552,-0.38185 9.5766,4.99705 9.62788,6.14243 0.0162,0.36195 1.11346,1.44818 2.43835,2.41384 2.37601,1.73178 2.39528,1.73033 1.41262,-0.10581 -1.64908,-3.0813 -7.4779,-7.68427 -13.30544,-10.50717 -3.02098,-1.46338 -6.6228,-3.54964 -8.00402,-4.63611 -1.38123,-1.08647 -3.09298,-1.97541 -3.80387,-1.97541 -0.7109,0 -2.10453,-0.50709 -3.09697,-1.12688 -1.42631,-0.89075 -2.3071,-0.85785 -4.20335,0.15698 -2.64037,1.41309 -17.9783,16.31038 -22.78796,22.1333 -1.67195,2.02419 -6.20711,7.35015 -10.07812,11.83547 -3.87101,4.4853 -7.0382,8.40199 -7.0382,8.70374 0,0.98672 -11.693187,12.66599 -12.684333,12.66923 C 82.335056,400.31746 75,410.45737 75,413.87842 c 0,2.02262 8.196498,18.2005 10.786245,21.28941 1.777736,2.12038 2.208371,4.09166 2.764815,12.65625 0.841709,12.95527 5.024998,33.20231 11.78097,57.01967 3.00964,10.61011 4.66764,20.18383 4.66781,26.95312 1.1e-4,4.59677 0.33667,6.32813 1.2301,6.32813 2.12026,0 12.83256,16.26414 12.83256,19.48327 0,1.81899 2.7929,5.0145 3.82512,4.37655 0.41913,-0.25904 0.15181,-2.20056 -0.59404,-4.31451 z m 172.05533,-3.69878 c -0.94413,-3.29197 -6.54714,-12.3983 -7.21661,-11.72883 -0.57992,0.57993 4.69474,9.94262 5.60207,9.94384 0.38672,5.3e-4 0.70313,1.05565 0.70313,2.34471 0,1.28906 0.39243,2.34375 0.87205,2.34375 0.52928,0 0.54475,-1.14128 0.0394,-2.90347 z m -167.41507,-5.29966 c -0.82282,-8.42038 -2.1807,-10.75369 -2.21783,-3.81103 -0.0267,4.99577 1.14922,10.13916 2.31815,10.13916 0.28493,0 0.23979,-2.84766 -0.10032,-6.32813 z m 152.49665,-29.51801 c -1.19282,-5.3226 -2.78384,-9.55052 -3.37247,-8.96188 -0.24861,0.24861 0.17282,2.31102 0.93652,4.58315 0.76369,2.27211 1.63225,5.34106 1.93012,6.81987 0.29787,1.47881 0.74633,2.48401 0.99656,2.23377 0.25024,-0.25024 0.0294,-2.35394 -0.49073,-4.67491 z m -5.72347,-15.79666 c -0.57554,-1.0754 -1.23312,-1.7686 -1.4613,-1.54042 -0.65615,0.65615 0.67404,3.49572 1.63756,3.49572 0.47891,0 0.39965,-0.8792 -0.17626,-1.9553 z m -3.93642,-9.13569 c -1.84983,-3.40644 -4.4581,-5.26993 -4.4581,-3.18511 0,0.99722 5.75333,7.89777 6.20674,7.44436 0.20114,-0.20114 -0.58574,-2.1178 -1.74864,-4.25925 z m -5.74863,-9.31024 c -1.68086,-3.25041 -11.80407,-12.76055 -12.65531,-11.88888 -0.32197,0.3297 1.4185,2.41947 3.86771,4.64392 2.44922,2.22445 4.45313,4.6836 4.45313,5.46478 0,1.42384 4.62683,5.67957 5.3685,4.93791 0.21712,-0.21712 -0.2482,-1.63809 -1.03403,-3.15773 z M 119.14433,463.3714 c -0.77036,-1.323 -0.968,-0.87318 -0.99082,2.25505 -0.0416,5.7043 1.29979,8.4186 1.66543,3.36995 0.15823,-2.18478 -0.14535,-4.71603 -0.67461,-5.625 z m 129.29317,5.84735 c -1.21102,-1.28906 -2.65565,-2.33042 -3.21029,-2.31413 -1.0273,0.0302 3.77363,4.65788 4.83224,4.65788 0.31894,0 -0.41093,-1.05469 -1.62195,-2.34375 z M 116.7945,453.0445 c -1.08163,-1.08163 -1.63654,0.61236 -0.89893,2.74422 l 0.75426,2.18003 0.34459,-2.18987 c 0.18952,-1.20443 0.0996,-2.4349 -0.19992,-2.73438 z m -2.50062,-6.00858 c -0.74066,-1.38393 -1.31756,-1.74614 -1.57085,-0.98627 -0.41164,1.23492 1.59428,4.32054 2.33027,3.58455 0.22612,-0.22611 -0.11563,-1.39534 -0.75942,-2.59828 z m 108.5433,-19.2837 c -0.2377,-0.91216 -0.44781,-0.39285 -0.46691,1.15403 -0.0191,1.54688 0.17536,2.29318 0.43217,1.65847 0.2568,-0.63472 0.27243,-1.90035 0.0348,-2.8125 z m 1.37975,-9.47409 c 0.0842,-2.14943 -0.127,-4.1882 -0.46939,-4.5306 -0.3424,-0.34239 -0.62254,1.62747 -0.62254,4.37747 0,5.80684 0.86564,5.92823 1.09193,0.15313 z m 1.61276,-15.91159 c -0.0949,-6.34963 -0.2004,-6.76267 -0.88347,-3.46029 -1.11105,5.37149 -1.0796,11.95047 0.0538,11.25 0.51562,-0.31867 0.88898,-3.82404 0.82969,-7.78971 z m 117.02099,-16.32011 c 3.25205,-6.20928 3.75352,-13.19863 1.34554,-18.75335 -1.13337,-2.61442 -1.55021,-4.6533 -1.01854,-4.98189 1.05197,-0.65015 4.63307,7.21552 4.6386,10.18841 0.006,2.77958 3.07452,11.12898 4.14752,11.28232 1.38267,0.19759 2.31173,-4.71484 1.8012,-9.52389 -0.25774,-2.42786 -1.50934,-6.20725 -2.78133,-8.39865 -1.7941,-3.09091 -2.00267,-3.98438 -0.93011,-3.98438 0.76042,0 1.62085,0.73828 1.91207,1.64063 0.29121,0.90234 1.69073,2.92458 3.11005,4.49386 3.36884,3.7248 4.92432,6.5212 4.92432,8.85279 0,1.03824 0.42188,1.88772 0.9375,1.88772 2.53613,0 0.24825,-12.6988 -2.78195,-15.44109 -1.00865,-0.91283 -2.72766,-3.37437 -3.82001,-5.47008 -4.85759,-9.3195 -14.43568,-16.72712 -21.25546,-16.43879 -3.46174,0.14635 -3.47405,0.15931 -0.50195,0.52815 4.24408,0.52668 3.82295,2.13431 -0.55909,2.13431 -3.47196,0 -9.5153,2.27471 -9.52256,3.58429 -0.002,0.34895 -1.7949,1.38634 -3.98437,2.3053 -6.91908,2.90408 -10.60667,7.14318 -12.81148,14.72755 -0.67327,2.31599 -1.80946,5.04658 -2.52488,6.06797 -1.6942,2.41883 -1.65581,4.25239 0.089,4.25239 1.88113,0 9.86021,-7.74957 9.86021,-9.5766 0,-1.00321 1.26799,-1.65066 4.04972,-2.0678 4.93011,-0.73932 8.1578,0.72938 11.39199,5.18369 1.2697,1.7487 3.06084,4.21466 3.98029,5.47989 1.16182,1.59874 1.72719,4.2755 1.85351,8.77551 0.20096,7.15853 0.81271,8.5948 2.46668,5.79125 2.77758,-4.70812 3.27148,-12.75594 1.10156,-17.94929 -1.62124,-3.88016 -1.74697,-5.01165 -0.55688,-5.01165 1.24981,0 3.83813,8.23102 3.83813,12.20551 0,1.8887 -0.62825,5.50495 -1.39611,8.03612 -1.68357,5.54976 -1.66666,5.31054 -0.34439,4.86979 0.5896,-0.19653 2.09313,-2.30703 3.34118,-4.68999 z m 14.03974,-13.09721 c -0.29927,-0.74787 -0.52142,-0.52573 -0.5664,0.56641 -0.0407,0.98827 0.18087,1.54199 0.49239,1.23047 0.31152,-0.31152 0.34482,-1.12013 0.074,-1.79688 z M 221.25,370.4578 c 0,-1.13603 -2.78243,-3.41638 -6.41525,-5.25763 -4.82526,-2.44563 -4.57565,-1.02718 0.47061,2.67435 4.64953,3.41052 5.94464,3.97331 5.94464,2.58328 z m 4.6875,-0.1453 c 0,-0.51563 -0.44678,-0.9375 -0.99283,-0.9375 -0.54606,0 -0.7321,0.42187 -0.41342,0.9375 0.31868,0.51562 0.76545,0.9375 0.99283,0.9375 0.22738,0 0.41342,-0.42188 0.41342,-0.9375 z m -54.20313,-3.95313 c -0.67271,-0.67271 -1.10937,-0.72806 -1.10937,-0.14062 0,1.25135 1.1087,2.36005 1.73437,1.73437 0.26641,-0.2664 -0.0148,-0.98359 -0.625,-1.59375 z m 4.30813,-0.88812 c -0.20006,-0.60019 -1.81725,-2.18222 -3.59375,-3.51563 -3.25077,-2.43995 -3.05252,-1.7545 0.85786,2.96625 1.53537,1.85355 3.28792,2.20547 2.73589,0.54938 z m 49.895,-0.25967 c 0,-0.22738 -0.42188,-0.67416 -0.9375,-0.99283 -0.51563,-0.31867 -0.9375,-0.13264 -0.9375,0.41342 0,0.54606 0.42187,0.99283 0.9375,0.99283 0.51562,0 0.9375,-0.18604 0.9375,-0.41342 z m -46.875,-2.30196 c 0,-1.14067 -5.36962,-5.77525 -9.89419,-8.5398 -2.03476,-1.24326 -4.12144,-2.74643 -4.63706,-3.34039 -0.91426,-1.05315 -4.21875,-2.54014 -4.21875,-1.89839 0,0.17719 3.29309,2.86969 7.31797,5.98331 4.02489,3.11362 7.87342,6.33039 8.5523,7.14839 1.35196,1.62902 2.87973,1.9722 2.87973,0.64688 z m 36.71117,-4.93647 c -2.23855,-1.02786 -5.61355,-2.0456 -7.5,-2.26163 -3.17546,-0.36365 -3.11187,-0.29905 0.85721,0.87086 2.35792,0.69502 5.1001,1.73547 6.09375,2.31213 0.99364,0.57667 2.43943,1.02576 3.21287,0.99799 0.77344,-0.0277 -0.42529,-0.89147 -2.66383,-1.91935 z m -36.71117,0.25215 c 0,-0.46046 -0.61133,-1.07178 -1.3585,-1.3585 -0.90799,-0.34843 -1.18563,-0.0708 -0.8372,0.8372 0.56902,1.48287 2.1957,1.86907 2.1957,0.5213 z m 42.60937,-0.97704 c -1.1269,-1.10933 -14.28196,-4.77134 -16.80928,-4.67924 -1.04162,0.038 1.05928,0.79839 4.66866,1.68987 3.60937,0.89147 7.40625,2.11321 8.4375,2.71497 2.28771,1.33496 4.98338,1.5347 3.70312,0.2744 z m 6.80225,-4.98264 c -0.22345,-1.16015 -0.40628,-0.21093 -0.40628,2.10938 0,2.32031 0.18283,3.26953 0.40628,2.10937 0.22346,-1.16015 0.22346,-3.05859 0,-4.21875 z m -39.35302,3.41797 c -0.31153,-0.31152 -1.12013,-0.34482 -1.79688,-0.074 -0.74787,0.29927 -0.52573,0.52142 0.56641,0.5664 0.98827,0.0407 1.54199,-0.18087 1.23047,-0.49239 z m -13.8086,-0.74211 c 0,-0.711 -9.44963,-6.42935 -9.89258,-5.9864 -0.24545,0.24545 1.56356,1.73959 4.02002,3.32029 4.2705,2.74803 5.87256,3.47535 5.87256,2.66611 z m 19.28277,-0.4629 c -0.28347,-0.45865 -1.99549,-1.00671 -3.80449,-1.2179 -1.80899,-0.21119 -2.97305,-0.0826 -2.5868,0.28579 0.60029,0.57251 1.9449,0.93081 6.14823,1.63836 0.41715,0.0702 0.52652,-0.24759 0.24306,-0.70625 z m 8.152,0.17399 c -1.15307,-0.22253 -3.26245,-0.2283 -4.6875,-0.0128 -1.42506,0.21548 -0.48165,0.39755 2.09648,0.40459 2.57812,0.007 3.74408,-0.16927 2.59102,-0.3918 z m 18.99293,-1.18035 c -0.72113,-1.16684 -6.74199,-2.83528 -10.25583,-2.84199 -3.81245,-0.007 -2.51757,0.88508 3.36625,2.31985 6.34631,1.54756 7.58117,1.64114 6.88958,0.52214 z m -62.40768,-2.42966 c -1.51015,-1.81961 -4.64559,-3.54822 -4.64334,-2.55992 9.2e-4,0.40486 1.16107,1.43582 2.57812,2.29102 3.31554,2.00096 3.52538,2.02828 2.06522,0.2689 z m 21.20478,-0.10823 c -0.75864,-1.97699 1.33203,-3.35612 2.9952,-1.97581 0.6884,0.57132 4.71036,1.16964 8.93769,1.3296 7.86785,0.29771 14.20167,-1.01805 19.87315,-4.12836 1.78268,-0.97764 5.83381,-1.68664 11.06669,-1.93684 l 8.2546,-0.39465 -1.99193,-1.85577 c -1.63822,-1.52624 -1.88236,-2.50429 -1.37491,-5.50788 0.40287,-2.38458 0.26304,-3.65212 -0.40288,-3.65212 -1.40778,0 -1.28892,-2.56658 0.14094,-3.0432 1.73584,-0.57862 -0.55615,-5.07603 -2.9787,-5.84491 -2.26867,-0.72005 -2.58892,-2.36189 -0.4607,-2.36189 0.98972,0 1.37338,-0.69058 1.17188,-2.10938 -0.2145,-1.51032 -1.03176,-2.19361 -2.87771,-2.40601 -2.40282,-0.27648 -3.84126,-2.98461 -1.58529,-2.98461 0.54606,0 0.76817,-0.36351 0.49359,-0.80779 -0.68617,-1.11024 -23.01471,-1.95681 -25.62705,-0.97162 -1.16015,0.43753 -2.10937,1.22733 -2.10937,1.75513 0,0.5278 -1.69274,2.70389 -3.76165,4.83576 -3.29498,3.39524 -4.4241,3.94784 -9.10131,4.4542 -5.27291,0.57084 -5.35303,0.62494 -6.4095,4.32807 -0.58841,2.0625 -1.35169,7.19972 -1.69618,11.41605 -0.60189,7.36687 -0.54477,7.69192 1.46367,8.32939 1.14951,0.36483 2.87493,1.6612 3.83428,2.88082 2.03552,2.58775 3.00092,2.88104 2.14549,0.65182 z m -6.1623,-0.33875 c 0,-0.53181 -0.73828,-1.24395 -1.64063,-1.58253 -0.90234,-0.33858 -2.13347,-1.2739 -2.73585,-2.07848 -0.60237,-0.80458 -1.38932,-1.16876 -1.74879,-0.8093 -0.35946,0.35947 0.55526,1.71656 2.03273,3.01578 2.90344,2.55315 4.09254,2.97577 4.09254,1.45453 z m 47.73438,-1.24494 c -1.05874,-0.91303 -5.54688,-1.46386 -5.54688,-0.68077 0,0.4912 1.16016,1.03585 2.57812,1.21032 2.56712,0.31589 3.71225,0.11162 2.96876,-0.52955 z m -59.23828,-3.04205 c -0.31153,-0.31152 -1.12013,-0.34482 -1.79688,-0.074 -0.74787,0.29927 -0.52573,0.52142 0.56641,0.5664 0.98827,0.0407 1.54199,-0.18087 1.23047,-0.49239 z m -3.4961,-3.48038 c 0,-1.51917 0.25,-1.70321 1.125,-0.82821 1.36136,1.36136 2.96728,1.49977 2.15516,0.18575 -0.31926,-0.51659 0.39412,-1.3136 1.58531,-1.77112 2.18815,-0.84045 6.74478,-8.61536 7.84811,-13.39113 0.5138,-2.22399 0.27814,-2.54223 -2.08273,-2.8125 -1.74042,-0.19923 -2.66624,-0.84986 -2.67405,-1.87921 -0.007,-0.86595 -0.32299,-1.88548 -0.70313,-2.26562 -0.38015,-0.38014 -0.69117,-1.4154 -0.69117,-2.30058 0,-0.88517 -0.94922,-1.86988 -2.10938,-2.18824 -1.57294,-0.43163 -2.73535,0.10717 -4.57089,2.11869 -1.35383,1.48364 -4.72883,4.38819 -7.5,6.45455 -7.92095,5.90636 -10.53408,9.05723 -9.83185,11.85509 0.32822,1.30773 1.54099,2.86329 2.69507,3.45681 1.15406,0.59351 3.15299,2.04123 4.44205,3.21715 3.95976,3.61221 10.3125,3.70373 10.3125,0.14857 z m 165.02249,-1.62024 c 1.17528,-2.19603 6.91136,-4.05558 10.37394,-3.36306 2.44655,0.48931 2.72857,0.29682 2.72857,-1.86237 0,-1.61964 -0.6139,-2.56862 -1.875,-2.8984 -1.3406,-0.35058 -1.875,-1.27877 -1.875,-3.25666 0,-2.28289 -0.30866,-2.66837 -1.76618,-2.20577 -1.35015,0.42852 -1.91324,-0.0254 -2.3905,-1.9269 -0.56895,-2.26688 -0.92747,-2.43828 -4.0428,-1.93272 -1.88016,0.30511 -4.46387,1.60013 -5.74156,2.87781 -2.16695,2.16695 -2.24729,2.57601 -1.19539,6.08693 0.62023,2.07011 0.85915,4.83375 0.53095,6.14141 -0.3282,1.30767 -0.3661,2.97857 -0.0842,3.71314 0.66991,1.74575 4.14669,0.85108 5.3372,-1.37341 z m -86.72051,-1.5986 c -0.71822,-3.84494 -1.12545,-4.5984 -2.00827,-3.71558 -0.90875,0.90875 0.54753,7.23121 1.6656,7.23121 0.64656,0 0.76753,-1.24111 0.34267,-3.51563 z m -4.71386,-1.19749 c -0.40545,-1.84598 -0.9853,-2.6397 -1.5303,-2.09471 -0.54499,0.545 -0.49912,1.87271 0.12107,3.50394 1.29218,3.39868 2.25398,2.43688 1.40923,-1.40923 z M 235.875,332.25 c -0.33365,-0.86948 -0.81758,-1.36993 -1.07539,-1.11212 -0.25781,0.25781 -0.19576,1.18014 0.13789,2.04962 0.33365,0.86947 0.81757,1.36993 1.07539,1.11212 0.25781,-0.25781 0.19576,-1.18015 -0.13789,-2.04962 z m -5.13367,-7.1875 c -0.92589,-0.919 -1.03357,-0.81132 -0.52481,0.52481 0.35206,0.92458 0.87627,1.44489 1.16492,1.15625 0.28865,-0.28865 6e-4,-1.04512 -0.64011,-1.68106 z M 321.09375,322.5 c 2.02274,-1.03125 4.64318,-1.875 5.82322,-1.875 1.73864,0 2.14553,-0.51162 2.14553,-2.69771 0,-1.48374 -0.65069,-3.23773 -1.44598,-3.89776 -1.00318,-0.83258 -1.14673,-1.49932 -0.46875,-2.1773 1.29997,-1.29997 1.2512,-4.35223 -0.0696,-4.35223 -0.63544,0 -0.85388,-1.00918 -0.55586,-2.56815 0.27001,-1.41247 0.0333,-3.41638 -0.52608,-4.45313 -0.55934,-1.03673 -1.06475,-2.91026 -1.12311,-4.16338 -0.0584,-1.25312 -0.61621,-2.44844 -1.23964,-2.65625 -0.62344,-0.20781 -1.13352,-1.16154 -1.13352,-2.11939 0,-0.95784 -0.42188,-2.00228 -0.9375,-2.32095 -0.51563,-0.31867 -0.9375,-1.8093 -0.9375,-3.31251 0,-2.05334 -0.66115,-3.07499 -2.6583,-4.10775 -2.22725,-1.15175 -2.59043,-1.8371 -2.23974,-4.22649 0.35179,-2.39693 0.0281,-3.00026 -2.0292,-3.78246 -1.34627,-0.51184 -2.44776,-1.40079 -2.44776,-1.97544 0,-0.57464 -0.93554,-1.80235 -2.07897,-2.72825 -1.77928,-1.44077 -1.89788,-1.90164 -0.82271,-3.19714 1.08768,-1.31058 0.99517,-1.51371 -0.68941,-1.51371 -2.46581,0 -6.70344,-1.88657 -8.71214,-3.87859 -0.85124,-0.84416 -2.1556,-1.89885 -2.89859,-2.34375 -0.74299,-0.4449 -3.05785,-3.34435 -5.14413,-6.44323 -2.83153,-4.20582 -4.95215,-6.20034 -8.36428,-7.86691 -2.51406,-1.22792 -5.41477,-2.95844 -6.44602,-3.84559 -3.44941,-2.96741 -14.4426,-8.43443 -16.96013,-8.43443 -1.7444,0 -4.26137,-1.65849 -8.41806,-5.54688 -5.44146,-5.09021 -6.281,-5.54687 -10.19759,-5.54687 l -4.26797,0 0,5.35937 c 0,2.94766 0.43522,5.7946 0.96715,6.32653 1.00656,1.00656 -4.87172,14.86915 -7.8984,18.6266 -0.83068,1.03125 -3.59642,4.67442 -6.14608,8.09594 -2.54965,3.42151 -6.19679,7.18571 -8.10473,8.36489 -3.17374,1.96148 -3.67668,2.02738 -5.90909,0.77437 -2.62198,-1.47168 -2.54446,-3.31848 0.12032,-2.86703 2.95361,0.50037 16.3766,-15.3676 20.8778,-24.68067 2.18043,-4.51133 2.79586,-7.22522 3.10852,-13.70757 l 0.38983,-8.08256 -5.90343,-0.42703 c -5.46593,-0.39536 -6.14379,-0.69958 -9.14669,-4.10492 -2.68137,-3.04073 -3.15036,-3.29676 -2.70703,-1.47787 0.58778,2.41162 -1.0925,8.71254 -4.69811,17.61758 -2.42661,5.99315 -7.74524,12.02357 -14.69026,16.65625 -2.8474,1.89936 -4.80469,2.43237 -8.93203,2.43237 -2.93855,0 -6.1067,0.56836 -7.13479,1.27997 -1.01708,0.70399 -2.90392,1.5965 -4.19298,1.98337 -1.28906,0.38687 -5.45508,2.57601 -9.25782,4.86475 -7.08363,4.26339 -10.98419,4.95441 -12.33009,2.18441 -3.22817,-6.64398 -3.68013,-16.52219 -1.03661,-22.65665 3.56466,-8.27203 6.12314,-13.50339 7.78889,-15.92606 l 1.71132,-2.48897 -3.98472,0.5062 c -5.33083,0.67721 -6.32715,1.65644 -6.33578,6.22714 -0.007,3.28243 -0.39026,4.04743 -2.53106,5.04165 -1.68285,0.78154 -2.83619,0.85963 -3.46144,0.23438 -0.51573,-0.51573 -1.89316,-0.93769 -3.06096,-0.93769 -2.66673,0 -4.06423,-2.5431 -4.06423,-7.39589 0,-3.564 -0.17826,-3.80259 -3.27509,-4.38355 -4.21299,-0.79037 -7.48572,0.0609 -11.2384,2.92321 -1.65399,1.26155 -3.70571,2.29373 -4.55938,2.29373 -0.85367,0 -1.50217,0.31641 -1.44111,0.70312 0.33118,2.09749 -0.56545,1.98699 -5.14702,-0.63432 -4.92035,-2.81514 -10.07086,-3.67745 -12.55313,-2.10168 -2.077623,1.31888 -0.32023,6.62214 2.71446,8.19144 2.88025,1.48943 3.4003,2.72739 1.5153,3.60707 -0.9375,0.43749 -0.9375,0.65625 0,1.09374 0.64453,0.30079 1.17187,0.9336 1.17187,1.40625 0,1.52441 -2.24243,0.88739 -6.6732,-1.89568 -4.356553,-2.73646 -6.461439,-6.90298 -4.504678,-8.91682 1.478306,-1.52143 1.036678,-4.27251 -0.585909,-3.64986 -1.827804,0.70139 -4.379059,-2.51996 -3.159536,-3.9894 1.668389,-2.01029 -1.445115,-8.18738 -5.786739,-11.48071 -2.273529,-1.72457 -6.802967,-5.70806 -10.065419,-8.85219 -5.522092,-5.32183 -6.072406,-5.62793 -7.96875,-4.43251 -4.390415,2.76763 -6.828776,3.75273 -9.302644,3.75827 -1.417969,0.003 -2.578125,0.12744 -2.578125,0.27615 0,1.24864 3.693139,10.11582 5.072762,12.17963 0.958229,1.43344 1.886727,3.84723 2.063327,5.36399 0.579345,4.97579 5.890984,15.14098 11.10031,21.24329 4.620364,5.4124 10.023408,10.63022 11.007559,10.63022 0.208747,0 0.20716,-1.47656 -0.0036,-3.28125 -0.561211,-4.80718 1.374009,-4.01589 2.10532,0.86084 0.341629,2.27815 1.243475,4.65858 2.004103,5.28984 1.700525,1.41132 3.048775,0.34169 1.509521,-1.19756 -1.542031,-1.54206 -1.390027,-4.48437 0.231707,-4.48437 0.737575,0 1.475856,0.94922 1.640625,2.10937 0.356144,2.50766 4.518329,3.64723 4.518329,1.23708 0,-2.28333 1.605975,-1.73346 2.232937,0.76454 0.591653,2.35738 5.010303,3.76901 7.323193,2.33957 0.63923,-0.39507 1.66284,-0.30284 2.27469,0.20495 2.13633,1.77299 7.24086,2.77839 7.9859,1.57292 0.51314,-0.83029 1.15516,-0.70511 2.46549,0.48072 2.01699,1.82535 4.98141,2.08973 6.49214,0.579 0.7408,-0.7408 1.55417,-0.7408 2.93837,0 2.80506,1.50122 3.91228,1.26048 3.91228,-0.85065 0,-2.30727 1.60864,-2.40666 3.99523,-0.24683 1.71212,1.54946 1.86302,1.5408 3.1207,-0.17917 1.75289,-2.39722 1.67051,-3.07129 -0.51852,-4.24282 -1.01205,-0.54163 -1.62566,-1.54357 -1.36358,-2.22653 0.26208,-0.68296 -0.17551,-1.78287 -0.97241,-2.44424 -1.5242,-1.26497 -2.00881,-4.72291 -0.66191,-4.72291 0.43287,0 1.28565,0.94922 1.89507,2.10937 0.60944,1.16016 2.12773,3.50429 3.37397,5.20918 1.24626,1.70489 2.98693,5.29082 3.86817,7.96875 0.88125,2.67792 1.89355,5.07989 2.24956,5.3377 1.38243,1.0011 2.82622,9.61819 2.82622,16.86795 0,8.88401 1.28723,12.04691 6.04538,14.85429 2.36776,1.39702 3.13264,2.38772 2.70462,3.50314 -0.50752,1.32258 -0.30425,1.39868 1.35872,0.50868 2.74963,-1.47156 3.99266,-1.30122 3.31882,0.45477 -0.42349,1.10359 -0.10788,1.41116 1.19127,1.16097 1.31366,-0.25299 1.9288,-1.46869 2.39608,-4.73545 0.69886,-4.88567 1.47852,-6.63359 2.63897,-5.91639 0.42587,0.2632 0.37687,2.24742 -0.1089,4.40937 -0.48575,2.16196 -0.80061,4.80115 -0.69968,5.86488 0.10093,1.06372 -0.16003,2.73678 -0.57991,3.71792 -0.41988,0.98113 -0.79901,6.04363 -0.84251,11.25 l -0.0791,9.46612 3.28125,-0.10241 c 6.29091,-0.19636 13.95012,-2.28302 14.45865,-3.93908 0.55562,-1.80944 1.08142,-7.36624 2.01318,-21.27611 l 0.65246,-9.74036 -2.55203,-0.64052 c -1.40362,-0.35229 -5.15112,-0.40626 -8.32777,-0.11994 -5.14706,0.46393 -5.57826,0.37567 -3.96147,-0.81082 0.99785,-0.73227 1.87714,-2.18481 1.95398,-3.22785 0.14301,-1.94122 2.88342,-4.59093 4.80332,-4.64435 1.47297,-0.041 2.37765,2.65155 1.65545,4.92701 -0.50529,1.59201 -0.27099,1.795 1.52863,1.32439 1.16896,-0.30569 3.32026,0.0621 4.78066,0.8173 2.54714,1.31717 3.25188,2.77252 3.82624,7.90149 0.14434,1.28906 0.57886,2.23828 0.96557,2.10937 0.38672,-0.1289 2.14732,-0.23437 3.91245,-0.23437 2.0555,0 4.21072,-0.84263 5.99471,-2.34375 3.9508,-3.32438 7.8635,-3.00283 4.62409,0.38002 -0.95769,1.0001 -0.62505,1.10864 1.82002,0.59384 1.64554,-0.34647 3.75491,-0.23646 4.6875,0.24445 0.93259,0.48091 4.33233,1.1018 7.55498,1.37976 5.77537,0.49814 5.85938,0.47141 5.85938,-1.86426 0,-1.96838 0.23118,-2.17779 1.36519,-1.23664 1.90287,1.57925 3.32231,0.4114 3.32231,-2.73345 0,-1.52982 0.61368,-2.89235 1.44667,-3.212 1.11986,-0.42974 1.22576,-0.96796 0.46875,-2.38243 -1.30389,-2.43634 -1.2369,-2.88804 0.42833,-2.88804 0.77344,0 1.40625,-0.37022 1.40625,-0.82271 0,-0.45249 -0.63281,-1.34789 -1.40625,-1.98979 -1.81291,-1.50458 -1.7813,-2.8003 0.10194,-4.17736 0.82951,-0.60655 1.35201,-1.91384 1.16112,-2.90509 -0.33091,-1.71828 -0.44489,-1.70447 -2.4457,0.29634 -3.2464,3.2464 -4.21032,2.4879 -2.09861,-1.65139 l 1.91311,-3.75 -3.30031,0 c -2.42683,0 -3.3003,-0.40481 -3.3003,-1.52954 0,-1.31819 0.9691,-1.46734 7.01348,-1.07944 6.98196,0.44808 7.011,0.4402 6.46087,-1.75171 -0.7341,-2.92492 1.06095,-2.84506 3.01293,0.13404 1.11811,1.70645 2.08635,2.19634 3.59335,1.81811 1.6501,-0.41415 2.42478,0.15434 3.8718,2.84131 1.1792,2.18963 2.38549,3.27017 3.46498,3.10376 0.91081,-0.14041 2.73395,1.01034 4.05141,2.55722 1.57466,1.84886 2.56319,2.41098 2.88516,1.64062 0.70886,-1.69607 2.61344,-1.43926 4.46024,0.60143 0.88264,0.97532 2.33571,1.58217 3.22904,1.34856 0.89332,-0.23361 2.41129,0.44497 3.37328,1.50795 2.19939,2.43031 3.84941,2.44645 5.89474,0.0576 0.88298,-1.03125 1.91646,-1.875 2.29663,-1.875 1.41664,0 5.5298,5.25444 6.23793,7.96875 0.98094,3.76006 4.84166,4.60374 4.84166,1.05804 0,-1.2945 -0.42187,-2.61436 -0.9375,-2.93304 -0.51562,-0.31867 -0.9375,-1.3468 -0.9375,-2.28472 0,-0.93793 -0.94922,-2.35049 -2.10937,-3.13903 -1.95078,-1.32591 -1.98181,-1.48464 -0.41279,-2.11113 1.19209,-0.47598 2.52511,0.11635 4.48284,1.99197 2.23548,2.14172 2.67264,3.18663 2.21154,5.28601 -0.73588,3.35045 1.93024,14.01952 4.8664,19.47395 4.65316,8.64406 8.19541,14.56065 9.26211,15.47045 0.60455,0.51563 2.07721,2.625 3.27258,4.6875 2.43888,4.20806 4.67184,7.03125 5.56127,7.03125 0.32668,0 2.24893,-0.84375 4.27167,-1.875 z M 178.125,313.21857 c -4.00868,-0.53432 -4.23443,-0.72572 -4.53361,-3.84357 -0.17317,-1.80469 -0.0366,-5.89554 0.30366,-9.09079 0.59933,-5.62939 0.72138,-5.84348 3.93602,-6.9044 3.01568,-0.99527 3.51366,-0.89319 5.4737,1.12203 1.93783,1.99239 2.07523,2.69165 1.35661,6.90441 -0.43979,2.57812 -0.82476,6.48047 -0.8555,8.67187 -0.0308,2.19141 -0.37229,3.92101 -0.75901,3.84358 -0.38671,-0.0774 -2.60156,-0.39386 -4.92187,-0.70313 z m 3.29045,-6.4217 c 0.3096,-1.93359 0.72858,-4.3208 0.93108,-5.3049 0.2025,-0.98412 -0.39571,-2.76043 -1.32936,-3.94737 -1.38332,-1.75861 -1.96057,-1.94801 -3.11851,-1.02321 -1.63131,1.30284 -2.62565,6.5994 -1.92602,10.25928 0.41408,2.16609 1.38921,2.95722 4.21926,3.42308 0.36334,0.0598 0.91395,-1.47328 1.22355,-3.40688 z m -2.58792,-34.09723 c -2.53668,-1.4196 -2.08096,-5.35143 0.77085,-6.65081 1.95182,-0.88931 2.57389,-0.84085 3.2669,0.25448 2.14824,3.39534 -0.86648,8.17106 -4.03775,6.39633 z m 2.83262,-3.46136 c 0.20411,-0.61231 -0.29687,-1.11328 -1.11328,-1.11328 -0.8164,0 -1.48437,0.66797 -1.48437,1.48437 0,1.65556 2.01821,1.36724 2.59765,-0.37109 z m 16.05972,-9.03275 c -2.8799,-2.91016 -5.32952,-4.43741 -8.1105,-5.05659 -3.79437,-0.84483 -3.98437,-0.78378 -3.98437,1.28029 0,3.51887 -1.00452,5.13327 -3.19405,5.13327 -2.32614,0 -4.30595,-1.62365 -4.30595,-3.5313 0,-0.70472 1.08758,-2.7072 2.41686,-4.44998 2.34946,-3.0803 2.49978,-3.13244 5.39062,-1.86971 1.63557,0.71441 4.19546,1.55914 5.68864,1.87715 3.10969,0.66229 14.07999,10.73775 11.72375,10.76745 -0.82438,0.0104 -3.35563,-1.85737 -5.625,-4.15058 z M 183.75,257.8125 c 0,-1.25 -0.625,-1.875 -1.875,-1.875 -2.0645,0 -2.13136,0.11608 -1.30595,2.26707 0.81522,2.12441 3.18095,1.83281 3.18095,-0.39207 z m 45.17187,54.17187 c -0.67271,-0.67271 -1.10937,-0.72806 -1.10937,-0.14062 0,1.25135 1.1087,2.36005 1.73437,1.73437 0.26641,-0.2664 -0.0148,-0.98359 -0.625,-1.59375 z m -62.7827,-6.42174 c 0.36872,-3.30168 0.3169,-6.35656 -0.11517,-6.78863 -0.43207,-0.43207 -2.21032,-0.64938 -3.95166,-0.48291 -3.07094,0.29357 -3.17477,0.43878 -3.45495,4.83216 -0.24869,3.89961 0.0582,4.85115 2.2069,6.8425 1.37267,1.27214 2.97922,2.15254 3.57011,1.95646 0.59089,-0.1961 1.37604,-3.05791 1.74477,-6.35958 z m 60.83026,3.10924 c 1.11605,-8.30969 0.58681,-11.39193 -1.96943,-11.46997 -0.39766,-0.0121 -0.47123,7.2309 -0.11173,11.00122 0.11898,1.2479 1.92198,1.654 2.08116,0.46875 z m -20.13886,-1.43993 c 0.3621,-0.36212 0.71237,-2.2132 0.77836,-4.11352 0.0684,-1.96951 0.66173,-3.63572 1.37991,-3.87511 0.98968,-0.3299 1.12423,0.48489 0.62729,3.79868 -0.5789,3.86035 -0.45011,4.26756 1.51625,4.79429 4.58487,1.22815 4.77884,0.99039 4.09841,-5.02378 -0.37866,-3.347 -0.27849,-5.625 0.24735,-5.625 1.08159,0 2.01208,2.26841 2.05037,4.99855 0.0238,1.69617 0.17241,1.78663 0.8977,0.54643 1.40045,-2.39468 -0.27703,-6.81113 -2.86114,-7.53279 -3.70818,-1.03556 -14.71992,-0.90712 -19.21243,0.2241 l -4.16514,1.0488 0,5.98598 0,5.98597 6.99233,-0.27711 c 3.8458,-0.1524 7.28862,-0.57338 7.65074,-0.93549 z m 4.69783,-1.84132 c -0.85273,-3.18194 -0.70198,-8.20312 0.2463,-8.20312 1.23544,0 1.9753,2.48674 1.9753,6.63918 0,4.00475 -1.31872,4.93309 -2.2216,1.56394 z m 10.53569,-4.21875 c -0.11814,-4.2626 -0.1502,-4.31274 -0.74943,-1.17187 -0.34431,1.80469 -0.45458,3.80859 -0.24504,4.45312 0.74996,2.30684 1.11587,1.0995 0.99447,-3.28125 z m 16.19143,-4.8369 c 2.09057,-1.69082 2.23046,-2.47577 2.5241,-14.16267 0.30388,-12.09446 -0.12016,-16.85891 -1.5006,-16.86067 -0.74698,-9.4e-4 -0.69,3.28598 0.29253,16.87587 0.59817,8.27357 0.49823,9.0894 -1.40687,11.48437 -1.12792,1.41797 -2.65296,2.57813 -3.38897,2.57813 -0.73602,0 -1.33821,0.42187 -1.33821,0.9375 0,1.5104 2.42753,1.08085 4.81802,-0.85253 z m -2.94302,-5.2742 c 0,-0.7553 -0.3375,-1.37327 -0.75,-1.37327 -1.18054,0 -3,2.12377 -3,3.50173 0,0.96123 0.43516,1.01885 1.875,0.24827 1.03125,-0.55191 1.875,-1.62143 1.875,-2.37673 z M 157.03125,292.5 c -0.31868,-0.51563 -0.97639,-0.9375 -1.46158,-0.9375 -0.4852,0 -0.88217,0.42187 -0.88217,0.9375 0,0.51562 0.65771,0.9375 1.46158,0.9375 0.80387,0 1.20085,-0.42188 0.88217,-0.9375 z m 80.26172,-6.83203 c -0.76563,-0.76563 -1.04297,-0.66071 -1.04297,0.39453 0,1.86362 1.26066,3.12427 1.72657,1.72656 0.19765,-0.59297 -0.10997,-1.54746 -0.6836,-2.12109 z M 180,279.375 c 0,-0.51563 -0.42188,-0.9375 -0.9375,-0.9375 -0.51563,0 -0.9375,0.42187 -0.9375,0.9375 0,0.51562 0.42187,0.9375 0.9375,0.9375 0.51562,0 0.9375,-0.42188 0.9375,-0.9375 z m -11.25,-27.15472 c 3.35156,-1.16043 6.63856,-2.2688 7.30444,-2.46305 0.89017,-0.25967 0.70347,-1.03952 -0.70528,-2.94582 -2.08842,-2.82602 -5.09486,-15.41654 -4.28817,-17.95821 0.62507,-1.96942 0.89654,-12.20817 0.33848,-12.76624 -0.22614,-0.22612 -2.00339,0.0285 -3.94946,0.56584 -2.51621,0.69475 -3.38569,1.3747 -3.00997,2.35383 0.2906,0.75726 -0.0991,1.61763 -0.86603,1.91193 -0.76692,0.29429 -2.25122,3.54784 -3.29846,7.23013 -1.04724,3.68228 -2.53752,8.89067 -3.31174,11.57419 -1.45079,5.02859 -1.98975,16.27791 -0.86693,18.09469 0.4178,0.676 1.64551,0.25598 3.59683,-1.23055 1.6294,-1.24127 5.70473,-3.20631 9.05629,-4.36674 z m -31.875,4.28627 c 0,-0.20265 -0.63281,-0.61128 -1.40625,-0.90808 -0.77344,-0.29679 -1.40625,-0.13099 -1.40625,0.36845 0,0.49944 0.63281,0.90808 1.40625,0.90808 0.77344,0 1.40625,-0.16581 1.40625,-0.36845 z M 100.3125,253.125 c 0,-0.51563 -0.446775,-0.9375 -0.992831,-0.9375 -0.546057,0 -0.732094,0.42187 -0.413419,0.9375 0.318675,0.51562 0.76545,0.9375 0.992831,0.9375 0.227379,0 0.413419,-0.42188 0.413419,-0.9375 z m 6.81472,-0.61494 c -0.63472,-0.2568 -1.90034,-0.27243 -2.8125,-0.0348 -0.91216,0.2377 -0.39284,0.44781 1.15403,0.46692 1.54688,0.0191 2.29318,-0.17537 1.65847,-0.43218 z M 97.5,250.3125 c -1.834247,-1.18538 -3.75,-1.18538 -3.75,0 0,0.51562 1.160156,0.93104 2.578125,0.92315 2.009006,-0.0112 2.267691,-0.21498 1.171875,-0.92315 z m 98.48833,-5.47113 c 6.59163,-4.20467 10.97263,-9.40334 13.93046,-16.53045 3.24091,-7.80923 4.52041,-13.62342 2.99804,-13.62342 -0.57301,0 -1.04183,0.84375 -1.04183,1.875 0,1.03125 -0.54304,1.875 -1.20675,1.875 -1.52704,0 -1.85655,-3.72443 -0.47662,-5.38716 0.72713,-0.87613 0.74443,-1.55178 0.0573,-2.23889 -1.39614,-1.39613 -3.32188,4.85579 -2.50195,8.12263 0.492,1.9603 0.33695,2.45405 -0.66157,2.10671 -0.96406,-0.33536 -1.26635,-2.13983 -1.15908,-6.91911 0.0798,-3.55598 -0.055,-5.51621 -0.29958,-4.35605 -0.24457,1.16015 -0.8708,2.10937 -1.3916,2.10937 -0.59882,0 -0.74301,-2.32633 -0.39226,-6.32812 0.39739,-4.53375 0.29419,-5.73 -0.36391,-4.21875 -1.56849,3.60176 -2.16087,2.33602 -1.47518,-3.15202 0.46149,-3.6936 0.35399,-5.07389 -0.36073,-4.63217 -0.55995,0.34607 -1.0181,1.36744 -1.0181,2.26971 0,0.90227 -0.66412,2.4594 -1.47583,3.46029 -1.42405,1.75597 -1.45693,1.73758 -0.937,-0.52394 1.49908,-6.52052 1.73563,-9.64653 0.68061,-8.99449 -0.59416,0.3672 -1.08028,1.27556 -1.08028,2.01857 0,0.74301 -0.44839,1.35092 -0.99643,1.35092 -0.54803,0 -0.87497,-0.73828 -0.72652,-1.64063 0.14845,-0.90234 -0.0963,-2.22535 -0.54397,-2.94002 -0.65393,-1.04407 -1.12218,-0.89068 -2.3828,0.78056 -1.7554,2.32719 -7.52816,3.18545 -8.21913,1.22196 -0.24439,-0.69446 0.38328,-1.17187 1.54073,-1.17187 1.27145,0 1.95312,-0.60201 1.95312,-1.72486 0,-1.40107 -1.24882,-1.94803 -6.65264,-2.91375 -6.19395,-1.10692 -6.74143,-1.40138 -7.94032,-4.27074 -1.09843,-2.62892 -1.08777,-4.02629 0.0726,-9.50813 2.6091,-12.32609 2.72269,-19.699 0.43839,-28.45752 -2.59144,-9.93627 -3.65332,-12.01967 -8.03294,-15.76065 -4.12933,-3.52718 -4.1499,-3.52981 -8.62555,-1.10453 -9.70413,5.2585 -14.83133,9.63143 -16.20689,13.82267 -0.63382,1.9312 -1.86634,4.01688 -2.73894,4.63485 -2.01596,1.42771 -9.88005,13.03054 -11.1938,16.51557 -0.54719,1.45153 -0.9949,4.75008 -0.9949,7.3301 0,2.58002 -1.0227,8.77522 -2.27269,13.7671 -3.38411,13.51468 -3.46929,17.48795 -0.39208,18.29266 3.61703,0.94588 15.31705,-5.54985 15.32506,-8.5083 0.002,-0.81899 1.47877,-2.30808 3.28125,-3.30911 1.80246,-1.00102 3.61458,-2.40737 4.02692,-3.1252 1.16958,-2.0361 5.97071,-1.65756 6.53899,0.51556 0.60702,2.32127 0.0242,2.86678 -3.06277,2.86678 -1.44687,0 -3.4167,0.98342 -4.69468,2.34375 -1.8226,1.94007 -1.93148,2.34375 -0.63216,2.34375 0.86331,0 1.56966,0.64605 1.56966,1.43567 0,2.97234 3.70357,2.71978 11.01563,-0.7512 1.16016,-0.55072 2.10937,-1.53793 2.10937,-2.19381 0,-1.84365 1.64324,-2.43067 3.70915,-1.32503 2.95821,1.58319 3.89891,4.10067 2.58756,6.92479 -1.32014,2.84307 -2.88273,2.75847 -3.31503,-0.17948 -0.37268,-2.5327 -1.58436,-2.54861 -7.13415,-0.0937 -2.41496,1.06825 -5.73812,1.86926 -7.3848,1.78002 -1.64668,-0.0892 -3.52132,-0.11952 -4.16585,-0.0673 -1.80084,0.14597 -1.38931,4.61467 0.58029,6.30109 1.48342,1.27015 1.62216,2.09554 0.90458,5.38145 -0.46618,2.13466 -1.4656,5.21059 -2.22092,6.83539 -0.75533,1.6248 -1.37333,4.45262 -1.37333,6.28406 0,3.04127 0.30014,3.41274 3.46291,4.28602 1.90461,0.52589 3.63942,0.77966 3.85514,0.56393 0.21573,-0.21572 -0.0793,-3.10019 -0.6557,-6.40992 -0.86848,-4.98721 -0.80407,-6.60136 0.37619,-9.42611 1.90321,-4.55503 3.68559,-4.49035 2.95476,0.10721 -0.30737,1.93359 -0.1676,4.14542 0.3106,4.91519 0.71727,1.15458 1.49843,0.78538 4.46293,-2.10938 3.93778,-3.84514 5.52526,-4.51535 4.01616,-1.69557 -1.36775,2.55566 -1.21435,3.01883 0.67014,2.02339 3.12363,-1.65 8.49049,-3.83676 9.41638,-3.83676 0.51144,0 1.18952,-0.67658 1.50684,-1.50351 0.34716,-0.90468 1.16761,-1.27687 2.0599,-0.93448 0.8156,0.31299 2.70635,-0.15363 4.20164,-1.03692 2.19884,-1.29889 2.94456,-1.37793 3.89979,-0.4134 0.95078,0.96005 0.86877,1.36884 -0.42062,2.0965 -0.97771,0.55176 -1.37294,1.49999 -1.01452,2.43401 0.49174,1.28145 0.10941,1.43456 -2.35259,0.94217 -2.1527,-0.43054 -3.16221,-0.19044 -3.77066,0.89682 -1.39575,2.49406 0.74897,9.88979 4.15079,14.31329 3.02837,3.93791 4.24223,8.51802 2.25751,8.51802 -0.50871,0 -1.54187,-1.47656 -2.29591,-3.28125 -1.52228,-3.6433 -3.49005,-4.4726 -2.78069,-1.17187 0.24933,1.16015 0.6244,3.75319 0.83349,5.76232 0.20909,2.00912 0.82462,4.0974 1.36785,4.64063 0.54328,0.54324 0.98774,1.74707 0.98774,2.6752 0,1.45966 0.86125,1.6875 6.37896,1.6875 5.40088,0 7.01801,-0.40764 10.54687,-2.65863 z m -49.97271,-75.2177 C 144.08203,168.60289 142.5,167.14497 142.5,166.38385 142.5,165.62273 142.12326,165 141.6628,165 c -0.46046,0 -1.08203,-0.63803 -1.38127,-1.41785 -0.43468,-1.13275 -0.0308,-1.29313 2.00907,-0.79762 1.40423,0.34112 3.3853,1.19008 4.40238,1.8866 2.04298,1.39905 7.62354,1.61613 12.68202,0.4933 3.70068,-0.82145 6.5625,-0.45434 6.5625,0.84181 0,0.47782 -1.45483,0.86876 -3.23295,0.86876 -2.14909,0 -4.08079,0.78575 -5.76189,2.34375 -3.02132,2.80006 -6.16912,2.91671 -10.92703,0.40492 z m -2.57812,-10.26446 c 0,-1.08569 3.15071,-2.79671 5.14995,-2.79671 0.83776,0 1.28814,0.38033 1.00086,0.84518 -0.77399,1.25234 -6.15081,2.95829 -6.15081,1.95153 z m 11.25,-8.13582 c -1.95038,-1.93796 -2.39588,-2.07217 -2.65437,-0.79963 -0.18513,0.91137 -0.94266,1.35713 -1.875,1.10332 -0.86041,-0.23422 -3.14641,-0.69275 -5.08001,-1.01895 -3.71321,-0.62642 -4.22568,-1.29807 -2.39062,-3.13313 2.20604,-2.20604 8.54319,-1.32718 12.75281,1.7686 2.16408,1.59148 3.93469,3.27898 3.93469,3.75 0,1.5292 -2.28808,0.71393 -4.6875,-1.67021 z m 0.35771,90.13417 c 0.32015,-0.8343 0.16299,-1.21062 -0.36844,-0.88217 -0.50972,0.31502 -0.92677,0.96975 -0.92677,1.45494 0,1.34853 0.67197,1.05137 1.29521,-0.57277 z M 100.3125,229.6875 c 0,-0.51563 -0.446775,-0.9375 -0.992831,-0.9375 -0.546057,0 -0.732094,0.42187 -0.413419,0.9375 0.318675,0.51562 0.76545,0.9375 0.992831,0.9375 0.227379,0 0.413419,-0.42188 0.413419,-0.9375 z M 97.5,219.00655 c 0,-0.20265 -0.632813,-0.61128 -1.40625,-0.90808 -0.773438,-0.29679 -1.40625,-0.13099 -1.40625,0.36845 0,0.49944 0.632812,0.90808 1.40625,0.90808 0.773437,0 1.40625,-0.16581 1.40625,-0.36845 z m -81.054249,-4.38296 c 0.340398,-0.55078 1.209046,-0.77496 1.930328,-0.49818 0.721282,0.27679 1.944234,0.26041 2.717671,-0.0364 2.609652,-1.00142 1.430852,-3.16394 -2.861406,-5.24929 -3.65656,-1.77649 -4.38931,-1.87655 -5.117241,-0.69873 -0.757682,1.22596 -0.399512,4.88589 0.663592,6.78086 0.570643,1.01717 1.949358,0.86297 2.667056,-0.29828 z M 65.686632,189.34202 C 67.092661,188.58953 67.5,187.36108 67.5,183.87326 c 0,-5.35559 -0.66338,-6.28694 -2.982894,-4.18781 -1.078769,0.97627 -3.325258,1.56455 -5.97467,1.56455 l -4.245867,0 0.206757,4.53125 0.206758,4.53125 4.581591,0 c 2.519874,0 5.397605,-0.43672 6.394957,-0.97048 z m 133.772318,-4.8889 c -0.21163,-0.64453 -1.61788,-1.28371 -3.125,-1.42042 l -2.7402,-0.24855 2.34375,1.38721 c 2.90265,1.718 4.02248,1.8076 3.52145,0.28176 z m -13.82664,-2.34375 c 0.004,-0.38671 1.05871,-1.19077 2.34375,-1.78679 1.52306,-0.70641 2.33644,-0.74805 2.33644,-0.11958 0,0.64975 0.38208,0.65629 1.17187,0.0201 0.64454,-0.51923 2.64016,-1.25856 4.43474,-1.64297 3.09702,-0.66341 3.19231,-0.60936 1.875,1.06361 -1.279,1.62431 -1.25918,1.66164 0.25276,0.4759 0.90235,-0.70767 1.64063,-1.86783 1.64063,-2.57813 0,-0.7103 0.41133,-1.29146 0.91406,-1.29146 0.52431,0 0.66351,1.25279 0.32645,2.93806 -0.80064,4.00317 1.68288,3.22129 2.86546,-0.90214 1.15642,-4.03222 2.8268,-3.83481 2.06167,0.24365 l -0.60352,3.21707 2.68701,-2.51395 c 3.5023,-3.27671 4.87387,-5.94551 4.87387,-9.48357 0,-3.82472 1.65486,-3.69079 2.13431,0.17274 0.26408,2.12792 0.42337,1.58597 0.52815,-1.79687 0.0902,-2.91309 0.61505,-4.99875 1.31667,-5.23263 1.6664,-0.55546 -3.03925,-7.36911 -9.33268,-13.51347 -2.81892,-2.75215 -5.26788,-5.0039 -5.44214,-5.0039 -0.17425,0 -0.46955,0.73828 -0.65621,1.64062 -0.21284,1.02887 -1.84268,-1.22831 -4.37095,-6.05335 -4.56738,-8.71656 -10.16728,-14.78389 -13.70554,-14.84959 -2.84148,-0.0528 -2.84605,-0.01 -0.36934,3.46844 1.0875,1.52726 1.6742,3.06895 1.30377,3.42599 -0.37042,0.35702 -1.36566,-0.40555 -2.21164,-1.69461 -2.97975,-4.5404 -5.32354,-5.95455 -10.36684,-6.25497 -3.04166,-0.18118 -4.64966,0.0582 -4.29083,0.63885 0.31566,0.51074 1.17853,0.92862 1.91747,0.92862 0.73895,0 2.08514,1.42006 2.99155,3.15568 0.9064,1.73563 2.87852,5.42704 4.38247,8.20313 1.57992,2.91631 3.1714,7.81826 3.76929,11.60994 1.1747,7.44966 0.83018,16.40625 -0.63107,16.40625 -0.62216,0 -0.77576,-1.70437 -0.42245,-4.6875 0.30534,-2.57812 0.17902,-4.6875 -0.28072,-4.6875 -0.45974,0 -1.09248,2.00391 -1.4061,4.45313 -0.31363,2.44921 -1.03569,7.01944 -1.60459,10.15605 -1.12187,6.18536 -0.5264,10.4892 1.56216,11.29066 2.0862,0.80055 6.45593,-1.76343 7.806,-4.58026 0.67737,-1.41327 1.63043,-2.56958 2.11792,-2.56958 1.43257,0 1.0368,1.39163 -1.42915,5.02542 -1.27353,1.87664 -1.90634,3.41208 -1.40625,3.41208 0.50008,0 0.91253,-0.31641 0.91655,-0.70313 z M 62.874132,178.09202 c 0.997353,-0.53377 1.813368,-1.53157 1.813368,-2.21733 0,-0.68575 0.899355,-2.39017 1.998566,-3.78759 4.268841,-5.42696 8.164411,-23.72254 5.41315,-25.42291 -0.564181,-0.34869 -0.834133,-1.63653 -0.599893,-2.86188 0.24288,-1.27055 -0.160029,-2.71418 -0.937625,-3.35952 -1.104337,-0.91652 -1.688095,-0.70132 -3.071092,1.13216 -1.662019,2.2034 -1.654663,2.33972 0.275741,5.11004 1.090825,1.56545 2.531831,3.18363 3.202235,3.59597 2.013289,1.2383 1.411079,3.46904 -0.936499,3.46904 -1.601006,0 -2.452417,-0.82133 -3.310082,-3.19317 -0.635066,-1.75624 -2.758697,-5.00068 -4.71918,-7.20987 -3.479583,-3.921 -3.635263,-3.98741 -6.533669,-2.78684 -1.633034,0.67642 -2.969152,1.77633 -2.969152,2.44425 0,0.66791 -0.527344,1.41135 -1.171875,1.6521 -0.734252,0.27427 -0.471678,0.68203 0.703125,1.0919 6.084863,2.12295 6.312146,2.32559 5.583551,4.97828 -0.385912,1.40503 -0.745397,3.43918 -0.798855,4.52032 -0.05346,1.08115 -0.575824,2.55772 -1.160815,3.28125 -2.017074,2.4948 -2.380905,7.07874 -0.852234,10.73736 0.809444,1.93727 1.220747,3.77328 0.914008,4.08002 C 55.018535,174.04397 52.5,170.68849 52.5,169.05967 c 0,-0.94721 -0.504427,-0.97714 -2.34375,-0.13909 -3.109294,1.41669 -2.968932,4.03597 0.396635,7.40153 2.146842,2.14685 3.581568,2.74039 6.624132,2.74039 2.136062,0 4.699763,-0.43672 5.697115,-0.97048 z M 222.1875,169.21845 c 0,-3.23517 -2.18485,-9.34489 -3.66999,-10.26276 -0.48725,-0.30113 -0.0402,1.85871 0.99347,4.79965 1.46834,4.17769 1.65899,5.83085 0.8717,7.55877 -1.36431,2.99432 -1.26814,3.50663 0.39857,2.12339 0.77344,-0.6419 1.40625,-2.54047 1.40625,-4.21905 z m -190.868519,2.10967 c -2.417791,-4.24995 -7.098713,-5.80878 -10.666831,-3.55224 -1.729932,1.09404 -1.457556,1.32199 3.72285,3.11551 5.326952,1.84426 7.834434,2.00197 6.943981,0.43673 z M 44.0625,169.63217 c 0,-0.4852 -0.895406,-0.88217 -1.989792,-0.88217 -1.655868,0 -1.795372,0.23426 -0.831275,1.39593 1.170969,1.41093 2.821067,1.11042 2.821067,-0.51376 z m 174.59536,-2.02345 c -0.9682,-2.0097 -1.03482,-1.94309 -1.09441,1.0944 -0.0484,2.4654 0.19674,2.97419 1.03096,2.13997 0.8092,-0.8092 0.82574,-1.6521 0.0635,-3.23437 z M 46.775388,164.65128 c 0.847204,-1.02083 0.490409,-1.52526 -1.729125,-2.44462 -3.935175,-1.63 -5.479786,-3.63499 -3.73598,-4.84949 1.150569,-0.80133 1.141818,-0.88237 -0.06028,-0.55823 -1.791516,0.48305 -2.231953,3.39014 -1.003247,6.62188 1.063754,2.79788 4.664557,3.47653 6.528635,1.23046 z m 176.433672,-3.64894 c -0.49825,-1.31048 -1.36096,-2.66394 -1.91714,-3.00768 -0.55618,-0.34373 -0.29565,0.87561 0.57895,2.70966 1.7875,3.74842 2.72982,3.95828 1.33819,0.29802 z M 51.09375,158.64068 c -3.089217,-2.65167 -5.458926,-8.02839 -4.979144,-11.29736 0.302374,-2.0602 0.05511,-2.96832 -0.808224,-2.96832 -0.856694,0 -1.290119,1.53205 -1.392423,4.92187 -0.288987,9.57555 0.460722,11.03206 5.653958,10.98444 3.317797,-0.0305 3.355052,-0.0705 1.525833,-1.64063 z M 6.8972307,152.10937 c -0.6850735,-2.6112 -3.6584306,-2.78265 -4.9935578,-0.28795 -0.6911999,1.29152 -0.6513171,2.53139 0.1370881,4.26175 l 1.1118846,2.44032 2.1489998,-2.15237 c 1.4909703,-1.49331 1.9795428,-2.79827 1.5955853,-4.26175 z m 47.3847913,2.34375 c 1.087438,-2.9254 0.406775,-4.15599 -2.6353,-4.7644 -2.144646,-0.42893 -2.622894,-1.03103 -2.689865,-3.38645 -0.0448,-1.57562 0.312208,-2.86477 0.793346,-2.86477 0.481138,0 0.874797,-0.61185 0.874797,-1.35967 0,-0.74781 0.687359,-1.74433 1.527466,-2.21447 0.840106,-0.47015 1.344075,-1.40499 1.119932,-2.07742 -0.274311,-0.82293 -1.233344,-0.332 -2.933716,1.50177 -2.017922,2.17624 -2.526182,3.63466 -2.526182,7.24871 0,4.4828 1.197413,7.97997 3.187222,9.3086 1.708549,1.14083 2.45915,0.82253 3.2823,-1.3919 z m 161.304538,-3.5696 c -1.12261,-1.57656 -2.278,-2.62959 -2.56753,-2.34005 -0.47849,0.47848 3.37138,5.20653 4.23948,5.20653 0.20304,0 -0.54934,-1.28992 -1.67195,-2.86648 z M 20.500545,145.22723 c 2.469752,-2.30092 2.289789,-5.07098 -0.329447,-5.07098 -2.019977,0 -4.354128,3.7513 -3.583582,5.75932 0.668024,1.74084 1.454029,1.60257 3.913029,-0.68834 z m 187.194255,0.14764 c -0.33988,-0.54993 -1.06659,-0.99987 -1.61492,-0.99987 -0.62166,0 -0.55053,0.53792 0.18893,1.42891 1.28582,1.54931 2.43499,1.20356 1.42599,-0.42904 z m -3.3198,-3.28829 c 0,-0.22738 -0.42188,-0.67415 -0.9375,-0.99283 -0.51563,-0.31868 -0.9375,-0.13264 -0.9375,0.41342 0,0.54605 0.42187,0.99283 0.9375,0.99283 0.51562,0 0.9375,-0.18604 0.9375,-0.41342 z M 64.612407,138.04687 c 0.880047,-1.51095 0.963039,-1.49242 1.049978,0.23438 0.0944,1.875 0.0944,1.875 0.848228,0 1.791937,-4.45709 -2.729484,-6.92799 -7.337963,-4.01011 -3.325498,2.10555 -3.772688,3.54136 -1.102978,3.54136 1.000819,0 2.080404,0.42187 2.399078,0.9375 0.908748,1.47038 3.093645,1.09964 4.143657,-0.70313 z m 75.075093,-3.0019 c 0,-0.94565 0.60007,-1.94963 1.33348,-2.23107 0.81612,-0.31318 1.13742,-1.2614 0.82816,-2.44405 -0.39278,-1.502 -0.0634,-1.93235 1.47902,-1.93235 1.09139,0 1.98434,-0.42188 1.98434,-0.9375 0,-0.51563 1.05469,-0.9375 2.34375,-0.9375 1.28906,0 2.34375,-0.39097 2.34375,-0.86884 0,-1.09758 5.37546,-3.81866 7.54373,-3.81866 0.89686,0 1.86469,-0.60986 2.15072,-1.35526 0.37715,-0.98281 1.43528,-1.20674 3.85031,-0.81484 2.67488,0.43408 3.33024,0.23955 3.33024,-0.98849 0,-1.74802 1.22607,-1.94218 3.74653,-0.59327 1.29695,0.69411 2.13676,0.54715 3.25321,-0.5693 0.82772,-0.82773 2.31806,-1.29232 3.31188,-1.03243 2.87346,0.75143 4.2021,-1.60624 2.8054,-4.97818 -0.64551,-1.5584 -1.52561,-3.05098 -1.95576,-3.31682 -0.43017,-0.26586 -0.16429,0.99527 0.59082,2.80249 1.67731,4.01437 1.68705,4.2836 0.155,4.2836 -0.66985,0 -1.75185,-1.47656 -2.40443,-3.28125 -0.74624,-2.06369 -1.80096,-3.28125 -2.84242,-3.28125 -0.91074,0 -2.19155,-1.00088 -2.84625,-2.22419 -1.45898,-2.72614 -7.44226,-6.21331 -10.66078,-6.21331 -3.67609,0 -10.9657,3.46228 -10.9657,5.20828 0,0.8387 -1.47656,3.24994 -3.28125,5.35831 -1.80469,2.10837 -3.28125,4.2245 -3.28125,4.7025 0,0.478 -1.21357,3.46066 -2.69682,6.62813 -3.46655,7.4028 -4.08754,10.20969 -2.93147,13.25039 1.0105,2.65781 2.81579,2.39165 2.81579,-0.41514 z m -3.75,-12.79301 c 0,-4.01188 7.89637,-19.10526 14.01686,-26.792269 2.64551,-3.322608 3.55041,-5.142424 2.88697,-5.805862 -1.75452,-1.75452 -1.02355,-3.272887 4.44298,-9.228905 8.10201,-8.827502 8.02612,-8.700906 6.59764,-11.005067 -0.90485,-1.45953 -0.94508,-2.153638 -0.15369,-2.651588 2.47466,-1.557078 11.58424,-16.426831 11.58424,-18.909199 0,-1.433416 0.77194,-3.612322 1.71542,-4.842015 5.88631,-7.671951 1.45877,-7.242867 -6.62196,0.64175 -3.47159,3.387343 -6.74161,5.893284 -7.2667,5.568758 -1.3064,-0.807395 -6.56432,5.11409 -6.62914,7.465744 -0.10676,3.873418 -3.40934,10.296012 -5.55477,10.80248 -1.18948,0.280798 -2.97237,2.110001 -4.1265,4.233689 -1.11767,2.0566 -2.8531,4.967736 -3.85652,6.469191 -1.00341,1.501454 -1.95865,3.732501 -2.12275,4.957884 C 140.34833,86.899463 138.86205,90 137.56909,90 c -2.50753,0 -4.50387,5.529263 -5.48688,15.19706 -1.27433,12.53275 -1.23246,17.92833 0.15929,20.52884 1.08995,2.03658 1.17614,2.04935 2.41316,0.35762 0.70557,-0.96491 1.28284,-2.68911 1.28284,-3.83156 z m -3.39382,-3.89258 c 0.2654,-0.90235 1.12964,-4.17188 1.92053,-7.26563 2.58556,-10.11404 9.2457,-24.465038 13.2545,-28.560268 2.41081,-2.462786 1.47249,0.58397 -2.00959,6.52523 -5.82469,9.938326 -8.17457,15.954258 -11.07893,28.363168 -0.33187,1.41796 -1.04568,2.57812 -1.58623,2.57812 -0.54054,0 -0.76567,-0.73828 -0.50028,-1.64062 z m 44.02983,-12.93106 c -0.30533,-0.79568 -0.75621,-1.24562 -1.00195,-0.99988 -0.24575,0.24575 -0.16873,0.89676 0.17114,1.44669 0.92442,1.49574 1.46473,1.20516 0.83081,-0.44681 z"
     id="path4146"
     inkscape:connector-curvature="0" />
</svg>
