<?xml version="1.0" encoding="UTF-8" standalone="no"?>
<svg xmlns:rdf="http://www.w3.org/1999/02/22-rdf-syntax-ns#" xmlns="http://www.w3.org/2000/svg" height="910.47" viewBox="0 0 639.03955 910.4701" width="639.04" version="1.1" xmlns:cc="http://creativecommons.org/ns#" xmlns:dc="http://purl.org/dc/elements/1.1/">
<path d="m167.68 909.62c0.28691-0.46947 1.0641-1.6986 1.727-2.7314l1.2054-1.8778h-1.1394c-1.5348 0-1.4534-0.1401 0.92518-1.5933l2.0491-1.2519 17.291-27.27c9.5098-14.998 17.291-27.347 17.291-27.442 0-0.0945-0.48652-0.29709-1.0812-0.45013-7.5568-1.9449-10.192-12.662-4.6138-18.766l1.1581-1.2671-3.3937-7.471c-7.5879-16.704-23.095-49.795-33.092-70.614l-1.684-3.5072-0.6482 1.1172c-8.9587 15.441-28.43 17.022-44.506 3.6153-14.778-12.324-18.146-39.422-6.9441-55.872 0.81073-1.1906 1.152-1.8726 0.96828-1.9352-0.156-0.0533-1.5128-0.31402-3.015-0.57963-25.598-4.526-52.539-12.696-75.838-23-5.9803-2.6446-8.2627-3.7207-14.461-6.8176-6.523-3.2592-8.8008-4.4716-15.225-8.1038l-3.7781-2.1363-0.1475-3.0134c-1.003-20.492-0.96134-209.01 0.0668-301.96l0.19229-17.386 0.97285-1.3924c5.7738-8.2639 14.729-17.843 23.986-25.657 1.245-1.051 2.6076-2.2182 3.0278-2.5938l0.76406-0.68286-0.26711-1.7071c-0.98127-6.2714 1.4841-13.815 4.9212-15.058 0.93542-0.33827 0.9334-0.32427 0.22963-1.5864-3.7766-6.7727-2.5834-15.673 2.9158-21.75 1.6862-1.8633 4.5485-2.497 8.2808-1.8333l0.96738 0.17201v-22.082-22.082l-6.9992-0.005c-5.1317-0.003-7.402-0.0892-8.5086-0.32388-10.49-2.2236-10.503-16.809-0.01587-18.996 0.77172-0.16093 4.7482-0.2523 11.039-0.25363l9.8333-0.001-2.4651-1.0071c-32.368-13.223-22.799-61.591 12.182-61.583 35.127 0.008 44.083 49.681 11.163 61.918l-1.7603 0.6543 13.248 0.0105c8.7497 0.008 13.657 0.0965 14.454 0.26261 10.458 2.1808 10.47 16.774 0.0157 18.989-1.1958 0.25338-3.6696 0.32742-11.044 0.33048l-9.503 0.005v27.657 27.657l3.3574-1.6813c41.793-20.93 111.32-42.61 149.93-46.74l1.5933-0.17058 0.95224-2.6176c3.2508-8.9362 2.8336-10.954-3.2896-15.903-4.8522-3.9222-5.5092-6.8433-2.7035-12.019l0.76162-1.405-0.62184-0.45975c-2.5868-1.9126-2.3542-4.6337 0.80255-9.3868 4.4385-6.683 4.8488-10.122 1.6632-13.942l-0.54225-0.65019-2.3807 0.72093c-5.419 1.641-8.6324 0.96086-13.316-2.8184-7.2081-5.8163-4.6252-11.714 13.016-29.72 7.1536-7.3016 9.0175-9.3494 10.509-11.545 3.4549-5.0876 5.043-14.466 5.3348-31.504l0.057-3.3305-1.4826-0.69052c-7.5635-3.5227-8.4962-15.168-1.574-19.654 1.4393-0.93266 3.0306 1.559-13.032-20.406-7.67-10.489-17.98-24.594-22.92-31.354-4.93-6.7602-9.13-12.471-9.32-12.69-0.33-0.37897 6.16-0.398 135.81-0.398h136.15l-1.2594 1.8778-1.2594 1.8778 0.71891 0.0738 0.71892 0.0737-1.2208 0.73304c-1.5942 0.95729-39.027 58.249-38.129 58.357 9.423 1.1332 13.511 12.186 7.0778 19.136l-1.2544 1.3549 3.0441 6.6837c6.6303 14.558 16.875 36.497 25.813 55.28 9.2458 19.43 8.4877 17.925 8.7826 17.439 9.7237-16.031 27.74-17.931 44.409-4.6847 13.485 10.716 18.21 34.56 10.186 51.406-0.43521 0.91373-0.58668 1.4548-0.42102 1.5039 0.14235 0.0421 1.0782 0.19745 2.0797 0.34511 36.6 5.396 75.301 18.881 108.83 37.918l2.9839 1.6945 0.15495 2.6707c0.30058 5.1818 0.5793 34.633 0.58429 61.737 0.008 38.8-0.32995 93.676-1.1611 189.04l-0.27179 31.184-15.418 22.038-15.418 22.038 0.52455 1.2927c2.4662 6.0776-0.41204 17.219-5.3286 20.626-1.1116 0.77034-1.0912 0.61074-0.2367 1.8527 5.0302 7.3112 4.0446 20.321-1.7338 22.887l-0.92532 0.4108 0.85202 1.7467c5.0614 10.377-0.24837 23.653-9.3011 23.256l-2.3331-0.10215v22.838 22.838h7.1281c9.3805 0 10.745 0.27937 13.453 2.7543 5.7351 5.2415 3.1932 14.671-4.44 16.47-1.1882 0.2801-3.4078 0.34587-11.93 0.35361l-10.47 0.009 2.2042 0.8741c31.276 12.403 24.657 58.526-8.862 61.753-36.28 3.4928-48.429-48.276-14.488-61.733l2.2534-0.89348-12.659-0.006c-13.762-0.006-14.261-0.0442-16.743-1.2614-6.7565-3.3135-7.0153-12.95-0.45184-16.825 2.3626-1.3948 3.2989-1.4949 13.984-1.4949h9.5337l0.033-27.769c0.029-24.271-0.009-27.769-0.30088-27.769-0.18366 0-2.0506 0.46617-4.1489 1.036-45.914 12.468-121.74 31.998-145.43 37.456l-3.2258 0.74328-0.28179 1.0388c-0.15499 0.57138-1.1246 3.2923-2.1548 6.0465-4.6854 12.526-4.5764 13.706 1.7589 19.04 5.0834 4.28 5.7724 6.7516 3.2566 11.682l-0.97122 1.9034 0.67881 0.64468c2.6027 2.4719 2.2922 4.5618-1.5176 10.213-3.6172 5.3655-4.0009 8.3685-1.5664 12.261 0.94804 1.5157 0.77137 1.4949 4.0625 0.47811 4.835-1.4937 8.3855-0.57246 13.135 3.4081 6.6084 5.5389 3.9807 11.386-12.892 28.686-11.657 11.952-12.392 12.968-14.132 19.54-1.9061 7.1957-3.2333 29.284-1.7596 29.284 8.5738 0 10.741 16.774 2.6752 20.707-0.37557 0.18312-0.71979 0.35623-0.76496 0.38466-0.0451 0.0285 10.206 14.321 22.78 31.76 12.574 17.44 22.937 31.837 23.028 31.993 0.13275 0.22747-27.104 0.28452-135.87 0.28452h-136.03l0.52166-0.85356zm176.25-3.9006c-0.20431-0.19071-21.475-0.29848-127.03-0.64363l-42.594-0.13935-0.26352 0.49236-0.26351 0.49239h85.183c49.544 0 85.092-0.0844 84.966-0.20183zm41.779-0.0328c-20.844-0.0828-37.996-0.0638-38.115 0.0421-0.11895 0.1059 16.935 0.1736 37.898 0.15044l38.115-0.0421-37.898-0.15042zm37.659-3.6087c-0.11895-0.11085-10.099-6.4628-22.177-14.115l-21.961-13.914-13.832 13.83c-7.6074 7.6066-13.832 13.907-13.832 14.001 0 0.0937 13.392 0.19693 29.761 0.22917 16.369 0.0322 32.573 0.0838 36.009 0.1146 3.6349 0.0326 6.1577-0.0282 6.0319-0.1455zm-85.124-0.67914c-0.2469-0.23402-5.4167-4.2463-11.488-8.9162-6.0717-4.6699-14.081-10.832-17.798-13.694l-6.7583-5.2032-18.54 13.949-18.54 13.949 10.276 0.1173c30.449 0.34758 63.317 0.24228 62.849-0.20132zm24.372-15.746 16.172-16.171 24.116 15.296c13.264 8.4126 24.475 15.508 24.913 15.769l0.79667 0.47288-0.34143-0.50873c-0.18779-0.27981-8.8942-12.333-19.348-26.786l-19.006-26.277-89.454-0.007-89.454-0.008-16.237 25.507c-8.9304 14.029-16.203 25.538-16.161 25.576 0.0653 0.0585 9.4649-5.4801 44.445-26.188l6.3564-3.763 0.95606 0.98133c0.52585 0.53973 6.9735 7.2807 14.328 14.98 7.3546 7.6992 13.847 14.485 14.428 15.08l1.0557 1.0811 21.028-15.822 21.028-15.821 0.75405 0.57515c0.41475 0.31633 9.9898 7.6921 21.278 16.391 18.492 14.25 20.605 15.815 21.349 15.815 0.78845 0 1.537-0.71213 16.997-16.171zm-109.07 13.361c-1.358-1.4206-7.4802-7.8142-13.605-14.208l-11.136-11.625-1.0601 0.60795c-0.58304 0.33433-11.277 6.6512-23.765 14.037l-22.705 13.429 17.602 0.11595c9.6811 0.0638 26.498 0.14055 37.37 0.17072l19.768 0.0548-2.469-2.5829zm138.68-56.688c5.486-2.5545 5.5712-10.942 0.13815-13.617l-1.5176-0.7471h-91.849c-87.935 0-91.899 0.0176-93.025 0.41062-6.039 2.107-6.2445 11.654-0.30263 14.058 0.98474 0.39849 4.5837 0.4149 93.209 0.42501l92.185 0.0105 1.1614-0.54078zm-178.52-17.367c3.7303-0.0657 6.7519-0.20473 6.7147-0.30915-0.0372-0.1044-11.424-22.046-25.303-48.759l-25.235-48.569-2.1275-0.9759c-12.29-5.63-20.8-22.03-19.83-38.17l0.13927-2.309-3.809-0.18861c-11.284-0.55875-16.432 0.2373-21.613 3.3416-1.61 0.96478-1.8111 1.219-1.0688 1.3514 0.59359 0.1059 0.50383 0.19479-1.2635 1.2519-1.0463 0.62589-2.1452 1.2916-2.4419 1.4794-1.7953 1.1364-5.6226 7.9333-6.8723 12.205-4.7774 16.329 0.21363 34.495 11.848 43.121 14.977 11.105 30.381 9.303 38.069-4.453 0.34981-0.62595 0.88884-1.3528 1.1978-1.6152l0.56181-0.47709-4.9026-9.7657c-9.1861-18.298-15.723-22.332-21.996-13.572-6.7564 9.4352 5.3812 30.604 12.741 22.222 4.2317-4.8197-0.48776-16.465-4.9726-12.27-2.2707 2.124-4.7884 0.50678-3.0704-1.9722 5.8079-8.3808 17.302 4.6522 12.33 13.981-4.8595 9.1174-17.181 5.0957-21.214-6.9241-3.9934-11.902 1.1101-22.252 11.021-22.353 6.965-0.0708 10.388 3.3195 17.397 17.23 9.6356 19.123 42.739 89.332 45.455 96.404 0.17233 0.44883 0.30946 0.51159 0.82831 0.37908 0.34199-0.0873 3.6738-0.21249 7.4041-0.27812zm32.381-0.46813c-0.0823-0.21909-11.936-23.006-26.342-50.637l-26.193-50.238-1.0082 0.69368c-4.1368 2.8462-9.1518 4.3171-14.714 4.3155-1.7302 0-3.113 0.0867-3.0728 0.19354 0.04 0.10695 11.282 21.766 24.982 48.132l24.909 47.938h10.794c10.185 0 10.786-0.0225 10.644-0.39832zm27.643 0.30001c0-0.1281-68.884-123.17-69.456-124.07l-0.43703-0.68286 0.14505 1.5933c0.52394 5.7578-2.0252 13.055-6.3356 18.136l-1.2532 1.4773 27.003 51.814 27.003 51.814 11.665 0.007c6.416 0.003 11.665-0.0373 11.665-0.0915zm29.59 0.005c0-0.0856-57.576-108.05-57.707-108.21-0.0312-0.038-0.96731 0.39092-2.0803 0.9531-9.2911 4.6932-18.543 3.2197-28.013-4.4614-0.15437-0.12525 0.92112 1.9186 2.39 4.5418 1.4688 2.6232 15.577 27.829 31.35 56.012l28.68 51.242 12.69 0.008c6.9793 0.003 12.69-0.0354 12.69-0.0869zm17.532-2.0118c-4.7633-9.1325-55.745-108.51-55.867-108.9-0.45395-1.455 1.4451-2.6944 2.7395-1.7878 0.26415 0.18502 13.112 24.939 29.356 56.558l28.887 56.229 11.096 0.005c6.103 0.003 11.096-0.0426 11.096-0.1005s-7.3386-12.989-16.308-28.737c-8.9694-15.747-28.492-50.039-43.384-76.203-32.796-57.621-33.242-58.321-40.714-63.923-10.818-8.1098-25.983-7.0167-36.279 2.615-21.205 19.836 4.3486 68.288 29.639 56.199 11.712-5.5988 15.592-18.924 8.8424-30.371-7.8164-13.256-31.379-11.022-24.907 2.3614 3.0691 6.3467 7.6977 6.2895 10.881-0.13455 1.1649-2.3509 2.5017-2.9656 3.592-1.652 2.7215 3.2792-5.7478 11.136-10.65 9.8801-11.053-2.8317-11.173-19.335-0.1625-22.379 21.923-6.0596 37.729 24.055 21.266 40.518l-1.4311 1.4311 29.487 55.25 29.487 55.25h7.216 7.216l-1.0981-2.1055zm66.32-2.39c0.48585-15.807 1.207-22.034 3.2216-27.822 1.9968-5.7365 3.2495-7.3592 14.685-19.022 14.293-14.577 16.863-19.138 12.864-22.824-3.8663-3.5638-6.3138-4.0612-11.403-2.3175-5.4074 1.853-9.4623 1.8285-15.548-0.0939-3.7562-1.1865-5.1304-1.0654-6.5092 0.57321-3.4831 4.1394-1.4024 8.6063 3.5944 7.7167 2.4972-0.44455 4.0222 1.6345 2.1936 2.9905-7.5004 5.5623-14.761-6.6959-7.9839-13.48 2.8639-2.8668 4.2879-2.9351 12.163-0.58353 1.7314 0.51699 5.3804 0.87294 5.3804 0.52485 0-0.0426-0.30219-0.68277-0.67149-1.4226-2.4497-4.9072-1.7766-8.7533 2.7238-15.563 1.0313-1.5606 1.9718-3.115 2.0901-3.4542 0.96578-2.7704-7.4505-5.1589-25.994-7.3766-3.4114-0.408-4.0971-0.7391-4.0971-1.9782 0-2.0047 0.56198-2.1138 6.7698-1.3136 11.041 1.423 16.648 2.4602 20.317 3.7582 1.2116 0.42862 1.4645 0.23178 2.4548-1.9104 1.2622-2.7305 0.86679-3.8501-2.2597-6.3975-7.6748-6.2533-8.3768-9.6667-4.2551-20.69 4.7985-12.833 4.7996-13.112 0.0566-14.799-28.536-10.146-61.64-6.5399-95.012 10.349-8.6547 4.3799-21.772 12.676-21.319 13.483 2.4678 4.3953 71.201 125.11 71.537 125.64l0.32539 0.51213h17.269 17.269l0.13815-4.4954zm-16.249-19.56c-10.038-0.74845-18.731-5.7908-21.529-12.488l-0.35736-0.85524 1.0917 0.96093c7.0718 6.2248 18.145 8.9028 30.501 7.3763 1.2717-0.15711 4.1535 2.6315 4.1764 4.0413 0.009 0.58861-9.7917 1.2697-13.883 0.96466zm-3.0028-11.447c-5.41-1.1409-9.6806-3.8713-11.758-7.5174-0.97166-1.7056-0.90681-1.7943 0.44638-0.61053 2.273 1.9884 6.9671 4.057 10.911 4.8086 2.022 0.38527 1.8549 0.51369 1.554-1.1944-0.4458-2.5308 0.35684-5.4691 1.8334-6.7115 3.0324-2.5516 6.2976 2.1365 5.1781 7.4348l-0.18633 0.88176 1.4478-0.15506c1.6722-0.17905 2.2686 0.13815 3.284 1.7465 1.068 1.6918-6.98 2.5257-12.711 1.3172zm211.57-14.086c19.722-5.0627 27.983-28.444 15.777-44.657-12.561-16.685-38.405-14.469-47.915 4.1087-11.076 21.638 8.684 46.569 32.137 40.549zm-396.8-50.65c16.287-3.4076 23-23.053 12.556-36.741-5.7077-7.4801-17.973-4.0304-17.543 4.9342 0.36508 7.6121 7.5994 8.8647 9.7553 1.6891 0.6511-2.1671 1.3987-2.7176 2.8143-2.0726 2.445 1.114-0.75937 8.407-4.3665 9.938-7.7953 3.3088-15.224-7.7818-10.301-15.38 7.4391-11.483 20.994-8.6642 26.3 5.4694 0.5794 1.5435 0.86485 1.3422 0.32281-0.22763-3.1042-8.9906-3.0099-19.427 0.24411-27.019 0.6233-1.4541 0.71499-1.2904-1.6455-2.9355-18.644-12.993-43.836-3.0948-48.422 19.027-5.0338 24.281 11.084 47.336 30.286 43.318zm421.06-10.955c4.8412-1.4377 6.1474-8.0787 2.2768-11.576-1.9394-1.7521 1.2364-1.6091-35.723-1.6091h-33.118l-1.3042 0.64043c-5.4718 2.687-4.4757 11.84 1.3867 12.742 2.1278 0.32734 65.347 0.13905 66.482-0.19803zm-18.424-20.015v-3.7577l-12.007 0.0589-12.007 0.0589-0.0625 3.6988-0.0625 3.6988h12.069 12.069v-3.7577zm-299.3-3.4327c21.364-13.923 48.881-23.29 71.568-24.361l3.1866-0.15057 1.9471-1.2941c1.0709-0.71178 2.761-1.6241 3.7557-2.0275 0.99473-0.4033 1.9861-0.80532 2.2031-0.89334 0.34329-0.13935 0.25841-0.35211-0.65386-1.6396-2.4576-3.4685-3.7862-7.6688-3.3496-10.59 0.18585-1.2436 0.16811-1.4736-0.11385-1.4736-0.1837 0-2.3917 0.26006-4.9065 0.57789-31.718 4.0088-60.767 13.363-83.457 26.876l-2.4048 1.4321 0.0912 5.1891 0.0912 5.1891 2.1776 3.8695c1.1976 2.1282 2.272 3.9916 2.3875 4.1409 0.15223 0.1968 0.78915-0.15819 2.3161-1.2909 1.1584-0.85927 3.481-2.4583 5.1613-3.5533zm-169.23-1.2667c4.7957-5.4245 14.699-7.8059 28.431-6.8367 1.7526 0.12375 3.2064 0.20705 3.2304 0.18519 0.0241-0.0219 0.2481-0.97578 0.49779-2.1198 5.2728-24.159 32.879-35.11 53.432-21.196l2.5324 1.7144 0.96912-1.3308c4.0179-5.5174 11.561-10.059 19.723-11.876l2.312-0.51456-2.5564-5.5804c-33.26-72.6-80.72-151.31-113.81-188.72l-1.9617-2.2186 2.6672-3.8133c28.673-40.994 65.966-105.97 92.257-160.76 13.3-27.713 28.059-61.469 27.236-62.292-0.10485-0.10485-6.8737 0.82125-10.28 1.4064-34.216 5.8783-81.407 20.132-116.65 35.233-9.4436 4.0462-25.055 11.376-25.029 11.751 0.0051 0.072 1.3611 1.0016 3.0134 2.0658 8.0105 5.1588 14.494 10.874 16.868 14.868 3.3856 5.6961 1.5194 16.226-3.9075 22.047l-0.99305 1.0652 0.80487 1.6734c2.8324 5.8888 1.9119 12.657-2.352 17.293l-1.3096 1.4239 0.46559 1.0311c1.8884 4.1822-0.26425 11.345-5.2806 17.57l-1.4053 1.744 0.34376 1.3198c1.319 5.064-2.4451 15.712-6.4889 18.356l-1.1258 0.7361-0.004 45.305-0.004 45.305 1.053 1.0148c17.52 16.885 1.6869 47.202-22.292 42.685-20.913-3.95-28.098-32.08-11.339-44.41l0.92837-0.68286 0.0054-47.916 0.0054-47.916-3.6988-1.876c-19.073-9.68-22.625-15.99-16.293-28.99l2.0636-4.2347-1.0504-2.1386c-2.952-6.0103-2.3579-12.332 1.7833-18.977 0.96321-1.5454 2.8441-3.5678 3.5311-3.7968 0.22544-0.0751-0.02536-0.62381-0.89666-1.9615l-1.2097-1.8572-1.3898 1.1509c-8.4029 6.9586-16.619 15.419-22.625 23.299l-2.4266 3.1836-0.15683 13.888c-1.0097 89.413-1.0472 295.84-0.0552 304.37l0.1378 1.1853 2.7633 1.5735c31.955 18.196 68.052 30.936 107.35 37.889 1.2647 0.22372 1.7624 0.14895 2.184-0.32783zm468.53-8.0452v-4.4385h-12.064-12.064v4.4385 4.4386h12.064 12.064v-4.4386zm-315.26-3.33c-0.32046-1.8999-1.5566-4.4858-2.5398-5.3131-0.74525-0.62708-3.0349-1.8688-2.8607-1.5514 5.2591 9.5846 6.0231 10.556 5.4005 6.8645zm145.34-2.9296c15.386-3.6905 49.103-12.217 67.944-17.182 2.5664-0.67629 9.5827-2.5207 15.592-4.0987 21.148-5.5534 56.678-14.995 57.473-15.272 0.22764-0.0795-0.0669-0.36025-0.88371-0.84264-22.948-13.552-28.685-26.771-17.09-39.381l1.0628-1.1558-0.76038-1.603c-2.8867-6.0857-2.008-12.577 2.357-17.414l1.1879-1.3163-0.45911-1.3062c-1.6524-4.7014 0.32711-11.164 5.3047-17.318l1.531-1.8928-0.33599-0.95226c-1.7874-5.0661 2.734-16.852 7.3652-19.199l1.176-0.5959v-44.68-44.68l-1.234-1.0654c-17.177-14.829-5.9832-43.717 16.94-43.717 22.921 0 34.115 28.888 16.94 43.717l-1.234 1.0654 0.003 48.382 0.003 48.382 3.2802 1.6782c16.337 8.3583 21.513 15.406 17.964 24.462-0.29464 0.75186-0.51079 1.3899-0.48028 1.4179 0.0304 0.0279 5.6473-7.9536 12.482-17.737l12.426-17.788 0.26881-28.794c1.2864-137.78 1.5449-249.13 0.58562-252.23-0.12645-0.40923-4.4419-2.8757-11.709-6.6922-28.783-15.117-61.753-26.052-94.641-31.391-2.7181-0.44122-5.26-0.85621-5.6488-0.92217-0.63074-0.10695-0.77391-0.0185-1.3306 0.82269-5.921 8.9473-15.097 12.168-32.13 11.279l-3.6667-0.19138-0.15669 1.1812c-3.185 24.01-33.772 36.372-54.038 21.841-2.2767-1.6325-2.0051-1.626-3.1151-0.0743-2.6391 3.6898-11.435 10.065-13.928 10.095-0.79839 0.009-0.35899 0.98777 9.8175 21.855 41.141 84.359 77.409 145.36 102.27 172.02l2.8076 3.01-2.2369 2.908c-17.665 22.965-64.236 91.777-125.9 186.03-13.219 20.205-14.147 21.693-14.148 22.671-0.00009 0.13785 1.3058 0.58697 2.902 0.99815 2.7447 0.70707 7.6676 2.2916 10.61 3.4153 2.1257 0.81168 3.5588 2.6249 3.5588 4.5028 0 0.32569 0.11895 0.43686 0.39833 0.37219 0.21909-0.0507 5.11-1.2223 10.869-2.6036zm169.92-5.6854v-4.5544l-12.007 0.0589-12.007 0.059-0.0623 4.2036c-0.0342 2.312-0.012 4.3349 0.0498 4.4954 0.0891 0.23226 2.5534 0.29186 12.069 0.29186h11.957v-4.5544zm-310.81-1.1197c22.634-12.959 50.721-22.063 80.873-26.214 3.5058-0.48266 3.6882-0.53217 3.3004-0.89597-0.69484-0.65203-10.712-9.3489-18.686-16.223-4.3823-3.7779-7.7661-6.5322-8.0252-6.5322-1.1636 0-12.229 2.6831-19.337 4.6886-10.328 2.9142-30.748 10.37-32.836 11.989-0.19857 0.15396-2.059 3.2827-4.1343 6.9527l-3.7733 6.6728-0.005 1.6352c-0.015 5.4832-2.4105 12.31-5.7611 16.42l-0.54853 0.67283 1.7345 0.84573c0.95397 0.46516 2.0378 1.1637 2.4086 1.5523 0.37079 0.38862 0.7805 0.66462 0.91047 0.61334 0.13005-0.0513 1.8752-1.0315 3.8782-2.1783zm109.41-2.0392c0.41117-1.0604 3.6582-6.2344 10.035-15.99 61.924-94.738 106.8-161.27 127.69-189.3l2.9338-3.9375-2.0183-2.2082c-25.73-28.13-64.97-95.22-107.48-183.72-2.5557-5.3206-4.6548-9.6868-4.6648-9.7027-0.0105-0.0159-0.93995 0.17595-2.0667 0.42633-4.3532 0.96742-10.778 0.6432-14.822-0.74793l-1.2245-0.42129-0.89546 1.8654c-5.446 11.345 0.80465 23.921 14.21 28.591 1.1267 0.39249 2.1899 0.76416 2.3626 0.82594 0.19037 0.0681-0.48199 0.68268-1.7071 1.5605-11.231 8.047-3.8912 28.058 10.839 29.549 1.3145 0.1332 2.4264 0.27244 2.4708 0.3096 0.0444 0.0372-0.54231 0.99915-1.3039 2.1377-12.609 18.851-2.5934 36.615 22.088 39.176l2.6552 0.27548-2.097 2.3223c-11.382 12.605 2.1295 36.608 21.028 37.357 4.3979 0.17427 4.2734 0.0468 2.0306 2.0775-19.151 17.339-13.463 36.485 10.944 36.838l5.5766 0.0807 0.15283 0.7425c0.084 0.40838 0.21557 1.1606 0.29217 1.6716l0.13935 0.92904-2.578 0.84801c-19.86 6.5328-20.506 16.975-1.818 29.394l2.334 1.5511-0.60532 1.0459c-1.1194 1.934-1.1256 1.9394-2.1816 1.8792-4.7766-0.27195-13.606 3.4243-17.761 7.4348-5.5382 5.3467-5.5862 10.752-0.16254 18.296 0.87357 1.215 1.5883 2.2497 1.5883 2.2994s-1.6645 0.15108-3.6988 0.2253c-15.274 0.55729-24.8 8.1974-27.161 21.784-1.1304 6.5053 0.0547 11.72 3.5686 15.701l1.5868 1.7978-4.0486-0.1257c-14.655-0.45528-19.205 11.927-10.287 27.995 1.8316 3.2998 2.0078 2.9954-1.4113 2.4375-13.208-2.155-21.553 3.5236-21.997 14.969-0.28013 7.2168 1.6582 12.361 7.7705 20.621l1.936 2.6164-2.2075-0.8121c-10.546-3.8799-16.398-3.5443-21.46 1.2307-5.5964 5.2794-4.5508 13.279 2.7568 21.091 1.6199 1.7316 1.6208 1.7356 0.39139 1.737-17.02 0.0185-22.117 9.5235-11.349 21.165l2.0865 2.2557-0.74631 0.1113c-0.41046 0.0612-1.6456 0.22427-2.7447 0.36246-1.0991 0.13815-2.6868 0.47144-3.5281 0.74057l-1.5296 0.48939 3.7557 0.29386c3.5385 0.27693 10.472 1.1533 10.679 1.3499 0.51851 0.49167 1.0861-0.0158 1.653-1.4777zm-120.98-1.2755c9.608-12.964 5.8674-25.982-7.782-27.084-2.6228-0.21175-2.6176-0.20656-1.4277-1.4537 7.863-8.2407 8.361-17.535 1.32-24.635-5.5067-5.5532-11.931-6.7855-20.036-3.843-1.4397 0.52266-3.0058 1.091-3.4804 1.2629-1.0273 0.37228-1.1841 0.66844 1.8087-3.4159 13.926-19.005 0.55191-38.014-22.084-31.388-0.34695 0.10155-0.27075-0.141 0.41527-1.322 9.279-15.974 4.7702-25.268-11.676-24.069-3.9375 0.28712-3.7818 0.41763-1.9552-1.6388 3.8825-4.3712 4.9509-10.668 3.0626-18.052-3.1205-12.201-12.333-18.856-26.927-19.452l-3.5906-0.14655 1.5958-2.1624c7.0299-9.526 4.9474-17.09-6.2507-22.704-3.8168-1.9135-9.3794-3.4395-11.618-3.1872l-0.92809 0.10455-0.92835-1.4917-0.92835-1.4917 3.0296-2.0604c18.016-12.253 17.316-22.018-2.0648-28.793l-2.9673-1.0372 0.17057-1.0243c0.0938-0.56335 0.22552-1.3316 0.29266-1.7071l0.1221-0.68286 5.5198-0.009c24.832-0.0379 30.173-19.525 10.273-37.484-1.3913-1.2556-1.3159-1.3087 1.8632-1.3135 19.125-0.0288 33.768-25.048 21.916-37.445-1.1435-1.1961-2.0389-2.2104-1.9898-2.254 0.0491-0.0435 1.5232-0.24853 3.2758-0.45547 24.097-2.8455 33.714-20.042 21.614-38.648l-1.6736-2.5737 2.4348-0.2583c15.041-1.5956 22.343-21.474 10.895-29.661-2.0521-1.4676-2.0834-1.3649 0.69822-2.2876 16.089-5.3371 21.212-21.61 10.65-33.827l-0.80908-0.93588 1.9951-0.74688c8.0668-3.0199 10.5-8.1908 5.6655-12.041-1.3707-1.0917-3.2358-2.9755-4.5808-4.6266-0.55062-0.67594-1.176-1.0304-3.2294-1.8306l-2.5466-0.99237-1.7528 3.7709c-0.96406 2.074-3.8256 8.1753-6.3589 13.558-2.5334 5.3832-5.9462 12.673-7.584 16.201-29.132 62.736-65.137 126.93-98.636 175.85-3.048 4.4516-3.407 5.0727-3.1604 5.4676 0.15303 0.24504 1.481 1.8932 2.951 3.6625 32.789 39.465 72.549 104.64 103.89 170.3 3.4921 7.3151 3.7251 7.7277 8.4207 14.909l4.8292 7.3856 1.6651 0.27674c8.7299 1.4508 22.275 11.557 24.997 18.65 0.20609 0.53707 0.47031 0.34281 1.5917-1.1703zm322.38-8.3172c0-4.0026-0.0672-5.2598-0.28452-5.3164-4.1642-1.0836-10.96-3.8634-17.979-7.3542-3.0968-1.5402-5.6831-2.8003-5.7473-2.8003s-0.11685 4.6605-0.11685 10.357v10.357h12.064 12.064v-5.2424zm8.6816-8.6992c4.6958-5.0394 5.5821-11.925 2.3072-17.925-0.44417-0.81374-0.97295-1.8091-1.1751-2.2119-0.20215-0.40279-0.52749-0.73567-0.72301-0.73975-6.5418-0.1365-36.798-15.557-50.831-25.906-1.772-1.3069-1.81-1.303-3.1003 0.30985-3.4682 4.3356-5.014 12.074-3.2195 16.119 3.8479 8.6719 34.727 27.192 51.588 30.94 1.959 0.43547 4.4676 0.15033 5.1535-0.58576zm-225.91-4.8576c1.7862-1.655 4.6206-3.2455 7.0848-3.9756 1.2994-0.38499 1.5524-0.0702-3.7557-4.6724-28.034-24.306-54.089-46.112-77.889-65.19l-6.9297-5.5545-3.2516 3.4015c-3.8983 4.078-3.9462 3.1222 0.32422 6.4798 21.198 16.667 55.919 45.828 79.495 66.766 2.1908 1.9456 3.996 3.543 4.0116 3.5498 0.0155 0.007 0.42528-0.3555 0.91047-0.80506zm-93.823-5.8496c6.5152-11.54 15.47-26.863 23.557-40.308 1.6473-2.7389 2.9654-5.0007 2.9293-5.0264-0.0362-0.0257-1.9923-1.6113-4.347-3.5236-2.3546-1.9123-4.3135-3.4403-4.3531-3.3955-0.69254 0.78488-18.551 31.105-25.386 43.101-1.7833 3.1297-3.4902 6.1225-3.793 6.6505l-0.55057 0.96004 0.97267 0.49029c2.7882 1.4054 5.3914 3.9235 6.5782 6.3631 0.70723 1.4537 0.28557 1.9635 4.3929-5.3115zm102.65-3.7108c-5.226-11.817 2.5188-22.741 16.123-22.741 2.0969 0 3.8126-0.012 3.8126-0.0264 0-0.015-0.45129-0.9876-1.0029-2.1624-1.9757-4.2077-2.8237-7.5525-3.0231-11.924l-0.135-2.959-4.6912-4.5628c-16.476-16.025-33.664-31.714-49.646-45.315-5.7875-4.9254-16.463-13.728-17.23-14.207-0.4428-0.27655-1.1358 0.37583-10.789 10.157-5.6735 5.7488-12.749 12.911-15.724 15.915l-5.4087 5.4628 7.5613 6.05c21.27 17.019 53.284 43.814 76.624 64.133 2.1804 1.8982 3.9928 3.4512 4.0277 3.4512 0.0348 0-0.18998-0.57292-0.49965-1.2731zm4.28-23.213c-5.4234-2.7026-3.825-10.868 2.2351-11.417 5.3404-0.48426 8.5758 5.8476 5.0766 9.9356-1.765 2.062-4.8803 2.6933-7.3117 1.4816zm-25.231-1.6995c-4.8793-2.4152-4.5401-9.5098 0.53732-11.24 6.2347-2.1244 10.87 5.7851 5.971 10.189-1.747 1.5707-4.5449 2.0223-6.5083 1.0505zm-4.3341-26.827c-6.9187-1.7677-5.7253-11.924 1.404-11.949 5.1387-0.018 7.8864 5.8125 4.6594 9.8869-1.2468 1.5742-4.132 2.5553-6.0634 2.0618zm-25.948-2.0236c-5.6825-2.0258-5.4582-9.8872 0.33012-11.57 3.8312-1.1138 7.5508 1.7596 7.5508 5.8328 0 4.1782-4.0283 7.1107-7.8809 5.7372zm-8.8698-27.154c-4.4937-1.3024-5.8311-7.1726-2.3506-10.317 3.8274-3.4578 10.014-0.83175 10.053 4.2671 0.0318 4.157-3.8134 7.1772-7.7027 6.05zm-48.169 64.777c5.823-10.083 10.005-17.174 16.158-27.396 3.6635-6.0865 4.38-7.415 4.1254-7.6489-0.92893-0.85329-11.369-8.9989-11.534-8.9989-0.58402 0-29.699 29.905-29.276 30.07 10.489 4.0864 16.34 12.164 15.439 21.314-0.0832 0.84519-0.0965 1.4855-0.0294 1.4229 0.067-0.0625 2.3697-4.0061 5.1169-8.7633zm22.113 5.3205c10.124-3.7978 22.565-7.5669 32.186-9.7503 1.9515-0.44291 2.1935-0.54963 1.9397-0.85548-0.30687-0.36975-12.975-11.013-18.163-15.26-2.676-2.1906-3.1006-2.4634-3.3253-2.1362-0.95159 1.3854-16.387 27.444-17.288 29.185-0.36294 0.70184-0.36114 0.7256 0.0423 0.5603 0.23174-0.0949 2.3054-0.87938 4.6081-1.7432zm307.13 1.1559c6.0641-1.6841 3.8458-17.983-2.8977-21.291-0.50076-0.24567-2.242-1.1823-3.8695-2.0813-1.6275-0.89907-4.3418-2.2641-6.0319-3.0334-3.1314-1.4254-18.612-8.3785-22.534-10.122-1.1893-0.52848-3.9036-1.5818-6.0319-2.3407-4.7938-1.7095-8.422-3.3042-10.357-4.5522l-1.4795-0.95436-0.96114 1.0812c-4.547 5.115-3.8395 13.263 1.5206 17.513 10.627 8.4258 41.606 24.341 50.158 25.769 1.6396 0.27371 1.5422 0.27326 2.4838 0.012zm-355.68-21.15c1.0693-0.003-6.1345 7.2044 73.146-73.182 23.212-23.536 45.953-46.582 50.535-51.214 4.5819-4.632 9.6294-9.754 11.217-11.382l2.8859-2.9603-11.577-17.639-11.577-17.639 1.6421-1.7071c9.4071-9.7798 9.4945-22.903 0.21826-32.764l-1.7512-1.8616 1.3818-1.4088c0.75998-0.77484 12.596-12.919 26.303-26.987l24.921-25.578 0.37758-2.0775c0.46579-2.5629 1.6519-6.1706 2.7373-8.326 0.81403-1.6164 0.85789-2.0596 0.20392-2.0596-6.8708 0-15.393-11.97-15.433-21.678l-0.0158-3.8098-1.2771 1.306c-3.3899 3.4667-88.05 89.322-95.333 96.678-10.899 11.009-41.117 41.657-44.144 44.772l-2.3626 2.431 11.467 17.463c6.307 9.6048 11.502 17.552 11.545 17.66 0.0428 0.108-0.7767 1.1014-1.821 2.2074-9.0812 9.6191-9.0399 22.647 0.1029 32.47l1.7019 1.8285-25.816 26.491-25.816 26.492 1.5923 0.40436c13.73 3.4868 19.649 17.674 12.941 31.02l-0.67437 1.3418 0.87351-0.1443c0.48043-0.0793 1.2923-0.1455 1.8042-0.14685zm50.423-92.991c-7.9456-2.2129-11.666-11.57-7.4178-18.658 6.4844-10.819 23.304-6.2166 23.323 6.3824 0.012 8.3257-7.969 14.486-15.905 12.276zm5.0277-3.3186c8.2331-1.7225 9.8913-12.839 2.5026-16.777-5.3936-2.8748-11.971 0.40724-13.046 6.5098-1.0579 6.0059 4.5956 11.511 10.543 10.267zm9.628-41.314c-5.0076-6.4592-9.1353-11.874-9.1727-12.032-0.055-0.23354 19.057-20.1 19.557-20.33 0.17987-0.0825 18.523 23.55 18.523 23.864 0 0.25392-19.404 20.248-19.647 20.244-0.0856-0.003-4.2528-5.287-9.2604-11.746zm16.97-1.1786c3.9367-4.0428 7.1576-7.4532 7.1576-7.5788 0-0.29703-13.842-18.19-14.021-18.125-0.22333 0.0807-14.424 14.731-14.506 14.965-0.0921 0.26436 13.828 18.252 14.051 18.157 0.0882-0.0375 3.3813-3.376 7.3179-7.4188zm12.341-37.703c-4.3844-1.0624-8.0369-4.7016-9.1717-9.1385-3.1523-12.325 12.066-21.012 21.058-12.02 8.9292 8.9292 0.38779 24.133-11.887 21.159zm6.7672-4.1302c7.8545-3.722 6.4586-15.136-2.075-16.966-6.9376-1.4878-12.907 6.1104-9.857 12.546 2.1479 4.5322 7.5059 6.5166 11.932 4.4192zm256.05 177.33c1.9202-0.99299 4.747-6.6676 5.2202-10.479 0.4185-3.3709-0.82354-7.5805-2.9962-10.155-1.0401-1.2324-12.539-7.4466-13.264-7.1683-0.47706 0.18306-3.0214-0.831-3.1304-1.2476-0.27823-1.064-17.155-6.6457-24.751-8.186-4.6846-0.94998-7.2162-1.6886-8.614-2.5133l-0.81566-0.48126-0.88339 0.99197c-4.3778 4.9158-6.4839 11.668-4.6255 14.829 1.2841 2.1845 4.1944 3.7182 13.244 6.979 5.2364 1.8869 29.472 12.759 33.912 15.213 4.4762 2.4741 5.5324 2.8234 6.7049 2.217zm-205.55-11.39c0.50224-1.5418 1.8006-4.0373 2.7559-5.2967 0.50047-0.65978 0.90993-1.2403 0.90993-1.2901 0-0.22524-20.084-18.62-31.067-28.454-13.558-12.139-36.732-32.22-37.183-32.22-0.22059 0-6.0666 5.8854-5.9421 5.9822 15.365 11.945 42.185 35.727 64.177 56.906 3.1923 3.0743 5.8601 5.5208 5.9285 5.4366s0.25769-0.56282 0.42083-1.0636zm8.8517-10.439c2.7543-1.3789 6.4711-2.1939 10.005-2.1939 1.9684 0 2.1418-0.0348 1.9837-0.39833-1.7372-3.9963-2.8346-9.0152-2.8346-12.964 0-1.5931-0.39003-5.9645-1.0169-11.398-9.1023-78.89-10.885-117.83-6.1444-134.25 2.8766-9.9623 6.7763-13.625 18.656-17.524 7.5416-2.4747 11.263-4.0036 11.273-4.631 0.004-0.33515-2.5338-10.948-2.6678-11.152-0.0721-0.10995-0.8127 0.16732-7.5805 2.8383-38.419 15.162-38.453 15.376-25.599 161.71 1.435 16.337 2.6093 29.883 2.6095 30.102 0 0.50733 0.0319 0.50402 1.3167-0.1392zm-7.3703-27.915c-9.3518-106.16-9.9621-124.83-4.6207-141.35 3.9168-12.115 10.215-17.047 33.436-26.184 3.5679-1.4038 6.5754-2.6331 6.6833-2.7316 0.46424-0.4241-3.0441-13.662-3.6919-13.93-10.358-4.2918-16.101-10.855-17.405-19.888l-0.28065-1.944-20.251 20.784c-11.138 11.431-21.82 22.391-23.737 24.355l-3.4858 3.5708 1.5003 1.8956c7.9863 10.091 7.477 23.787-1.2695 34.141l-0.70433 0.83376 11.528 17.574c6.3405 9.6657 11.498 17.661 11.462 17.768-0.0366 0.1068-3.758 3.9098-8.2697 8.4511-26.789 26.965-44.149 44.671-44.149 45.027 0 0.1047 4.1179 3.7204 9.1508 8.0347 15.788 13.534 30.891 26.968 47.381 42.145 7.6696 7.0588 9.0083 8.2757 9.0507 8.2272 0.0159-0.0181-1.0313-12.068-2.3271-26.778zm211.5 15.998c0.91698-4.1216-0.74073-7.0426-6.4089-11.293-8.1157-6.0859-17.454-10.409-29.801-13.796-13.08-3.588-15.381-2.5939-18.337 7.9236-1.936 6.8873-0.85398 8.1009 9.0427 10.143 12.44 2.5666 29.203 8.9878 39.454 15.113l1.9348 1.1561 1.8683-3.772c1.2418-2.507 1.9953-4.343 2.2471-5.4747zm-383.39 1.5606c1.3433-1.332 12.874-13.125 25.623-26.206l23.181-23.784-1.4081-1.8454c-8.0453-10.544-7.6008-23.916 1.1344-34.126l0.78307-0.91532-2.3918-3.637c-1.3155-2.0004-6.2515-9.5241-10.969-16.719l-8.5772-13.082-0.0495 2.6118c-0.94887 50.023-9.1023 66.198-39.581 78.522l-1.8456 0.74631 0.19879 0.82195c3.9686 16.41 4.4686 18.272 5.0017 18.627 5.9138 3.945 7.0748 12.019 3.0588 21.272-0.1497 0.34491 0.007 0.3702 1.6163 0.25936l1.7822-0.12285 2.4424-2.4217zm196.61-20.113c0.93892-0.45812 2.1937-0.95355 2.7883-1.1009 0.61641-0.15279 1.0812-0.39869 1.0812-0.57203 0-0.1672-0.35622-3.2023-0.79159-6.7446-11.043-89.848-7.7445-119 14.506-128.18 1.053-0.43472 1.1032 0.14355-0.57849-6.672l-1.4132-5.7274-2.3859 1.0226c-1.3122 0.56241-4.7436 1.8192-7.6252 2.7928-7.2768 2.4587-9.0626 3.2858-11.621 5.3824-9.8355 8.0594-10.743 34.558-3.6174 105.6 0.96079 9.578 3.7974 35.735 4.0998 37.805l0.1359 0.93078 1.8575-1.8485c1.3821-1.3754 2.2944-2.0617 3.5646-2.6814zm-210.37-1.5994c-0.0561-0.28167-6.4424-26.462-14.192-58.178l-14.09-57.666-0.486 2.0885c-0.82116 3.5288-2.2496 6.0713-4.9038 8.7279l-2.235 2.2372 8.4354 33.741 8.4354 33.741 0.82884 0.44043c10.525 5.5929 16.858 21.606 12.991 32.845-0.61527 1.7884-0.59356 1.8501 0.65451 1.8624 0.59465 0.006 1.747 0.1473 2.5607 0.31429 2.1063 0.43232 2.1163 0.43152 1.9995-0.15421zm375.53-97.074c-0.0503-0.0503-0.72493 0.22851-1.4993 0.61944-3.7391 1.8875-7.3691 2.6141-12.222 2.4463-4.0907-0.14145-5.567-0.49065-10.032-2.3734-0.22794-0.0962-0.2736 8.4982-0.22761 42.86l0.0575 42.98 2.0795 0.27854c4.1039 0.54972 13.188 3.1004 19.203 5.3919l2.6176 0.99724 0.0574-46.554c0.0317-25.605 0.0163-46.595-0.0339-46.645zm-159.03 79.263c1.0143-4.2261 3.6751-8.9112 7.1214-12.539l1.5822-1.6656-0.57972-4.0508c-6.3928-44.67-3.9339-75.363 6.5916-82.283 0.80394-0.52857 1.4643-1.1186 1.4674-1.3111 0.005-0.318-2.7625-11.842-2.8927-12.045-0.141-0.21977-2.7193 1.0414-4.542 2.2217-15.03 9.7329-17.675 36.545-10.29 104.34 0.5286 4.8526 1.0303 8.7448 1.1149 8.6495 0.0846-0.0954 0.27672-0.68549 0.42694-1.3114zm-214.83-3.6638c34.954-15.48 40.032-36.297 32.612-133.7-1.6794-22.046-8.5304-100.38-8.779-100.38-0.0915 0-0.81137 0.44838-1.5998 0.99642-0.78842 0.54801-1.9713 1.2667-2.6285 1.5972-1.416 0.71184-1.3815 0.55751-0.42557 1.9014 4.9862 7.01 3.2142 18.466-4.0542 26.211-1.065 1.1348-1.1056 1.2176-0.52785 1.0769 0.34428-0.0839 0.62595-0.10755 0.62595-0.0525 0 0.055 0.56063 4.9991 1.2458 10.987 11.336 99.058 12.023 142.18 2.5679 161.11-3.7462 7.5034-8.3084 11.5-19.997 17.516-2.554 1.3145-4.633 2.5205-4.62 2.6799 0.10425 1.2845 2.6966 11.102 2.9315 11.102 0.15769 0 1.3498-0.47081 2.6492-1.0462zm228.55-13.851c2.0512-1.1254 5.1654-2.2704 7.8598-2.8899 1.9045-0.43787 2.3324-0.61206 2.3331-0.94976 0-0.22743-0.30281-2.6935-0.67385-5.4801-2.894-21.734-3.2681-39.295-1.0222-47.976l0.33364-1.2896-2.6188-10.731c-1.4404-5.9023-2.6189-10.776-2.6189-10.831 0-0.73006-2.7185 1.8322-3.7413 3.5262-4.9374 8.1778-6.4441 27.68-4.2129 54.53 0.64074 7.7104 2.2233 21.398 2.612 22.591 0.1266 0.38864 0.132 0.38708 1.7494-0.50028zm-223.23-6.5957c17.695-11.674 20.461-38.026 12.735-121.34-1.2411-13.383-5.325-51.692-6.1538-57.725l-0.144-1.0484-1.51 0.85812c-0.83047 0.47196-2.1965 1.084-3.0356 1.36l-1.5256 0.5019 0.76881 1.5267c4.5937 9.1219 4.3592 19.745-0.60399 27.359l-1.2462 1.9118 0.52712 4.32c11.41 93.508 8.5887 125.35-12.002 135.5l-2.6335 1.2975 1.4576 5.977 1.4577 5.977 4.5872-2.3363c2.523-1.285 5.8177-3.1481 7.3215-4.1402zm-38.164-27.155c-4.3734-17.492-7.9792-31.831-8.0129-31.865-0.0337-0.0337-0.71924 0.1975-1.5234 0.51384-1.8957 0.74584-4.5767 1.4282-7.0224 1.7874l-1.951 0.28654 1.0243 0.52526c10.419 5.3428 13.035 13.815 6.815 22.07-1.6172 2.1462-1.5922 1.2958-0.20983 7.1379 0.71193 3.0087 1.0526 4.8578 0.90399 4.9073-0.1311 0.0437 0.71179 0.65892 1.8731 1.3671 8.7047 5.3083 11.658 13.682 7.666 21.74-0.36295 0.73269-0.65991 1.3655-0.65991 1.4062 0 0.0408 0.58896 0.1428 1.3088 0.22683 1.7231 0.20109 5.3067 0.9635 6.377 1.3567 0.46742 0.17169 0.96521 0.3194 1.1062 0.3282 0.15047 0.009-3.0285-13.123-7.6952-31.788zm-112.28 27.8c14.729-3.0297 21.812-20.474 13.432-33.08-8.3096-12.5-26.823-12.81-35.524-0.59566-11.385 15.982 2.823 37.639 22.093 33.676zm137.08-10.821c16.779-8.6029 20.018-36.543 12.428-107.19-1.089-10.136-2.7988-24.56-3.0022-25.328l-0.1673-0.63181-1.3389 1.004c-1.8613 1.3957-4.6331 2.8952-7.2537 3.9242-1.4673 0.57614-2.219 0.98987-2.2186 1.221 0.00045 0.19232 0.30618 2.5286 0.67961 5.1919 8.8062 62.806 7.3592 102.35-4.0333 110.22l-0.49432 0.34143 1.5019 6.0888c0.98622 3.9982 1.6016 6.0888 1.7922 6.0888 0.15963 0 1.1077-0.41912 2.1068-0.93137zm251.95-6.3278c1.9783-2.0779 2.2016 0.27686-1.3615-14.357-3.4767-14.279-3.2927-14.046-3.3332-4.2185-0.0271 6.5727 0.58411 17.348 1.256 22.142l0.1365 0.97377 0.82677-1.4044c0.45471-0.77242 1.5687-2.1837 2.4755-3.1362zm6.9657-5.1237c2.0556-1.1098 5.3898-2.4032 7.6602-2.9716 0.81374-0.20371 1.6138-0.41646 1.778-0.47275 0.1698-0.0582-0.71334-0.90767-2.0486-1.9704-13.455-10.709-13.768-20.944-0.86812-28.416l1.7065-0.98862-2.5032-0.40031c-18.949-3.0302-24.809-21.178-11.97-37.071 1.6844-2.0852 1.6929-1.8981-0.1089-2.3858-5.1005-1.3807-12.051-6.2462-16.084-11.26-0.75775-0.94196-1.3174-1.5092-1.2437-1.2605 0.0737 0.24864 4.9096 20.016 10.746 43.927 11.729 48.047 10.794 44.272 10.959 44.272 0.0661 0 0.95551-0.45089 1.9763-1.002zm-297.66-2.2416c-0.0747-0.28169-0.35966-1.5108-0.63321-2.7314-0.5831-2.6017-0.46079-2.5475-2.287-1.0131-0.78957 0.66339-1.7764 1.4442-2.1929 1.7351-0.92454 0.64578-0.80919 0.76556 1.2125 1.2588 0.87633 0.21383 2.0542 0.57477 2.6176 0.80214 1.361 0.54929 1.4415 0.54606 1.283-0.0516zm35.603-5.5197c5.0719-10.375 5.7237-38.24 1.7942-76.707-1.0879-10.65-3.5919-29.973-3.9276-30.309-0.096-0.0961-2.8885 0.35619-3.067 0.49676-0.0372 0.0293 0.28934 0.70566 0.72555 1.5031 4.2349 7.7418 2.1966 18.429-5.1711 27.115l-1.274 1.5018 0.67293 4.5592c3.5148 23.813 4.3025 42.032 2.2499 52.038l-0.46693 2.2762 2.633 10.778c1.4482 5.9277 2.633 10.84 2.633 10.916 0 0.69036 2.2685-2.2655 3.1981-4.1672zm-126.34-56.433v-43.117l-1.3088-0.14025c-5.112-0.54796-15.019-3.2244-21.396-5.7802l-1.195-0.47892v46.203c0 25.412 0.02871 46.203 0.06381 46.203s0.88699-0.34716 1.8931-0.77149c6.2685-2.6437 14.162-2.5694 19.975 0.18813 0.89442 0.42423 1.703 0.78027 1.7969 0.79114 0.0939 0.0105 0.17071-19.383 0.17071-43.097zm503.69 29.681c16.246-3.8803 22.136-24.062 10.498-35.974-12.39-12.682-33.718-6.0861-36.768 11.371-2.6361 15.085 11.335 28.17 26.27 24.603zm-387.86-6.3665c0.0375-8.9601-0.73398-18.764-2.6062-33.118-1.0179-7.8045-0.72301-7.245-2.9456-5.5884-1.0015 0.74649-2.514 1.7459-3.361 2.2209-1.008 0.56524-1.5122 0.98163-1.4594 1.2051 3.6064 15.246 10.089 41.106 10.203 40.701 0.0814-0.28952 0.15742-2.7286 0.1687-5.4202zm83.219-19.578c18.655-18.899 25.785-26.133 27.635-28.038l1.9141-1.9722-0.77467-0.6417c-10.502-8.6996-35.417-30.673-52.788-46.556-3.9653-3.6256-5.3674-4.7849-5.4201-4.4814-0.0392 0.22518 0.29265 4.5889 0.73728 9.697 4.1206 47.341 6.2726 78.772 6.2772 91.682v2.9622l6.7706-6.8292c3.7238-3.756 10.765-10.876 15.648-15.822zm-96.24-11.29c-0.42613-1.7398-0.86344-3.1632-0.9718-3.1632-0.21099 0-2.4254 0.60528-2.5444 0.69549-0.0392 0.0297 0.57667 0.85843 1.3686 1.8416 0.79191 0.98321 1.7428 2.2686 2.1132 2.8565 0.91685 1.4554 0.91806 1.3771 0.0345-2.2303zm134.2-27.427c-0.0916-0.0829-2.5224-2.0743-5.4018-4.4252-18.8-15.35-40.239-34.525-59.287-53.026-3.4358-3.3371-4.231-4.0078-4.287-3.6159-0.0378 0.26468 0.14145 2.8544 0.39833 5.755 0.25686 2.9005 0.46702 5.5074 0.46702 5.793 0 1.1412 34.207 31.757 61.115 54.698l1.1381 0.97032 3.0118-2.9991c1.6565-1.6495 2.9369-3.0669 2.8452-3.1499zm27.593-27.689c5.7054-5.756 6.5525-6.6985 6.263-6.968-0.18411-0.17139-2.9467-2.3944-6.139-4.9399-24.689-19.687-60.643-49.933-90.592-76.21-2.0656-1.8124-3.925-3.4377-4.132-3.6118-0.33813-0.28442-0.3326-0.14985 0.0546 1.3247 1.8466 7.0338 0.33528 14.593-4.0931 20.471l-1.1165 1.482 1.2522 14.337 1.2521 14.337 1.1721 1.2178c8.9392 9.2875 38.511 36.485 52.728 48.495 3.8643 3.2644 13.709 11.443 15.98 13.276l2.4372 1.9667 9.1677-9.2607c5.0422-5.0934 12.137-12.256 15.766-15.917zm-24.485 13.512c-4.2822-1.5302-5.6565-6.586-2.6708-9.825 3.8256-4.1503 10.546-1.497 10.504 4.147-0.0295 3.975-4.1803 6.9836-7.8336 5.6781zm-9.3987-27.358c-3.8573-1.4133-5.1918-6.4791-2.527-9.5924 3.256-3.8038 9.4023-2.2707 10.58 2.6392 1.075 4.4812-3.6546 8.5648-8.0532 6.9532zm-25.741-1.9996c-6.0337-2.8221-4.0759-11.536 2.5893-11.525 5.2344 0.009 7.8765 6.5111 4.1572 10.23-1.8343 1.8342-4.499 2.3455-6.7465 1.2943zm-5.4245-27.213c-3.8881-1.9822-4.8598-6.4802-2.0676-9.5708 4.5018-4.983 12.467-0.10275 10.111 6.1947-1.1512 3.0769-5.2533 4.7987-8.0435 3.3761zm-25.102-1.6871c-5.9981-2.2624-4.87-11.128 1.4886-11.699 5.8307-0.52347 8.9162 6.5691 4.5611 10.485-1.5999 1.4385-4.1159 1.9433-6.0497 1.214zm186.64 58.701 0.78308-1.4246-1.5129-0.27571c-0.83208-0.15164-1.7343-0.32988-2.005-0.39611-0.49114-0.12015-0.49078-0.11475 0.17883 2.5738 0.90594 3.6374 0.85278 3.5519 1.3438 2.1622 0.23604-0.66819 0.78156-1.856 1.2123-2.6395zm-359.05 1.563c2.8213-0.83784 4.8408-4.2061 6.4052-10.683 1.4257-5.9026 0.17229-7.0722-9.7607-9.1079-11.523-2.3615-29.01-9.0299-38.439-14.658-1.2772-0.76232-2.4116-1.386-2.521-1.386-0.79219 0-4.3754 9.0307-4.3754 11.027 0 4.4285 4.8165 9.1535 15.143 14.855 10.919 6.0286 28.849 11.348 33.548 9.9523zm8.8204-21.951c3.8939-4.8171 5.5819-10.289 4.2313-13.716-0.80327-2.0384-4.5935-4.1695-12.463-7.0074-2.5038-0.90292-5.7815-2.2015-7.2838-2.8857-1.5023-0.68419-6.8285-3.0682-11.836-5.2978-9.84-4.3812-13.262-5.9972-17.578-8.301-4.4572-2.379-5.4973-2.0456-7.8542 2.5178-3.2922 6.3744-3.16 11.688 0.40713 16.365 1.2915 1.6933 13.329 8.3131 14.471 7.9582 0.55791-0.17339 2.9696 0.80139 3.0863 1.2474 0.11152 0.42648 0.37739 0.53802 6.5574 2.7511 7.257 2.5988 12.091 4.0202 17.387 5.1129 4.8857 1.008 7.455 1.7647 8.5126 2.5072 0.75174 0.52773 1.0531 0.36809 2.3621-1.2512zm266.37-6.4165 3.2367-3.3449-3.2577-2.5702c-27.87-21.97-66.95-55.15-98.97-84.02l-3.7499-3.3804-0.39614 1.6116c-0.65716 2.6734-1.4838 3.815-3.9629 5.4732l-1.6988 1.1362 8.1419 7.1307c32.09 28.105 63.069 54.194 89.488 75.362 4.1787 3.3483 7.6707 6.058 7.7601 6.0217s1.619-1.5713 3.3992-3.411zm31.337-31.681c16.428-16.642 17.472-17.746 17.049-18.042-0.24793-0.17299-1.4182-0.94771-2.6006-1.7216-7.7962-5.1026-12.293-15.075-10.695-23.719 0.1338-0.7238 0.20184-1.3574 0.15123-1.408-0.0852-0.0852-7.308 4.295-8.1809 4.9612-0.21382 0.1632-2.2758 3.6305-4.5822 7.705-7.5212 13.287-15.254 26.539-23.546 40.352-4.8002 7.9964-4.887 8.1632-4.464 8.5826 0.2373 0.23525 2.8897 2.3744 5.8942 4.7536l5.4628 4.3259 4.0055-4.0314c2.203-2.2172 11.88-12.009 21.505-21.758zm-291.62 18.14c4.0434-5.0416 3.7212-11.71-0.78361-16.221-7.6328-7.6433-45.326-26.855-52.689-26.855-4.1431 0-5.9415 9.2658-3.0456 15.692 2.1004 4.661 5.2013 6.5756 24.55 15.157 4.4442 1.9712 9.412 4.1982 11.039 4.9489 1.6275 0.75071 5.0429 2.1177 7.59 3.0376 5.5 1.9866 8.8323 3.4416 10.653 4.6513 1.6608 1.1036 1.4459 1.1364 2.6866-0.41059zm255.81-11.38c8.9959-14.99 24.379-41.405 24.893-42.744 0.0639-0.16662-2.1202 0.8199-4.8536 2.1922-2.7334 1.3724-6.6599 3.2492-8.7256 4.1709l-3.7557 1.6757-1.9079 3.2701c-4.7911 8.2119-10.028 17.088-14.198 24.066-3.7685 6.3052-4.4867 7.6435-4.2314 7.885 1.2233 1.1574 8.2623 6.6773 8.4036 6.59 0.0974-0.0601 2.0665-3.2579 4.3758-7.106zm-11.674-9.159c4.0642-6.7817 12.839-21.652 13.418-22.739 0.26508-0.4977 0.25311-0.53091-0.13365-0.37099-8.9222 3.6894-22.774 8.086-34.625 10.99-2.4106 0.59068-4.3567 1.1481-4.3247 1.2387 0.1143 0.32447 21.337 18.029 21.448 17.893 0.0314-0.0381 1.9293-3.1934 4.2176-7.0116zm-241.71 0.62595c4.753-4.9494 5.976-14.245 2.4828-18.87-7.9066-10.469-41.8-29.1-52.938-29.1-1.6262 0-2.0721 0.24665-3.3344 1.8445-4.3284 5.4792-4.4962 12.759-0.43191 18.741 0.24988 0.36777 0.41481 0.73259 0.36652 0.81074-0.0483 0.0782 0.5465 0.27228 1.3218 0.43143 7.4907 1.5378 21.715 8.2448 37.601 17.729 3.7756 2.2542 11.383 7.1999 12.974 8.4344 1.1289 0.87598 1.097 0.87633 1.9583-0.0207zm212.4-18.26c30.022-6.6252 55.473-17.127 79.205-32.683 1.0861-0.71192 1.1187-0.61896-0.67812-1.9363-4.4535-3.2653-9.9371-9.9085-14.61-17.699-0.68682-1.1451-1.3204-1.9618-1.4758-1.9022-0.1497 0.0574-1.752 1.0213-3.5606 2.1419-23.881 14.796-57.506 25.963-88.751 29.473-0.61728 0.0693 1.6495 2.0951 22.185 19.826 2.2534 1.9456 4.1006 3.5444 4.105 3.5527 0.005 0.008 1.6156-0.33968 3.5806-0.77331zm-231.78-30.509v-8.9909h-11.95-11.95v3.7064 3.7064l1.8871 0.59412c4.7151 1.4845 12.255 4.8134 18.824 8.3115 1.691 0.90037 3.1001 1.643 3.1314 1.6502 0.03131 0.007 0.05691-4.0327 0.05691-8.9777zm198.67 1.0202c28.167-3.4086 53.165-10.559 74.926-21.431 8.0307-4.0121 17.188-9.4165 17.03-10.051-0.0399-0.16035-2.0566-3.7807-4.4814-8.0452l-4.4088-7.7536-2.694 1.9614c-26.006 18.934-63.765 30.166-92.054 27.383-5.1888-0.51051-15.277-2.2865-16.616-2.9252-0.39905-0.19033 1.1127 1.0671 1.7462 1.4525 0.33467 0.20358 0.69317 0.54951 0.79667 0.7687 0.42867 0.90777 20.916 19.099 21.509 19.099 0.24771 0 2.1584-0.2067 4.246-0.45933zm133.77-2.6088c26.59-4.3468 33.209-36.322 11.95-57.723-19.227-19.356-47.984 1.4182-33.738 24.373 8.3198 13.406 31.426 10.412 24.523-3.1769-2.9511-5.8094-7.6419-5.4111-10.825 0.91911-0.88804 1.7662-1.1717 2.0302-2.1821 2.0302-3.8122 0 0.40196-8.4784 5.0942-10.249 11.081-4.1814 17.851 15.996 7.0894 21.131-21.688 10.35-41.319-21.907-23.985-39.412l1.5368-1.552-0.4576-0.83541c-0.25167-0.45946-13.294-24.906-28.984-54.326s-28.634-53.565-28.766-53.657c-0.5928-0.41368-14.295-0.1964-14.134 0.22413 0.0839 0.21908 12.693 24.797 28.021 54.618s27.869 54.472 27.869 54.78c0 1.9402-2.2301 2.5189-3.2868 0.85297-0.28743-0.45313-13.147-25.407-28.576-55.452-15.429-30.046-28.156-54.756-28.282-54.913-0.29336-0.36407-22.025-0.42078-22.025-0.05748 0 0.12488 10.894 19.356 24.208 42.735 13.314 23.38 32.279 56.694 42.142 74.033 9.8638 17.339 18.549 32.549 19.3 33.801 10.195 16.989 20.833 23.928 33.507 21.856zm51.783-6.4559c19.444-4.4941 29.174-23.882 22.88-45.591-6.1233-21.121-26.717-29.2-40.374-15.838-8.7436 8.5547-8.7131 24.024 0.0639 32.452 7.7182 7.4114 21.24-3.4471 14.114-11.334-3.0057-3.3269-6.3759-2.1259-7.8784 2.8076-1.0633 3.4915-4.3857 3.2591-3.6485-0.2552 1.8027-8.5947 10.421-10.839 15.044-3.917 4.2162 6.3139 1.5752 13.746-6.2951 17.715-7.6365 3.8513-16.128-1.2199-19.831-11.844-0.50864-1.459-0.44316-0.46509 0.0777 1.1805 3.036 9.591 2.8113 19.271-0.62918 27.101l-0.36082 0.82119 1.8533 1.3269c7.2368 5.1812 16.863 7.2519 24.985 5.3747zm-384.22-10.051v-4.5524h-11.95-11.95v4.5524 4.5524h11.95 11.95v-4.5524zm208.27-2.61c19.88-2.1527 41.336-9.5525 59.636-20.567 5.2955-3.1874 11.836-7.7413 11.836-8.2408 0-0.1293-6.949-12.446-15.442-27.371-45.429-79.832-54.99-96.595-55.304-96.96-0.32338-0.37577-1.4021-0.39622-18.005-0.34143l-17.661 0.05829-0.0485 2.6176c-0.50844 27.497-1.6518 30.524-17.706 46.883-15.933 16.236-17.682 20.097-11.144 24.595 3.1569 2.172 7.9942 2.2255 11.372 0.1257 1.8646-1.1592 8.4405-0.88065 12.974 0.54951 4.7021 1.4833 5.9852 1.2968 7.6709-1.1151 2.8241-4.0408 0.61538-7.7403-4.1855-7.0105-2.8964 0.44031-4.1375-1.998-1.6562-3.2539 5.004-2.5327 11.492 2.3875 10.584 8.0263-1.0975 6.8151-5.9452 9.2484-13.532 6.7928-2.22-0.7185-3.4627-0.98592-5.073-1.0917l-2.1328-0.1401 0.81065 1.5957c2.5147 4.9499 1.7187 9.2427-2.9669 16.001-2.1301 3.0722-2.2966 3.6623-1.2979 4.5991 2.3511 2.2055 11.423 4.2766 25.778 5.8852 3.709 0.41563 4.9532 1.6546 3.3108 3.297-0.69576 0.69576-0.52353 0.6989-6.9589-0.1269-9.5842-1.2298-15.665-2.3524-19.134-3.5321-0.90763-0.3087-1.6852-0.52632-1.7279-0.48362-2.4302 2.4303-2.3105 5.825 0.28311 8.025 8.4051 7.1294 9.2026 10.192 5.3354 20.487-0.65944 1.7556-0.84391 2.494-0.65262 2.6123 0.18774 0.11595-0.24322 1.401-1.4559 4.3405-2.865 6.9451-2.8434 7.0521 1.7659 8.7281 13.064 4.7505 29.821 6.6296 44.727 5.0155zm-21.85-108.05c-1.7552-1.1715-2.7615-5.2173-1.9868-7.9882l0.17557-0.62799-1.5974 0.14847-1.5974 0.14847-0.74052-0.78826c-1.7222-1.8333-1.6824-2.1551 0.31056-2.5111 9.9251-1.7732 20.173 1.708 23.51 7.9868l0.65094 1.2245-1.5667-1.2053c-2.7822-2.1404-7.8491-4.2299-11.304-4.6616l-1.311-0.16381 0.23217 0.61066c1.572 4.1347-1.8658 9.7695-4.7754 7.8275zm23.672-10.717c-6.3289-5.6951-17.734-8.5551-29.387-7.3692l-1.9592 0.19938-0.90005-0.81314c-2.4415-2.2057-2.4801-3.3201-0.1293-3.7293 14.505-2.5248 28.335 2.2158 32.932 11.289 0.76889 1.5174 0.70946 1.5626-0.55645 0.42345zm-210.09 109.43v-4.4386h-11.95-11.95v4.4386 4.4385h11.95 11.95v-4.4385zm430.22-6.927c24.49-5.2271 28.95-46.291 6.8089-62.703-14.321-10.615-30.144-8.627-37.447 4.7044-0.46375 0.84657-1.0604 1.6914-1.3259 1.8773-0.4898 0.34307 5.0626 12.1 9.351 19.8 7.7286 13.878 22.641 6.9127 18.276-8.5357-2.5947-9.182-10.432-14.303-14.199-9.2775-3.8686 5.1597 0.80539 15.757 5.196 11.781 2.7148-2.4586 5.0505-0.015 2.497 2.6124-4.2928 4.417-9.8001 1.6977-12.205-6.0267-2.6303-8.4473 3.5613-15.683 11.342-13.254 12.845 4.0105 16.08 26.782 4.6245 32.55-7.899 3.9772-14.328 0.29277-20.651-11.835-7.3304-14.06-42.382-88.08-46.57-98.345l-0.27735-0.67968-7.278 0.04332c-4.0029 0.02382-7.3386 0.1142-7.4126 0.20082s11.046 21.664 24.71 47.949l24.845 47.792 2.7458 1.3811c11.718 5.8941 18.766 18.821 19.132 35.09l0.11355 5.0444 2.4201 0.1443c1.331 0.0794 2.7274 0.18143 3.1029 0.22676 2.1225 0.25612 10.127-0.1002 12.202-0.54321zm-430.22-5.8196v-3.7557h-11.95-11.95v3.7557 3.7557h11.95 11.95v-3.7557zm25.542-7.2454c5.1393-1.997 4.9965-9.3986-0.21557-11.174-1.5906-0.54197-66.575-0.54648-68.165-0.005-5.63 1.9183-5.2819 9.7861 0.50196 11.346 2.1266 0.57362 66.38 0.41562 67.879-0.16692zm330.95-2.8478c-0.29629-6.1969 2.075-12.824 6.3914-17.863 0.97447-1.1375 1.1024-1.3956 0.90567-1.8273-0.52775-1.1583-52.703-101.12-52.915-101.38-0.29819-0.36473-23.166-0.4209-23.166-0.05691 0 0.17763 68.757 123.14 68.856 123.14 0.0135 0-0.0188-0.90576-0.0716-2.0128zm-12.04-12.14c-3.6-6.62-60.99-108.9-61.17-109.03-0.44073-0.30874-25.163-0.20906-25.163 0.10144 0 0.15161 12.772 24.207 28.382 53.457l28.382 53.182 1.6414-0.88534c8.4525-4.5592 18.263-3.5382 26.382 2.7458 1.1267 0.87199 2.0818 1.5932 2.1226 1.6026 0.0407 0.009-0.21891-0.52063-0.57689-1.1779zm-351.96-3.71c22.795-3.6968 31.767-32.152 15.223-48.283-18.042-17.591-48.221-4.8889-48.221 20.296 0 17.482 15.695 30.793 32.998 27.987zm379.06-8.4312c3.5353-1.7049 5.9531-2.2234 10.452-2.2414 2.0969-0.009 3.8126-0.0309 3.8126-0.0498 0-0.21722-49.087-94.472-49.264-94.594-0.28296-0.19481-21.525-0.23801-21.525-0.04377 0 0.14349 50.48 97.045 51.361 98.592l0.54698 0.96085 1.2641-0.80865c0.69528-0.44476 2.2035-1.2616 3.3516-1.8153zm-15.68-102.05c5.3296-2.6231 5.4776-10.854 0.24516-13.638l-1.1381-0.60562h-92.527-92.527l-0.96104 0.51354c-5.8736 3.1386-5.1677 12.4 1.0738 14.089 0.7995 0.2163 21.254 0.2681 92.869 0.23515l91.844-0.04226 1.1205-0.5515zm9.4295-43.771c9.2686-14.55 16.816-26.49 16.772-26.534-0.0711-0.0711-49.199 28.923-50.305 29.688-0.24695 0.17098-0.52128 0.31087-0.60969 0.31087-0.20766 0 1.291 1.5451-15.791-16.28-8.215-8.5723-15.035-15.586-15.157-15.586-0.1212 0-4.5436 3.2583-9.8276 7.2406-19.906 15.002-31.695 23.863-31.963 24.023-0.17235 0.10288-8.3155-6.0311-21.549-16.232-18.39-14.176-21.38-16.398-22.04-16.398-0.70071 0-1.9892 1.2309-16.919 16.163-8.8881 8.8895-16.285 16.115-16.437 16.057-0.20663-0.0788-46.282-29.233-49.442-31.284-0.7837-0.50877-2.1334-2.409 19.761 27.822l19.891 27.464h88.377 88.377l16.852-26.454zm-10.04-14.995c12.74-7.528 23.29-13.816 23.46-13.973 0.26-0.2481-73.8-0.6897-74.13-0.4424-0.0407 0.031 4.6198 4.9566 10.357 10.946 5.7368 5.9892 11.813 12.342 13.503 14.117 1.69 1.7751 3.2044 3.1855 3.3652 3.1341s10.711-6.2529 23.445-13.781zm-78.888-0.1224c9.9273-7.4659 18.236-13.75 18.465-13.965 0.39228-0.36889-1.6029-0.39961-36.266-0.55835-20.174-0.0924-36.724-0.12474-36.777-0.0719-0.10275 0.10279 36.1 28.128 36.368 28.154 0.0879 0.008 8.2822-6.0932 18.209-13.559zm-81.22-0.728 13.84-13.848-12-0.1508c-6.61-0.0832-22.81-0.1513-36.02-0.1513h-24.009l22.055 13.991c12.13 7.6953 22.106 13.995 22.169 13.998 0.063 0.004 6.3451-6.2242 13.96-13.84zm191.29-17.337c0.28413-0.45496 0.23275-0.45521-84.79-0.41164-48.416 0.0248-78.503 0.11065-69.824 0.19921 8.3877 0.0856 27.337 0.18182 42.109 0.21385 24.447 0.053 87.461 0.29818 105.05 0.40873 6.9509 0.0437 7.1809 0.031 7.4564-0.41015zm-180.96-0.3983c-4.1-0.0348-10.809-0.0348-14.909 0s-0.74545 0.0632 7.4545 0.0632c8.1999 0 11.554-0.0285 7.4545-0.0632z"/>
</svg>
