<?xml version="1.0" encoding="UTF-8" standalone="no"?>
<svg xmlns:rdf="http://www.w3.org/1999/02/22-rdf-syntax-ns#" xmlns="http://www.w3.org/2000/svg" height="601.1" viewBox="0 0 418.06647 601.10199" width="418.07" version="1.1" xmlns:cc="http://creativecommons.org/ns#" xmlns:dc="http://purl.org/dc/elements/1.1/">
<path d="m80.41 600.03c-5.7652-12.894 1.5372-35.628 14.827-46.16l1.5573-1.2342-2.1501-0.13445c-2.2071-0.13801-9.996 0.0687-13.869 0.36806-2.6491 0.20478-3.2339 0.0131-3.2339-1.0601 0-1.0655 0.90291-1.3802 16.155-5.6308 13.988-3.8984 25.786-7.5467 26.403-8.1649 0.0576-0.0577-0.12421-1.3559-0.40395-2.8849-2.718-14.856-3.6369-33.632-2.401-49.063l0.21648-2.7027-0.86199-0.87762c-6.24-6.35-16.753-12.4-28.651-16.47-2.509-0.85-4.899-1.57-17.284-5.14-42.713-12.32-61.867-19.18-69.766-24.99l-0.939-0.69v-1.47c0-1.8504 0.00060537-1.8508 1.1326-0.79188 5.0828 4.7547 21.076 11.002 51.539 20.133 7.0476 2.1124 10.069 2.9972 22.391 6.5562 17.216 4.9729 22.8 7.1071 30.882 11.803 6.2574 3.6358 14.329 10.261 14.039 11.524-0.41532 1.8084-0.87706 14.433-0.75182 20.556 0.97416 47.627 15.664 80.78 42.315 95.498 0.78519 0.43363 1.4492 0.80784 1.4757 0.83156 0.0264 0.0237-0.0933 0.32018-0.26605 0.6588l-0.31407 0.61566h-1.0654c-1.1653 0-2.2434-0.54234-5.7556-2.8954-16.646-11.152-28.668-30.594-34.358-55.562-0.27313-1.1984-0.50909-2.1984-0.52438-2.2221-0.0153-0.0237-0.3916 0.10141-0.83626 0.278-3.4788 1.3815-12.364 4.1114-23.497 7.2195l-7.2105 2.0129 1.7254 0.0329c15.257 0.29046 24.988 3.1991 29.685 8.8728 7.3605 8.8914-0.68244 25.081-16.492 33.197l-1.0982 0.56373 1.2022 0.11379c6.1209 0.57929 13.997 5.1812 12.809 7.4843-0.46532 0.90228-1.5136 0.8456-2.3224-0.12556-3.1378-3.7679-8.9093-5.5221-16.394-4.9829-2.9758 0.21435-3.2772 0.17352-3.5525-0.48102-0.41847-0.99525-0.0012-1.4395 1.9458-2.0717 18.076-5.8695 29.875-23.755 21.551-32.669-2.7768-2.9734-8.1839-5.3546-14.771-6.5051l-2.2374-0.39076-0.84324 0.41021c-13.996 6.79-23.997 33.2-17.508 46.22l0.34593 0.69401-0.72664 0.39548c-1.2435 0.6768-1.5392 0.58195-2.1007-0.67389zm173.86-1.63c-35.09-11.53-67.15-36.55-89.25-69.66-6.94-10.39-8.73-13.91-18.56-36.54-12.16-28-17.49-39.18-24.44-51.29-5.2-9.07-8.18-13.34-14.35-20.51-8.005-9.33-15.784-17.49-45.38-47.64-19.281-19.64-28.728-29.54-37.505-39.3-12.701-14.12-20.348-24.17-23.833-31.33l-0.95177-1.95-0.00011655-1.85-0.00011345-1.84h3.81 3.81l0.092889-1.0895c0.3819-4.4793 3.0895-9.1719 6.939-12.026 1.6485-1.2223 7.056-8.6705 17.862-24.604l2.4971-3.6818-3.0025-0.0407-3.0025-0.0407-0.03911-6.7028-0.03911-6.7028-2.3293-0.78361c-7.2867-2.4514-13.261-5.5558-18.114-9.412l-1.0766-0.85553-3.6387 5.1685c-4.2571 6.05-3.7697 5.64-3.7697 3.17v-2.0027l2.7801-3.9391c1.5291-2.1665 2.7801-3.9699 2.7801-4.0076s-0.34359-0.49149-0.76354-1.0085c-2.8381-3.4939-2.7469-6.129 0.39971-11.547l1.4232-2.4505-0.36327-0.76723c-2.2256-4.7005-0.24395-12.119 3.8536-14.427 0.24508-0.13803 0.21115-0.26046-0.41661-1.5028-2.4091-4.7675-1.2008-12.121 2.2245-13.537l0.64816-0.26807-0.35354-0.87527c-1.9082-4.7243-0.90177-9.6466 2.6892-13.152 2.0575-2.0085 5.3765-1.5546 12.204 1.6688 0.98149 0.46334 1.8099 0.84246 1.8409 0.84246s0.05635-4.8478 0.05635-10.773v-10.773l-0.46661 0.44137c-0.76542 0.72403-1.6143 2.0833-2.6901 4.3074-0.5584 1.1545-1.0513 2.0408-1.0952 1.9697-2.131-3.448-1.9344-10.187 0.38668-13.254 0.39829-0.5263 0.70394-0.97192 0.67923-0.99026-0.02471-0.0183-0.48449-0.15136-1.0217-0.29559-10.592-2.8437-13.094-18.888-4.644-29.786 1.9042-2.4559 0.73551-7.8117-2.6796-12.28-0.55918-0.7316-1.1042-1.4506-1.2111-1.5978-0.9258-1.2742 5.5368-0.46622 8.3756 1.0471 1.4371 0.76612 1.3904 0.4643-0.72954-4.7178-1.0899-2.6642-1.1453-2.5366 0.75301-1.7355 2.5058 1.0574 4.2785 2.4856 5.346 4.3073l0.40872 0.69742 0.90978-0.98416c0.50038-0.54129 1.8565-2.2078 3.0136-3.7034 2.358-3.0478 2.2285-2.9649 2.7289-1.7456 0.70272 1.7125 0.85948 2.6805 0.85758 5.2956-0.000901 1.3451 0.03696 2.4264 0.08431 2.4029 0.04735-0.02351 0.76233-0.3875 1.5888-0.80888 4.7023-2.3973 8.2721-2.1937 12.717 0.72554 1.1647 0.765 3.952 3.1113 3.8351 3.2282-0.02815 0.0281-0.82213 0.12269-1.7644 0.21009-6.8413 0.63455-11.228 4.2113-12.148 9.9047-0.50293 3.1137-0.08292 4.7705 2.6287 10.369 4.5168 9.3257 4.1057 13.547-1.6945 17.398l-0.78423 0.52076 0.59294 0.82803c2.0742 2.8966 1.8676 6.823-0.62594 11.892l-1.0636 2.1623-0.60396-1.1103c-1.3695-2.5178-2.6315-4.3725-3.9489-5.8037l-0.65961-0.71657-0.006 13.264-0.006 13.264 1.0928-1.0919c5.301-5.2967 12.627-6.3691 18.624-2.7262l0.88647 0.5385 5.064-1.8357c33.446-12.124 60.433-20.777 74.566-23.907 1.8913-0.4189 2.2509-0.54672 2.7238-0.96802 1.1252-1.0025 3-1.8345 5.6081-2.4886l1.2652-0.31732 0.0802-0.92334c0.14364-1.6547 0.54912-5.6709 0.63798-6.3193 0.086-0.62735 0.0817-0.63434-0.49329-0.81267-3.2226-0.99937-4.0723-4.6976-1.8642-8.1139l0.58437-0.90413-0.43103-0.91141c-0.27449-0.5804-0.87691-1.3848-1.6587-2.2147-2.5391-2.6956-2.4648-3.7386 0.61387-8.6217 2.5472-4.04 2.1379-4.8094-3.8353-7.2098-4.6809-1.8811-6.0665-3.2423-5.9025-5.7983 0.11526-1.796 0.16918-1.8853 7.0486-11.676 7.1863-10.228 9.454-15.606 10.865-25.771 0.75897-5.4667 0.48825-7.2839-1.8472-12.399-2.1238-4.6511-2.6118-6.68-2.2785-9.4714 0.12415-1.0398 0.12363-1.5186-0.002-1.8451-1.6144-4.1954-0.21024-8.8459 4.4824-14.845 0.99422-1.2711 1.2298-1.6608 1.067-1.7656-0.11487-0.07392-1.088-0.65456-2.1624-1.2903-1.0745-0.63575-1.9755-1.1705-2.0022-1.1884-0.0268-0.01787 0.0578-0.23829 0.18784-0.48982 0.32517-0.62882 0.30904-0.68255-0.29092-0.96865l-0.52741-0.2515 1.9032-3.7962c1.0467-2.0879 1.9181-3.9653 1.9364-4.1719 0.024-0.27093 4.4109-10.145 4.6597-10.488 0.0175-0.024122 0.31745 0.070438 0.66659 0.21013 0.53314 0.21332 0.65532 0.22075 0.76307 0.046417 0.14211-0.22995 1.1908 0.082625 6.454 1.9237 34.023 11.901 65.78 37.481 87.079 70.142 6.0308 9.2476 8.1872 13.549 17.178 34.267 13.798 31.795 19.446 43.411 27.729 57.03 4.9973 8.216 10.238 14.602 21.085 25.692 1.5792 1.6146 3.1683 3.2655 3.5315 3.6687 1.1393 1.265 15.519 15.339 27.336 26.756 50.439 48.729 65.194 65.491 67.834 77.065l0.0943 0.41325h-3.9723-3.9724l-0.10348 1.1646c-0.23226 2.614-0.82179 4.7772-1.8713 6.8662l-0.59204 1.1785 0.39746 0.31685c0.21861 0.17428 0.48081 0.38448 0.58267 0.46713 0.139 0.11279-0.11453 0.52516-1.0163 1.653-4.7817 5.9806-13.727 18.419-21.831 30.356l-3.2647 4.8088 3.1669 0.0406 3.1669 0.0406v6.9521 6.9521l1.7657 0.57789c6.7789 2.2186 13.072 5.4575 17.822 9.1726 0.81353 0.63631 1.4953 1.135 1.515 1.1083 0.0197-0.0268 1.8762-2.5846 4.1255-5.684s4.1486-5.6353 4.2207-5.6353 0.44098 0.21838 0.81965 0.4853c1.1318 0.79773 1.2078 0.64136-3.3769 6.945l-4.0654 5.5896 0.54644 0.60486c3.1044 3.4362 3.0786 6.3253-0.10603 11.874l-1.4073 2.4521 0.49873 1.1609c1.3515 3.146 1.2152 6.1681-0.42705 9.4676-1.1159 2.2421-2.2275 3.7181-3.2735 4.3467-0.30196 0.18146-0.57381 0.34861-0.60411 0.37145-0.0303 0.0228 0.14443 0.36612 0.3883 0.76285 2.827 4.5992 1.6624 12.872-1.9984 14.196-0.36511 0.13201-0.50822 0.26402-0.45729 0.42178 0.0408 0.12627 0.27773 0.80441 0.52655 1.5069 1.6397 4.6295-0.007 10.386-3.7171 12.994-1.7515 1.2312-6.3002 0.27544-11.721-2.4628-1.2121-0.6123-1.082-1.8364-1.0378 9.7699l0.0386 10.13 0.80563-1.0519c0.44585-0.58216 1.3093-2.0873 1.9336-3.3704l1.1279-2.3185 0.36263 1.1163c1.8291 5.6305 1.6596 9.0483-0.60521 12.205l-0.78815 1.0985 0.91108 0.26768c6.3478 1.8651 9.4154 6.0974 9.6526 13.317 0.20065 6.1085-1.9967 13.302-5.1496 16.857-1.8243 2.0571-0.1247 8.175 3.5403 12.744l0.78048 0.97293-0.42488 0.11957c-2.3019 0.64787-6.0275-0.0256-8.4759-1.5321-0.58271-0.35854-0.74007-0.40486-0.74007-0.21786 0 0.36988 0.85957 2.7645 1.894 5.2762l0.94127 2.2856-0.77897-0.30257c-3.0243-1.1748-4.7138-2.3894-6.0563-4.3542l-0.73253-1.0721-0.66169 0.72912c-0.71547 0.78835-1.3352 1.557-3.8426 4.766l-1.6278 2.0833-0.50469-1.2511c-0.68704-1.7031-0.82757-2.676-0.77378-5.3577 0.0253-1.2606 0.0122-2.2743-0.0292-2.2527-7.1643 3.7422-11.076 3.3099-16.951-1.8735l-1.412-1.2459 2.231-0.24436c6.4268-0.7039 10.595-4.0319 11.685-9.3294 0.69617-3.3826 0.23137-5.3345-2.6744-11.231-3.4476-6.9956-3.8292-10.211-1.6178-13.63 0.86787-1.342 3.2235-3.5497 4.099-3.8416 0.10035-0.0334-0.10991-0.46782-0.50775-1.0489-1.9835-2.8972-1.7609-6.7172 0.68495-11.752l1.0872-2.238 0.89852 1.6768c1.0527 1.9645 2.4776 4.0159 3.6982 5.3243l0.86874 0.93121 0.007-13.328c0.008-14.903 0.11665-13.844-1.282-12.427-5.0463 5.1115-11.961 6.3488-17.936 3.2092l-1.0496-0.55155-6.2053 2.2556c-33.726 12.259-62.257 21.362-75.68 24.146-1.3854 0.2873-1.3802 0.28757-1.3802-0.0716 0-0.26468-0.0831-0.23601-0.7138 0.2462-1.6851 1.2883-4.1652 1.7226-5.9121 1.0352-0.21132-0.0831-0.25073 0.22599-0.3386 2.6554-0.0547 1.5122-0.23234 3.7941-0.39477 5.071-0.16244 1.2768-0.28055 2.3319-0.2625 2.3445 0.0181 0.0126 0.40784 0.19208 0.8662 0.39867 3.0391 1.3698 3.7047 4.7636 1.5594 7.9514-0.76703 1.1398-0.4902 1.906 1.4393 3.9835 2.5241 2.7178 2.4678 3.8446-0.4223 8.4504-2.7136 4.3245-2.3787 5.0121 3.6014 7.3946 7.9151 3.1534 8.0124 4.7402 0.902 14.718-8.8743 12.453-10.763 16.513-12.58 27.043-1.0724 6.2153-0.80546 8.6534 1.4956 13.659 2.2625 4.9219 2.8274 7.3671 2.3487 10.166-0.10354 0.60526-0.0653 0.95593 0.1968 1.8033 1.2956 4.1892-0.2197 8.8688-4.6832 14.463-1.48 1.8547-1.4693 1.6655-0.13844 2.4518 2.2804 1.3474 2.2284 1.304 2.0465 1.7033-0.13438 0.29491-0.10706 0.43646 0.15225 0.78906 0.76148 1.0354 0.66724 1.4487-1.1656 5.1124-1.4186 2.8357-1.7435 3.3768-2.1947 3.6556-0.30507 0.18855-0.57187 0.4972-0.62938 0.72813-0.0549 0.22047-0.68631 2.4972-1.4031 5.0594-1.422 5.0828-1.2533 4.7594-2.3521 4.5092-0.3574-0.0814-0.48705-0.0535-0.52597 0.11302-0.0412 0.17623-0.67619 0.0159-3.1323-0.79073zm3.9366-5.3467c0.55345-1.9768 1.0472-3.7715 1.0972-3.9882 0.0855-0.37039 0.007-0.43726-1.3068-1.113-26.704-13.735-52.064-36.868-72.692-66.311-10.951-15.63-16.218-25.355-23.377-43.161-2.6019-6.4713-4.1982-10.756-9.3217-25.021-6.2288-17.342-7.2308-19.837-10.953-27.275-5.8296-11.65-12.488-22.274-27.631-44.086-2.804-4.0389-7.0968-10.26-9.5395-13.825-10.813-15.76-26.664-37.8-46.07-64.04l-3.2236-4.358-2.8405-0.0929c-1.5623-0.0511-4.4562-0.11872-6.431-0.15028l-3.5905-0.0574-0.26674 1.2774c-3.9223 18.782-31.37 18.207-34.267-0.71877l-0.18903-1.2348h-2.679c-3.1694 0-2.9981-0.23339-1.7232 2.3478 4.6454 9.4052 18.464 26.115 40.435 48.896 1.0761 1.1158 2.8357 2.9416 3.9102 4.0574 4.511 4.6845 6.7916 7.0196 21.721 22.241 13.682 13.949 14.69 14.981 18.94 19.386 24.325 25.211 29.634 31.976 39.443 50.267 5.7777 10.773 10.376 20.678 21.907 47.187 7.5133 17.272 8.8134 20.007 12.441 26.165 20.994 35.645 54.766 63.71 91.738 76.235 3.8298 1.2974 3.2645 1.6309 4.4573-2.6297zm5.37-11.559c0.003-0.0826-1.0052-0.68192-2.2404-1.3317-28.894-15.199-53.098-38.526-75.255-72.529-9.1418-14.029-13.925-24.732-25.585-57.255-6.207-17.313-7.3692-20.183-11.502-28.402-6.0271-11.986-12.467-22.244-28.541-45.458-4.0631-5.8683-9.0689-13.138-11.124-16.155-15.302-22.463-29.719-42.562-42.357-59.051-1.4856-1.9382-2.7011-3.5961-2.7011-3.6842s2.9415-4.6899 6.5368-10.226c39.209-60.378 61.529-101 74.105-134.87 1.4557-3.9206 1.4216-3.7923 1.2926-4.851-0.0626-0.51402-0.15685-1.3843-0.20947-1.934l-0.0957-0.99939-0.55318 0.14424c-4.1966 1.0943-4.6424 1.4488-5.7341 4.5595-10.216 29.109-40.299 82.783-81.36 145.16l-1.878 2.8531 0.34872 0.4572c0.81576 1.0695 9.2622 12.523 13.63 18.482 15.569 21.242 25.769 35.487 34.166 47.712 2.4692 3.5953 7.5347 10.933 11.257 16.305 15.125 21.832 21.525 31.991 27.455 43.58 3.994 7.8052 5.2602 10.917 11.405 28.026 13.616 37.912 18.479 48.085 32.615 68.225 20.786 29.616 46.125 52.596 72.955 66.166l0.75137 0.38003 1.307-2.5793c0.71883-1.4186 1.3094-2.6469 1.3125-2.7296zm-4.8668-8.1423c-3.7727-7.0919-11.768-12.93-20.949-15.296-1.342-0.34597-1.3281-0.32403 1.0635 1.6739 6.1688 5.1533 11.111 8.8773 17.509 13.193 3.3249 2.2427 3.3429 2.246 2.3769 0.42994zm4.0344-1.0897 0.86432-1.2005-0.31427-1.1456c-3.311-12.069-19.355-22.093-33.339-20.83-2.8094 0.25376-2.7946 0.0855-0.22321 2.5259 3.3617 3.1904 3.5731 3.3581 4.2335 3.3581 9.438 0 24.394 9.984 27.4 18.291 0.21418 0.59195 0.25443 0.5628 1.3792-0.9993zm3.2547-6.1252c0.76934-3.0081 0.11762-5.6413-2.3142-9.3501-8.3074-12.67-26.716-19.177-41.009-14.496-1.6815 0.55067-1.7924 0.28019 1.5234 3.715l1.283 1.329 1.2071-0.23733c14.615-2.8735 33.17 6.7808 38.185 19.868 0.49649 1.2957 0.60098 1.2188 1.1246-0.82852zm-30.51-5.94c-0.29244-0.26638-1.6787-1.496-3.0806-2.7326-14.99-13.222-26.611-28.758-32.267-43.135-10.013-25.456-3.6587-52.14 15.469-64.959 9.8221-6.5827 20.774-9.695 37.034-10.525l2.0476-0.10449-24.929-21.489c-13.711-11.819-25.116-21.639-25.345-21.822l-0.41667-0.33216-13.67 24.431c-7.5186 13.437-13.732 24.56-13.808 24.719-0.11394 0.23841 0.0267 0.44991 0.81305 1.2228 4.581 4.5025 4.7149 12.27 0.29798 17.284-0.34903 0.39618-0.60937 0.74155-0.57851 0.76748 0.0308 0.0259 0.59707 0.32624 1.2583 0.66736 6.0477 3.12 8.1793 10.397 4.4709 15.264l-0.44835 0.58842 0.87561 0.58471c3.927 2.6223 3.8383 9.9019-0.17888 14.686l-0.89135 1.0616 1.0305 1.8397c10.803 19.286 29.981 42.852 46.751 57.449 3.3513 2.9169 7.5015 6.2987 5.5646 4.5343zm29.97-5.8805c-0.21981-0.84177-0.80502-2.2572-2.456-5.9404-2.2651-5.0533-2.2971-8.8383-0.15658-18.559 1.6796-7.6275 3.777-11.613 12.897-24.504 5.146-7.2742 5.1363-7.4453-0.55262-9.7991-7.6059-3.147-8.5414-5.1564-5.0126-10.767 1.1116-1.7673 1.0888-1.5992 0.21763-1.6024-1.4468-0.005-3.4902-0.57327-5.2112-1.4485-1.1711-0.59562-1.1665-0.59218-5.8713-4.3935l-3.4209-2.764-1.685 0.18003c-0.92675 0.099-2.1474 0.27677-2.7125 0.39501-0.56513 0.11824-1.0524 0.19012-1.0828 0.15971-0.12253-0.12255 2.974-1.5857 4.1763-1.9734 1.1345-0.36583 1.3235-0.47885 1.5995-0.95664 1.3746-2.3796 4.8042-4.4015 9.4466-5.5693l0.61105-0.1537 0.44042-3.4956c0.37513-2.9774 0.44047-4.019 0.44087-7.027v-3.5315l-0.57599-2.2541c-0.96398-3.7725-2.2611-5.4426-5.4829-7.0595-4.1182-2.0668-10.017-2.142-22.869-0.29149-16.338 2.3523-31.016 13.425-36.638 27.638-8.2605 20.883-2.8487 44.502 15.37 67.08 1.1594 1.4368 2.2175 2.749 2.3514 2.916 0.24202 0.30174 0.25413 0.2997 1.9202-0.32476 14.17-5.311 33.959 0.84403 43.293 13.465 0.61891 0.83689 1.1402 1.5066 1.1585 1.4884 0.0183-0.0183-0.0696-0.42704-0.19528-0.90833zm-18.544-17.354c-4.2766-0.92583-8.606-3.9814-11.413-8.0547l-0.81837-1.1876 1.1941 1.0205c6.8223 5.8306 15.512 7.7866 19.741 4.4437l0.79392-0.62755-0.10668 0.50405c-0.7203 3.4036-4.479 4.9652-9.3914 3.9017zm-6.6685-12.208c-0.26313-1.3156 0.13156-3.1093 0.95488-4.3392 0.59272-0.88547 0.57609-0.95451-0.20867-0.86605-1.8091 0.2039-3.7632 1.9876-4.4512 4.063l-0.26034 0.7854-0.1306-0.6011c-0.47137-2.1697-0.0575-4.3657 1.0547-5.5968 0.29859-0.3305 0.5429-0.64051 0.5429-0.68888 0-0.10318-2.3183-0.85241-2.6376-0.85241-1.4876 0 0.3122-0.3695 4.7951-0.98439 3.3561-0.46036 3.2366-0.46158 2.747 0.0281-1.4704 1.4704 0.36536 3.4249 4.7686 5.0772 1.4615 0.54843 1.3715 0.64834 1.3769-1.5286 0.0138-5.5491 3.6341-6.8644 5.5006-1.9985 0.36375 0.9483 0.45356 3.2312 0.15561 3.956l-0.17151 0.41722 0.94526-0.0968c1.1013-0.11283 1.5915 0.23066 2.2865 1.602 0.43971 0.86771 0.5058 0.81589-1.3354 1.047-3.6764 0.46143-6.9856-0.0404-9.9563-1.51-2.5066-1.24-4.5854-0.47029-5.4906 2.0329-0.23407 0.64732-0.36427 0.66177-0.48584 0.0539zm142.19-24.796c0.68563-0.80199 1.4032-1.5608 1.5947-1.6862l0.34808-0.22805-0.36804-1.5505c-0.20242-0.85276-0.41285-1.7337-0.46761-1.9577-0.097-0.39695-0.1331-0.37132-1.4259 1.0143l-1.3263 1.4215-0.21347 1.315c-0.11739 0.72324-0.21054 1.9574-0.20696 2.7426l0.006 1.4276 0.40621-0.52017c0.2234-0.28609 0.96716-1.1763 1.6528-1.9783zm5.1753-1.4847c-1.0899-4.3929-0.0695-7.4138 3.8805-11.488 4.1482-4.2788 5.924-8.1945 6.6138-14.584 0.85786-7.9452-2.0391-12.575-8.8765-14.185-2.3663-0.55722-2.2444-0.59494-1.3346 0.4131 4.9405 5.4738 4.5129 18.871-0.94704 29.674-1.503 2.9739-1.3686 6.7101 0.3701 10.284 0.56003 1.1512 0.60342 1.1343 0.29364-0.11436zm-15.282 0.37417c11.08-2.8183 19.796-22.598 15.606-35.416-2.0389-6.2378-10.218-7.3453-15.524-2.102-3.0459 3.0096-2.8934 5.4824 0.80794 13.101 5.3319 10.975 2.9333 19.195-6.6171 22.677l-1.1365 0.41435 1.2391 0.56644c2.0851 0.9531 3.9003 1.1983 5.6248 0.75964zm22.306-1.9136c-0.97636-1.8086-1.9593-4.7544-2.1921-6.5695l-0.10536-0.82142-0.73635 0.82142c-2.7804 3.1016-2.2125 5.1936 1.8579 6.8444 1.6401 0.66511 1.6786 0.65613 1.1759-0.27492zm-213.09-3.61c3.6572-4.9506 2.5697-10.912-2.0814-11.411-0.72535-0.0778-1.6196-0.1879-1.9872-0.24471l-0.66835-0.10328 1.5622-1.2409c7.0013-5.5616 3.8351-14.207-5.5242-15.083-2.3957-0.22437-2.3798-0.0985-0.19355-1.5276 9.2918-6.074 7.0909-18.231-3.4619-19.123-0.6955-0.0588-1.3166-0.13683-1.3803-0.17353s0.39993-0.61976 1.0302-1.2957c7.682-8.239 4.5589-18.244-5.9658-19.112-1.76-0.14515-1.7572-0.13894-0.63225-1.429 9.1327-10.473-0.18576-23.469-13.299-18.547-2.6397 0.99082-2.5552 1.1629-0.70144-1.4286 9.0287-12.622 2.1968-24.287-12.701-21.686-2.0666 0.36089-1.9607 0.42212-1.3033-0.7533 6.2203-11.123 2.8988-17.102-8.8879-15.999l-1.2498 0.11695 1.1782-1.3944c4.8068-5.6888 2.3464-17.234-4.6896-22.006-2.925-1.9837-6.4233-2.9833-11.147-3.185l-2.2806-0.0974 0.97263-1.3525c3.647-5.0714 3.6596-8.9891 0.0402-12.553-2.7045-2.6628-7.9828-4.9544-11.412-4.9544h-0.88283l-0.6067-0.8934c-0.76416-1.1253-0.80172-0.99761 0.56302-1.9136 12.624-8.4723 12.339-15.667-0.79403-20.041-1.8803-0.62622-1.771-0.50349-1.5642-1.756l0.17496-1.0594 3.099 0.009c15.843 0.0486 20.394-12.297 8.803-23.879l-2.2724-2.2704 2.0411-0.0906c5.1158-0.22719 9.6843-2.8408 13.444-7.6912 5.098-6.5773 5.3474-12.869 0.70689-17.838-1.2828-1.3736-1.2734-1.2697-0.12507-1.3931 9.1066-0.97847 14.577-3.8943 17.204-9.1705 2.4566-4.9335 1.7151-11.668-1.8987-17.247-0.50398-0.77797-0.91633-1.4498-0.91633-1.4928 0-0.0431 0.59171-0.12518 1.3149-0.18245 9.8316-0.77863 14.949-14.43 7.4843-19.965-1.436-1.0647-1.4652-0.95356 0.4275-1.6244 7.111-2.5205 11.219-8.4574 10.464-15.122-0.33773-2.9814-1.2104-4.8509-3.6065-7.7257l-0.45311-0.54365 0.71243-0.26706c4.4174-1.6559 5.8946-3.0358 5.7025-5.3272-0.16004-1.909-0.51655-2.2124-4.0768-3.4693-0.90303-0.3188-1.0609-0.43158-1.2493-0.89267-0.1186-0.29025-0.54331-0.86587-0.94379-1.2791-0.40048-0.41326-1.0302-1.2442-1.3994-1.8466l-0.67129-1.0953-0.41037 1.0953c-12.883 34.384-35.302 75.084-74.958 136.08-2.7003 4.1535-4.9097 7.5884-4.9097 7.6331s1.0698 1.4815 2.3772 3.1929c12.792 16.743 25.982 35.159 42.108 58.789 2.51 3.678 7.7035 11.218 11.541 16.756 24.327 35.105 28.926 43.623 39.549 73.259 8.2406 22.988 12.834 34.382 17.462 43.317 0.70298 1.357 0.72116 1.3641 1.3403 0.52596zm90.558-12.842c0.0331-0.1-0.46868-0.74555-1.115-1.4346-0.64634-0.68904-1.4118-1.6702-1.7011-2.1803-0.59651-1.052-1.3588-1.4122-4.0351-1.9067-1.1731-0.21678-5.4119-0.60388-5.5117-0.50333-0.0657 0.0661 5.3373 4.434 5.949 4.8093 1.8707 1.1477 6.167 1.962 6.4139 1.2157zm-3.2429-7.826c0.91481-1.0574 1.488-2.6816 1.263-3.5784l-0.1016-0.40483-1.4724 0.0965c-3.1962 0.20946-7.065 1.6527-9.0076 3.3601l-0.54852 0.48213 1.2694 0.006c1.7914 0.009 4.4241 0.28592 6.2978 0.66285 1.4094 0.28351 1.6158 0.29489 1.7361 0.0956 0.0751-0.12441 0.32879-0.44848 0.56382-0.72015zm108.85-16.78c0.57856-0.12566 1.3393-0.22964 1.6906-0.23107l0.63868-0.003v-1.0608c0-0.58344-0.0598-1.0238-0.13298-0.97861-0.19832 0.12257-2.9605-2.8077-4.157-4.4101l-1.0447-1.3989-0.36676 1.1065c-1.0662 3.2168 0.11412 7.6769 1.9287 7.2879 0.21536-0.0461 0.86494-0.18673 1.4435-0.31237zm7.2884-14.947v-14.262l-0.93922-0.51939c-0.51658-0.28568-1.1928-0.67049-1.5028-0.85515l-0.56353-0.33576v15.037 15.037l1.3149 0.0501c0.7232 0.0275 1.3994 0.064 1.5028 0.081 0.14918 0.0245 0.18785-2.9053 0.18785-14.231zm3.4979 12.908c1.0219-1.1938 1.8424-3.5576 1.7316-4.9881l-0.045-0.57999-0.64136 0.82333c-0.35274 0.45283-1.0459 1.1412-1.5403 1.5296l-0.89897 0.70626v1.8665 1.8665l0.44327-0.31563c0.24381-0.1736 0.67164-0.58244 0.95077-0.90853zm-114.93-1.3458c0.90326-0.39382 1.0008-0.56705 2.3311-4.1374 12.348-33.141 34.4-73.405 71.605-130.74 3.7617-5.797 5.4663-8.4472 10.294-16.004 0.39599-0.61988 0.66752-1.1947 0.60343-1.2773-0.46417-0.59858-11.547-15.484-14.825-19.912-15.605-21.077-26.241-35.88-35.499-49.41-2.1659-3.165-5.85-8.5073-8.187-11.872-16.335-23.516-23.66-35.257-29.412-47.142-3.2798-6.7765-4.3334-9.45-10.512-26.674-13.19-36.74-18.44-47.573-33.1-68.207-20-28.137-44.07-50.088-69.8-63.634-1.3416-0.70636-2.5599-1.3226-2.7074-1.3694-0.36721-0.11655-3.049 5.168-2.7218 5.3635 0.11245 0.06721 1.4893 0.80411 3.0597 1.6376 26.117 13.861 48.59 34.762 69.13 64.293 13.116 18.857 17.664 28.449 30.678 64.694 6.1184 17.041 7.3294 20.06 11.091 27.651 6.2742 12.66 12.822 23.119 29.538 47.187 2.6981 3.8846 7.3059 10.579 10.239 14.877 16.546 24.241 29.878 42.839 42.689 59.554 1.476 1.9257 2.7162 3.586 2.756 3.6898 0.0774 0.20164-0.31255 0.81303-8.4002 13.171-18.876 28.844-28.247 43.749-38.077 60.561-15.414 26.364-27.205 50.261-34.33 69.578-0.65544 1.777-1.2567 3.3858-1.3361 3.5752-0.21031 0.50153 0.53067 3.3749 1.0204 3.9569 0.86247 1.025 2.3483 1.2508 3.8687 0.58791zm6.9127-1.8181c3.3458-0.77241 2.939-0.48726 3.9674-2.7807 13.937-31.079 55.491-99.617 86.788-143.15l0.60773-0.84526 1.3237-0.0755c1.6201-0.0924 1.5624-0.0313 1.163-1.2317-0.49761-1.4953-0.74295-3.1321-0.74875-4.9953l-0.005-1.6814-0.63867-0.0783c-0.60271-0.0739-5.3664-0.26383-12.284-0.48983l-3.0797-0.10063 0.38665 0.51301c0.21267 0.28216 1.0776 1.436 1.922 2.564l1.5353 2.051-2.2365 3.5092c-3.4464 5.4078-5.9507 9.2968-10.098 15.682-36.072 55.533-58.734 96.89-70.794 129.19-0.95077 2.5468-0.99137 2.6972-0.70155 2.5991 0.10332-0.035 1.4051-0.34458 2.8928-0.68804zm14.043-3.7738c7.6635-2.2444 21.002-6.4986 21.291-6.7904 0.0929-0.094 1.1345-1.9629 2.3146-4.1531 18.568-34.462 52.659-88.636 75.024-119.22 1.8186-2.487 1.7834-2.3981 0.85751-2.1659-5.7132 1.4328-13.097-1.5991-17.299-7.1034-0.21863-0.28638-0.42711-0.48687-0.46328-0.44555-0.0362 0.0413-0.97867 1.36-2.0944 2.9304-25.485 35.868-56.396 85.459-74.656 119.77-1.8191 3.4181-8.7559 17.258-8.9978 17.952l-0.14817 0.42503 0.55022-0.14867c0.30261-0.0818 1.9328-0.5536 3.6227-1.0485zm-26.392-5.0828c0.37883-0.70254 1.2732-2.7312 1.9874-4.5083 12.718-31.643 30.994-64.281 66.014-117.89 3.3474-5.1244 7.3597-11.267 8.9161-13.651 3.3691-5.1596 3.3014-4.0037 0.45263-7.7325-12.595-16.486-27.194-36.863-41.956-58.563-3.2196-4.7327-6.6186-9.6646-12.843-18.634-14.027-20.215-21.13-31.633-27.061-43.505-3.9072-7.8202-5.1009-10.782-11.267-27.951-8.4012-23.394-12.137-32.698-17.166-42.751l-0.97625-1.9516-0.49314 0.57048c-4.2322 4.896-2.8074 11.198 2.6479 11.711 2.1559 0.20282 2.1384 0.0831 0.23017 1.5801-7.5116 5.8925-2.9056 15.148 7.5702 15.212 0.12348 0.00075-0.6542 0.58793-1.7282 1.3048-9.5817 6.396-7.1684 18.141 3.9474 19.21l1.0912 0.105-1.2021 1.2699c-7.7034 8.1381-4.8434 17.807 5.6542 19.116l1.976 0.2463-1.1798 1.3525c-4.4369 5.0863-4.7441 10.885-0.82526 15.58 3.4506 4.1342 8.1312 5.0877 14.105 2.8734 2.7145-1.0062 2.6396-1.106 0.93063 1.2407-9.1102 12.51-2.4903 24.294 12.287 21.871 1.0556-0.17306 1.977-0.31465 2.0476-0.31465s-0.30288 0.79458-0.82995 1.7657c-5.496 10.127-2.3136 16.155 8.1087 15.36 2.6892-0.205 2.5609-0.35599 1.1387 1.3403-4.0966 4.8861-2.7758 14.755 2.6927 20.119 3.2793 3.2169 7.3042 4.7337 13.137 4.9511 1.3018 0.0485 2.3668 0.11066 2.3668 0.1381 0 0.0274-0.4332 0.64287-0.96268 1.3676-5.4759 7.4955-5.7966 15.196-0.84063 20.186 3.653 3.6778 7.6817 4.1296 15.243 1.7096 1.6488-0.52768 3.0173-0.93992 3.0411-0.91607 0.0238 0.0238-1.0703 1.0077-2.4314 2.1863-9.275 8.0312-9.1672 15.46 0.34011 23.445 1.4232 1.1953 2.5615 2.1994 2.5295 2.2313-0.0319 0.0319-1.419-0.22032-3.0823-0.56057-17.214-3.5212-27.102 11.675-14.934 22.952l1.5814 1.4657-1.9254 0.10144c-12.95 0.68223-19.16 13.216-10.881 21.962 1.3775 1.4552 1.4232 1.3387-0.6011 1.5327-16.169 1.5496-22.726 13.715-14.348 26.616l0.79391 1.2225-0.5489 0.0908c-0.30189 0.0499-0.78558 0.0927-1.0749 0.095-9.1585 0.0742-14.499 14.547-7.3256 19.852 0.68169 0.5041 1.2562 0.96017 1.2767 1.0135 0.0205 0.0533-0.62193 0.32707-1.4276 0.60834-6.846 2.39-10.582 7.2071-10.618 13.69-0.0213 3.8375 0.76506 5.9215 3.4268 9.0814 0.32162 0.3818 0.55831 0.71325 0.52597 0.73653-0.0323 0.0233-0.56599 0.23369-1.1859 0.46755-4.6329 1.7479-5.6862 3.0728-4.9294 6.2006l0.1529 0.63196 2.2756 1.1348c1.2516 0.62412 2.918 1.5947 3.7032 2.1569 1.6348 1.1705 1.3932 1.2417 2.453-0.72355zm-92.177-2.442c8.626-16.237 16.261-29.839 24.074-42.889 1.1458-1.9138 2.0832-3.5478 2.0832-3.631 0-0.35659-5.5736-4.5966-5.756-4.3788-0.3343 0.39904-6.1372 10.224-10.026 16.975-3.9058 6.7807-12.32 21.944-12.32 22.203 0 0.0554 0.2323 0.64449 0.51623 1.3091 1.7056 3.9924 1.0903 9.0659-1.568 12.93-0.26397 0.38367-0.45144 0.72609-0.41659 0.76094 0.0616 0.0616 1.1656 0.48482 1.32 0.50604 0.0424 0.006 0.98412-1.6969 2.0928-3.7839zm153.52-3.7934c10.175-3.4894 27.68-9.7436 27.913-9.9727 0.0615-0.0604-0.19213-0.36387-0.56353-0.67433-0.92136-0.77014-0.89649-0.79438 0.94018-0.91597 4.7121-0.31193 8.3902-2.0145 11.465-5.3072 1.5329-1.6414 1.5194-1.505 0.25237-2.5581-3.677-3.0561-6.3484-6.4026-6.9477-8.7033-0.91373-3.508 0.97093-9.391 3.8328-11.964l0.74954-0.67391-0.38016-0.83039c-1.6114-3.5198-0.81161-7.8585 1.9768-10.724l0.9181-0.94334-0.20429-0.78755c-0.72357-2.7895 0.93693-7.0157 4.04-10.282l1.0268-1.081-0.17627-0.70006c-0.81431-3.2339 2.0951-10.13 4.8899-11.59l0.8344-0.436v-6.0786c0-3.6599-0.0541-6.0218-0.13651-5.9359-0.8683 0.90569-16.842 25.628-24.658 38.162-14.602 23.418-32.679 54.433-31.446 53.954 0.14464-0.0562 2.6974-0.93716 5.6729-1.9576zm-72.082-1.0319c0.39233-0.88689 1.6422-2.1403 2.7824-2.7902l0.87913-0.50108-0.4283-0.41228c-5.32-5.13-25.13-22.69-36.72-32.55-11.99-10.21-33.03-27.27-33.63-27.27-0.1178 0-3.3539 3.356-4.6572 4.8299l-0.34646 0.39179 1.3232 1.0276c19.747 15.334 41.777 33.991 63.068 53.41 3.217 2.9341 6.1602 5.6143 6.5403 5.956l0.69123 0.62122 0.0953-1.011c0.0524-0.55605 0.23505-1.327 0.40588-1.7132zm141.91-6.5445c2.9007-3.2139 3.3669-6.736 1.4391-10.872l-0.61344-1.3161-1.0187-0.30339c-6.0579-1.8041-20.956-10.785-29.318-17.674-1.3992-1.1526-1.2662-1.1455-2.2052-0.11811-2.5142 2.7509-3.6131 7.6488-2.2969 10.238 3.3474 6.5852 25.303 20.847 32.21 20.923l1.0018 0.011 0.80155-0.88809zm-28.652-1.1489c1.2539-0.33688 3.2343-1.2869 4.3345-2.0793 0.9263-0.66717 2.77-2.4396 2.6447-2.5426-0.0366-0.0301-0.40466-0.28008-0.81792-0.55554-0.41326-0.27545-1.5502-1.0712-2.5265-1.7682-0.97629-0.69707-1.7944-1.2434-1.8179-1.2141-2.7338 3.4014-5.5761 5.4535-9.3231 6.7311l-1.1945 0.40729 1.1448 0.4766c2.2183 0.92349 5.3152 1.1468 7.5558 0.54483zm-111.07-1.0448c-1.0691-4.3308 0.15084-9.738 3.0593-13.56 1.157-1.5204 1.2977 1.9496-1.0089-24.893-3.6572-42.561-4.6599-55.585-5.3347-69.294-2.2182-45.064 2.8567-58.923 25.034-68.367l1.2929-0.55056-0.20057-0.86814c-1.8307-7.9246-3.0984-12.873-3.3283-12.993-2.9581-1.5382-4.4256-6.8277-3.1579-11.382 0.33435-1.2011 0.34523-1.3531 0.15746-2.1985l-0.20172-0.90816-0.85771-0.0778c-0.82978-0.0752-0.8754-0.0599-1.401 0.47032-0.29883 0.30145-8.986 9.6097-19.305 20.685s-20.582 22.086-22.806 24.467l-4.0449 4.3303 0.35747 0.2501c25.604 17.914 20.818 57.772-8.3841 69.83l-1.8289 0.75515-12.877 13.815-12.877 13.815 0.42883 0.31075c0.23584 0.17093 2.1875 1.691 4.337 3.3779 17.833 13.996 39.73 32.619 59.054 50.226 2.2346 2.036 4.0747 3.6922 4.0891 3.6805s-0.0737-0.42646-0.19599-0.92168zm-85.251-3.8684c6.8708-12.552 13.667-24.369 20.222-35.158 0.0898-0.14782-10.661-8.6853-10.937-8.6853-0.10178 0-22.258 23.7-22.336 23.892-0.0231 0.0568 0.32594 0.34755 0.77567 0.64614 6.1789 4.1026 8.0849 12.477 4.2298 18.584-0.45579 0.72201-0.42638 0.78113 0.52165 1.0486 1.6522 0.46611 4.1391 1.8926 5.098 2.9243 0.20038 0.21558 0.37944 0.39196 0.39794 0.39196s0.93126-1.6399 2.0284-3.6442zm228.64-8.5353c1.48-1.3904 2.2296-5.3917 1.5168-8.0969-0.97121-3.6861-2.6285-4.9766-14.148-11.017-3.245-1.7016-4.1533-2.1832-7.5138-3.9839-1.0745-0.57578-2.6974-1.3686-3.6066-1.7618-4.2314-1.83-6.465-2.9885-7.5948-3.9392l-0.48778-0.41043-0.80731 0.86731c-3.8308 4.1156-2.5987 8.5008 3.709 13.201 12.341 9.1954 27.061 16.899 28.932 15.141zm-136.03-5.09c0.50485-0.3186 1.2087-0.72745 1.5641-0.90856l0.64623-0.32929-0.393-0.46704c-3.4617-4.114-2.5534-12.155 1.9761-17.494l0.7851-0.92549-0.36103-3.1352c-9.6519-83.813-8.6775-110.46 4.3984-120.3 1.4987-1.1273 3.6097-2.3728 6.8552-4.0448 1.5133-0.77957 2.6458-1.4511 2.6106-1.548-0.0342-0.0942-0.45675-1.8449-0.93904-3.8905-0.4823-2.0456-0.92663-3.7193-0.98743-3.7193s-1.21 0.5082-2.5538 1.1293c-20.493 9.4723-24.464 22.632-21.539 71.379 0.75662 12.609 1.6436 23.753 5.0285 63.177 0.98927 11.522 1.7987 21.108 1.7987 21.302 0 0.45934 0.0332 0.45253 1.1108-0.22753zm-96.08-20.192c6.568-7.0438 17.586-18.861 24.485-26.261 6.8985-7.3995 13.708-14.703 15.132-16.23 1.424-1.5268 2.5679-2.7972 2.542-2.823-0.0259-0.0259-0.78283 0.0849-1.6822 0.24616-9.1964 1.649-18.849-0.10726-27.294-4.9664l-0.86371-0.49693-0.58179 0.59927c-0.32 0.3296-6.2181 6.6516-13.107 14.049-6.8888 7.3973-15.232 16.349-18.541 19.893-6.9807 7.4771-6.2904 6.5767-5.3045 6.919 7.9317 2.7541 11.271 11.391 7.6459 19.773-0.33962 0.78519-0.6174 1.4614-0.61728 1.5028 0.0001 0.0413 0.92978 0.0857 2.0659 0.0986 1.3416 0.0153 2.3291 0.10276 2.8171 0.24955 0.41326 0.12431 0.88891 0.23207 1.057 0.23946 0.21933 0.01 3.6774-3.6027 12.247-12.794zm234.16 9.789c3.0822-3.2742 3.7618-7.7879 1.7018-11.303-1.2808-2.1855-9.7932-6.8757-18.96-10.447-2.7325-1.0645-3.5467-1.331-7.4231-2.4302-1.1984-0.33984-2.6804-0.86479-3.2932-1.1666l-1.1142-0.5487-0.72857 0.81904c-1.8133 2.0385-3.1424 4.446-3.4519 6.2525-0.47621 2.78 0.60252 3.7677 7.4417 6.814 1.7253 0.76848 3.7306 1.7198 4.4563 2.1141 0.72566 0.3943 3.3377 1.7801 5.8045 3.0796 6.7261 3.5432 9.1999 4.9056 10.984 6.0488 3.1023 1.9881 3.3881 2.0359 4.5826 0.76696zm-130.25-12.03c0.63906-0.33215 1.7355-0.76858 2.4456-0.97347 0.13551-0.0391 0.0423-0.35247-0.31924-1.0729-3.17-6.3177-2.8991-13.648 0.69989-18.933l0.80341-1.1799-0.34864-2.8502c-7.498-61.295-5.5562-83.544 7.877-90.257 0.84718-0.42334 1.5403-0.85375 1.5403-0.95648 0-0.10271-0.40574-1.8887-0.90165-3.9687-0.49591-2.0801-0.90165-3.8153-0.90165-3.8559 0-0.30638-6.6282 3.4055-8.3571 4.6801-11.794 8.6945-13.046 30.849-5.6866 100.6 1.729 16.387 2.0759 19.304 2.2847 19.209 0.062-0.028 0.45075-0.22666 0.86401-0.44144zm133.74-4.4004c2.4316-4.2462 2.4714-6.043 0.191-8.6074-4.4623-5.0181-14.204-10.334-23.667-12.913-4.3985-1.199-6.2036 0.0872-7.9847 5.6895-1.2187 3.8332-0.61758 4.5248 5.3717 6.1797 7.4754 2.0656 17.896 6.8827 23.841 11.021 0.49591 0.34518 0.94519 0.63103 0.9984 0.63521 0.0532 0.004 0.61535-0.89802 1.2492-2.0049zm-259.73-10.57c35.754-38.338 32.438-34.73 32.095-34.922-1.7224-0.96389-6.4263-5.6117-8.5309-8.4292-15.802-21.154-7.1843-51.675 17.322-61.349 0.80285-0.31695 1.4261-0.63065 1.385-0.69712-0.0558-0.0903 27.611-29.937 31.928-34.443l0.69271-0.72314-0.45083-0.32878c-1.1097-0.80931-9.9905-7.8338-13.6-10.757-15.886-12.867-33.966-28.428-49.945-42.988-2.385-2.1732-4.2966-3.8245-4.2478-3.6697 1.4108 4.4822-0.0847 10.572-3.6197 14.739-0.79149 0.93298-0.79364 0.93829-0.34486 0.84853 0.40427-0.0808 0.45161-0.0515 0.45161 0.2802 0 0.20379 0.80949 9.7979 1.7989 21.32 3.6608 42.634 4.6224 54.862 5.3348 67.836 2.672 48.664-2.0883 62.365-25.128 72.32-0.71001 0.30679-1.0635 0.5387-1.0171 0.6672 0.0391 0.10832 0.74145 3.0211 1.5607 6.4728l1.4895 6.2759 1.036 1.0125c2.6188 2.5594 3.3307 5.9381 2.1994 10.439-0.2402 0.95565-0.23961 1.0732 0.0106 2.1346l0.2648 1.1232 0.92803 0.0531c0.51041 0.0292 1.0692 0.0661 1.2418 0.082 0.23648 0.0218 1.9965-1.7754 7.1459-7.297zm-15.998-9.242c-15.126-63.522-18.512-77.63-18.595-77.472-0.0556 0.10586-0.14598 0.48713-0.20076 0.84728-0.27102 1.7818-1.5593 4.1931-3.0981 5.7988l-0.87197 0.90987 5.2492 22.917c2.8871 12.604 5.2832 23.027 5.3248 23.161 0.0415 0.13397 0.53022 0.54684 1.0859 0.91749 7.0173 4.6804 10.525 15.315 7.4551 22.604-0.048 0.11404 0.27193 0.20645 0.95094 0.27464 0.56282 0.0565 1.2592 0.15823 1.5475 0.226 0.99097 0.23297 1.2423 0.19282 1.1525-0.18412zm148.81-0.77092c1.0909-0.80311 3.4276-2.0094 5.0208-2.5919l1.1804-0.4316-0.0826-0.67624c-0.0454-0.37193-0.31921-2.4345-0.60843-4.5834-1.0847-8.0594-2.1579-18.406-2.7124-26.148-1.812-25.301 0.0261-41.68 5.0854-45.314l0.65765-0.47229-0.18314-0.77546c-1.3927-5.897-1.8357-7.613-1.9656-7.613-0.25968 0-2.4636 1.306-3.3237 1.9696-9.6804 7.4684-10.952 30.2-4.6327 82.842 0.28647 2.3867 0.52087 4.3647 0.52087 4.3956 0 0.13402 0.20197 0.0175 1.0436-0.60204zm103.4-8.6643v-5.2651l-1.4652 0.043-1.4652 0.043-0.0396 4.9856-0.0396 4.9856 0.8661 0.0966c0.70647 0.0788 1.9426 0.29026 2.1059 0.36022 0.0207 0.009 0.0376-2.3532 0.0376-5.249zm-93.301 4.7235c0.20325-0.0569 0.12302-0.27306-0.46379-1.2494-3.457-5.752-1.9787-13.206 3.6161-18.233l1.115-1.0019-0.48142-3.4046c-2.0615-14.578-2.5951-27.185-1.4133-33.392l0.26554-1.3946-1.7786-7.4576c-2.0344-8.5302-1.7651-7.7591-2.4494-7.0144-5.0936 5.5432-5.3329 32.937-0.59982 68.655 0.69385 5.2362 0.5634 4.7757 1.3195 4.6584 0.34341-0.0533 0.73495-0.12788 0.87012-0.16574zm-156.74-10.14c23.54-10.783 25.842-23.79 18.907-106.84-4.447-53.257-4.1588-50.576-5.348-49.765-0.48305 0.32966-1.2333 0.77766-1.6672 0.99554-0.94048 0.47226-0.91944 0.331-0.20186 1.3554 3.2195 4.5959 2.0608 12.32-2.6221 17.479-0.74218 0.81766-0.80688 0.93379-0.47366 0.85015 0.49926-0.1253 0.25901-1.9124 2.4352 18.114 5.349 49.224 6.1901 77.789 2.6995 91.671-2.2502 8.9493-5.726 13-15.475 18.035-1.4877 0.76834-2.7224 1.4089-2.7437 1.4235s0.36751 1.7307 0.86408 3.8136c0.49658 2.0829 0.90287 3.8254 0.90287 3.8722 0 0.17032 0.78716-0.12098 2.7221-1.0073zm74.67-5.9268c45.818-6.5318 41.085-74.983-5.1845-74.983-47.809 0-50.425 70.815-2.7801 75.263 1.3926 0.13002 6.2986-0.0424 7.9646-0.27992zm-7.4386-14.291c-17.836-2.5559-26.724-21.335-16.989-35.899 12.168-18.204 40.323-10.872 42.32 11.021 1.2729 13.949-11.826 26.814-25.332 24.879zm4.5083-4.8868c15.044-1.8436 21.411-20.435 10.663-31.134-9.2283-9.1869-24.738-6.1211-29.832 5.8966-5.4224 12.794 5.3183 26.935 19.169 25.238zm-74.789 14.976c14.586-7.4222 17.924-18.096 16.284-52.078-0.86601-17.952-2.7079-38.831-6.0366-68.43-0.51456-4.5755-0.29473-4.1248-1.6635-3.4106-0.61533 0.32105-1.4765 0.69976-1.9138 0.84157-0.43727 0.14183-0.77539 0.30174-0.75138 0.35536 3.5808 7.9962 3.4364 15.012-0.41275 20.053-0.27857 0.36484-0.48106 0.68877-0.44996 0.71986 0.0311 0.0311 0.29671 2.0511 0.59026 4.4888 7.4671 62.009 5.3869 83.884-8.5545 89.958-1.2111 0.52758-1.2874-0.29462 0.7547 8.1335 0.10668 0.44028-0.0337 0.48146 2.1532-0.63138zm-14.447-0.42055c-3.6898-15.632-10.427-42.631-10.618-42.55-1.3986 0.58968-3.3666 1.1783-4.7003 1.4059-2.0158 0.34393-1.9855 0.30869-0.82391 0.95827 6.6859 3.739 8.1045 9.2169 3.851 14.87l-0.76721 1.0197 0.7681 3.2632c0.42245 1.7948 0.76774 3.3746 0.76732 3.5107-0.00045 0.14674 0.60053 0.64777 1.4765 1.2309 5.5506 3.6952 7.3165 9.1607 4.66 14.423-0.24559 0.48654-0.4252 0.90053-0.39913 0.91999 0.0261 0.0195 0.76278 0.14918 1.6371 0.28826 0.87434 0.13906 2.1254 0.41374 2.7801 0.61039 1.506 0.45233 1.4632 0.45076 1.3686 0.0499zm184.28-2.5985c0.53724-0.14703 1.0008-0.2861 1.0301-0.30905 0.0293-0.0229-0.32593-0.61169-0.78946-1.3083-2.1953-3.2994-3.0527-6.6894-2.6565-10.504l0.17634-1.6979-1.8107-7.4386-1.8108-7.4386 0.0638 5.2596c0.0794 6.5472 0.53561 12.084 1.743 21.152 0.24477 1.8384 0.44562 3.4194 0.44636 3.5134 0.002 0.0978 0.56326-0.0712 1.3162-0.39547 0.7232-0.31147 1.7545-0.6866 2.2917-0.83363zm-172.76-7.2003c11.5-6.5538 13.147-27.348 6.6027-83.372-0.39344-3.368-0.76955-6.1237-0.8358-6.1237-0.0663 0-0.4553 0.26468-0.86455 0.58816-1.0916 0.86285-3.1736 2.0055-4.8493 2.6614-1.3861 0.5425-1.4652 0.59679-1.3917 0.95455 0.5923 2.8809 2.4741 19.19 3.1563 27.354 2.2948 27.464 0.83785 44.252-4.2778 49.295l-1.148 1.1315 0.97814 4.0905c1.1195 4.6817 0.9057 4.4036 2.6299 3.421zm-26.146-10.338c-0.53213-2.2868-0.36305-2.2131-2.0369-0.8878-1.7491 1.385-1.7158 1.2486-0.3875 1.588 0.59922 0.15311 1.3938 0.40108 1.7657 0.55104 1.0597 0.42724 1.0524 0.44096 0.65866-1.2513zm23.707-2.2294c4.2192-8.5932 3.8234-36.009-1.0185-70.542-0.26803-1.9117-1.1042-2.4538-2.2907-1.4852-0.0314 0.0257 0.21775 0.57504 0.55374 1.2208 2.6976 5.1852 1.351 12.106-3.5198 18.089-0.79603 0.97781-1.0308 1.6363-0.58341 1.6363 0.12398 0 0.22542 0.0613 0.22542 0.13631 0 0.075 0.16529 1.2753 0.36732 2.6674 2.351 16.2 2.8985 29.65 1.4535 35.709l-0.27879 1.169 0.95685 4.0155c0.52627 2.2085 1.2712 5.3316 1.6554 6.9401l0.6986 2.9246 0.61662-0.68332c0.33914-0.37581 0.8628-1.1847 1.1637-1.7975zm175.01 1.4702c0.46671-1.0243 2.9024-3.594 4.2377-4.4709l0.35535-0.23335-5.6898-24.841-5.6898-24.841-1.2824-0.84437c-6.665-4.3885-10.134-13.842-7.9046-21.54 0.42932-1.4823 0.52106-1.3345-0.92226-1.4862-0.6443-0.0677-1.3912-0.16942-1.6599-0.226-0.26862-0.0566-0.49171-0.0437-0.49576 0.0286-0.0158 0.28238 18.722 78.8 18.805 78.8 0.0487 0 0.1595-0.1553 0.24618-0.34553zm-273.3-3.34c11.791-2.8455 15.758-17.28 7.0249-25.562-9.0293-8.563-23.84-3.0252-25.21 9.4263-1.0956 9.9565 8.5021 18.473 18.185 16.136zm366.37-0.11858c11.161-2.8765 15.127-16.767 7.1284-24.965-7.3609-7.5443-19.764-5.5022-24.341 4.0075-5.4452 11.315 5.049 24.092 17.212 20.958zm-82.503-3.7228c0.70253-0.1575 2.0983-0.33056 3.1017-0.38455l1.8244-0.0982-0.63918-0.78474c-2.7418-3.3662-3.9917-7.131-3.5464-10.682l0.16762-1.3368-0.78511-3.333-0.78512-3.333-0.98387-0.24663c-2.402-0.60212-4.8919-2.0742-6.551-3.8733-0.55077-0.59721-0.96194-0.95058-0.9137-0.78528 0.13848 0.47456 5.6179 22.958 5.6767 23.293 0.0385 0.21939-0.041 0.31385-0.29453 0.34978-0.53672 0.0761-0.56578 0.72876-0.0995 2.2348 0.0391 0.12623 0.42903 0.0435 1.3032-0.27648 0.68608-0.25114 1.8222-0.58548 2.5248-0.74299zm-258.05-11.37c0.09341-0.31178 1.749-2.966 3.6791-5.8983 38.78-58.92 68.67-112.22 79.29-141.38l0.45697-1.2556-0.55882 0.10108c-0.30735 0.0556-1.5432 0.33573-2.7464 0.62254l-2.1876 0.52145-0.80855 1.8353c-13.066 29.658-52.895 95.462-86.059 142.18-1.3459 1.8961-2.416 3.4784-2.3781 3.5163 0.06436 0.0644 5.7183 0.24301 9.4802 0.29956l1.6668 0.0251 0.16984-0.56685zm359.03-2.1757c-0.003-0.37031-1.9135-3.9803-3.0752-5.8106-7.6277-12.019-22.089-27.557-57.635-61.926-5.0004-4.8349-11.323-10.949-14.051-13.587-27.918-27.002-37.374-37.561-44.892-50.13-7.8774-13.17-13.217-24.244-27.209-56.428-8.27-19.038-10.24-23.023-15.21-30.881-19.22-30.387-47.36-54.798-78.29-67.917-5.03-2.134-13.91-5.3488-14.46-5.2365-0.1815 0.036891-3.4328 6.8722-3.309 6.9566 0.0212 0.014431 1.1204 0.58821 2.4429 1.2751 28.309 14.704 54.445 39.236 75.807 71.158 12.035 17.984 16.597 27.841 29.385 63.491 6.0667 16.912 7.0628 19.384 10.926 27.114 5.4447 10.896 12.727 22.585 25.799 41.411 2.726 3.926 6.6988 9.674 8.8284 12.773 6.9847 10.165 9.2192 13.37 13.752 19.721 7.3463 10.293 12.841 17.799 20.939 28.604 4.2168 5.6265 8.8697 11.899 10.34 13.938l2.6727 3.708h2.0743c1.6913 0 6.898 0.16909 14.949 0.4855l1.0298 0.0405 0.43452-1.3269c5.4392-16.609 29.373-15.8 33.512 1.1325 0.16756 0.68545 0.33198 1.3308 0.36538 1.4341 0.0453 0.13994 0.67515 0.18785 2.4699 0.18785 1.8279 0 2.4088-0.0453 2.4076-0.18785zm-293.41-5.1469c-0.16917-7.0105-1.8524-24.588-2.4077-25.144-0.0271-0.0271-0.47836 0.29801-1.0028 0.72254-0.52438 0.42451-1.5113 1.1102-2.1932 1.5237-1.2537 0.76025-1.4032 0.93908-1.038 1.241 0.11146 0.0921 1.6086 6.098 3.3436 13.413 3.5746 15.071 3.4555 14.774 3.2979 8.243zm196.24-1.0987c-0.017-0.0258-0.44954 0-0.96118 0.0584l-0.93027 0.10524 0.0971 0.54268c0.0534 0.29847 0.16458 0.8013 0.24704 1.1174l0.1499 0.57471 0.71415-1.1758c0.39278-0.64671 0.70024-1.1969 0.68323-1.2226zm-271.27-3.48c24.573-35.146 52.499-80.039 69.924-112.41 4.4154-8.2019 10.737-20.912 10.45-21.01-0.31965-0.10893-13.451 3.8722-21.421 6.4946l-3.9072 1.2855-1.5028 2.8176c-16.95 31.781-50.816 85.997-72.636 116.28l-1.0827 1.5028 1.5356 0.10401c6.1076 0.41366 11.445 3.796 14.259 9.0363 0.34728 0.64662 0.6832 1.12 0.74649 1.0519s1.699-2.3892 3.6349-5.158zm66.384-14.557c-0.27706-1.1654-0.54081-1.9681-0.64442-1.9612-0.0965 0.006-0.5002 0.12613-0.89715 0.26604l-0.72175 0.2544 0.78214 0.97372c0.43018 0.53557 1.0188 1.3298 1.3081 1.765 0.70578 1.0618 0.71595 0.98554 0.17312-1.2979zm190.2-2.1232c0.29313-0.86784 0.89874-2.2824 1.3458-3.1434 0.44706-0.86107 0.796-1.577 0.77544-1.5909-0.0206-0.014-0.74742-0.1388-1.6153-0.27744-0.86784-0.13863-2.0406-0.39142-2.6061-0.56173-1.2052-0.36299-1.2373-0.34756-1.0343 0.496 0.0853 0.35444 0.61563 2.5379 1.1785 4.8521l1.0234 4.2077 0.19974-1.2022c0.10987-0.66121 0.43959-1.9123 0.73273-2.7801zm-52.929-23.443c12.526-13.431 22.775-24.459 22.776-24.508 0.002-0.0485-0.42062-0.20397-0.93719-0.34562-8.3423-2.2875-12.038-11.212-8.3041-20.052l0.65513-1.5511-0.93751 0.1004c-0.52959 0.0567-1.5546 0.0186-2.3556-0.0875-0.77994-0.10333-1.594-0.19439-1.809-0.20235-0.34257-0.0126-62.326 66.104-62.143 66.287 0.0218 0.0218 0.27183-0.0274 0.55563-0.1093 7.7731-2.2432 20.307-0.37573 28.242 4.2079 0.70253 0.40583 1.3238 0.72482 1.3806 0.70888 0.0568-0.016 10.352-11.018 22.877-24.449zm-209.01 3.832c19.482-29.601 36.688-57.677 49.914-81.449 2.3617-4.2447 2.9433-5.3348 2.8466-5.3348-0.28329 0-19.457 6.731-27.899 9.794-2.5209 0.91465-4.7634 1.7271-4.9834 1.8054l-0.40004 0.14235 0.5429 0.49753 0.5429 0.49754-1.4202 0.10798c-5.7085 0.43406-10.259 2.811-13.177 6.8824l-0.48635 0.67865 1.0123 0.85338c3.1649 2.6681 5.7877 5.654 6.766 7.7028l0.55788 1.1683-0.0023 2.2541c-0.004 3.828-1.4017 7.3194-3.858 9.637l-0.81689 0.77078 0.42588 1.0668c1.4722 3.6878 0.76919 7.5002-1.9129 10.373l-1.0681 1.1442 0.18585 0.6011c0.82454 2.6668-0.88489 7.1165-4.0454 10.53l-0.97706 1.0553 0.21883 0.8194c0.7761 2.9061-2.227 10.031-4.7856 11.354l-0.42055 0.21748v5.8118c0 3.4844 0.05461 5.7546 0.13638 5.669 0.07501-0.0785 1.4716-2.1715 3.1035-4.651zm-5.3437-1.4054v-4.7866l-1.2648-0.0972c-0.69566-0.0535-1.3719-0.13832-1.5028-0.18853-0.2141-0.0822-0.23792 0.40695-0.23792 4.8839v4.9752h1.5028 1.5028v-4.7866zm0.56094-7.4628c1.4537-0.4317 2.578-2.0039 3.7843-5.292 1.5844-4.3188 0.94269-5.1715-5.1246-6.81-7.1038-1.9184-17.112-6.4713-23.15-10.531l-1.7633-1.1856-0.38908 0.61634c-3.5663 5.6494-3.5927 7.4721-0.15778 10.888 6.3137 6.2796 22.333 13.64 26.8 12.314zm193.29-13.845 2.4623-2.651-0.37789-0.31696c-0.20783-0.17433-1.8938-1.5004-3.7465-2.9468-19.147-14.947-42.642-34.97-62.944-53.641-1.9367-1.7811-3.8386-3.5243-4.2263-3.8739l-0.70504-0.63557-0.18245 0.93612c-0.34496 1.77-1.5441 3.2904-3.4385 4.3595l-0.82216 0.46399 0.96566 0.91154c16.468 15.545 46.573 41.326 66.227 56.714 5.0431 3.9485 3.8631 3.8303 6.7889 0.68024zm-186.33-0.7c4.329-5.7776 3.3527-7.9394-5.2736-11.677-1.3638-0.59094-4.0349-1.9058-5.9359-2.9219s-4.2678-2.2722-5.2596-2.7914c-4.8296-2.5279-8.1418-4.3549-9.9182-5.4709-3.0596-1.9221-3.4349-2.0014-4.4747-0.94515-3.3458 3.3988-3.9593 9.0493-1.3231 12.186 2.2521 2.6796 16.845 9.661 24.562 11.751 2.0656 0.55944 3.431 1.0223 4.303 1.4586l1.2773 0.63917 0.58287-0.52882c0.32058-0.29084 0.97751-1.0555 1.4599-1.6993zm201.85-15.953 11.342-12.165-1.1194-0.65525c-6.2184-3.6401-8.473-11.473-5.1744-17.976l0.85584-1.6874-0.90441-0.26654c-1.2878-0.37954-3.0141-1.2518-4.0994-2.0713l-0.93245-0.7041-1.9865 3.633c-6.1175 11.188-12.364 22.119-17.807 31.164-2.9502 4.9019-2.9906 3.961 0.28215 6.5585 3.4081 2.7048 8.1441 6.3866 8.1771 6.3568 0.0135-0.0123 5.1286-5.4963 11.367-12.187zm-198.12 5.1731c2.9737-3.1015 2.6264-7.8672-0.79335-10.888-2.7218-2.4044-10.32-7.6168-15.946-10.94-9.9957-5.9031-14.65-7.764-15.964-6.3824-2.8867 3.0353-1.9957 10.251 1.5568 12.608 3.332 2.2108 5.2491 3.2868 14.628 8.2096 0.86784 0.45551 2.5584 1.3543 3.7569 1.9973 1.1984 0.64303 3.3624 1.6864 4.8088 2.3185 3.2399 1.4161 5.2518 2.4574 6.2364 3.2281 0.9427 0.7378 0.85802 0.74526 1.7176-0.15132zm175.45-5.8239c6.9765-11.699 12.313-21.023 18.315-31.998l2.6468-4.8405-0.51453-0.86996c-2.3435-3.9622-1.9303-9.6045 1.0242-13.988l0.53589-0.79499-0.39043-0.14844c-0.21473-0.0816-0.40549-0.12965-0.42392-0.10667-0.0184 0.023-1.2354 2.3072-2.7044 5.076-7.9372 14.96-15.75 28.868-23.312 41.496-1.2687 2.1188-2.3444 3.9506-2.3905 4.0709-0.10474 0.27294 5.1934 4.608 5.6402 4.615 0.0413 0 0.74946-1.1296 1.5736-2.5116zm4.5177-28.586c7.4154-13.266 13.645-24.399 13.844-24.741l0.36127-0.6222-0.79358-0.62055c-5.3084-4.151-5.7841-12.926-0.98348-18.142l0.57183-0.6213-1.2553-0.62185c-6.0159-2.9801-8.204-9.9582-4.7328-15.093 0.32654-0.48305 0.57191-0.8971 0.54528-0.92011-0.0266-0.023-0.27846-0.15891-0.55963-0.30201-4.3576-2.2178-4.0289-11.492 0.55298-15.604 0.9722-0.87248-12.166-20.507-21.739-32.487-12.605-15.775-27.266-29.678-41.343-39.206-1.4922-1.01-1.1962-0.76079 2.5494 2.146 38.236 29.673 54.292 62.089 45.607 92.076-6.3965 22.086-26.17 34.679-55.611 35.416l-1.3683 0.0343 25.331 21.827c13.932 12.005 25.378 21.776 25.436 21.715 0.058-0.0615 6.1726-10.965 13.588-24.231zm-177.18 21.75c2.8704-3.3434 3.6522-8.3671 1.7356-11.153-5.215-7.5797-28.265-21.671-32.678-19.977-0.86258 0.33101-2.8783 3.636-3.2252 5.2881-0.62776 2.9895 0.71212 7.5373 2.3484 7.971 5.7129 1.5141 23.411 12.201 30.094 18.172 0.77886 0.69591 0.88514 0.67732 1.7256-0.30159zm-2.2378-24.312c1.998-1.9 4.4218-3.3481 7.0492-4.2117l1.0519-0.34573-0.7698-0.3508c-4.7693-2.1734-10.643-0.79422-14.539 3.4138-1.0521 1.1364-1.0885 0.97792 0.4667 2.0339 0.72184 0.49014 1.8791 1.3086 2.5717 1.8189l1.2592 0.92771 0.86083-1.078c0.47346-0.5929 1.3957-1.5866 2.0493-2.2082zm-11.81-18.255v-15.554h-1.5028-1.5028v14.695 14.695l1.4652 0.85068c0.80585 0.46787 1.4821 0.85429 1.5028 0.8587 0.02066 0.004 0.03757-6.991 0.03757-15.545zm133.07-1.4315c6.3428-0.53124 11.618-1.3427 15.253-2.3463 40.407-11.156 47.555-56.043 15.113-94.909l-1.5938-1.9095-0.65767 0.28191c-13.637 5.8457-34.619-0.51265-44.208-13.397-1.5811-2.1245-1.2578-0.76551 0.99446 4.1798 2.8221 6.1966 3.0314 9.1708 1.2567 17.864-1.7972 8.8033-3.8163 13.084-10.95 23.218-8.0393 11.419-7.9601 10.717-1.5104 13.377 7.2254 2.9796 8.157 5.1282 4.6345 10.688l-0.91797 1.449 1.1495 0.10743c2.6265 0.24548 5.0996 1.3057 7.3859 3.1663 0.78519 0.639 2.6109 2.1072 4.0571 3.2627l2.6294 2.1009 1.3528-0.0995c0.74408-0.0547 1.9953-0.2256 2.7805-0.37976 0.78519-0.15417 1.4499-0.25937 1.4771-0.23377 0.12321 0.11582-3.4191 1.7585-4.4179 2.0488-1.0127 0.29425-1.1481 0.38044-1.4763 0.93972-1.2319 2.099-4.6084 4.1922-8.5489 5.2997-1.6828 0.473-1.4672 0.0678-1.9056 3.5812-2.1756 17.438 2.4783 23.02 18.103 21.711zm-3.93-72.872c-1.5682-0.95625-2.6952-4.5689-2.0251-6.4913 0.20988-0.60206 0.2343-0.58576-0.63421-0.42351-1.1142 0.20816-1.6787-0.19357-2.4805-1.7653l-0.31576-0.61894 0.33842-0.08494c3.9334-0.98722 9.2545-0.16363 12.604 1.9508l0.56511 0.35674 0.84775-0.31718c1.0904-0.40799 2.4585-1.7373 2.8542-2.7733 0.25457-0.66656 0.28645-0.69656 0.38081-0.35823 0.37816 1.3559-0.002 3.2988-0.93739 4.8024l-0.4211 0.67624 0.60439 0.04664c1.6444 0.12692 4.5798-2.6966 4.6573-4.4798 0.0123-0.28486 0.0693-0.21219 0.23549 0.30055 0.594 1.8327 0.10817 4.3806-1.0877 5.7043l-0.52523 0.58137 0.79472 0.29525c0.43711 0.16239 1.0314 0.34504 1.3207 0.4059 0.28928 0.06086 0.61799 0.16048 0.73046 0.2214 0.20568 0.11139-2.2466 0.53893-5.6144 0.97882-0.99182 0.12955-1.9724 0.27325-2.179 0.31934l-0.37569 0.0838 0.32811-0.35035c1.5875-1.6951-2.5857-5.6851-5.9461-5.6851-0.0632 0-0.0848 0.73215-0.048 1.627 0.15491 3.7598-1.6567 6.2258-3.6713 4.9974zm17.29-13.556c-5.18-5.778-16.54-8.502-20.56-4.927l-0.73884 0.6575 0.10961-0.44806c1.7633-7.2089 13.82-5.3696 20.212 3.0834 1.231 1.6278 1.7512 2.497 0.97794 1.6341zm-138.75 77.928c1.051-3.7833-0.37265-7.2079-2.7412-6.5942-0.52218 0.13531-1.3571 0.29099-1.8553 0.34596l-0.90586 0.0999-0.04498 0.94863-0.04498 0.94863 1.581 1.6499c0.86954 0.90743 2.0001 2.2268 2.5124 2.9319 1.0517 1.4475 1.0018 1.4586 1.4989-0.33075zm-13.39-1.4908 0.74989-0.55047v-1.8709c0-2.1328 0.02286-2.1145-1.1822-0.94797-1.3151 1.273-1.9908 2.7962-2.1954 4.9484l-0.10713 1.1271 0.99246-1.0778c0.54586-0.59279 1.3299-1.3255 1.7424-1.6283zm-0.17501-7.5502c-5.0729-5.4413-4.7416-18.222 0.77035-29.717 1.415-2.9508 1.4661-5.9809 0.15775-9.3535-0.38963-1.0044-1.243-2.5431-1.0003-1.8036 1.5366 4.6818 0.44029 8.3256-3.7801 12.564-3.9819 3.9985-5.8954 8.3662-6.5031 14.844-0.71249 7.5941 2.1081 12.03 8.7256 13.724 2.3896 0.61163 2.4338 0.60463 1.6298-0.2578zm8.6997 0.41298c3.3991-0.44154 6.8745-2.6618 8.173-5.2215 1.2415-2.4472 0.77725-4.7419-2.1969-10.858-2.6494-5.4481-3.2403-7.516-3.027-10.594 0.42008-6.0638 4.2448-10.688 10.465-12.652 0.14416-0.0455-0.02811-0.20118-0.47786-0.43179-7.7592-3.9786-17.014 3.3888-21.06 16.766-4.2681 14.11-0.72382 24.141 8.1237 22.992zm112.04-10.14c2.4508-0.46892 5.242-1.6449 6.8995-2.9069 0.9028-0.68739 0.99992-0.64451-1.8161-0.80176-2.001-0.11173-3.9225-0.36462-6.1827-0.81368-0.84602-0.16809-2.552 3.0394-2.3001 4.3245 0.0981 0.50033 1.4173 0.57711 3.3995 0.19785zm6.5783-5.9154c-0.2818-0.22341-1.5328-1.2395-2.7801-2.258-3.436-2.8058-6.3786-4.0091-8.7269-3.5685-0.72775 0.13652-0.69656 0.21097 0.72481 1.7303 0.68939 0.7369 1.4502 1.7175 1.6906 2.179 0.70652 1.3563 4.0267 2.2531 8.552 2.3102l1.0519 0.0132-0.51236-0.4062zm-131.05-16.29c2.4966-3.1318 2.2388-4.6893-1.0508-6.3492-0.78687-0.39704-2.4078-1.0121-2.4078-0.91361 0 0.0258 0.30025 0.68149 0.66722 1.4571 0.88412 1.8686 1.559 3.9212 1.7738 5.3951 0.20702 1.4204 0.21127 1.4221 1.0176 0.41066zm10.773-6.9809c0.32236-1.2204 0.61202-5.0074 0.38242-4.9998-0.06199 0.0021-0.44018 0.43837-0.84043 0.96958s-1.2672 1.5424-1.9265 2.2472l-1.1988 1.2813 0.31008 1.243c0.17054 0.68366 0.35211 1.5538 0.40348 1.9337l0.0934 0.69069 1.2977-1.34c1.0261-1.0596 1.3356-1.4835 1.4788-2.0256zm150.23-42.502c3.3797-0.3426 7.2066-1.1933 8.5492-1.9004 0.28813-0.15176 0.33534-0.09298-2.8645-3.5663l-1.0255-1.1132-1.6466 0.26392c-15.12 2.425-32.42-6.881-37.84-20.353l-0.27174-0.67624-0.35129 0.90165c-3.971 10.193 12.999 25.12 30.131 26.505 2.3938 0.19343 2.8692 0.18802 5.3213-0.06055zm2.0262-8.5953 0.50987-0.12194-2.3132-2.1896c-3.7632-3.5621-3.2886-3.2396-5.1792-3.5194-10.875-1.6094-21.001-8.3707-25.723-17.176l-0.73865-1.3772-0.30582 0.33726c-1.1827 1.3042-1.6669 2.2144-1.5218 2.8606 2.2381 9.9712 14.335 19.458 26.948 21.134 0.66121 0.08785 1.4051 0.18833 1.653 0.2233 0.71925 0.10143 6.11-0.0366 6.6712-0.17083zm-9.4513-9.2236c-3.9152-3.497-12.627-10.114-19.117-14.521-2.7526-1.869-2.8134-1.8755-1.8987-0.20312 3.717 6.7961 11.524 12.61 20.09 14.961 1.7065 0.46845 1.7145 0.46641 0.92661-0.23729zm19.4 549.94c-5.7101-1.5356-7.6166-8.6213-3.4618-12.866 4.4226-4.5178 12.025-2.0788 13.089 4.1993 0.91698 5.411-4.2932 10.101-9.6276 8.6663zm4.2204-2.6464c5.1137-2.3785 3.4292-10.083-2.2085-10.101-4.5516-0.0146-6.9947 5.3984-3.984 8.8273 1.4787 1.6842 4.1352 2.2305 6.1926 1.2736zm-50.522-48.06c-6.2129-0.83779-8.8548-8.4598-4.5031-12.992 4.8003-4.999 13.219-1.6056 13.219 5.3284 0 4.687-4.094 8.2866-8.716 7.6633zm2.1707-2.4824c4.0012-0.64862 5.5313-5.9206 2.5761-8.8758-4.2153-4.2152-11.016 0.62619-8.4826 6.0386 0.83315 1.7798 3.287 3.2377 5.0131 2.9784 0.1653-0.0248 0.5673-0.0884 0.89336-0.14125zm-35.986-73.855c-9.4652-1.195-8.6395-15.341 0.8947-15.328 9.0566 0.0125 10.576 13.924 1.6633 15.233-1.1727 0.17223-1.7674 0.19417-2.558 0.0943zm2.0321-2.485c3.9899-0.64035 5.6029-5.9722 2.6884-8.8867-4.1556-4.1556-11.093 0.64833-8.607 5.9603 0.86763 1.8541 3.2795 3.329 5.017 3.068 0.16531-0.0248 0.57105-0.0886 0.90166-0.14162zm-43.857-47.28c-6.1377-1.174-8.2853-9.2433-3.5601-13.377 4.9871-4.3626 12.782-0.87169 12.782 5.7244 0 4.9652-4.3591 8.5824-9.2218 7.6523zm3.7407-2.7394c4.0479-1.8532 4.1348-7.6077 0.14461-9.5721-3.5563-1.7508-7.6161 0.77896-7.6161 4.7458 0 3.8511 3.9825 6.4237 7.4715 4.8263zm-44.5-40.82c-6.2364-0.94591-8.7831-8.446-4.4132-12.997 4.7768-4.9746 13.206-1.5725 13.217 5.3344 0.0074 4.7006-4.1983 8.361-8.804 7.6624zm3.3208-2.8441c3.4024-1.5831 4.1446-6.1003 1.4209-8.648-2.4097-2.254-6.3316-1.7999-8.0875 0.93644-2.8649 4.4646 1.8711 9.9429 6.6666 7.7116zm340.3-123.62c-5.9636-1.3472-8.1875-8.6466-3.9444-12.946 4.2516-4.3079 11.651-2.2814 13.03 3.5686 1.2944 5.4914-3.6586 10.603-9.0857 9.3774zm3.7735-2.7254c2.57-1.1479 3.8337-4.4616 2.6637-6.9845-2.4042-5.1842-10.095-3.5707-10.115 2.1219-0.0134 3.9224 3.8748 6.4599 7.4509 4.8626zm-45.836-41.165c-8.2551-2.8116-6.2537-14.962 2.4644-14.962 6.9105 0 10.303 8.2697 5.392 13.142-2.0591 2.0428-5.1206 2.7521-7.8564 1.8203zm4.7347-2.509c4.6805-2.4026 3.6678-9.1841-1.497-10.025-5.5689-0.90636-8.4208 6.7063-3.6441 9.7275 1.4417 0.9119 3.6904 1.0419 5.1411 0.29717zm74.901-30.128c-5.7557-5.7484-30.765-14.869-78.599-28.663-19.861-5.7275-30.957-11.273-39.541-19.762-2.3124-2.287-2.1483-1.8027-1.8704-5.5205 3.8354-51.313-11.882-95.571-39.434-111.05-0.41468-0.23291-0.75404-0.47718-0.75413-0.54283 0-0.30317 1.1238-2.0335 1.267-1.9502 18.22 10.601 31.438 30.815 37.304 57.047 0.46856 2.0954 0.42091 2.0477 1.5841 1.5865 3.8724-1.5352 12.536-4.166 26.231-7.9657l4.5478-1.2618-4.3223-0.09587c-24.459-0.54249-35.22-10.426-27.761-25.497 3.238-6.5425 8.9804-12.214 16.273-16.071l1.7004-0.89941-1.475-0.18334c-6.5063-0.80874-13.193-5.0623-9.917-6.308 0.51989-0.19766 0.70973-0.11871 2.0552 0.85476 3.6984 2.6758 8.7296 3.6864 15.06 3.0252 2.7569-0.28795 4.156 1.3491 1.8678 2.1855-0.34272 0.12527-1.5022 0.5466-2.5767 0.93629-17.381 6.3036-28.205 23.545-20.179 32.14 2.8821 3.0861 9.1986 5.7677 15.802 6.7086l1.334 0.19007 1.2453-0.65239c12.305-6.4464 22.32-30.06 18.33-43.219-0.46458-1.5319-0.49777-1.432 0.63646-1.9159 1.1818-0.50414 1.1168-0.54392 1.5906 0.9741 4.0349 12.928-4.2479 35.48-16.241 44.221l-1.2372 0.90165 0.78685 0.12618c0.99872 0.16014 11.023-0.0081 14.671-0.2463 3.4554-0.22556 3.773-0.1322 3.773 1.1092 0 0.53028-0.40768 0.96984-1.0797 1.1642-0.27398 0.07922-2.1138 0.62525-4.0884 1.2134s-6.1335 1.784-9.2419 2.6574c-11.587 3.2557-13.691 3.8578-16.772 4.7992-3.9087 1.1943-11.036 3.5915-11.606 3.9038-0.019 0.0104 0.13661 0.89376 0.34577 1.963 2.9055 14.853 3.9959 36.105 2.6247 51.159l-0.13003 1.4276 0.8512 0.87732c5.529 5.6986 15.418 11.629 25.797 15.47 4.1447 1.5339 4.8183 1.7415 20.362 6.2745 51.152 14.917 77.377 25.516 72.283 29.214l-0.67624 0.49086-0.82143-0.82041zm-119.98-16.76c-5.9934-1.3744-8.1506-8.7072-3.8283-13.013 4.4671-4.4503 12.125-1.9204 13.077 4.3204 0.80136 5.2502-4.1144 9.8703-9.2491 8.6928zm2.8983-2.4084c3.987-1.0613 5.3408-6.026 2.4311-8.915-2.1079-2.0928-5.5671-2.0267-7.5987 0.14531-3.5804 3.8277 0.12301 10.113 5.1676 8.7697zm-36.7-73.898c-3.4995-0.6683-6.2532-4.0012-6.2445-7.5581 0.0188-7.6978 9.927-10.635 14.214-4.2137 3.7065 5.5511-1.3597 13.034-7.9699 11.772zm3.6583-2.7614c2.3969-1.0757 3.6596-3.8415 2.8883-6.3264-1.8227-5.8718-10.314-4.6173-10.314 1.5237 0 3.8945 3.8706 6.3979 7.4255 4.8026zm-51.46-48.292c-6.7812-1.9773-7.7662-10.976-1.5639-14.287 5.8714-3.1346 12.758 2.3811 11.038 8.8411-1.0854 4.0779-5.4878 6.6084-9.4745 5.4459zm4.2647-2.6368c5.0684-2.5684 3.4033-10.06-2.2391-10.074-6.195-0.01574-7.289 8.4638-1.3493 10.459 0.77057 0.25879 2.7346 0.04854 3.5884-0.38415z"/>
</svg>
