<?xml version="1.0" encoding="UTF-8" standalone="no"?>
<svg xmlns:rdf="http://www.w3.org/1999/02/22-rdf-syntax-ns#" xmlns="http://www.w3.org/2000/svg" height="602.01" viewBox="0 0 426.97324 602.00671" width="426.97" version="1.1" xmlns:cc="http://creativecommons.org/ns#" xmlns:dc="http://purl.org/dc/elements/1.1/">
<path d="m129.73 601.94c0-0.0355 5.9181-6.7573 13.151-14.937l13.151-14.873-2.729-0.0886c-3.409-0.11074-4.0618-0.31483-5.4512-1.7042-3.1971-3.1971-1.2967-8.8304 3.1139-9.2304l0.88759-0.0805v-4.4768-4.4768l-0.86274-0.10779c-7.7178-0.96428-5.8855-10.003 2.0291-10.009 0.86355 0 1.3921-0.0606 1.3921-0.15781 0-0.0862-0.50547-3.0153-1.1233-6.5092-2.5173-14.236-4.1429-24.36-6.1795-38.485-0.61466-4.263-1.5956-10.528-2.1798-13.921-1.8734-10.883-2.0818-12.135-2.5486-15.307-0.65111-4.426-1.0526-8.4784-1.164-11.748l-0.0962-2.8243-0.4655 0.0768c-1.5572 0.25703-9.2141 0.65935-15.67 0.82336-30.317 0.77017-61.272-3.9988-87.493-13.479-0.77555-0.2804-1.4697-0.50983-1.5426-0.50983-0.0759 0-0.13255 11.418-0.13255 26.717v26.717l0.33863-0.0783c0.32029-0.074 1.4318-0.30671 9.3687-1.961 13.437-2.8007 16.819-3.5227 16.905-3.6089 0.03514-0.0352-0.08378-1.1334-0.26428-2.4407-1.9883-14.4-6.6796-22.061-15.885-25.941-0.99508-0.41937-1.8618-0.81379-1.9259-0.87649-0.11361-0.11098 3.7271-1.7083 5.2338-2.1767 26.208-8.1471 59.823 21.694 59.823 53.105 0 34.179-38.976 64.93-64.858 51.17l-0.38329-0.20376 0.60201-0.24935c9.0623-3.7534 13.245-8.7634 15.957-19.112 0.80973-3.0898 1.8774-9.6228 1.877-11.485l-0.000132-0.55509-4.1763-0.87331c-2.297-0.48031-6.9192-1.4484-10.272-2.1514-3.3524-0.70295-7.3821-1.5463-8.9548-1.8741-1.5727-0.32783-2.9781-0.62322-3.1229-0.65643-0.24998-0.0573-0.26338 1.1522-0.26338 23.78v23.84h2.4833 2.4833v4.515 4.5151l-4.6279 0.002-4.6279 0.002 0.67726 0.38621c9.2944 5.3002 5.6211 19.526-5.0418 19.526-10.594 0-14.412-14.372-5.1714-19.466l0.80683-0.44476-5.4557-0.003-5.4557-0.003v-4.5151-4.515h2.9963 2.9963l0.01955-69.297 0.01955-69.297-3.6554-1.798c-2.0105-0.98888-5.247-2.6614-7.1922-3.7167s-3.7125-1.9803-3.9272-2.0555l-0.392-0.12-0.1355-2.66c-0.0746-1.47-0.1376-21.7-0.1402-44.96l-0.0046-42.29-0.8663-2.08c-0.4765-1.14-1.0296-2.51-1.2292-3.04l-0.36279-0.96383 1.2877-0.48915c1.5806-0.60041 1.3492 2.5879 1.5492-21.344 0.094405-11.299 0.26863-28.806 0.38718-38.905 0.11854-10.099 0.21655-22.697 0.21779-27.995l0.00226-9.6342-0.89831-0.99531-0.89831-0.99531 0.88512-0.76985 0.88512-0.76986 0.050819-11.112 0.050819-11.112 0.4462-0.5902c3.7093-4.9063 15.372-14.58 24.612-20.415 1.4486-0.91472 2.6908-1.7142 2.7604-1.7766 0.06966-0.0624-0.4489-1.5939-1.1523-3.4032-0.70344-1.8094-1.7203-4.546-2.2596-6.0814l-0.98061-2.7916-7.2352-12.775c-8.1693-14.424-7.891-13.861-7.8861-15.956 0.0099-4.2706 3.1934-7.3174 7.4456-7.1255 1.112 0.0502 1.1465 0.0415 0.99255-0.24904-0.08771-0.16555-1.1412-2.028-2.3411-4.1388s-2.3421-4.1984-2.5383-4.6392c-2.1157-4.7535 1.746-10.232 7.0028-9.9351 0.92862 0.0525 1.0682 0.0284 0.98502-0.16974-3.4892-8.3074 8.1275-14.199 12.824-6.5033l0.31756 0.52035 0.32047-1.0551c1.584-5.2148 8.1187-6.8576 11.948-3.0036 0.66312 0.66744 2.0037 2.9377 8.2185 13.918l7.4261 13.121 0.71184-1.0904c3.537-5.4181 10.646-5.454 14.711-0.0743 3.519 4.6573 4.5087 5.9998 5.8708 7.9636 3.2762 4.7236 6.3965 9.7984 8.8219 14.348 0.75107 1.4088 1.3741 2.5764 1.3845 2.5947 0.01043 0.0183 0.99728-0.22977 2.193-0.55127 19.951-5.3645 43.234-9.721 56.173-10.511l1.7744-0.10831 1.137-2.6338c3.2891-7.6188 3.1004-9.8569-1.0346-12.269-1.9021-1.1096-2.1993-2.3236-1.2761-5.2128l0.36822-1.1524-0.72407-0.70241c-2.2433-2.1762-1.9527-4.9508 0.94341-9.0072l1.0656-1.4926-0.0775-1.2231c-0.0764-1.2049-0.81548-3.5646-1.1888-3.7953-0.0841-0.052-0.63841-0.1944-1.2318-0.31647-4.204-0.86489-8.2122-2.9552-8.9214-4.6526-0.73988-1.7708-0.36469-2.362 4.6699-7.3584 9.3055-9.2349 12.075-14.468 13.622-25.736 0.27566-2.0083 0.76127-6.6692 0.76264-7.3199 0-0.20804-0.23912-0.256-1.5421-0.30867-6.9854-0.28238-7.4989-9.9775-0.5771-10.896l0.76523-0.10151v-4.4776-4.4776l-0.87816-0.06352c-5.7205-0.41378-6.5433-8.8195-1.0398-10.624l0.89786-0.29438-12.795-12.023c-12.58-11.823-13.34-12.597-13.16-13.285 0.0759-0.29035-0.24821-0.68293-2.074-2.512l-2.17-2.168h91.24c50.182 0 91.24 0.028173 91.24 0.062607s-5.9217 6.7562-13.159 14.937l-13.159 14.875 2.7371 0.09456c3.5084 0.1212 4.2878 0.37784 5.6563 1.8625 3.1701 3.4392 0.87163 8.8015-3.8975 9.0927l-1.4298 0.08731-0.0399 4.4774-0.0399 4.4774h0.8226c4.7854 0 7.4949 4.4759 5.141 8.4925-1.0002 1.7067-2.6933 2.4941-5.3628 2.4941-1.0034 0-1.8004 0.06166-1.8004 0.1393 0 0.07662 0.37528 2.2269 0.83395 4.7784 2.0909 11.631 4.5082 26.676 6.3798 39.706 0.5826 4.056 1.4695 9.745 1.9708 12.642 2.4472 14.141 3.105 18.435 3.5447 23.14l0.26375 2.8219h5.3576c27.958 0 56.699 5.3149 82.705 15.294 0.20852 0.08 0.23207-2.4184 0.23207-24.609 0-21.767-0.0266-24.698-0.22399-24.698-0.12319 0-1.664 0.30186-3.4239 0.67081-1.76 0.36894-5.0285 1.0478-7.2635 1.5086s-4.8424 1.0032-5.7943 1.2054c-3.2691 0.69435-9.0278 1.8827-9.1236 1.8827-0.28849 0 0.75285 6.5249 1.5432 9.6698 2.5109 9.9907 6.8093 15.568 14.525 18.844 0.94022 0.39934 1.7624 0.77265 1.827 0.82958 0.14053 0.12384-3.952 1.7649-5.7613 2.3102-24.008 7.2359-55.159-17.82-59.095-47.532-4.5929-34.665 33.842-69.789 62.933-57.511l1.9565 0.82573-0.82776 0.36533c-0.45527 0.20093-1.4902 0.65438-2.2999 1.0077-7.4207 3.2378-11.977 10.441-14.092 22.278-0.38983 2.1816-0.91547 6.2771-0.91547 7.1329v0.64977l1.5426 0.3151c2.0485 0.41844 8.7942 1.8197 12.454 2.587 1.6141 0.33843 4.2216 0.87982 5.7943 1.2031s3.5273 0.72684 4.3435 0.89679c0.81617 0.16995 1.5781 0.309 1.6932 0.309 0.17768 0 0.20918-3.5134 0.20918-23.328v-23.328h-2.4833-2.4833v-4.9666-4.9666h4.695 4.695l-0.74322-0.47134c-8.8538-5.6149-4.9583-19.244 5.5003-19.244 10.267 0 14.272 13.49 5.6728 19.108l-0.92947 0.60732h5.0029 5.0029v4.9634 4.9634l-2.9724 0.04081-2.9724 0.04081-0.0396 67.199-0.0396 67.199 2.6579 1.3545c2.6498 1.3504 7.6951 4.1026 9.8377 5.3664l1.1288 0.66582 0.0982 1.5742c0.22896 3.6689 0.40034 36.73 0.29878 57.636l-0.10785 22.199 1.0392 2.408c1.2105 2.8047 3.2834 7.933 3.226 7.9809-0.0217 0.0181-1.0019 0.39019-2.1783 0.8268l-2.1389 0.79383-0.0433 1.2193-0.0434 1.2193-0.38253-0.97826c-0.22754-0.58193-0.47145-0.97826-0.60201-0.97826-0.14506 0-0.68558-1.1481-1.5942-3.3863-19.903-49.023-60.616-79.965-116.92-88.858-7.7414-1.2227-23.252-2.5386-23.252-1.9727 0 0.0398 0.21329 0.50492 0.47397 1.0336l0.47398 0.96118 2.4232 0.10193c62.365 2.6237 113.78 38.239 137.23 95.055 0.73454 1.7797 1.3009 3.0665 1.2586 2.8595-0.32521-1.5913-0.0995-2.107 0.92235-2.107 0.0997 0-0.0769 5.585-0.17985 5.6879-0.0447 0.0447-0.0813-0.10388-0.0813-0.33019 0-0.4492-0.0802-0.44899-1.1848 0.003-0.81565 0.33384-0.84884 0.29842-1.6032-1.7112-18.684-49.777-58.859-83.39-112.46-94.094-7.8574-1.569-19.679-3.006-24.82-3.0169-0.30824 0-0.27733 0.10668 0.50916 1.7677 3.092 6.5301 12.849 25.953 18.065 35.962l1.4272 2.7386 2.0532 1.1644c30.581 17.343 55.689 37.852 72.019 58.827 1.3168 1.6913 4.8655 6.5375 4.9821 6.8038 0.008 0.0172 1.607-0.19834 3.5544-0.47892s4.8825-0.64763 6.5224-0.81565c3.4883-0.35741 3.1187-0.20009 2.8554-1.2153-1.6002-6.1689 4.9013-11.35 10.744-8.5614 2.8912 1.3799 4.8023 5.4083 3.9596 8.3466l-0.1334 0.46519 4.0088 0.11236c2.2049 0.0618 5.0164 0.19132 6.2479 0.28784 2.1954 0.17206 2.2497 0.16904 2.7843-0.1551l0.54519-0.33056 0.0759 0.40431c0.0645 0.34343 0.16228 0.41143 0.64946 0.45161 0.53455 0.0441 0.56795 0.0748 0.49134 0.45151-0.80019 3.9348-1.1886 8.2031-1.2534 13.774l-0.0663 5.6938-0.70101-0.05c-0.63295-0.0451-0.70574-0.0167-0.74974 0.29336-0.042 0.29614-0.11445 0.33219-0.52675 0.26213-3.8815-0.65968-15.66-0.65857-23.569 0.002-18.673 1.5601-36.184 6.3039-52.417 14.199l-2.5145 1.223-2.387 3.423c-3.0331 4.3494-6.7155 9.6793-6.881 9.9595-0.0716 0.12116 0.19674 0.0324 0.61334-0.20299 26.514-14.978 59.632-22.382 87.317-19.522 0.73705 0.0762 1.0948 0.061 1.1024-0.0467 0.006-0.0877 0.13375-0.9383 0.2835-1.8902l0.27227-1.7308 0.0175 1.2557c0.0155 1.1113 0.0513 1.2646 0.31161 1.3326 0.22454 0.0587 0.27694 0.17108 0.2216 0.47505-0.0399 0.21898-0.27435 1.8153-0.52107 3.5474-0.52853 3.7105-0.28252 3.2488-1.6503 3.097-4.3987-0.48839-16.093-0.57568-21.296-0.15896-27.458 2.1992-50.025 9.3408-70.937 22.449l-2.8084 1.7603-3.2086 4.7182c-1.7648 2.595-3.2751 4.8388-3.3564 4.9862-0.0813 0.14742 0.75305-0.40136 1.8541-1.2195 26.78-19.899 66.722-31.047 99.287-27.711 1.6983 0.17395 1.4674 0.40087 1.7829-1.7521l0.26277-1.7928 0.0429 1.5426c0.0358 1.2869 0.0823 1.5426 0.28046 1.5426 0.19413 0 0.22014 0.11697 0.14219 0.63964-0.30835 2.0676-0.5353 4.0457-0.53786 4.6878l-0.003 0.73719-1.2416-0.1001c-0.6829-0.055-2.1559-0.17803-3.2734-0.27328-34.906-2.9753-76.481 10.286-104.2 33.238l-1.7882 1.4805-3.1407 4.7014c-1.7274 2.5858-3.1407 4.7454-3.1407 4.7992s0.55915-0.43646 1.2426-1.0894c19.795-18.912 48.13-32.513 78.006-37.443 13.057-2.1547 29.553-2.8286 37.143-1.5173 1.4588 0.25201 1.3907 0.15494 0.85298 1.2152-0.248 0.48904-0.45176 0.97512-0.4528 1.0802-0.002 0.11974-0.12823 0.16293-0.34054 0.11579-3.0029-0.66673-15.106-0.88346-21.484-0.38468-36.89 2.885-68.712 16.528-94.44 40.49-6.6045 6.151-4.4903 3.3052-20.516 27.615-9.2209 13.987-8.5496 12.924-8.0888 12.809 0.47545-0.11932 0.47544-0.1071 0 0.83184-0.48779 0.96261-0.5938 0.9025 1.8495 1.0488 3.6959 0.22136 10.25 1.0506 11.786 1.4913 2.3784 0.6821 17.373-2.1054 29.26-5.4395 31.672-8.8833 69.667-28.627 98.621-51.247 2.7886-2.1786 2.3987-2.0575 3.259-1.0125 0.83875 1.0188 0.99951 0.76032-1.8459 2.968-36.566 28.37-83.334 50.343-119.56 56.175-1.8946 0.30499-1.9166 0.53211-0.10529 1.0845 0.53804 0.16411 1.8587 0.61917 2.9348 1.0112l1.9565 0.71289 1.6555-0.3321c27.37-5.4905 55.852-16.875 83.119-33.225 10.553-6.3278 20.62-13.227 28.682-19.658 2.7926-2.2274 2.8423-2.2588 3.0853-1.9514 0.13582 0.1719 0.99193 1.1702 1.9025 2.2184 0.91053 1.0482 1.6698 1.9527 1.6872 2.0098 0.0174 0.0572-0.55501 0.57802-1.272 1.1574-0.71699 0.57943-1.5691 1.289-1.8936 1.5767l-0.59001 0.52324 0.0443 2.4868c0.0244 1.3677 0.0326 6.7348 0.0184 11.927l-0.0259 9.4401-0.93174 1.095c-5.1044 5.9988-13.856 13.529-22.17 19.076-1.1589 0.77318-2.1614 1.4529-2.2278 1.5104-0.0665 0.0576 0.38268 1.4183 0.99808 3.024 0.61539 1.6056 1.4623 3.9146 1.882 5.131 0.95053 2.755 0.12571 1.2032 8.3883 15.782 3.8678 6.8243 7.1649 12.78 7.3269 13.236 1.6539 4.648-1.7871 9.4876-6.7729 9.5257-0.76568 0.006-1.3921 0.0217-1.3921 0.0352 0 0.0136 1.085 1.9484 2.4111 4.2996 2.682 4.7552 2.9978 5.4636 3.1141 6.984 0.32431 4.2399-3.4391 7.9803-7.6864 7.6393l-0.98564-0.0791 0.32211 0.81018c3.0035 7.5548-7.9668 13.132-12.667 6.4394l-0.72129-1.0271-0.26437 0.97668c-1.2452 4.6-6.8784 6.6492-10.899 3.9645-1.3854-0.92513-1.5423-1.1751-8.9683-14.292-3.8639-6.8248-7.1988-12.708-7.4108-13.075l-0.38549-0.66577-0.34721 0.68319c-2.7558 5.4226-11.236 6.0987-14.584 1.1629-0.24816-0.3658-0.93931-1.284-1.5359-2.0404-4.0158-5.0916-9.3508-13.156-12.703-19.203-0.44645-0.80524-0.8867-1.4656-0.97835-1.4674-0.0916-0.002-1.8186 0.46576-3.8378 1.039-8.9554 2.5426-21.053 5.432-29.332 7.0058-5.5953 1.0636-9.9238 1.825-12.908 2.2706-1.9301 0.28817-1.841 0.22015-2.805 2.1412-2.5465 5.0747-1.8397 7.5934 2.5996 9.2642 3.2104 1.2082 3.9102 3.5267 2.1223 7.0312-0.4071 0.79795-0.42848 0.7573 0.81198 1.5431 4.1361 2.6201 4.1669 5.7352 0.0963 9.7351-2.3121 2.2719-2.3679 2.3604-1.9694 3.1208 0.62991 1.202 0.88188 1.3826 2.3452 1.6814 9.5056 1.941 11.417 5.1707 6.1048 10.314-5.9256 5.7373-7.843 7.9241-10.074 11.49-3.376 5.3958-4.9702 11.086-5.8065 20.726-0.12927 1.49-0.26057 2.9532-0.29177 3.2517l-0.0568 0.54268 1.535 0.0869c7.5944 0.43007 7.7051 9.5471 0.12143 10.001l-1.3943 0.0835 0.0398 4.4552 0.0398 4.4552 1.4298 0.0789c6.2505 0.34506 7.5173 8.5513 1.6404 10.626l-0.90834 0.32075 6.2937 5.9273c3.4615 3.26 9.0704 8.5336 12.464 11.719 3.3938 3.1854 6.3907 6.0052 6.6597 6.2662 0.40372 0.39168 0.48913 0.58853 0.48913 1.1273 0 0.63899 0.0453 0.69823 2.1427 2.7993l2.1427 2.1465h-91.24c-50.182 0.00005-91.24-0.029-91.24-0.0646zm176.39-2.0224c0-0.50816-7.4368-7.4118-9.3359-8.6667-14.18-9.3691-26.704-13.644-36.266-12.377-10.461 1.3854-23.362 7.994-36.469 18.683-1.5372 1.2535-1.4407 1.2895-4.3466-1.619-20.789-20.807-46.786-22.898-72.813-5.8574-4.8971 3.2065-11.74 8.9448-11.74 9.8452 0 0.0678 38.468 0.12332 85.485 0.12332 48.14 0 85.485-0.057 85.485-0.13047zm-276.62-2.73c3.8309-1.1126 6.3219-5.2674 5.5016-9.1759-1.3365-6.3679-9.2386-8.6641-13.637-3.9625-5.6411 6.0303 0.1891 15.446 8.135 13.138zm195.28-3.3236c25.221-20.237 44.326-22.444 68.059-7.8603 0.68158 0.4188-0.70471-0.91297-7.9213-7.6098l-6.827-6.3354h-59.127-59.127l-6.5712 7.4122c-3.6142 4.0767-6.7819 7.645-7.0394 7.9296l-0.46821 0.51734 0.4515-0.28364c27.217-17.098 55.339-14.591 75.401 6.7226 0.57943 0.61557 1.1236 1.0822 1.2093 1.0368 0.0857-0.0453 0.96735-0.73353 1.9592-1.5294zm-185.95-18.344v-2.5585h-12.492-12.492v2.5585 2.5585h12.492 12.492v-2.5585zm-4.9666-6.9983v-2.4833h-6.9983-6.9983v2.4833 2.4833h6.9983 6.9983v-2.4833zm248.16 0.38036c2.7173-0.77933 3.0759-4.4422 0.5473-5.5908-0.8878-0.40327-131.32-0.44271-132.12-0.0399-2.5243 1.2732-2.3596 4.6761 0.27085 5.5955 0.60478 0.21141 130.56 0.24623 131.3 0.0352zm-248.16-8.357v-2.4833h-6.9983-6.9983v2.4833 2.4833h6.9983 6.9983v-2.4833zm27.629 0.81662c24.929-2.4508 47.626-30.198 45.381-55.478-2.2221-25.021-25.526-48.543-48.101-48.551-3.0326-0.002-7.3095 0.62034-8.2436 1.1976-0.06884 0.0425 0.47103 0.48321 1.1997 0.97926 0.72868 0.49606 1.7198 1.2443 2.2026 1.6628l0.87774 0.76086 1.2293-0.17176c11.514-1.6089 27.723 7.0912 36.803 19.753 14.802 20.642 11.598 47.697-7.6069 64.234-9.0377 7.7826-21.309 12.453-29.207 11.116l-1.0896-0.18446-0.99013 0.89362c-0.54457 0.49151-1.5567 1.2594-2.2493 1.7065-1.5707 1.014-1.5889 0.93927 0.33921 1.3935 3.3283 0.7841 6.2856 0.99912 9.4555 0.68748zm216.33-4.8049v-4.515h-61.48-61.48v4.515 4.515h61.48 61.48v-4.515zm-243.96-3.0853v-2.4833h-6.9983-6.9983v2.4833 2.4833h6.9983 6.9983v-2.4833zm29.337 0.82311c19.344-3.4832 36.432-23.511 36.432-42.699v-1.5436h-31.908-31.908l0.0395 5.4517 0.0395 5.4517 14.147 2.9492c7.7809 1.622 14.343 2.9989 14.582 3.0598l0.43486 0.1106-0.1012 1.384c-0.77351 10.578-3.1049 18.837-6.8991 24.44l-1.141 1.6849 0.55051 0.0684c1.041 0.12934 4.0815-0.0603 5.7321-0.35753zm218.69-4.3749c2.528-0.54215 3.2056-3.6817 1.148-5.3191l-0.57835-0.46023-65.806-0.0381-65.806-0.0381-0.66427 0.35084c-2.4212 1.2787-1.8135 4.9991 0.90343 5.5302 0.95382 0.18646 129.93 0.16134 130.8-0.0255zm-248.04-55.859-0.0046-54.971-2.6668-1.0391c-2.4226-0.94394-6.8812-2.8022-10.079-4.2008l-1.2416-0.54301v57.862 57.862h6.9983 6.9983l-0.0046-54.971zm-9.15 45.776c-3.1967-1.2633-4.0635-5.5279-1.6301-8.0203 3.0683-3.1427 8.41-0.95151 8.41 3.4499 0 3.4732-3.5318 5.854-6.78 4.5704zm3.0771-2.3375c1.3973-0.66306 1.7602-2.7192 0.68302-3.8703-1.5951-1.7047-4.192-0.80026-4.3541 1.5164-0.13504 1.9299 1.8637 3.2115 3.6711 2.3539zm-2.2043-18.326c-3.8887-0.81828-5.2416-5.5428-2.4014-8.386 2.3461-2.3486 6.5151-1.5355 7.8952 1.5399 1.6371 3.6479-1.5888 7.6678-5.4938 6.8461zm2.2043-2.5942c1.3973-0.66306 1.7602-2.7192 0.68302-3.8703-1.5951-1.7047-4.192-0.80026-4.3541 1.5164-0.13504 1.9299 1.8637 3.2115 3.6711 2.3539zm-2.1666-18.271c-2.3948-0.49261-4.0365-2.6342-3.9197-5.1133 0.2395-5.0864 7.0573-6.4683 9.3124-1.8876 1.7676 3.5904-1.4795 7.8058-5.3927 7.0008zm2.3213-2.7205c2.2467-1.3807 1.0258-4.8688-1.6153-4.615-1.2861 0.12359-2.1023 0.9605-2.2106 2.2667-0.17413 2.0997 2.0295 3.4523 3.8259 2.3483zm-2.516-18.242c-5.6244-1.585-4.6719-9.6604 1.1394-9.6604 2.1811 0 3.6529 0.93415 4.5463 2.8855 1.6392 3.5804-1.93 7.8333-5.6857 6.7749zm2.516-2.6774c2.2467-1.3807 1.0258-4.8688-1.6153-4.615-1.2861 0.12359-2.1023 0.9605-2.2106 2.2667-0.17321 2.0887 2.0389 3.4465 3.8259 2.3483zm-2.5053-18.252c-4.3942-1.2098-5.1559-7.0058-1.1979-9.1154 3.3549-1.7882 7.2442 0.54411 7.2635 4.3556 0.0158 3.127-3.1039 5.5751-6.0656 4.7598zm2.4984-2.6621c2.2784-1.4081 0.99503-4.9195-1.6875-4.6171-2.1754 0.24519-2.9309 3.0461-1.2129 4.4971 0.74513 0.62935 1.9928 0.68098 2.9004 0.12zm138.99 87.92c0-0.20406-12.415-77.451-13.647-84.915-0.73455-4.4488-0.10532-9.3437 1.5142-11.779 1.6726-2.5152 5.2101-3.6026 5.2101-1.6015 0 0.71355-0.15856 0.88885-1.2893 1.4254-2.8182 1.3374-3.9254 5.5711-3.0281 11.579 0.35277 2.362 13.637 84.842 13.725 85.222l0.0792 0.33863h4.8884c3.3094 0 4.8884-0.051 4.8884-0.1578 0-0.0868-3.0869-19.304-6.8598-42.705-8.1259-50.4-7.3256-45.057-7.2404-48.341 0.13931-5.369 1.8971-8.6446 5.0985-9.5009 2.16-0.57771 2.655 1.5575 0.54169 2.3368-1.5305 0.56441-2.6236 2.3017-3.0871 4.9066-0.51819 2.9121-0.37455 4.1144 2.9399 24.607 1.6467 10.181 4.8158 29.839 7.0423 43.683l4.0482 25.171h4.9289c2.7109 0 4.9289-0.0246 4.9289-0.0551s-3.1208-19.417-6.935-43.081c-3.8143-23.664-7.0281-43.621-7.1418-44.348-1.2395-7.9241 1.2774-14.555 5.525-14.556 1.727 0 1.525 1.7901-0.28881 2.5604-2.7837 1.1822-3.7801 5.8225-2.6981 12.565 0.21254 1.3244 3.4375 21.355 7.1666 44.512s6.7802 42.171 6.7802 42.253c0 0.0955 1.7895 0.14916 4.9785 0.14916h4.9785l-0.0867-0.41388c-0.0477-0.22763-3.1366-19.377-6.8642-42.554s-6.9601-43.156-7.1834-44.398c-1.5535-8.6382 0.86621-15.878 5.3068-15.878 1.6639 0 1.6786 1.6546 0.0214 2.3981-3.203 1.4371-4.1487 6.0042-2.8378 13.706 0.26065 1.5314 3.5255 21.744 7.2553 44.917s6.803 42.154 6.8294 42.18c0.0264 0.0264 2.2474 0.0301 4.9357 0.008l4.8877-0.0397-6.212-38.604c-3.4166-21.232-6.7212-41.753-7.3436-45.602-2.2314-13.8-0.98437-19.51 4.3968-20.133 1.7622-0.20392 1.8957 1.8064 0.15685 2.3628-2.7078 0.86638-4.0258 5.8803-3.0889 11.75 1.5249 9.5535 14.424 89.581 14.489 89.887l0.0871 0.41388h4.8041c2.6422 0 4.8041-0.034 4.8041-0.0755 0-0.1769-11.627-71.36-14.541-89.021-1.5388-9.3279-0.66558-12.844 3.7425-15.069 5.9919-3.0247 11.949-1.7518 14.328 3.0614 3.1501 6.3738-6.1517 11.837-9.9845 5.8642-1.311-2.043 0.48287-3.0146 2.141-1.1596 3.0829 3.449 7.8975-0.58876 5.2305-4.3865-2.0472-2.9152-6.2085-3.4387-10.431-1.3122-3.9348 1.9816-4.1286 3.6877-1.9293 16.99 2.8726 17.375 13.851 84.698 13.851 84.938 0 0.12276 1.1574 0.17042 4.1388 0.17042 2.9049 0 4.1388-0.0493 4.1388-0.16523 0-0.0909-3.155-18.936-7.011-41.877-3.856-22.942-7.0186-41.929-7.0279-42.194-0.0256-0.72905 0.37962-1.0393 2.0256-1.5506 21.634-6.7212 13.939-27.783-9.1322-24.995-3.273 0.39554-12.505 1.4159-16.405 1.813-1.6555 0.1686-3.9243 0.40695-5.0418 0.52964-1.1175 0.12271-4.3683 0.46508-7.2241 0.76085-24.574 2.545-36.575 3.8695-38.128 4.2079-6.7074 1.4615-8.74 9.2184-6.7045 25.586 0.40236 3.2354 1.252 8.4866 3.3712 20.835 0.37558 2.1885 1.2257 7.742 1.8892 12.341 1.9702 13.657 6.7649 42.926 7.293 44.52 0.11445 0.34546 10.005 0.26518 10.005-0.0812zm110.23-0.21979c0.0398-0.26902 0.18199-1.7759 0.31589-3.3487 1.2945-15.204 4.2061-21.559 14.63-31.929 2.819-2.8044 4.41-4.4948 4.41-4.6853 0-1.0597-3.7984-2.8797-7.485-3.5864l-1.3701-0.26264-1.1198 0.5684c-2.2916 1.1632-4.2899 1.0682-7.8052-0.37093-3.0011-1.2286-3.5821-1.1642-4.4056 0.4883-1.197 2.4021 0.53287 4.6141 3.2447 4.149 1.595-0.27351 2.5459 1.0692 1.3971 1.9729-3.4868 2.7427-8.7577-2.3655-7.0075-6.7912 1.2903-3.2628 3.3942-3.7997 7.8341-1.9993 2.6363 1.069 3.7553 1.1989 5.2336 0.60741l0.61522-0.24616-0.51047-0.97937c-0.28078-0.53865-0.51049-1.1369-0.51049-1.3294 0-0.32486-0.0785-0.35734-1.0911-0.45158-10.602-0.98659-17.437-4.7385-25.294-13.884-3.5958-4.1855-4.2795-4.5443-6.5089-3.4164-3.9425 1.9947-4.644 7.4018-1.4047 10.827 0.92845 0.9817 0.79876 1.0448-0.44306 0.21551-4.5536-3.0408-4.6339-10.332-0.15994-14.525 3.3498-3.14 6.7534-2.7959 11.424 1.1549 12.666 10.714 21.041 14.238 27.388 11.524l0.52352-0.22393-0.59877-0.55139c-1.0414-0.95903-2.485-1.5367-4.1356-1.655-4.8541-0.34777-7.6109-1.1149-10.46-2.9105-0.8898-0.56083-0.89032-0.56068 0.70906-0.19404 2.6623 0.61032 6.0775 1.0368 8.8308 1.1027l1.7138 0.0411 0.64943-1.4324c1.549-3.4165 1.4128-4.0307-1.067-4.811-5.8656-1.8458-6.9011-6.1312-3.092-12.795 0.30755-0.53805 0.80809-1.4308 1.1123-1.9838l0.55311-1.0056-0.75734-1.4777c-6.2381-12.172-21.666-14.951-40.852-7.3585l-2.0001 0.79152-1.7882 1.8157c-2.5585 2.5978-4.7546 3.9822-8.6322 5.4417-0.86706 0.32634-1.5995 0.66257-1.6278 0.7472-0.048 0.14398 13.751 82.65 13.891 83.059 0.0512 0.14908 3.7509 0.18813 17.822 0.18813h17.757l0.0724-0.48913zm-10.669-14.419c-3.6934-0.29917-6.4164-1.4479-9.2407-3.8981-2.6381-2.2887-3.8572-3.1115-5.4817-3.6997l-0.91002-0.32951 1.0359-0.18041c1.6558-0.28834 7.3337-1.0778 7.3848-1.0268 0.0256 0.0256-0.14625 0.17602-0.38183 0.33435-3.0138 2.0256-0.42836 4.6302 5.8347 5.8781l0.49859 0.0993-0.12233-0.57842c-0.74291-3.5128 0.93543-7.299 2.9658-6.6906 1.1874 0.35575 2.3769 2.165 2.7148 4.1294 0.1657 0.9633 0.14928 1.3854-0.10275 2.6426l-0.10211 0.50933 0.83524-0.10436c0.78312-0.0978 0.8672-0.0763 1.3478 0.3457 0.47036 0.41298 1.4271 1.923 1.2994 2.0508-0.32025 0.32025-5.5788 0.68002-7.5755 0.51828zm3.3939-12.518c-0.86497-0.32741-2.4565-0.81772-3.5368-1.0896l-1.9641-0.49432 0.82776-0.24868c2.5682-0.77151 4.6298-0.18037 5.9338 1.7015 0.56885 0.82082 0.56299 0.82143-1.2607 0.13114zm-170.3-7.9c-1.6568-21.767-20.534-41.835-40.062-42.588-2.7428-0.10583-2.7796-0.0915-2.1096 0.82397 4.0812 5.5768 6.6252 13.649 7.4127 23.521l0.1025 1.285-5.549 1.1573c-3.052 0.6365-9.3417 1.9443-13.977 2.9063-4.6355 0.96196-8.6821 1.8127-8.9925 1.8905l-0.56438 0.14147v6.0895 6.0895h31.92 31.92l-0.10024-1.3169zm285.91-8.6097c2.3287-1.1064 3.4209-4.1379 2.2879-6.3507-5.5383-10.817-17.357-30.596-18.088-30.272-0.60871 0.26936-5.1425 2.3079-6.6004 2.9678l-0.46727 0.2115 0.35051 1.0287c0.1928 0.56581 0.35228 1.2861 0.35442 1.6006 0.004 0.64934 14.94 27.503 16.358 29.411 1.2581 1.693 3.8673 2.3236 5.8051 1.403zm13.422-1.9246c2.1227-0.75792 3.509-3.3642 2.9566-5.5583-0.1409-0.55955-19.369-34.878-19.86-35.447-0.0504-0.0584-0.70078 0.23568-1.4453 0.65341-0.74456 0.41775-2.7577 1.5053-4.4737 2.4168-2.9684 1.5768-3.1115 1.6729-2.9471 1.9804 0.63985 1.1963 20.09 34.135 20.39 34.531 1.1147 1.4688 3.4928 2.0985 5.3804 1.4246zm8.2904-10.4c2.3517-1.1143 3.441-4.0639 2.3153-6.2692-0.32199-0.63079-17.405-30.886-17.539-31.062-0.0246-0.0324-0.57126 0.33884-1.2149 0.82485-0.97526 0.73639-5.512 3.8045-6.4518 4.3632-0.29082 0.17288 16.203 29.682 17.362 31.062 1.2468 1.4847 3.6746 1.9596 5.528 1.0814zm-50.459-11.61c2.5384-0.94975 4.1832-3.2172 4.1966-5.7854 0.01-1.8927 0.42122-1.0408-5.8501-12.116-5.764-10.179-5.2779-8.9154-3.8366-9.9713 3.7722-2.7635 3.8749-3.0719 0.6243-1.8744-3.5112 1.2936-8.9301 3.1303-13.153 4.4584-1.9038 0.59871-3.5131 1.1194-3.5762 1.157-0.19955 0.11914 2.7038 5.1119 5.481 9.4252 2.6559 4.125 7.6407 11.005 9.512 13.129 1.6046 1.8209 4.2574 2.4547 6.6022 1.5774zm53.482-7.299c2.0007-0.88841 3.165-3.299 2.6322-5.4497-0.1642-0.6627-12.45-22.63-12.65-22.617-0.0435 0.003-0.30615 0.50307-0.5836 1.1116-0.68758 1.5081-2.0781 3.3057-4.0721 5.2644l-1.67 1.6404 0.55352 0.99337c3.8173 6.8508 10.093 17.787 10.383 18.095 1.2806 1.3572 3.5903 1.7679 5.4065 0.96145zm-44.562-6.2162c24.72-11.45 34.382-19.823 31.754-27.516-1.0596-3.102-3.0398-8.3518-3.2172-8.5292-0.0723-0.0723-1.1301 0.47276-2.3958 1.2345-8.3361 5.0171-19.118 10.345-29.41 14.533l-1.7638 0.71773-2.017 1.9846c-1.1094 1.0916-2.773 2.6206-3.6971 3.3978-0.924 0.77725-1.6607 1.4947-1.6372 1.5943 0.0236 0.0996 1.8659 3.3971 4.0941 7.3278l4.0512 7.1467 1.1411-0.49234c0.62758-0.27079 2.0215-0.90015 3.0976-1.3986zm-74.423-2.5895c55.781-9.61 102.55-30.094 125.77-55.082l2.3047-2.4803v-10.644-10.644l-1.8436 1.3988c-29.333 22.255-69.107 41.148-102.23 48.559-2.654 0.59388-0.75495-1.2403-15.797 15.258-12.288 13.477-13.304 14.622-12.836 14.464 0.10347-0.035 2.186-0.40776 4.6279-0.82844zm-5.0286-2.6712c1.1944-1.319 2.9515-3.2451 16.132-17.683 8.3924-9.1931 7.7579-7.8277 4.334-9.3268l-1.3437-0.58829-0.48111 0.49747c-0.26461 0.27361-4.363 4.5949-9.1076 9.6028s-8.7319 9.1879-8.8608 9.2887c-0.67044 0.52446-1.8146-0.0734-1.8146-0.94808 0-0.62684-0.69152 0.14318 9.7016-10.803 4.3903-4.6238 8.0021-8.4586 8.0261-8.5217 0.0241-0.0631-0.9918-0.4603-2.2575-0.88258l-2.3013-0.76778-0.39525 0.40992c-0.21738 0.22547-3.596 3.864-7.508 8.0855-8.0191 8.6536-8.2429 8.8345-8.9939 7.2676-0.34283-0.71525-0.13136-0.97641 7.1035-8.7727l7.1228-7.6756-0.50179-0.17801c-0.67092-0.23804-5.4762-1.3092-5.5399-1.235-0.0276 0.0322-2.3717 3.3093-5.2091 7.2826-6.5746 9.2066-6.1341 8.6077-6.4098 8.7135-0.8266 0.31718-1.7171-0.21722-1.7171-1.0305 0-0.37312 1.0697-1.9615 5.3286-7.9127 2.9308-4.0952 5.3034-7.4718 5.2726-7.5036-0.0911-0.0937-2.3018-0.42338-3.6167-0.53931l-1.2178-0.10738-5.161 7.9957c-2.8386 4.3976-5.3025 8.0948-5.4754 8.2159-0.73723 0.51637-1.8026-0.0508-1.8026-0.95971 0-0.30857 1.3687-2.549 4.8507-7.9402l4.8507-7.5103-1.3264-0.11531c-0.72955-0.0634-1.9611-0.0973-2.7368-0.0752l-1.4104 0.0401-4.0468 7.5251c-4.946 9.1971-4.712 8.866-5.8489 8.278-1.0763-0.55657-1.1665-0.32033 3.2891-8.6162 1.9896-3.7045 3.6574-6.8415 3.706-6.9712 0.0756-0.20146-0.0491-0.22844-0.85762-0.18556-1.2196 0.0647-5.3032 0.37021-5.3351 0.39917-0.0134 0.0122-1.2244 3.3068-2.6911 7.3215-2.7706 7.5836-2.9561 7.9766-3.7656 7.9766-1.7718 0-1.6072-0.66127 3.6679-14.735 0.0646-0.17231-0.0593-0.19353-0.66069-0.11325-1.4076 0.18792-5.1055 0.88609-5.3242 1.0052-0.15598 0.085-0.59949 2.2232-1.534 7.3954-1.2624 6.9874-1.3308 7.2898-1.724 7.6284-0.73734 0.63479-1.8654 0.0951-1.8654-0.89251 0-0.34151 2.0727-12.196 2.321-13.275 0.0444-0.19278-0.009-0.25033-0.18885-0.20203-2.5515 0.68661-4.34 1.2108-4.4399 1.3012-0.069 0.0625-0.62846 3.5247-1.2432 7.6938-1.3892 9.4209-1.2405 8.8595-2.3465 8.8595-1.4259 0-1.4257 0.0101-0.13286-8.6538 0.5682-3.8077 1.0053-6.9521 0.9714-6.9876-0.0741-0.0775-5.0444 1.7729-5.2287 1.9465-0.0708 0.0667-0.31726 1.7023-0.54766 3.6347l-0.41893 3.5134 0.42567 0.67726c1.8655 2.9681 2.4727 6.5415 1.6708 9.8321-0.17812 0.73082-0.32385 1.3512-0.32385 1.3786s0.66032-0.19014 1.4674-0.48343c19.047-6.9216 34.905-3.6023 41.541 8.6947 0.68859 1.276 0.50781 1.3012 1.9295-0.26884zm-152.7-3.7127c3.8102-0.24342 7.5795-0.54095 7.6434-0.60332 0.0201-0.0197 0.108-0.74168 0.19529-1.6045 0.721-7.1267 3.2758-11.302 7.8771-12.874 0.92621-0.31643 1.9012-0.49254 5.2104-0.94115 0.87865-0.11911 0.76112-0.1345-1.1541-0.1512-64.663-0.57-117.82-33.34-145.88-89.93l-2.3763-4.7929-0.11305 16.833c-0.1139 16.96 0.0008127 60.151 0.16943 63.797l0.090827 1.9636 2.6546 1.4504c29.019 15.855 62.747 25.136 97.772 26.904 1.7383 0.0877 3.6346 0.18242 4.214 0.2104 2.9931 0.14451 20.291-0.0532 23.698-0.27083zm25.85-16.63c0.12504-0.0656-0.17348-0.64665-0.93693-1.8237l-1.1204-1.7274-0.002 1.3545c-0.001 0.74499 0.039 1.6028 0.0892 1.9062l0.0912 0.55168 0.84776-0.0826c0.46626-0.0454 0.93033-0.12588 1.0312-0.17882zm6.1376-0.62093c1.5727-0.16772 5.4331-0.57281 8.5786-0.9002 3.1455-0.32738 6.0069-0.63436 6.3587-0.68216l0.63963-0.0869-0.003-1.0819c-0.0125-5.1616-3.1348-8.1824-8.9146-8.6247-1.5762-0.12062-1.5515 0.0259-0.24729-1.467 4.512-5.165 4.8945-10.669 1.0595-15.248-3.8233-4.565-8.6199-5.3387-15.862-2.5584-0.55874 0.21448-1.0159 0.36259-1.0159 0.32912 0-0.0335 0.71445-1.0294 1.5877-2.2132 9.0226-12.231 2.4597-23.679-12.327-21.501-2.7046 0.39838-2.5722 0.52919-1.4649-1.4482 5.8113-10.377 2.0179-16.319-9.6062-15.046l-1.116 0.12218 0.81505-0.92532c2.3352-2.6511 2.8528-4.0834 2.8555-7.9022 0.008-10.682-7.6253-17.532-19.536-17.533-1.4539-0.00013-1.4203 0.0589-0.58515-1.0274 3.9582-5.1487 4.1232-8.9234 0.54756-12.527-2.7541-2.7753-8.0496-5.1075-11.599-5.1081h-1.1388l-0.63576-0.99722c-0.34967-0.54848-0.61608-1.0114-0.59202-1.0288 0.0241-0.0174 0.82259-0.54431 1.7745-1.171 12.198-8.0308 11.759-15.091-1.204-19.39-1.0347-0.34316-1.8922-0.63318-1.9056-0.64448-0.025-0.0212 0.20642-1.4414 0.3222-1.9771 0.0627-0.29 0.16529-0.29908 2.8084-0.24827 17.174 0.33014 21.33-13.057 7.7793-25.064l-0.85362-0.75638 2.0975-0.10383c13.28-0.65731 22.539-16.623 14.529-25.052l-1.3745-1.4466 2.1823-0.25772c16.389-1.9355 22.782-13.74 14.237-26.289l-0.82384-1.2099 0.63034-0.0769c0.34669-0.0423 1.0706-0.11821 1.6086-0.16873 9.3665-0.87937 13.974-14.587 6.6349-19.739-0.54512-0.38261-1.0479-0.74551-1.1173-0.80645-0.0694-0.0609 0.54015-0.32937 1.3545-0.59651 4.5638-1.4971 7.8035-4.107 9.6057-7.7383 0.87017-1.7534 0.88402-1.6922-0.41179-1.8191-3.7681-0.36907-8.748-1.2591-12.663-2.2632-3.255-0.83474-2.667-1.3213-5.5594 4.6004-27.991 57.308-52.01 98.042-68.38 115.97-0.86699 0.94947-1.5543 1.7768-1.5274 1.8384 0.02693 0.0616 0.93376 1.296 2.0152 2.7431 13.38 17.903 42.398 60.911 84.256 124.88 1.6386 2.504 3.0573 4.5525 3.1527 4.5523 0.0954 0 1.4602-0.1376 3.033-0.30532zm72.079-3.0195c0.25725-2.089 0.42196-1.9763-1.5224-1.0417l-1.627 0.78205 0.37132 0.24979c0.20423 0.13739 0.84763 0.59407 1.4298 1.0148 1.2719 0.91933 1.0951 1.0511 1.3483-1.005zm-47.171 0.39347c9.747-0.99144 23.054-2.4314 27.914-3.0205 4.0021-0.48516 8.6658-0.21379 11.764 0.68453l1.5258 0.44235 1.5594-0.81257c2.3121-1.2048 6.4326-2.982 9.837-4.2429 3.8052-1.4093 3.6873-1.3571 3.6873-1.6334 0-0.38783 1.2555-1.5168 2.0052-1.8032 0.78645-0.30034 0.8245-0.38667 0.42187-0.95716-5.0085-7.0966-0.84094-17.619 8.0057-20.213 1.1724-0.34376 1.1766-0.34683 1.0959-0.80097-0.0445-0.25073-0.46413-3.4358-0.93243-7.078-0.46832-3.6421-0.86812-6.6416-0.88849-6.6655-0.0396-0.0464-67.774 45.967-68.027 46.212-0.0974 0.0943 0.0886 0.11504 0.52676 0.0589 0.37249-0.0478 1.0498-0.12472 1.505-0.17103zm29.197-26.257c19.742-13.425 35.971-24.49 36.064-24.588 0.147-0.15533-0.15668-3.7775-0.33507-3.9966-0.0345-0.0423-23.835 16.094-41.974 28.458-0.91054 0.62063-8.1572 5.5471-16.104 10.948-16.975 11.537-14.899 9.9319-14.45 11.169 0.20043 0.55214 0.41051 1.3515 0.46687 1.7764 0.12978 0.97824-4.763 4.1789 36.332-23.767zm-63.895 23.507c-0.90658-1.401-1.2454-1.8478-1.2931-1.7051-0.0717 0.21428-6.0159-0.0408-10.363-0.4447-65.627-6.1-117.55-46.44-137.27-106.63-0.65576-2.0022-0.83349-2.3328-1.2542-2.3328-0.37134 0-2.2063 0.57257-2.4037 0.75006-0.066435 0.0597 0.35685 1.4635 0.94064 3.1195 0.90026 2.5538 1.0614 3.1606 1.0614 3.9964 0 0.87336 0.030686 0.9774 0.26981 0.91488 0.22576-0.059 0.43899 0.35478 1.3062 2.535 21.445 53.915 63.097 88.062 119.2 97.724 7.491 1.2901 13.604 1.9102 23.478 2.3816 0.49665 0.0237 2.1807 0.0559 3.7422 0.0716l2.8392 0.0285-0.26782-0.41388zm-9.568-14.582c-8.7228-13.283-21.428-32.504-21.872-33.089-0.18857-0.24833-1.2494-0.98576-2.3575-1.6387-28.31-16.683-52.319-37.059-67.587-57.358-1.3532-1.7992-4.6046-6.3979-4.9137-6.9499-0.07549-0.13481-0.33397-0.12694-1.0776 0.0328-2.2477 0.48281-7.4266 1.3394-10.883 1.8-0.39815 0.0531-0.70242 0.14251-0.67618 0.19878 0.02625 0.0563 0.26064 0.51037 0.52086 1.0091 2.3843 4.5698-0.52145 10.187-5.6414 10.906-5.5269 0.7756-10.111-4.8155-8.1595-9.9511 0.16885-0.44423 0.30701-0.84157 0.30704-0.88296 0.000023-0.0414-2.7598-0.0752-6.1329-0.0752s-6.7908-0.052-7.5949-0.11554l-1.462-0.11553 0.80616 2.2978c19.51 55.611 62.6 91.894 121.39 102.21 7.285 1.2789 21.845 2.714 22.093 2.1776 0.0246-0.0531-3.0177-4.76-6.7606-10.46zm-21.511-1.6923c-5.6555-1.8098-7.2368-8.9136-2.8602-12.849 4.8209-4.3344 12.526-0.88535 12.526 5.6072 0 5.0699-4.9238 8.7588-9.6655 7.2414zm4.3566-2.5619c4.9129-2.548 3.258-9.7309-2.239-9.7183-5.6869 0.0129-7.0302 7.8949-1.6935 9.9367 0.88291 0.3378 3.0972 0.21484 3.9325-0.2184zm-31.469-8.2732c-6.3287-2.0815-7.1884-10.727-1.3748-13.825 7.5499-4.0241 14.894 5.5369 9.0511 11.783-1.9149 2.047-5.0918 2.8922-7.6762 2.0422zm4.4389-2.5711c4.7401-2.2723 3.3467-9.4269-1.8992-9.7512-4.6413-0.28696-7.2103 5.3227-3.969 8.6668 1.4772 1.524 3.9845 1.9874 5.8682 1.0844zm-34.074-11.08c-13.991-2.6633-19.209-20.083-8.9119-29.755 10.748-10.095 28.209-3.2166 29.317 11.549 0.82237 10.963-9.5999 20.262-20.405 18.206zm5.3019-4.8064c9.8144-1.8778 13.656-13.732 6.8033-20.996-7.4854-7.9349-20.964-2.9203-21.544 8.0152-0.42828 8.0765 6.8546 14.49 14.741 12.981zm-29.156-29.8c-5.9435-1.3662-8.0738-8.4131-3.8424-12.711 3.91-3.9711 10.667-2.3978 12.493 2.9089 1.8551 5.3921-3.1522 11.066-8.6507 9.8018zm3.2613-2.5777c2.2755-0.80284 3.7968-3.4666 3.3008-5.7794-1.0455-4.8749-7.4872-5.6961-9.6836-1.2345-2.0132 4.0893 2.042 8.5454 6.3828 7.0139zm169.96 46.497 37.534-25.527-0.0738-0.4721c-0.0406-0.25964-0.39629-3.2827-0.79042-6.7179-0.46833-4.0818-0.77336-6.2342-0.88036-6.2122-0.17898 0.0368-74.935 50.829-75.265 51.137-0.16842 0.15775-0.16959 0.33846-0.007 1.073 0.6341 2.8646-0.11811 6.7309-1.8279 9.3953-0.55151 0.85945-0.55202 0.84803 0.0432 0.97323 0.66308 0.13949 2.8084 1.1544 3.2734 1.5486 0.20694 0.17543 0.39492 0.32122 0.41772 0.32397 0.0228 0.003 16.932-11.482 37.576-25.522zm37.833 23.652c4.3968-1.012 9.8903-1.7072 15.637-1.9788l2.1406-0.10116 0.87926-1.3712c5.0282-7.8416 36.027-54.546 45.261-68.194 14.619-21.605 25.192-36.757 31.459-45.083l1.5349-2.0392-1.4279-1.5729c-17.71-19.509-43.525-63.891-73.354-126.11-2.5526-5.3248-3.1983-6.5563-3.4591-6.5974-0.28999-0.0457-1.5696 0.0768-6.278 0.60133l-1.555 0.17321-0.96573 1.143c-6.2664 7.4168-2.4489 18.31 7.5955 21.673 2.0725 0.69398 2.0371 0.59107 0.56826 1.6514-7.4091 5.3487-2.4833 18.966 7.1197 19.682 1.99 0.14835 1.947 0.0531 0.80537 1.7832-8.2045 12.434-1.8013 23.977 14.376 25.915 1.1307 0.13549 2.0815 0.26634 2.1129 0.29075 0.0314 0.0244-0.51041 0.64901-1.204 1.388-8.3223 8.8669 1.7352 25.09 15.595 25.156l1.0535 0.005-1.2793 1.153c-12.953 11.675-9.024 24.653 7.4645 24.653h3.4762l0.1855 1.1042c0.10204 0.60731 0.16317 1.1247 0.13587 1.1498s-0.79462 0.2931-1.7052 0.59558c-13.08 4.3452-13.608 11.301-1.4738 19.389l1.8373 1.2247-0.46903 0.83499c-0.70254 1.2507-0.64015 1.211-1.9071 1.2134-3.4215 0.007-8.7628 2.3232-11.445 4.9637-3.6521 3.5958-3.5238 7.4741 0.41832 12.643l0.74611 0.97826-2.1312 0.0995c-7.0275 0.32805-11.721 2.2984-14.848 6.2325-4.6477 5.8486-5.2976 14.175-1.4556 18.647 1.3777 1.6038 1.4697 1.4731-0.89202 1.268-11.128-0.96638-14.279 5.2232-8.1108 15.931 0.3443 0.59772 0.47006 0.94034 0.34498 0.93982-0.10826 0-1.145-0.14264-2.3039-0.31597-9.6374-1.4415-16.355 3.0699-16.384 11.002-0.0147 4.1268 1.0086 6.4421 5.4364 12.3l0.36678 0.48522-1.0308-0.35979c-0.56692-0.19788-1.5812-0.56486-2.2539-0.81552-11.542-4.3007-21.09 7.9663-13.601 17.475 1.0483 1.3311 0.86896 1.2832 2.9835 0.7965zm-64.866-25.014c7.7542-5.2703 14.81-10.069 15.679-10.664 0.86914-0.59487 11.671-7.9393 24.005-16.321s22.507-15.317 22.607-15.411c0.16953-0.1594-0.11373-3.9155-0.31007-4.1119-0.0424-0.0424-77.925 52.81-78.781 53.462-0.025 0.0191 0.3051 0.39799 0.7337 0.84199 0.4286 0.44401 0.95112 1.0643 1.1612 1.3784 0.49017 0.73305-1.2228 1.7874 14.905-9.1742zm20.448-23.459c22.5-15.293 40.952-27.847 41.005-27.897 0.0532-0.05-0.0318-1.4115-0.18893-3.0257-0.47796-4.9103-1.1564-13.106-1.4141-17.082-0.13412-2.0694-0.27644-3.9828-0.31628-4.252l-0.0724-0.48942-39.157 0.0379-39.157 0.0379-0.39776 1.4427c-3.6594 13.273-12.637 24.588-23.575 29.712-0.0184 0.009 1.7256 6.1322 3.8754 13.608 2.1499 7.4758 3.9088 13.62 3.9088 13.654 0 0.0336 0.51439 0.29554 1.1431 0.58204 7.1884 3.2758 9.9434 11.548 6.3791 19.154-0.32954 0.70319-0.5993 1.32-0.59948 1.3706 0 0.0506 0.64639 0.0704 1.4368 0.0439 1.6979-0.0569 3.0923 0.1362 4.6084 0.63805 0.60718 0.201 1.2183 0.34417 1.358 0.31816 0.13973-0.026 18.663-12.56 41.162-27.853zm-22.34 5.8896c-2.6802-0.87345-4.4445-3.7155-3.9583-6.376 1.1666-6.383 10.058-6.4475 11.299-0.0819 0.78601 4.0321-3.4229 7.7348-7.3408 6.4579zm3.0555-2.4807c0.8395-0.38131 1.6582-1.3797 1.8761-2.2879 0.74346-3.0991-3.1644-5.3676-5.4727-3.1769-2.6873 2.5505 0.23546 6.9915 3.5966 5.4648zm-3.4109-18.274c-5.1048-2.143-4.799-9.2872 0.46449-10.85 4.7898-1.4224 8.9492 3.6547 6.6755 8.1484-1.2552 2.4809-4.6271 3.7568-7.14 2.7019zm3.4564-2.3509c2.105-1.0739 2.5585-3.6185 0.94184-5.2848-2.3298-2.4014-6.2775-0.27339-5.5744 3.0049 0.42434 1.9786 2.8669 3.1807 4.6326 2.2799zm20.774 2.3509c-5.1048-2.143-4.799-9.2872 0.46449-10.85 4.6787-1.3894 8.8507 3.5139 6.765 7.951-1.2341 2.6255-4.6339 3.9889-7.2295 2.8993zm3.4564-2.3509c2.105-1.0739 2.5585-3.6185 0.94184-5.2848-2.9312-3.0213-7.6003 1.1857-4.8639 4.3826 0.98121 1.1463 2.6784 1.5368 3.9221 0.90227zm-26.583-17.936c-4.5454-0.76503-6.3523-6.4352-3.0901-9.6974 4.383-4.383 11.537 0.36835 9.3513 6.2105-0.57153 1.5276-2.5425 3.1686-4.113 3.4245-1.1604 0.18908-1.3607 0.19489-2.1482 0.0623zm2.8497-2.9175c2.3185-1.5343 1.62-5.2995-1.1045-5.9531-2.5012-0.60002-4.6909 1.6669-3.9755 4.1156 0.63631 2.1781 3.1767 3.097 5.08 1.8374zm21.381 2.9175c-3.0476-0.51294-5.2532-3.599-4.7036-6.5815 1.1362-6.1661 9.6663-6.4224 11.225-0.33732 0.75627 2.952-1.4281 6.3766-4.3735 6.8565-1.1604 0.18908-1.3607 0.19489-2.1482 0.0623zm2.8925-2.9589c1.6241-1.1341 1.8117-3.7796 0.36149-5.0974-1.6307-1.4819-4.2788-1.0533-5.2389 0.84777-1.5721 3.1131 2.0213 6.244 4.8774 4.2497zm21.322 2.9566c-3.0428-0.51066-5.2578-3.6312-4.6877-6.6043 1.209-6.3053 10.087-6.3053 11.296 0 0.54968 2.8666-1.637 6.0869-4.4438 6.5443-1.1617 0.1893-1.3611 0.19483-2.1642 0.06zm2.9084-2.9566c1.6241-1.1341 1.8117-3.7796 0.36149-5.0974-1.6307-1.4819-4.2788-1.0533-5.2389 0.84777-1.5746 3.118 2.0168 6.2472 4.8774 4.2497zm22.501 65.019c-0.004-0.0621-0.20389-0.48537-0.44441-0.94064l-0.43729-0.82776-0.005 0.52676c-0.009 0.9804 0.14114 1.2381 0.78098 1.3371 0.0621 0.01 0.10969-0.0333 0.10577-0.0954zm-1.7215-12.074c0.34-1.5888 1.6239-3.8714 3.0635-5.4465l0.75336-0.82431-0.88838-7.3992c-2.6337-21.936-4.1833-37.566-5.199-52.441l-0.10019-1.4674h-2.365c-2.8212 0-2.5216-0.24004-2.3842 1.91 0.82716 12.939 2.014 24.904 5.3821 54.263 0.7477 6.5174 1.3615 11.969 1.364 12.115 0.007 0.38734 0.22979-0.0359 0.37389-0.70933zm8.9997-9.104c1.5692-0.52674 3.6565-0.83113 5.7043-0.83184h1.763l-0.28574-0.66662c-2.1679-5.0575-1.8134-9.6009 0.9802-12.562l0.98156-1.0405-0.82705-7.5016c-6.3586-57.674-5.1749-77.506 5.1145-85.694 0.53366-0.42464 0.9703-0.87702 0.9703-1.0053 0-0.25581-3.0021-11.973-3.0904-12.062-0.19439-0.19556-4.7499 2.9108-6.7019 4.57-3.8915 3.3077-7.5396 8.9413-9.0882 14.034l-0.10297 0.33863 1.929 0.004c8.5275 0.0163 11.476 10.554 3.9892 14.257l-1.1401 0.56381-3.7238 0.0471-3.7238 0.0471-0.0887 0.78068c-0.18297 1.6095-0.37924 6.7656-0.38062 9.9989l-0.002 3.3487h2.4699c4.9972 0 7.7477 2.1041 8.3548 6.3912 0.69798 4.9286-2.727 8.502-8.1532 8.5067l-2.0693 0.001v0.41388c0.006 4.5667 2.6407 31.403 5.0352 51.283 0.45862 3.8077 0.83385 6.9739 0.83385 7.036 0.00002 0.15884 0.0189 0.15492 1.2511-0.2587zm-120.33-1.0206c-0.0372-0.10347-0.29505-0.9839-0.57307-1.9565-0.57592-2.0148-0.61596-2.0589-0.88829-0.97826-0.10952 0.43457-0.39323 1.2829-0.63046 1.8852-0.23724 0.60228-0.43133 1.1272-0.43133 1.1664s0.58291 0.0713 1.2954 0.0713c0.972 0 1.2785-0.047 1.2278-0.18813zm-29.105-1.3545c-0.0614-0.10347-0.70947-1.0848-1.4402-2.1807l-1.3287-1.9926-2.0678-1.3819c-22.898-15.32-43.074-34.02-58.045-53.8-1.0649-1.4072-2.0198-2.6505-2.122-2.7628-0.18754-0.20609-3.8301 0.49561-3.8301 0.73783 0 0.0524 0.55393 0.90197 1.231 1.8879 13.689 19.935 36.122 40.042 63.995 57.36 1.6644 1.0341 3.1617 1.9713 3.3273 2.0826 0.38251 0.25717 0.41949 0.26112 0.28244 0.03zm13.761-52.005c-6.2339-21.688-11.351-39.417-11.372-39.398-0.0205 0.0191-0.17444 0.57108-0.34208 1.2266-0.52717 2.0614-1.711 4.1734-3.0675 5.473-0.29777 0.28526-0.54141 0.59675-0.54141 0.69222 0 0.20659 13.648 47.742 13.81 48.099 0.0614 0.13535 0.51792 0.70189 1.0146 1.259 4.235 4.7505 6.0143 10.848 4.9709 17.034-0.36718 2.177-0.21799 2.9074 0.59388 2.9074 1.4059 0 4.0292 0.83844 5.4219 1.7329 0.41388 0.26582 0.77353 0.46594 0.79922 0.44472 0.0257-0.0212-5.0537-17.783-11.288-39.471zm150.54 37.298c0.61737-0.0801 1.2483-0.14774 1.402-0.1503 0.20771-0.003 0.25084-0.0723 0.16796-0.26803-1.1649-2.7512-1.2674-7.4977-0.24485-11.344l0.40789-1.5344-0.41102-4.077c-3.691-36.611-3.5447-57.001 0.45885-63.971l0.42927-0.74737-0.6801-2.6389c-0.37404-1.4514-0.70937-2.6728-0.74516-2.7142-0.1473-0.17035-2.1539 2.1457-2.877 3.3206-5.4621 8.8757-5.5076 30.556-0.1653 78.901 0.32761 2.9647 0.59566 5.4244 0.59566 5.4658 0 0.0415 0.12133 0.0369 0.26963-0.0102 0.14831-0.0471 0.77477-0.15114 1.3922-0.23125zm-181.3-10.73c-12.935-19.13-27.209-39.66-29.385-42.27l-0.42214-0.50566-3.3015 1.2156c-1.8158 0.66856-4.5144 1.5929-5.9967 2.0542-1.4824 0.46123-2.7151 0.85851-2.7395 0.88288-0.05152 0.0515 0.508 0.77469 3.694 4.7744 11.185 14.042 25.349 27.771 40.796 39.543 2.7567 2.1008 3.046 2.7233-2.6492-5.6999zm45.091-5.221c8.5892-5.4816 14.428-13.203 17.467-23.102 0.326-1.0616 0.59273-2.0267 0.59273-2.1446 0-0.17696-0.43141-0.21452-2.4638-0.21452h-2.4638l-0.78217 2.2952c-2.7202 7.982-7.4128 14.113-14.208 18.562-0.92352 0.60473-1.7966 1.1878-1.9403 1.2958-0.24481 0.18401-0.22818 0.30905 0.26633 2.0023 0.29009 0.99331 0.59676 2.0611 0.68148 2.3729l0.15404 0.56693 0.7084-0.40884c0.38962-0.22487 1.2841-0.77623 1.9877-1.2253zm144.79-6.3785c1.9037-1.3557 5.4943-2.8991 7.484-3.217 0.49516-0.0791 0.62751-0.15891 0.57423-0.34632-0.0381-0.13394-2.8577-11.114-6.2657-24.399-3.4081-13.286-6.2459-24.246-6.3062-24.356-0.10657-0.19478-0.4663 2.1173-0.7571 4.866-0.76604 7.2409-0.52065 19.923 0.67708 34.992 0.37184 4.6779 1.2902 14.812 1.362 15.03 0.0443 0.13452 0.44625-0.15416 1.1642-0.83611 0.60306-0.57286 1.5334-1.3527 2.0675-1.7331zm-145.99-3.9628c4.3351-3.6052 7.5467-8.3388 9.4672-13.953l0.60484-1.7683-0.63346-0.32316c-5.7908-2.9542-4.2852-12.649 2.1545-13.873l0.89026-0.16919 0.0809-0.60598c0.15765-1.1809 0.37701-7.274 0.37797-10.499l0.001-3.2714-0.5576-0.23297c-5.2674-2.2009-5.6897-10.487-0.68403-13.421 0.76436-0.44807 0.73256 0.0612 0.3381-5.4156-0.99702-13.843-3.961-41.937-6.2645-59.38l-0.094-0.71177-0.77116 0.69792c-1.3833 1.2519-4.3877 2.9079-5.2757 2.9079-0.33974 0-0.30013 0.18161 0.29924 1.3718 3.5365 7.0226 2.5822 15.241-2.3589 20.314l-0.93979 0.96487 0.25117 2.4833c0.13815 1.3658 0.45171 4.3457 0.69681 6.6221 1.2921 12 2.2154 23.014 2.9018 34.615 1.348 22.782-0.94412 36.866-7.0176 43.119l-1.1027 1.1353 1.718 5.9789c0.94489 3.2884 1.7485 6.0688 1.7859 6.1788 0.0795 0.23421 2.3655-1.295 4.1318-2.7639zm-20.529 1.4729c-0.0444-0.14486-2.6597-9.237-5.8118-20.205-3.152-10.968-5.8622-20.386-6.0225-20.928l-0.29144-0.98687-1.3192 0.43146c-0.72553 0.23729-2.0472 0.54504-2.937 0.68385-1.8032 0.2813-1.8539 0.31471-1.0535 0.69357 9.2154 4.3619 8.6575 13.639-1.204 20.024-0.5529 0.35792-0.52204 0.47834 0.1505 0.58718 9.8898 1.6005 15.996 10.231 12.352 17.458-0.53679 1.0645-0.63474 0.96138 1.1712 1.2325 1.5419 0.23145 4.1146 0.86356 4.5507 1.1181 0.37495 0.21884 0.50523 0.18489 0.41536-0.10827zm-94.445-10.07c3.3282-1.4596 4.0667-6.0958 1.3591-8.5327-0.46497-0.4185-6.815 0.0629-7.3609 0.55803-3.85 3.492 1.1312 10.111 6.0017 7.9747zm271.84-2.5073c0.52863-0.76757 2.1045-2.367 3.285-3.3341l0.55114-0.4515-10.809-39.173c-5.9449-21.545-10.848-39.323-10.895-39.507-0.0629-0.24318-0.44124-0.4956-1.392-0.92853-0.71811-0.32703-1.7514-0.88143-2.2963-1.232-0.54489-0.35058-1.0168-0.61135-1.0486-0.57949-0.0444 0.0444 21.982 86.008 22.038 86.009 0.007 0 0.262-0.3617 0.56682-0.80428zm-164.82-4.37c2.201-3.2411 3.5174-8.0969 4.2092-15.526 0.26476-2.8434 0.26481-17.601 0.00008-22.274-0.45773-8.0796-1.2196-17.739-2.1425-27.166-0.53496-5.4637-1.3187-12.946-1.4374-13.723l-0.0846-0.55379-1.1645 0.49845c-0.6405 0.27414-1.6682 0.65598-2.2837 0.84851-0.61554 0.19254-1.138 0.36047-1.1611 0.37319-0.0231 0.0126 0.19613 2.2505 0.48709 4.9728 3.8216 35.755 4.2214 56.743 1.2622 66.247l-0.48206 1.5483 0.56273 1.9885c1.3119 4.6359 1.1232 4.4023 2.2347 2.7655zm175.96-2.5787 1.3338-0.33952-0.58126-0.43143c-1.3414-0.99567-3.2263-2.6662-4.3616-3.8655l-1.2147-1.2833 0.73322 2.6567c0.40327 1.4612 0.83299 3.0058 0.95491 3.4324l0.22167 0.77567 0.79014-0.30277c0.43457-0.16651 1.3903-0.45553 2.1239-0.64226zm-48.433-1.1506c3.4322-0.86424 3.203-6.3362-0.28609-6.8294-0.34336-0.0485-24.667-0.0686-54.052-0.0446l-53.428 0.0437-0.72656 0.42707c-2.5195 1.4809-2.1352 5.4857 0.60729 6.3286 0.93835 0.28841 106.75 0.36156 107.89 0.0746zm-132.34-13.368c0.25035-2.983 0.24638-15.063-0.006-19.725-0.41318-7.6184-1.7104-24.415-2.0226-26.187-0.0219-0.12416-0.39277 0.44284-0.82423 1.26-1.6394 3.1048-4.7317 6.6098-7.4476 8.4413-0.72429 0.48844-1.3169 0.94384-1.3169 1.012 0 0.0981 9.9875 34.938 10.951 38.2l0.24443 0.82775 0.11316-0.74311c0.0622-0.4087 0.20161-1.7971 0.30972-3.0853zm34.493 1.6838c0.052-0.47597 0.1376-3.6591 0.19026-7.0736l0.0957-6.2082h-2.4059-2.4059l-0.0978 5.5309c-0.0538 3.042-0.14186 6.2251-0.19566 7.0736l-0.0978 1.5426h2.4113 2.4113l0.0945-0.86538zm79.791-3.7249c0.0406-2.4833 0.1395-5.5961 0.21968-6.9173 0.0802-1.3213 0.0923-2.4558 0.0269-2.5212s-17.081-0.10187-37.812-0.081l-37.693 0.0379-0.0927 6.0953c-0.051 3.3524-0.14439 6.5187-0.2076 7.0363l-0.11492 0.94092 37.8-0.0379 37.8-0.0379 0.0739-4.515zm9.1519-1.0159c0.0545-3.0834 0.1418-6.2683 0.19392-7.0775l0.0947-1.4713-2.3906 0.0415-2.3906 0.0415-0.11766 0.90301c-0.14794 1.1356-0.35056 9.2149-0.28779 11.476l0.047 1.6931h2.3759 2.3759l0.0992-5.6062zm-252.39 1.43c0.60751-4.1502 0.20127-3.6331 2.6489-3.3715 23.327 2.493 54.603-4.9008 76.754-18.145 4.4551-2.6638 4.0409-2.2804 6.4081-5.932 2.234-3.4461 6.6876-10.588 6.6876-10.724 0-0.0456-0.60053 0.35155-1.3345 0.8826-22.278 16.119-50.959 25.098-80.066 25.068-4.5979-0.005-6.6285-0.0807-10.18-0.38057l-1.204-0.10166-0.69206 4.7212c-0.38064 2.5967-0.67191 4.746-0.64727 4.7763 0.024637 0.0303 0.26741 0.10061 0.5395 0.15625l0.49471 0.10118-0.026003 3.4558c-0.014302 1.9007 0.00306 3.3542 0.038589 3.23 0.035526-0.12417 0.29582-1.8054 0.57843-3.736zm303.38 0.9033c0.92569-1.9328 3.0014-3.9134 5.6593-5.3997l0.99683-0.55745-1.3242-0.19117c-3.45-0.49806-6.8006-1.8623-8.5568-3.4842-0.22676-0.20942-0.44172-0.35133-0.47769-0.31538-0.0867 0.0867 2.9568 11.128 3.0642 11.116 0.0458-0.005 0.33309-0.53065 0.63838-1.1681zm41.862-7.6862c4.5814-1.6706 9.6174-3.2363 14.528-4.5169 1.2725-0.33183 2.3393-0.62892 2.3706-0.6602 0.0313-0.0313-0.67991-0.97704-1.5804-2.1017-12.598-15.733-28.437-30.675-45.771-43.178-2.5538-1.842-7.7467-5.4206-8.2491-5.6846l-0.34775-0.18278 0.25057 0.48457c0.37988 0.73458 4.0913 7.3324 6.1307 10.899 8.9923 15.724 17.457 29.04 24.539 38.604 2.0967 2.8313 5.5202 7.2241 5.6301 7.2241 0.0369 0 1.1615-0.39907 2.4992-0.88683zm25.975-7.1095c0.78069-0.15716 1.4436-0.30988 1.4731-0.33941 0.0634-0.0634-2.9934-4.2437-4.5246-6.1877-15.558-19.752-38.716-38.971-66.533-55.214-3.5138-2.0519-3.3257-2.0477-2.2685-0.0502l0.84077 1.5886 2.7394 1.6897c25.061 15.457 48.417 36.234 64.682 57.538 1.2616 1.6525 0.82109 1.5329 3.5911 0.97531zm-107.39-0.16426c2.5795-0.76604 3.1359-4.7171 0.87452-6.2099-1.0708-0.70682 0.62435-0.6871-55.414-0.64475l-53.353 0.0403-0.6207 0.33204c-2.6571 1.4213-2.4398 5.4542 0.34736 6.4482 0.80625 0.28755 107.2 0.32107 108.17 0.0341zm-264.93-0.08c-0.000602-0.1843 0.6149-4.3134 0.66776-4.4797 0.032471-0.10216 0.66582-0.0904 1.9105 0.0357 32.079 3.2477 72.898-9.383 97.013-30.019 0.46667-0.39934 6.2859-10.4 6.1378-10.548-0.0359-0.0359-0.79595 0.60625-1.689 1.427-23.998 22.056-57.047 34.551-91.473 34.584-3.901 0.004-6.8677-0.0673-8.4281-0.20179-1.3244-0.11416-2.6105-0.2154-2.8579-0.22499l-0.44987-0.0174-0.62852 4.2893c-0.34569 2.3591-0.66386 4.5094-0.70705 4.7784-0.065915 0.41054-0.031687 0.48913 0.21301 0.48913 0.16035 0 0.29138-0.0508 0.29118-0.11288zm397.25-2.6c4.5747-0.19189 4.2286-0.12551 4.4296-0.84943 1.3586-4.8924-4.4984-8.5583-8.3737-5.2412-1.4837 1.27-2.0958 3.6967-1.3986 5.5446l0.33055 0.8761 0.54955-0.083c0.30226-0.0456 2.3104-0.15684 4.4626-0.24711zm-98.637-8.7179c0.78077-1.6661 1.7806-3.2603 2.9317-4.6745l0.92452-1.1358-1.4108-0.48266c-2.5626-0.8767-5.0759-2.302-7.0333-3.9884-0.58878-0.5073-0.85533-0.66483-0.79829-0.47176 0.0471 0.15941 0.93865 3.4052 1.9812 7.2129s1.9327 7.0247 1.978 7.1488c0.0453 0.12416 0.24962-0.34834 0.45407-1.05 0.20442-0.70167 0.64219-1.853 0.97281-2.5585zm-134.41 0.007c0-3.0522-1.6616-21.605-3.1685-35.378-0.63718-5.8239-5.5424-48.717-5.6498-49.405l-0.0886-0.56696-0.70122 0.57873c-0.98681 0.81441-1.926 1.4339-3.0065 1.9829-1.0887 0.55324-1.0512 0.44967-0.46964 1.2949 2.0271 2.9463 2.4698 7.1281 1.1729 11.079-0.29107 0.88662-0.29098 0.9045 0.0151 3.0269 2.0702 14.355 5.7097 48.418 6.7005 62.712 0.1291 1.8625 0.27274 3.8096 0.31922 4.3269l0.0845 0.94064h2.396 2.396v-0.59187zm83.293-1.4023c3.6737-12.998 11.242-22.382 23.381-28.988 2.0652-1.1239 1.828-1.1362 2.4387 0.12635 0.27959 0.57796 0.53204 1.0271 0.56098 0.99819 0.0289-0.029-2.1189-8.4989-4.7729-18.822s-4.85-18.95-4.8799-19.171c-0.0299-0.22097-0.26458-0.85661-0.52158-1.4125-2.0364-4.405-1.802-9.7889 0.56121-12.892 0.53013-0.69603 0.50373-0.81635-0.22176-1.0103-0.3019-0.0807-5.943 3.7165-43.626 29.366-1.2416 0.84513-13.635 9.2714-27.542 18.725-13.906 9.4537-25.379 17.28-25.495 17.392-0.18018 0.17453-0.15304 0.89309 0.18846 4.9922 0.21942 2.6336 0.50727 6.4815 0.63966 8.5509 0.13241 2.0694 0.26558 3.8472 0.29595 3.9507 0.044 0.14988 8.0224 0.18813 39.242 0.18813h39.187l0.5636-1.9942zm-57.989-4.0376c-4.3237-0.84972-6.02-6.3278-2.9693-9.5892 2.1454-2.2936 5.9124-2.3438 8.1476-0.10857 3.9874 3.9874 0.35728 10.786-5.1783 9.6977zm2.7087-2.7073c1.3828-0.70548 2.1046-2.4564 1.6152-3.9182-0.7619-2.2756-3.5491-3.0809-5.273-1.5235-2.9493 2.6645 0.12798 7.2425 3.6578 5.4418zm21.522 2.7073c-3.5729-0.70217-5.5902-4.8435-3.9669-8.1436 2.1405-4.3515 8.2293-4.2639 10.316 0.14848 1.9707 4.1663-1.7828 8.8926-6.3495 7.9951zm2.7087-2.7073c1.3828-0.70548 2.1046-2.4564 1.6152-3.9182-0.7619-2.2756-3.5491-3.0809-5.273-1.5235-2.9493 2.6645 0.12798 7.2425 3.6578 5.4418zm21.522 2.7073c-4.3113-0.84728-6.0112-6.3371-2.9693-9.5892 2.1454-2.2936 5.9124-2.3438 8.1476-0.10857 3.9894 3.9894 0.36013 10.786-5.1783 9.6977zm2.7087-2.7073c2.3248-1.1861 2.3228-4.6646-0.003-5.8514-2.2568-1.1514-4.8321 0.40835-4.8321 2.9266 0 2.5089 2.5855 4.0727 4.8356 2.9248zm-27.226-17.973c-5.007-1.4084-5.8082-8.1647-1.2559-10.591 4.8721-2.5968 10.249 2.5899 7.8065 7.5309-1.228 2.4848-3.9971 3.7783-6.5506 3.0601zm2.4312-2.3682c1.8921-0.56189 2.8458-2.8482 1.9364-4.6418-1.5692-3.0945-6.2082-2.0037-6.2082 1.4597 0 2.2982 2.066 3.8371 4.2718 3.1821zm21.8 2.3682c-5.007-1.4084-5.8082-8.1647-1.2559-10.591 4.8675-2.5944 10.191 2.5516 7.8315 7.5707-1.1079 2.357-4.0801 3.7222-6.5755 3.0203zm2.4302-2.3696c0.83378-0.24982 1.9717-1.3683 2.1849-2.1475 0.92778-3.3914-3.1849-5.8132-5.5824-3.2872-2.321 2.4455 0.15493 6.4062 3.3974 5.4347zm-2.3525-18.189c-4.159-0.98019-5.7299-6.2458-2.8344-9.5008 2.4254-2.7266 7.2578-2.1783 9.1422 1.0372 2.5188 4.2981-1.4406 9.6107-6.3078 8.4636zm2.371-2.413c0.37237-0.1031 0.86821-0.43286 1.2999-0.86454 3.0223-3.0223-1.3742-7.5998-4.5466-4.7337-2.585 2.3354-0.14775 6.5379 3.2467 5.5982zm16.941 47.519c3.1823-9.1118 8.4457-15.346 17.11-20.266 0.76568-0.4348 1.3921-0.85801 1.3921-0.94046 0-0.31286-1.091-4.4028-1.2078-4.5276-0.0674-0.072-0.99075 0.35917-2.0535 0.95885-8.7731 4.9505-14.668 11.194-18.368 19.456-0.73636 1.644-2.6013 6.8937-2.6013 7.3226 0 0.11889 0.73332 0.15614 2.4997 0.12698l2.4997-0.0413 0.72962-2.0891zm-235.09-1.82c33.042-2.4086 62.314-14.976 85.257-36.603 4.6062-4.342 4.1076-3.6505 8.1232-11.265l0.8731-1.6555-1.3206 1.4298c-22.474 24.33-52.191 39.328-86.461 43.636-10.198 1.2818-24.017 1.3902-28.66 0.22486-0.3738-0.0938-0.38706-0.0734-0.38706 0.59643 0 0.66103 0.01998 0.69357 0.4259 0.69357h0.4259l-0.18426 1.2416c-0.22701 1.5297-0.41077 1.394 2.192 1.619 5.5899 0.48328 13.746 0.51726 19.716 0.0821zm92.637-0.42187c-0.0343-0.10347-0.20281-0.67402-0.37452-1.2679l-0.3122-1.0798-0.46896 0.13449c-0.67209 0.19276-0.68384 0.24474-0.17755 0.78567 0.25063 0.26778 0.64346 0.74085 0.87296 1.0513 0.43468 0.58795 0.56594 0.69524 0.46027 0.37625zm-114.41-5.4615 0.2672-0.6078 1.2331 0.18143c5.2707 0.77549 16.649 0.62604 25.088-0.32953 35.222-3.9882 67.255-20.617 90.661-47.062 2.6828-3.0311 2.0779-2.0195 7.1749-12.001 10.29-20.151 13.078-26.078 12.218-25.969-0.31041 0.0391-1.5803 0.1096-2.8219 0.15663-38.032 1.4406-89.176 24.083-130.33 57.701-1.1589 0.94655-2.1875 1.783-2.2859 1.8587-0.12185 0.0938-0.35637-0.0589-0.73599-0.47905-0.73112-0.80926-0.638-1.895-0.88473 10.315-0.12028 5.9528-0.25929 12.381-0.30892 14.285-0.098877 3.7935-0.090466 3.816 0.72953 1.9507zm34.904-8.4066c-3.2626-1.0688-4.953-4.7855-3.5446-7.7936 2.4432-5.2182 9.8059-4.2874 10.88 1.3754 0.7534 3.9727-3.4837 7.68-7.3352 6.4182zm2.9391-2.4317c3.321-1.3872 2.3163-6.4016-1.2793-6.385-1.4725 0.007-2.8579 1.1165-3.2062 2.5685-0.60984 2.5421 2.0726 4.8244 4.4854 3.8165zm24.412-12.27c-14.619-1.8195-20.555-19.648-9.9363-29.84 9.3683-8.9919 25.096-4.7425 28.658 7.7428 3.387 11.873-6.5584 23.611-18.722 22.098zm5.1168-5.1286c7.5984-1.9183 11.566-10.294 8.2568-17.43-4.1134-8.8701-16.337-9.8089-21.78-1.6726-6.3508 9.4945 2.4327 21.902 13.523 19.102zm-39.582 0.48873c-6.3949-2.1256-5.1153-11.21 1.5803-11.22 5.9936-0.009 7.8204 8.1857 2.4145 10.831-0.9456 0.46265-3.1328 0.67577-3.9948 0.38925zm2.9361-2.5546c2.4809-1.127 2.5311-4.6864 0.08367-5.9275-1.3056-0.66207-2.5894-0.5-3.6559 0.46151-2.8307 2.5521 0.1035 7.0418 3.5723 5.466zm64.944-8.3887c-4.2243-1.1352-5.6369-6.4809-2.5329-9.585 2.7576-2.7576 7.511-1.897 9.1986 1.6653 2.0657 4.3607-1.9878 9.1767-6.6657 7.9197zm2.961-2.5195c2.9597-1.5305 2.1311-6.0022-1.1563-6.24-2.7172-0.19654-4.4326 2.3332-3.2252 4.7562 0.79226 1.5898 2.8372 2.2824 4.3814 1.4838zm-11.317-16.79c-6.5066-1.7548-5.3611-11.229 1.3577-11.229 6.1851 0 7.9651 8.1992 2.3561 10.853-0.90091 0.42621-2.8117 0.62005-3.7138 0.37678zm2.7174-2.5585c2.0209-0.91792 2.5965-3.5615 1.1298-5.1885-2.0743-2.3009-5.794-0.89914-5.7677 2.1736 0.02039 2.3863 2.4889 3.991 4.6379 3.0149zm99.134 32.616c12.437-8.4572 23.465-15.958 24.505-16.668 1.0406-0.71023 11.853-8.0639 24.028-16.342l22.136-15.05-0.77951-0.82776c-0.42874-0.45527-0.9622-1.0648-1.1855-1.3545-0.37722-0.48944-0.43022-0.51201-0.74831-0.31857-0.30335 0.18445-76.832 52.194-78.528 53.368-0.37249 0.25791-3.3018 2.2501-6.5096 4.4271s-5.8681 4.0159-5.9117 4.0864c-0.0764 0.12358 0.25103 4.0556 0.3377 4.0556 0.0234 0 10.219-6.9195 22.656-15.377zm226.13-42.867c-0.0773-9.5606-0.18537-17.784-0.24026-18.274l-0.0998-0.89114-3.0853-1.7255c-27.182-15.203-59.31-24.726-91.731-27.19-6.3119-0.47986-8.0339-0.55219-15.14-0.63587l-7.3141-0.0861-0.09 3.1432c-0.27557 9.6288-3.2722 14.815-9.2868 16.073-1.4155 0.2961-11.162 1.457-16.179 1.9271-0.28221 0.0264-0.45151 0.12697-0.45151 0.26806 0 0.24284-0.17076 0.23018 8.1271 0.60223 59.876 2.6847 109.78 32.794 134.73 81.289l0.72599 1.4112 0.0897-19.264c0.0494-10.595 0.0265-27.087-0.0507-36.647zm-244.75 46.028c9.4253-6.3968 82.075-55.797 83.319-56.655l1.5968-1.1014-0.34606-1.1948c-1.1861-4.0952-0.49464-8.9789 1.7447-12.322l0.32663-0.48759-0.36462-0.13863c-0.51447-0.19561-2.1008 0.022-2.6162 0.35885-1.1587 0.75733-89.849 61.08-89.968 61.191-0.11632 0.10934 1.1637 12.896 1.3522 13.507 0.0402 0.13029 0.53039-0.12769 1.4542-0.76529 0.76651-0.529 2.3418-1.6053 3.5007-2.3918zm117.01 1.8417c0.221-0.41293 0.20003-0.46139-0.19958-0.46139-0.29793 0-0.34376 0.0608-0.28347 0.37625 0.0861 0.45041 0.2702 0.48287 0.48305 0.0851zm-284.77-7.51c41.056-33.73 92.319-55.99 132.92-57.71l0.82776-0.0351-1.5803-0.58226c-0.86914-0.32025-2.6527-1.0587-3.9634-1.641l-2.3831-1.0588-1.6804 0.18076c-40.139 4.3175-89.364 26.597-124.13 56.182l-2.051 1.7452-0.39468-0.39467-0.39468-0.39468v0.88276c0 0.8207-0.042321 0.92867-0.60201 1.5358-0.73019 0.79217-0.72945 0.77826-0.075251 1.4123 0.48454 0.46964 0.52676 0.58155 0.52676 1.3966v0.88604l0.36138-0.27593c0.19876-0.15177 1.3792-1.1121 2.6233-2.1341zm204.66-39.2c20.959-14.25 38.086-25.931 38.058-25.959-0.0273-0.0273-1.7253 0.12583-3.7734 0.34027l-3.7237 0.3899-37.42 25.443c-20.581 13.994-37.447 25.469-37.48 25.5-0.0608 0.0575 0.23649 2.9573 0.38037 3.7098 0.0784 0.41004 0.0907 0.40362 2.9644-1.5518 1.5871-1.0799 20.034-13.623 40.994-27.872zm-203.5 25.77c36.521-29.15 82.234-49.02 123.11-53.5 2.1937-0.2405 2.2708-0.26095 2.7268-0.72296 0.67054-0.67931 19.472-21.3 19.472-21.357 0-0.37777-15.852 1.8198-24.231 3.3591-54.62 10.034-96.988 28.189-120.42 51.599l-3.5517 3.5488-0.097996 2.3191c-0.23459 5.5515-0.11949 17.204 0.16784 16.991 0.14621-0.10816 1.4161-1.1148 2.8219-2.2371zm268.18-5.69c0.2996-0.77794 0.52558-1.4336 0.50218-1.457-0.26439-0.2644-2.0688-0.74615-2.0058-0.53553 0.0406 0.13554 0.25483 0.97683 0.47616 1.8695 0.22131 0.8927 0.42047 1.6038 0.44256 1.5803 0.0221-0.0236 0.28531-0.67933 0.58491-1.4573zm-76.003-21.913c18.013-12.251 32.654-22.295 32.534-22.321-0.2086-0.0447-6.0387 0.59093-8.0654 0.87931-3.9965 0.56865-8.4637 0.2711-12.492-0.83202l-0.97827-0.26791-2.1551 1.0804c-2.8017 1.4046-6.74 3.0859-9.6676 4.1271-1.2838 0.45656-2.6028 0.93093-2.9313 1.0541-0.95801 0.35939-5.867 1.7136-7.6708 2.1161-7.1885 1.6041-11.241 2.0594-19.108 2.1467l-5.8636 0.0651-0.39593 1.0846c-0.21774 0.59653-0.5102 1.3051-0.64988 1.5746-0.24631 0.47529-0.20862 0.84019 1.251 12.115 0.82774 6.3939 1.7096 13.285 1.9598 15.313 0.25013 2.028 0.493 3.9116 0.5397 4.1858l0.0849 0.49849 0.42806-0.27274c0.23541-0.14999 15.166-10.296 33.18-22.547zm-165.53-15.33c7.6607-4.351 16.573-8.6194 26.143-12.52 1.7183-0.70047 1.8022-0.75611 2.4746-1.641 2.0506-2.6985 5.5949-6.3459 8.4218-8.6668l1.3748-1.1288-0.55334-0.99036c-6.5147-11.66-7.6259-13.531-7.9857-13.449-1.1638 0.26643-10.409 4.7191-15.143 7.293-14.837 8.0677-22.438 15.163-21.241 19.828 0.42749 1.6665 4.3544 12.376 4.5379 12.376 0.01774 0 0.9049-0.49563 1.9715-1.1014zm138.68-6.87c2.2934-4.2577 4.2914-7.8302 4.4402-7.939 0.72963-0.53352 1.8684 0.0525 1.8684 0.96155 0 0.2014-1.6926 3.5039-3.7613 7.3388-2.0687 3.835-3.8068 7.0911-3.8623 7.2358-0.094 0.24504 0.0226 0.25584 1.6919 0.1568 2.0855-0.12376 4.4366-0.34879 4.5205-0.43268 0.032-0.032 1.2732-3.3705 2.7581-7.4188 3.1006-8.4532 3.263-8.72 4.5343-7.4488 0.59464 0.59462 0.72964 0.086-1.9852 7.4792-2.9059 7.9134-2.6708 7.1649-2.2224 7.0739 0.19703-0.04 1.5957-0.29175 3.1083-0.55949 2.4569-0.4349 2.7579-0.52022 2.824-0.80047 0.0407-0.17252 0.61465-3.3275 1.2755-7.011 0.66087-3.6835 1.2373-6.8514 1.281-7.0398 0.3201-1.3798 2.3422-1.157 2.3214 0.25581-0.004 0.29598-0.53241 3.4165-1.1734 6.9345-0.64104 3.518-1.1138 6.4181-1.0507 6.4448 0.15588 0.0658 4.6389-1.2027 4.645-1.3143 0.13765-2.5196 2.4228-15.924 2.7648-16.218 0.64198-0.55221 1.6452-0.27539 1.8419 0.50822 0.0795 0.31658-1.5931 12.496-1.9955 14.532l-0.0822 0.41565 1.4045-0.51173c2.0403-0.74337 3.7937-1.4526 3.9382-1.5928 0.0692-0.0671 0.31405-1.6917 0.54423-3.6103l0.41848-3.4883-0.70568-1.1742c-1.7074-2.8409-2.1835-6.1968-1.3448-9.4797 0.35816-1.4019 0.48824-1.3586-1.7001-0.56531-18.373 6.6604-33.266 3.6494-40.643-8.2172-0.47495-0.76398-0.91517-1.4668-0.97826-1.5618-0.0723-0.10885-4.6644 4.8153-12.418 13.316l-12.303 13.489 0.5643 0.29074c0.84195 0.43378 3.4865 1.597 3.6308 1.597 0.069 0 4.2441-4.3404 9.2779-9.6454s9.3228-9.7102 9.5312-9.7894c0.45349-0.17243 1.1652 0.0758 1.3827 0.48232 0.45727 0.85439 0.64184 0.63231-8.7466 10.524-4.8903 5.1524-8.8353 9.4199-8.7667 9.4834 0.12942 0.11979 4.1925 1.5035 4.4148 1.5035 0.0693 0 3.523-3.6572 7.6749-8.1272 4.6844-5.0433 7.687-8.1619 7.9131-8.2187 0.93315-0.23421 1.8278 0.68193 1.4581 1.4932-0.0892 0.19578-3.3179 3.7514-7.1748 7.9013-3.8569 4.15-7.0126 7.6044-7.0126 7.6767 0 0.19489 5.3567 1.4516 5.7789 1.3558 0.11957-0.0271 2.7392-3.5711 5.8215-7.8754 3.0822-4.3043 5.712-7.9086 5.8438-8.0094 0.6761-0.51705 1.82 0.10979 1.82 0.99736 0 0.35303-1.1667 2.0806-5.3517 7.9244-2.9434 4.1101-5.3264 7.4982-5.2955 7.5291 0.14198 0.14199 4.8412 0.65469 4.9176 0.53651 0.0472-0.0731 2.3885-3.7047 5.2029-8.0703 5.4562-8.4635 5.5344-8.5633 6.4415-8.2184 0.45378 0.17252 0.86504 0.92964 0.74804 1.3771-0.0388 0.14823-2.2257 3.6089-4.8598 7.6903-3.238 5.0172-4.7322 7.4578-4.613 7.5349 0.0969 0.0628 1.3235 0.0973 2.7256 0.0768l2.5493-0.0373 4.1698-7.7412zm33.6-0.91224c1.6706-0.77758 1.6442-0.74117 0.85679-1.1837-0.32856-0.18467-0.94352-0.60937-1.3666-0.94375-0.9209-0.72795-0.88737-0.75086-1.0588 0.72295-0.0754 0.6481-0.17526 1.4042-0.22188 1.6803-0.10349 0.6126-0.12535 0.61597 1.7905-0.2758zm19.966-1.039c4.3644-0.52371 15.708-1.7378 36.647-3.9225 29.439-3.0715 29.025-3.0127 31.119-4.4206 5.6185-3.777 6.0324-13.108 1.6905-38.102-1.5753-9.0679-2.1213-12.467-3.01-18.737-1.62-11.431-4.4355-28.885-6.5181-40.41l-0.70714-3.913-5.0039-0.03965c-4.4954-0.03563-5.0039-0.01527-5.0039 0.20025 0 0.19668 12.75 79.503 13.5 83.97 1.2022 7.1625-0.89272 13.224-4.9644 14.364-1.9798 0.55433-2.4528-1.4107-0.56771-2.3586 2.9502-1.4834 4.0569-5.681 3.1057-11.78-0.13556-0.86915-3.2461-20.205-6.9124-42.968l-6.666-41.388-4.918-0.03968c-3.4828-0.0281-4.918 0.0083-4.918 0.12489 0 0.09051 3.0534 19.105 6.7853 42.255 8.038 49.862 7.2524 44.617 7.1619 47.81-0.157 5.5366-2.232 9.1156-5.6021 9.6625-1.498 0.24307-1.8692-1.9314-0.40461-2.3702 3.3294-0.99751 4.391-5.77 3.0616-13.764-0.24777-1.49-3.3689-20.86-6.9359-43.043-3.567-22.184-6.5146-40.419-6.5503-40.523-0.0502-0.14533-1.1825-0.18813-4.9778-0.18813h-4.9128l0.0895 0.48913c0.10463 0.57173 13.572 84.154 13.865 86.049 1.2159 7.8683-0.98758 13.834-5.3726 14.545-1.7225 0.27953-1.7795-1.722-0.0712-2.4992 2.8376-1.2911 3.9942-5.704 3.0586-11.67-0.12982-0.82776-3.3203-20.657-7.0899-44.066-3.7696-23.408-6.8539-42.626-6.8539-42.705 0-0.08885-1.9082-0.14406-4.9785-0.14406h-4.9785l0.0873 0.41388c0.1419 0.67303 13.938 86.354 14.183 88.081 0.98717 6.972-1.0595 12.595-4.9842 13.694-2.0405 0.5713-2.5911-1.7719-0.55941-2.3806 2.1961-0.65798 3.2698-3.2763 3.2507-7.9271l-0.0117-2.8595-2.5038-15.426c-2.5711-15.841-11.846-73.411-11.846-73.529 0-0.03633-2.2011-0.06606-4.8913-0.06606h-4.8913v0.34522c0 0.18987 3.1542 19.915 7.0094 43.834s7.1153 44.166 7.2447 44.993c1.1731 7.5031-1.4806 14.373-5.5521 14.373-1.5544 0-1.556-1.8109-0.002-2.4961 2.876-1.2684 4.0395-5.5528 3.1435-11.576-0.30647-2.0602-14.23-88.542-14.339-89.059l-0.0868-0.41388h-4.8041c-2.6422 0-4.8041 0.02819-4.8041 0.06264 0 0.14658 12.84 78.794 14.069 86.175 1.2146 7.2945 1.3575 9.0666 0.9039 11.208-1.7681 8.347-15.007 10.135-18.76 2.5333-2.9504-5.9759 5.9508-11.49 9.8217-6.0846 1.5554 2.172-0.18711 3.7451-1.7927 1.6185-1.1807-1.5638-2.5448-1.9432-3.9745-1.1053-4.6434 2.7212-1.0772 8.5758 4.8232 7.9182 7.3773-0.82216 8.6049-3.5342 6.7371-14.884-4.4636-27.124-14.236-87.034-14.236-87.275 0-0.11754-1.2158-0.16644-4.1388-0.16644-2.3077 0-4.1388 0.05907-4.1388 0.13351 0 0.07343 3.1151 18.681 6.9225 41.35s6.9227 41.458 6.9231 41.752c0.002 0.81616-0.2253 0.98138-2.2468 1.6411-18.908 6.1704-15.018 25.665 5.0316 25.217 1.4009-0.0313 4.0132-0.2464 6.2458-0.5143zm178.95-60.291v-56.212h-6.4718-6.4718l0.0378 53.37 0.0378 53.37 3.7626 1.6145c4.2502 1.8238 6.6561 2.9061 7.9766 3.5883 0.49666 0.2566 0.95381 0.46979 1.0159 0.47378 0.0621 0.004 0.11288-25.288 0.11288-56.205zm-8.1219 45.948c-2.3913-0.91799-3.6429-3.8492-2.7092-6.3447 1.8525-4.9512 9.4976-3.611 9.4893 1.6635-0.006 3.6406-3.395 5.9807-6.7801 4.6812zm3.1569-2.4152c1.0209-0.69482 1.4283-1.6793 1.1402-2.7554-0.7607-2.8414-4.9043-2.3254-4.9043 0.61074 0 1.9326 2.2185 3.1966 3.7641 2.1446zm-2.8788-18.381c-5.377-1.9215-3.8003-9.8424 1.899-9.5402 5.1648 0.27392 6.4057 7.183 1.6848 9.381-0.89916 0.41864-2.6412 0.49601-3.5838 0.15916zm2.6966-2.4126c1.385-0.72354 1.8522-2.4936 0.97203-3.6822-1.1125-1.5023-3.1576-1.4439-4.2117 0.12024-1.3307 1.9746 1.1202 4.6693 3.2397 3.562zm-1.9563-18.308c-3.8448-0.62541-5.3932-5.5748-2.6136-8.3543 2.2344-2.2344 6.119-1.7735 7.6933 0.91278 2.147 3.6636-0.89638 8.122-5.0797 7.4416zm2.3015-2.7538c2.007-1.4058 1.0033-4.6125-1.4438-4.6125-2.4585 0-3.4109 3.0732-1.4113 4.5539 0.74539 0.55197 2.1106 0.57997 2.855 0.0585zm-2.3885-18.161c-3.7959-0.78084-5.2741-5.5202-2.5832-8.2828 2.6176-2.6874 7.2195-1.5813 8.2812 1.9905 1.0337 3.4776-2.1719 7.0177-5.698 6.2923zm2.3886-2.783c1.2994-0.83346 1.4358-2.8672 0.26358-3.9294-1.6184-1.4666-4.1907-0.37448-4.1907 1.7793 0 2.1032 2.1582 3.2848 3.9271 2.1501zm-2.5726-18.181c-5.5124-1.5849-4.7901-9.3387 0.90301-9.6937 4.528-0.28234 6.9016 5.0739 3.6887 8.3237-1.2845 1.2993-3.0281 1.8195-4.5917 1.3699zm2.5726-2.733c0.96684-0.63049 1.3664-2.1702 0.83162-3.2044-1.1999-2.3204-4.7588-1.529-4.7588 1.0582 0 2.1226 2.1562 3.301 3.9271 2.1462zm-374.5 93.398c0.7515-1.5657 2.1302-3.3542 4.0521-5.2566l1.7255-1.708-0.38251-0.70008c-2.2359-4.0921-10.119-17.836-10.475-18.262-3.1896-3.8204-10.021 0.41993-7.9692 4.9464 0.33324 0.73505 12.389 22.014 12.474 22.018 0.04139 0.002 0.30022-0.46516 0.57518-1.038zm45.612-0.93984c5.2287-1.8698 12.264-4.1454 18.115-5.8591 1.2209-0.35762 2.2199-0.72291 2.2199-0.81175 0-0.24408-2.7658-5.2602-4.3575-7.9029-3.4045-5.6524-9.3302-14.093-12.101-17.238-3.445-3.9094-10.447-1.4094-10.751 3.8383-0.12528 2.164-0.57294 1.2279 6.8584 14.342l4.0735 7.1886-1.2299 0.92681c-2.1649 1.6314-6.6996 5.8242-7.5006 6.9351l-0.30027 0.41645 0.78529-0.30953c0.43191-0.17025 2.3167-0.8572 4.1885-1.5266zm114.4-6.5388c6.5678-0.81258 16.173-3.8856 17.493-5.5968 1.9934-2.5838 5.6279-4.9971 9.7917-6.5017 0.82238-0.29716 1.4585-0.61211 1.4594-0.72258 0.002-0.25783-13.682-81.771-13.769-82.016-0.0528-0.14907-3.7803-0.18813-17.956-0.18813h-17.889l-0.2605 2.8219c-1.152 12.479-3.3269 18.779-8.9243 25.849-1.2689 1.6027-4.6887 5.3404-5.4082 5.911-1.0097 0.80072-4.5858 4.4818-4.6665 4.8036-0.4651 1.8531 7.6811 4.4651 10.138 3.2507 2.1075-1.0416 4.0404-0.91572 7.628 0.4967 3.0354 1.195 3.5786 1.119 4.3966-0.61578 0.41582-0.88178 0.44222-1.3919 0.12694-2.4535-0.25248-0.8502-0.0696-1.5377 0.46336-1.7423 2.35-0.90176 2.9543 3.8351 0.83133 6.5156-1.4588 1.8418-3.0232 2.0087-6.3314 0.67537-2.9344-1.1826-4.1604-1.3976-5.503-0.96465-0.98408 0.31734-0.98631 0.33264-0.26072 1.788l0.66505 1.3339 1.3015 0.10561c9.7754 0.79317 17.162 4.898 24.666 13.708 3.614 4.2428 4.3635 4.6271 6.7093 3.44 3.9911-2.0196 4.4912-8.0572 0.92661-11.187-0.6544-0.57457-0.5028-0.5799 0.47888-0.0168 5.6089 3.2171 4.7634 12.973-1.3956 16.102-2.9959 1.5224-5.2316 0.93482-9.984-2.6242-10.601-7.9387-19.082-11.204-25.054-9.6455-1.3939 0.36378-1.4125 0.39545-0.75629 1.2894 0.95543 1.3016 1.3132 1.4922 3.1234 1.6637 3.7738 0.35757 8.2867 1.4445 10.388 2.5018 0.75818 0.38155 0.93904 0.65028 0.37626 0.55906-11.903-1.9292-11.295-1.9122-12.301-0.34442-0.66287 1.0334-1.2064 2.0696-1.2064 2.2998 0 0.0343 0.45504 0.35819 1.0112 0.71971 4.2843 2.7849 5.1344 6.199 3.1102 12.491-0.86757 2.6968-0.80225 3.1118 0.9419 5.9847 4.912 8.0906 14.007 11.747 25.639 10.308zm-12.51-66.639c-0.92632-0.33103-1.7602-1.0441-2.5244-2.1588l-0.33267-0.48519 1.0233 0.38993c2.0889 0.79596 3.6181 1.2738 4.9238 1.5388 0.73806 0.14974 1.2799 0.30994 1.204 0.35601-0.84908 0.5157-3.2858 0.7196-4.294 0.35932zm0.21091-4.6034c-1.5714-0.95815-2.6651-4.2243-2.1064-6.2904l0.21421-0.79212-0.91912 0.0929c-1.135 0.11472-1.4739-0.10697-2.1752-1.4228-0.55654-1.0442-0.63518-0.96631 1.2294-1.2169 4.8672-0.65421 9.3188 0.49482 12.756 3.2925 1.8093 1.4727 2.4785 1.9154 4.0363 2.6704 1.473 0.7139 3.7801 1.5544 4.2666 1.5544 0.5059 0 0.13577 0.25892-0.5229 0.36579-1.6795 0.27251-6.7974 0.98872-7.0652 0.98872-0.28316 0-0.27771-0.02872 0.0877-0.46305 1.31-1.5568-0.55435-3.4847-4.8493-5.0146-1.5047-0.53602-1.534-0.53065-1.3525 0.24775 0.8048 3.4514-1.4923 7.2723-3.5996 5.9874zm18.622-8.557c-2.233-5.109-11.06-6.582-23.171-3.8666-1.2783 0.28661-2.3475 0.49781-2.376 0.46933-0.0512-0.05118 0.68312-4.9306 0.75161-4.9945 0.0897-0.08362 2.784-0.53003 4.5505-0.75392 11.27-1.4284 19.032 1.6632 20.476 8.1559 0.35772 1.608 0.24679 2.0831-0.2311 0.98973zm-157.18 77.689c1.1989-0.89437 4.0365-2.8135 5.745-3.8854 0.6915-0.43384-14.398-28.386-16.948-31.395-3.3368-3.9375-10.022 0.42859-7.838 5.119 0.62046 1.3325 17.517 31.154 17.652 31.154 0.032 0 0.6569-0.44665 1.3887-0.99253zm10.875-6.8924c1.2491-0.69457 3.252-1.7612 4.4509-2.3704 1.1989-0.60915 2.1805-1.1527 2.1815-1.208 0.0044-0.26231-20.398-34.728-20.814-35.161-3.4383-3.5777-9.8192 0.4827-7.8742 5.0106 0.22496 0.52371 19.687 34.992 19.758 34.992 0.01475 0 1.0488-0.56828 2.2979-1.2628zm323.71-1.1547c2.2216-0.24323 5.4671-0.9455 5.4381-1.1767-0.006-0.0512-0.70061-0.55235-1.5426-1.1137-0.84203-0.56137-1.8431-1.2924-2.2247-1.6246l-0.69373-0.6039-0.96179 0.15605c-6.7288 1.0918-16.502-1.9646-24.724-7.7321-23.457-16.454-28.514-47.955-11.158-69.507 9.4195-11.697 24.936-19.401 35.902-17.826l0.83138 0.11946 0.97464-0.84725c0.53606-0.46599 1.5665-1.2443 2.2898-1.7296 0.72331-0.48527 1.2549-0.9195 1.1814-0.96496-4.2082-2.6008-16.485-1.0977-25.035 3.065-21.708 10.569-34.942 35.153-30.513 56.68 5.001 24.305 29.55 45.37 50.235 43.105zm-309.55-5.88c1.4486-0.65208 2.6853-1.2031 2.7483-1.2245 0.06298-0.0214-0.01757-0.4147-0.179-0.87401s-0.34088-1.204-0.39876-1.655c-0.16349-1.2736-15.489-28.621-16.781-29.947-3.4485-3.5349-9.5536 0.11662-7.934 4.7454 0.16307 0.46603 16.441 29.413 17.369 30.886l0.21057 0.33449 1.1656-0.5403c0.6411-0.29717 2.3508-1.0738 3.7994-1.7259zm308.32-1.0742c-4.528-6.2794-6.8111-13.339-7.8517-24.277l-0.10105-1.0621 2.0107-0.41261c1.1059-0.22693 3.2975-0.68489 4.8703-1.0177 1.5727-0.33279 7.1262-1.5012 12.341-2.5965l9.4816-1.9915 0.0394-5.749 0.0394-5.749h-31.629-31.629l0.0872 1.3169c0.48631 7.3397 3.3074 15.267 7.7528 21.785 7.9204 11.614 21.597 20 32.745 20.077l2.0878 0.0146-0.24418-0.33863zm20.79-51.232-0.0395-5.3671-4.1388-0.87154c-2.2763-0.47935-8.7103-1.8267-14.298-2.994-5.5874-1.1674-10.229-2.1448-10.314-2.1721-0.1055-0.03373-0.0929-0.74268 0.0392-2.2116 0.99033-11.011 3.2732-18.67 7.1928-24.133 0.45355-0.63215 0.82463-1.1791 0.82463-1.2155 0-0.41037-5.2903 0.04516-7.9228 0.68219-18.737 4.5341-33.756 22.555-34.62 41.537l-0.0961 2.113h31.706 31.706l-0.0395-5.3671zm-97.174-30.05c2.1236-1.1215 2.0301-4.1401-0.16445-5.313-0.63482-0.33928-129.88-0.53156-131.51-0.19565-2.8238 0.58292-3.2879 4.2793-0.70582 5.6223 0.40706 0.21171 6.9116 0.23491 66.084 0.23575l65.633 0.000903 0.6633-0.35031zm113.16-8.0778v-2.5585h-6.4716-6.4716v2.5585 2.5585h6.4716 6.4716v-2.5585zm-117.99-4.0635v-4.5151h-61.48-61.48v4.5151 4.515h61.48 61.48v-4.515zm117.99-2.9348v-2.4833h-6.4716-6.4716v2.4833 2.4833h6.4716 6.4716v-2.4833zm-113.52-3.775c2.0242-0.84557 2.5455-3.2815 1.0272-4.7999-1.0802-1.0802 4.5772-1.0001-67.302-0.95351l-65.33 0.04232-0.72901 0.4515c-2.0346 1.2601-1.8641 4.2095 0.30112 5.2089 0.85921 0.39655 131.08 0.44658 132.03 0.05072zm113.51-3.7546v-2.0318h-6.4716-6.4716v2.0318 2.0318h6.4716 6.4716v-2.0318zm-115.83-12.905c8.1322-9.1535 7.5944-8.3411 4.1536-6.2753-25.484 15.3-51.491 12.667-71.881-7.2787-1.4642-1.4323-2.1977-2.0517-2.3328-1.9699-0.10834 0.065637-0.70493 0.53596-1.3258 1.0452-14.412 11.821-30.964 18.881-42.147 17.977-7.5808-0.6123-19.08-4.8219-26.56-9.7227-0.80913-0.53016-0.15333 0.10837 5.8325 5.6789 3.4131 3.1763 6.839 6.3677 7.613 7.092l1.4074 1.3169h59.127 59.127l6.9863-7.8637zm121.86 5.3795v-2.4842l-12.003 0.03852-12.002 0.03853-0.0414 2.4457-0.0413 2.4457h12.044 12.044v-2.4842zm-144.24-4.5c12.151-1.5971 24.96-7.5859 36.051-16.855 1.6534-1.3818 3.859-3.5891 4.0125-4.0155 0.0308-0.085386-33.109-0.13937-85.559-0.13937h-85.609l2.858 2.8677c9.7544 9.7873 27.66 18.074 39.129 18.11 10.856 0.03347 26.12-6.9981 39.836-18.351 1.9441-1.6091 1.8136-1.6404 4.4977 1.0759 10.083 10.204 22.531 16.471 34.906 17.575 1.5631 0.13938 8.1371-0.03864 9.8782-0.26749zm133.4-1.517c5.9956-1.5955 8.0453-9.04 3.6884-13.397-5.0608-5.0608-13.609-1.5119-13.619 5.6541-0.007 5.1929 4.9594 9.0655 9.9302 7.7427zm-75.024 383.95c-5.6966-1.885-5.5799-9.5108 0.16852-11.008 5.9703-1.5551 10.234 5.3976 5.8512 9.5422-1.5393 1.4558-4.1378 2.0885-6.0197 1.4658zm3.5546-2.6257c2.1011-1.0976 2.4731-3.5865 0.77051-5.1551-3.1942-2.9429-8.1361 0.99474-5.4057 4.3072 1.0496 1.2733 3.1021 1.6488 4.6352 0.84791zm21.203-8.8596c-14.872-2.3093-20.767-19.347-10.204-29.489 10.765-10.335 29.442-4.0486 31.131 10.478 1.2903 11.099-9.3912 20.803-20.927 19.011zm5.6653-4.9577c9.2494-1.8853 13.578-12.231 8.1266-19.423-6.0311-7.9568-18.997-6.8539-23.274 1.9797-4.5612 9.4217 4.3205 19.65 15.147 17.443zm-39.485-2.9792c-4.9433-1.6084-5.523-8.3433-0.90614-10.527 6.0375-2.8562 11.722 4.1455 7.2481 8.9281-1.4496 1.5497-4.2917 2.2664-6.342 1.5993zm3.4971-2.4794c3.0243-1.3738 2.5276-5.4683-0.75237-6.2024-3.4676-0.77599-5.9121 3.1938-3.4146 5.5451 0.99187 0.93382 2.8968 1.2343 4.167 0.65725zm68.233-8.3646c-4.412-1.2167-5.8428-6.5009-2.5925-9.5749 2.7189-2.5714 7.3913-2.0568 9.356 1.0305 2.8297 4.4466-1.5518 9.9817-6.7635 8.5444zm3.5888-2.7379c3.1671-1.958 1.506-6.3417-2.2877-6.0372-4.6711 0.37496-4.1224 6.749 0.5616 6.5235 0.80788-0.0389 1.1652-0.13957 1.7261-0.48638zm-11.64-16.77c-5.0045-1.7265-5.3636-8.3098-0.5755-10.55 4.0879-1.913 8.8902 1.1578 8.6112 5.5063-0.24303 3.7869-4.2994 6.3331-8.0357 5.0441zm3.6278-2.4539c1.2883-0.60904 2.0318-1.6894 2.0318-2.9524 0-2.9467-3.9802-4.4093-6.222-2.2863-2.7707 2.6239 0.65679 6.909 4.1902 5.2386zm-0.99632-88.531c-6.3289-2.1246-6.9387-10.947-0.96021-13.891 5.799-2.8558 12.273 2.458 10.635 8.7298-1.0787 4.1323-5.5831 6.5353-9.6752 5.1616zm4.4882-2.4562c2.5926-1.1273 3.7546-4.3856 2.4842-6.9661-2.373-4.8203-9.6634-3.0912-9.6634 2.292 0 3.7277 3.7464 6.1668 7.1792 4.6741zm-30.568-12.441c-13.946-2.5185-19.168-19.843-8.9358-29.649 10.522-10.083 27.93-3.5282 29.31 11.035 1.0667 11.257-9.1951 20.632-20.375 18.613zm6.3817-4.994c13.916-4.215 11.243-24.544-3.2358-24.614-15.326-0.0746-17.099 22.529-1.9565 24.936 1.0588 0.16831 4.2218-0.0276 5.1923-0.32155zm-34.16-28.42c-4.8555-1.301-7.0307-7.2438-4.2019-11.48 3.2456-4.8604 10.527-4.3014 13.049 1.0018 2.7523 5.7866-2.6183 12.147-8.8472 10.478zm4.2962-2.6534c3.082-1.5823 3.8476-5.4993 1.5634-7.9986-3.269-3.5768-8.9498-1.3163-8.9066 3.5441 0.032 3.6091 4.1381 6.0999 7.3432 4.4544zm-31.537-8.2836c-5.5242-1.8903-7.0972-8.5924-2.951-12.574 4.8239-4.6321 12.734-1.2339 12.734 5.4706 0 4.9914-5.1102 8.7018-9.7826 7.103zm4.446-2.5196c2.5956-1.2549 3.6907-4.5485 2.3404-7.0387-2.4568-4.5308-9.2773-3.0963-9.613 2.0218-0.25576 3.8995 3.7988 6.6964 7.2726 5.0169z"/>
</svg>
